<?xml version="1.0" encoding="UTF-8"?>
<!DOCTYPE svg PUBLIC "-//W3C//DTD SVG 1.1//EN" "http://www.w3.org/Graphics/SVG/1.1/DTD/svg11.dtd">
<!-- Creator: CorelDRAW -->
<svg xmlns="http://www.w3.org/2000/svg" xml:space="preserve" width="2048px" height="2048px" style="shape-rendering:geometricPrecision; text-rendering:geometricPrecision; image-rendering:optimizeQuality; fill-rule:evenodd; clip-rule:evenodd"
viewBox="0 0 2048 2048"
 xmlns:xlink="http://www.w3.org/1999/xlink">
 <defs>
  <style type="text/css">
   <![CDATA[
    .fil1 {fill:none}
    .fil0 {fill:#212121;fill-rule:nonzero}
   ]]>
  </style>
 </defs>
 <g id="Layer_x0020_1">
  <metadata id="CorelCorpID_0Corel-Layer"/>
  <path class="fil0" d="M1357.2 454.557c-6.52323,-1.06063 -12.6732,3.36733 -13.7339,9.89056 -1.06063,6.52323 3.36733,12.6732 9.89056,13.7339 18.5291,3.04016 37.1398,6.88938 55.8048,11.6079 18.6331,4.71024 37.0701,10.2248 55.2579,16.6028 13.1173,4.59804 23.1496,20.5004 30.1158,45.2989 8.09056,28.7965 11.4839,68.3587 10.3382,115.647 -0.154725,6.60119 5.07048,12.0791 11.6717,12.2339 6.60119,0.154725 12.0791,-5.07048 12.2339,-11.6717 1.20354,-49.7032 -2.46614,-91.6572 -11.1815,-122.676 -9.13229,-32.5087 -24.1453,-54.0083 -45.3024,-61.4256 -19.1221,-6.70512 -38.2406,-12.437 -57.3201,-17.2595 -19.0465,-4.81418 -38.3209,-8.78859 -57.7748,-11.9811zm167.389 280.994c0.62126,-6.5752 -4.20591,-12.411 -10.7811,-13.0323 -6.5752,-0.62126 -12.411,4.20591 -13.0323,10.7811 -0.661418,6.94961 -1.50709,14.8488 -2.5252,23.6445 -1.00748,8.70001 -2.03268,16.8933 -3.07087,24.5811 -0.879922,6.54922 3.71693,12.5728 10.2661,13.4528 6.54922,0.879922 12.5728,-3.71693 13.4528,-10.2661 1.22599,-9.08505 2.28425,-17.4473 3.16536,-25.0488 0.853938,-7.37127 1.69725,-15.4028 2.5252,-24.1122zm-28.8461 101.052c-6.23859,-2.17441 -13.0606,1.12087 -15.2351,7.35945 -1.5189,4.35709 -0.368504,8.99764 2.58898,12.1429 0.634252,-3.32599 1.19764,-6.34134 1.68662,-9.03072l6.87993 1.23307 -3.79607 10.8898c-1.8815,-0.655512 -3.4937,-1.73504 -4.77048,-3.09213 -0.793701,4.15748 -1.69725,8.79922 -2.70473,13.8945 -1.60866,8.1378 -3.19843,15.9 -4.76575,23.2996 -1.37126,6.47126 2.76378,12.8315 9.23505,14.2028 6.47126,1.37126 12.8315,-2.76378 14.2028,-9.23505 1.77165,-8.36575 3.39685,-16.2732 4.86024,-23.6729 1.20945,-6.1193 2.60433,-13.4847 4.19646,-22.2248 0.0814961,-0.296457 0.151181,-0.598819 0.210236,-0.905906 1.25787,-6.5067 -2.99528,-12.8032 -9.50198,-14.061l-2.27953 11.7815 2.25 -11.7662c-0.448819,-0.0862205 -0.969686,-0.210236 -1.55197,-0.367323 -0.664961,-0.179528 -1.16693,-0.329528 -1.50473,-0.447638zm-25.2343 111.477c-6.23859,-2.17441 -13.0606,1.12087 -15.2351,7.35945 -1.57205,4.51063 -0.285827,9.32363 2.90551,12.4677 0.825591,-3.23386 1.66536,-6.55867 2.51929,-9.97087l5.86418 1.46575 -3.92953 11.2724c-1.72795,-0.602363 -3.2315,-1.5626 -4.45394,-2.76732 -1.1752,4.60985 -2.32087,9.03426 -3.43465,13.2638 -2.16024,8.20512 -4.27087,16.0276 -6.32126,23.4213 -1.75984,6.36733 1.97599,12.9591 8.34331,14.7189 6.36733,1.75984 12.9591,-1.97599 14.7189,-8.34331 2.32205,-8.37166 4.45748,-16.2614 6.41575,-23.7024 2.16024,-8.20631 4.12441,-15.8303 5.89371,-22.8945 0.159449,-0.518504 0.284646,-1.05473 0.37441,-1.6063 1.06063,-6.54095 -3.38268,-12.7063 -9.92363,-13.7669l-1.92166 11.8453 1.87559 -11.8122c-0.340158,-0.0543308 -0.947245,-0.193701 -1.8248,-0.416929 -0.83504,-0.212599 -1.46221,-0.392126 -1.86614,-0.533859zm-27.952 111.826c-6.23859,-2.17441 -13.0606,1.12087 -15.2351,7.35945 -0.929528,2.66575 -0.858662,5.43898 0.0129921,7.90985 0.722835,-2.26299 1.44331,-4.53426 2.16142,-6.81497l9.12284 2.84173 -3.9378 11.2984c-3.57284,-1.24488 -6.17835,-4.01457 -7.34646,-7.3252 -1.55197,4.85788 -3.11339,9.67442 -4.68189,14.4484 -1.99252,6.06497 -4.01811,12.1311 -6.07323,18.1878 -0.568111,0.825591 -1.04291,1.73504 -1.39961,2.72008 -2.17559,6.00237 0.747638,12.6118 6.55158,15.0839 -5.44961,-2.57126 -8.21694,-8.88308 -6.2256,-14.7213l0.022441 0.00708662 1.05118 -3.08977c3.01418,-4.37363 8.70119,-6.34725 13.9288,-4.45158l-4.08189 11.2595 -10.898 -3.71811 -0.00826772 0.0236221 10.9063 3.69567 -4.07481 11.2394c-0.210236,-0.0767717 -0.416929,-0.158268 -0.620079,-0.244488 0.405118,0.190158 0.82441,0.362599 1.25787,0.510237 6.27166,2.13898 13.0925,-1.21181 15.2315,-7.48347l-11.3575 -3.87402 11.3433 3.84331c2.45788,-7.20591 4.86851,-14.4036 7.22717,-21.5823 2.3126,-7.04174 4.55552,-13.9925 6.71457,-20.8347 0.138189,-0.36378 0.259843,-0.73819 0.36378,-1.12087 1.73977,-6.39449 -2.03268,-12.9898 -8.42717,-14.7295l-3.15118 11.5784 3.14055 -11.5784c-0.825591,-0.22441 -0.510237,-0.113386 -0.783071,-0.197244 -0.269292,-0.0826772 -0.514961,-0.164173 -0.734646,-0.240945zm-27.2032 122.072c2.35512,-6.18662 -0.750001,-13.1138 -6.93662,-15.4689 -6.18662,-2.35512 -13.1138,0.750001 -15.4689,6.93662 -3.90118,10.2366 -7.32048,19.0394 -10.2413,26.3634 -2.45315,6.15 -5.22402,12.9508 -8.3256,20.4343 -1.70906,1.33583 -3.07677,3.15236 -3.87048,5.34213 -2.23465,6.163 0.908268,12.965 7.02402,15.2728 -5.76851,-2.60906 -8.55237,-9.30946 -6.22796,-15.2811 0.585827,-1.50473 1.44095,-2.82284 2.48977,-3.92363l0.584646 -1.41024c3.10866,-2.43071 7.34764,-3.27047 11.3362,-1.87205 -4.35,-1.22008 -8.92442,0.138189 -11.9209,3.28229l-1.64173 3.94134 -0.0200788 -0.00826772c-2.42481,5.81103 0.0614174,12.4476 5.563,15.2835l-0.0153543 0.0437008 -0.147638 -0.0555119c0.198425,0.0897638 0.398032,0.174803 0.602363,0.253937l0.00944883 -0.0236221 0.43937 0.194882c6.11575,2.55236 13.1445,-0.335433 15.6969,-6.45119l-11.074 -4.62284 11.0622 4.59331c3.19252,-7.64764 6.75355,-16.4008 10.6547,-26.1803 4.1126,-10.311 7.58623,-19.187 10.428,-26.6445zm-48.2197 114.467c2.76969,-6.00591 0.146457,-13.1221 -5.85945,-15.8917 -6.00591,-2.76969 -13.1221,-0.146457 -15.8917,5.85945 -3.52087,7.58623 -6.98977,14.9303 -10.3913,21.9874 -2.13898,4.44095 -4.18583,8.64804 -6.13111,12.6036 -9.79607,-1.90394 -19.6784,-0.46063 -28.2697,3.66969 -10.4965,5.04685 -19.0654,14.0894 -23.2169,25.9288 -3.64134,10.3913 -3.26811,21.2374 0.307087,30.8398 2.26417,6.08032 5.80512,11.6528 10.4161,16.2874 -2.44843,4.29685 -4.7315,8.25237 -6.84804,11.863 -3.76536,6.4252 -7.88386,13.2921 -12.3366,20.5784 -3.44173,5.64331 -1.65827,13.011 3.98504,16.4528 5.64331,3.44173 13.011,1.65827 16.4528,-3.98504 3.93307,-6.43465 8.10827,-13.4173 12.5232,-20.9516 4.49055,-7.66064 8.45198,-14.5417 11.8807,-20.6386 0.0933072,-0.147638 0.184252,-0.297638 0.271654,-0.45 3.28819,-5.75315 1.28858,-13.0843 -4.46457,-16.3725l-0.00590552 0.00944883c-4.46811,-2.55473 -7.75985,-6.54686 -9.4689,-11.1366 -1.68662,-4.52835 -1.85315,-9.66969 -0.11811,-14.6209 1.96299,-5.59843 6,-9.8693 10.9358,-12.2421 4.963,-2.38583 10.8496,-2.87599 16.4764,-0.903544 0.231496,0.080315 0.629528,0.240945 1.18701,0.473622 0.173622,0.0720473 0.435827,0.191339 0.772442,0.35315l0.244488 0.127559c5.92205,2.97402 13.1362,0.585827 16.1102,-5.33622l-10.7232 -5.38701 10.6878 5.34331c4.08189,-8.12717 7.69843,-15.4677 10.8945,-22.1008 3.69095,-7.65827 7.213,-15.1063 10.5803,-22.3606zm-114.449 202.595c3.75355,-5.43544 2.38937,-12.887 -3.04607,-16.6406 -5.43544,-3.75355 -12.887,-2.38937 -16.6406,3.04607 -5.76851,8.33977 -11.778,16.7563 -18.0248,25.239 -5.84882,7.94056 -11.935,15.9402 -18.2634,23.9941 -4.09016,5.20276 -3.1878,12.7382 2.01496,16.8284 5.20276,4.09016 12.7382,3.1878 16.8284,-2.01496 6.18308,-7.86851 12.4311,-16.0937 18.7335,-24.6508 6.07441,-8.24883 12.2114,-16.8567 18.398,-25.8012zm-80.2902 101.302c4.45158,-4.86615 4.11614,-12.4228 -0.750001,-16.8744 -4.86615,-4.45158 -12.4228,-4.11614 -16.8744,0.750001 -6.84331,7.47166 -14.028,14.9906 -21.554,22.5484 -7.11851,7.14922 -14.4508,14.2004 -21.9921,21.1417 -4.86615,4.47756 -5.18032,12.0555 -0.702756,16.9217 4.47756,4.86615 12.0555,5.18032 16.9217,0.702756 7.56733,-6.96497 15.1512,-14.2677 22.741,-21.8906 7.26379,-7.29567 14.6717,-15.0685 22.2106,-23.2996zm-97.2851 88.5792c5.3067,-3.93425 6.41812,-11.4284 2.48386,-16.7351 -3.93425,-5.3067 -11.4284,-6.41812 -16.7351,-2.48386 -6.36378,4.69607 -12.9343,9.28465 -19.6784,13.7681 -6.49607,4.31811 -13.2354,8.57009 -20.1839,12.7583 -5.6693,3.41693 -7.49528,10.7847 -4.07835,16.4539 3.41693,5.6693 10.7847,7.49528 16.4539,4.07835 6.90709,-4.16339 13.9158,-8.59489 21.0272,-13.3228 6.85985,-4.56024 13.7669,-9.39213 20.7106,-14.5169zm-102.86 59.0894c6.10867,-2.53583 9.00473,-9.54686 6.4689,-15.6555 -2.53583,-6.10867 -9.54686,-9.00473 -15.6555,-6.4689 -8.80631,3.68386 -17.5784,6.9756 -26.3067,9.89292 -8.87835,2.96811 -17.85,5.61496 -26.8996,7.95355 -6.39449,1.65591 -10.2343,8.18386 -8.57835,14.5784 1.65591,6.39449 8.18386,10.2343 14.5784,8.57835 9.59765,-2.48032 19.102,-5.28426 28.4941,-8.42363 9.54331,-3.19016 18.8528,-6.67087 27.8988,-10.4551zm-122.891 30.0201c6.60119,-0.517323 11.5323,-6.28937 11.015,-12.8906 -0.517323,-6.60119 -6.28937,-11.5323 -12.8906,-11.015 -9.42284,0.77126 -18.6024,1.17638 -27.5351,1.22244 -9.12875,0.0472441 -18.5953,-0.263386 -28.3831,-0.922442 -6.60119,-0.43937 -12.3106,4.55433 -12.75,11.1555 -0.43937,6.60119 4.55433,12.3106 11.1555,12.75 9.86812,0.664961 19.8945,0.975591 30.0721,0.922442 10.1941,-0.0519685 19.9736,-0.457087 29.3162,-1.22244zm-112.273 -17.8205c2.09646,-6.26457 -1.2815,-13.0441 -7.54607,-15.1406 -1.12677,-0.376772 -2.2689,-0.575197 -3.39803,-0.614174l2.19685 0.510237 -2.61851 11.4402 -11.3209 -3.79016c1.71969,-5.1378 6.59056,-8.33268 11.7425,-8.16024 -4.48819,-1.05473 -9.13229,-2.22284 -13.9524,-3.51614 -5.4567,-1.46457 -10.8827,-3.03189 -16.2602,-4.71615 -4.39016,-1.37244 -7.99134,-2.62677 -11.5949,-3.87992 -2.21457,-0.77126 -4.44449,-1.54725 -6.96969,-2.39528 -6.26457,-2.09646 -13.0441,1.2815 -15.1406,7.54607 -2.09646,6.26457 1.2815,13.0441 7.54607,15.1406 2.07047,0.69567 4.37599,1.49764 6.68859,2.30315 4.26142,1.4811 8.52993,2.96811 12.3461,4.16103 5.82756,1.8248 11.5595,3.48425 17.198,4.99725 5.24056,1.40669 10.6571,2.74961 16.2177,4.03465 6.17126,1.85551 12.7453,-1.51063 14.8181,-7.663l-11.3717 -3.83032 11.3433 3.79725 0.0755906 -0.22441zm-128.496 -30.3402c6.10867,2.53583 13.1197,-0.360236 15.6555,-6.4689 2.53583,-6.10867 -0.360236,-13.1197 -6.4689,-15.6555 -8.43426,-3.53268 -16.6536,-7.17284 -24.678,-10.8969 -8.13308,-3.77362 -15.9744,-7.58741 -23.563,-11.4284 -5.90197,-2.97638 -13.102,-0.604725 -16.0784,5.29725 -2.97638,5.90197 -0.604725,13.102 5.29725,16.0784 8.01969,4.05827 16.1221,8.00316 24.3118,11.8039 8.29725,3.85158 16.7965,7.61575 25.5236,11.2701zm-107.889 -55.9642c5.56536,3.57166 12.9756,1.95591 16.5473,-3.60945 3.57166,-5.56536 1.95591,-12.9756 -3.60945,-16.5473 -8.39883,-5.37993 -16.5331,-10.9571 -24.4347,-16.6914 -7.9878,-5.79567 -15.5516,-11.6079 -22.7658,-17.4248 -5.15079,-4.14213 -12.6862,-3.32244 -16.8284,1.82835 -4.14213,5.15079 -3.32244,12.6862 1.82835,16.8284 7.75867,6.2563 15.652,12.3319 23.7036,18.1736 8.1378,5.90434 16.637,11.7272 25.5591,17.4425zm-98.5312 -81.0733c4.52953,4.81418 12.1075,5.04567 16.9217,0.516142 4.81418,-4.52953 5.04567,-12.1075 0.516142,-16.9217 -5.78859,-6.14764 -11.4059,-12.4536 -16.8307,-18.9165 -5.40591,-6.44056 -10.5083,-12.9047 -15.2799,-19.3819 -3.90827,-5.33268 -11.4024,-6.48662 -16.7351,-2.57835 -5.33268,3.90827 -6.48662,11.4024 -2.57835,16.7351 5.18268,7.03701 10.5969,13.9028 16.2177,20.6008 5.60197,6.67323 11.5335,13.3252 17.7685,19.9465zm-69.7878 -98.869c2.97638,5.90197 10.1764,8.27363 16.0784,5.29725 5.90197,-2.97638 8.27363,-10.1764 5.29725,-16.0784 -4.39134,-8.7189 -8.3941,-17.4626 -12.0083,-26.2217 -3.60355,-8.73426 -6.90591,-17.7012 -9.90119,-26.8914 -2.04449,-6.29056 -8.80276,-9.73229 -15.0933,-7.6878 -6.29056,2.04449 -9.73229,8.80276 -7.6878,15.0933 3.09685,9.50079 6.61772,19.0299 10.5579,28.5803 3.91772,9.49489 8.17087,18.802 12.7571,27.9083zm-39.2079 -123.536c0.982678,6.54922 7.09134,11.061 13.6406,10.0784 6.54922,-0.982678 11.061,-7.09134 10.0784,-13.6406 -1.38898,-9.2067 -2.47087,-18.4902 -3.24567,-27.8303 -0.817323,-9.84213 -1.3063,-19.3323 -1.47165,-28.4681 -0.102756,-6.60119 -5.53937,-11.8677 -12.1406,-11.765 -6.60119,0.102756 -11.8677,5.53937 -11.765,12.1406 0.190158,10.4882 0.679134,20.5158 1.47165,30.0603 0.818505,9.8693 1.96181,19.6831 3.43229,29.4248zm-1.64646 -127.21c-0.750001,6.5752 3.97205,12.5162 10.5473,13.2662 6.5752,0.750001 12.5162,-3.97205 13.2662,-10.5473 0.992127,-8.54174 2.22284,-17.0209 3.64961,-25.4362 1.43032,-8.44135 3.09213,-16.9996 4.93701,-25.6441 1.37126,-6.47126 -2.76378,-12.8315 -9.23505,-14.2028 -6.47126,-1.37126 -12.8315,2.76378 -14.2028,9.23505 -1.88268,8.82166 -3.60473,17.7118 -5.12363,26.674 -1.5248,8.98938 -2.81929,17.8843 -3.83859,26.6551zm26.7248 -119.132c-2.04449,6.29056 1.39725,13.0488 7.6878,15.0933 6.29056,2.04449 13.0488,-1.39725 15.0933,-7.6878 3.13465,-9.59646 6.48189,-19.1079 10.0287,-28.526 3.04488,-8.08111 6.26221,-16.1728 9.64725,-24.2658 1.40551,-1.26969 2.52874,-2.89134 3.21969,-4.79528 2.20394,-6.07914 -0.82441,-12.7819 -6.77599,-15.1772 5.69882,2.60788 8.47087,9.23268 6.21024,15.1748 -0.517323,1.35827 -1.25315,2.56772 -2.15433,3.60473l-0.499607 1.19291c-3.07796,2.77914 -7.50709,3.86693 -11.6953,2.51693 4.50945,1.2248 9.23741,-0.308268 12.1949,-3.70985l1.43032 -3.3815 0.0259843 0.0106299c2.53347,-5.95276 -0.109843,-12.8114 -5.91142,-15.5504l0.00354331 -0.00944883 0.39567 0.151181c-0.239764,-0.109843 -0.485433,-0.212599 -0.735827,-0.308268l-0.00472441 0.0106299 -0.0188977 -0.00708662 -0.0673229 -0.0295276c-6.09686,-2.59606 -13.1469,0.242126 -15.7429,6.33898l11.041 4.70197 -11.0162 -4.6878c-4.21063,9.8882 -8.19922,19.8189 -11.9516,29.7815 -3.73937,9.92717 -7.21182,19.7847 -10.4043,29.5583zm51.4607 -120.496c-3.08032,5.85 -0.83504,13.0913 5.01496,16.1717 5.85,3.08032 13.0913,0.83504 16.1717,-5.01496 4.25788,-8.09174 8.60434,-16.0406 13.0299,-23.8453 4.47166,-7.88386 9.13465,-15.8138 13.9784,-23.7803 3.44173,-5.64331 1.65827,-13.011 -3.98504,-16.4528 -5.64331,-3.44173 -13.011,-1.65827 -16.4528,3.98504 -4.88859,8.03977 -9.6756,16.187 -14.3539,24.4347 -4.67953,8.25237 -9.15237,16.4244 -13.4032,24.502zm64.9985 -105.519c-3.80551,5.38465 -2.5252,12.835 2.85945,16.6406 5.38465,3.80551 12.835,2.5252 16.6406,-2.85945 3.80197,-5.36693 8.54883,-11.85 14.1366,-19.3252 5.43308,-7.26733 10.2992,-13.6347 14.6587,-19.1988 4.06418,-5.20276 3.14055,-12.7169 -2.06221,-16.7811 -5.20276,-4.06418 -12.7169,-3.14055 -16.7811,2.06221 -5.70827,7.28623 -10.7539,13.8484 -15.0343,19.5744 -4.12559,5.5193 -8.90906,12.1099 -14.4177,19.8874zm72.6142 -91.2355c-4.37481,4.9441 -3.913,12.4996 1.0311,16.8744 4.9441,4.37481 12.4996,3.913 16.8744,-1.0311 5.59725,-6.30945 11.6386,-12.9685 18.1973,-20.0327 6.29174,-6.77835 12.5421,-13.3524 18.7335,-19.6748 4.63347,-4.71142 4.57087,-12.2882 -0.140551,-16.9217 -4.71142,-4.63347 -12.2882,-4.57087 -16.9217,0.140551 -6.66497,6.8067 -13.0559,13.5189 -19.2036,20.1425 -5.88071,6.33426 -12.0921,13.2 -18.5705,20.5028zm86.4308 -87.4217c-4.89213,4.45158 -5.24882,12.0295 -0.797245,16.9217 4.45158,4.89213 12.0295,5.24882 16.9217,0.797245 6.08859,-5.53111 12.6047,-11.3268 19.598,-17.4142 6.79607,-5.91615 13.4681,-11.5973 19.9949,-17.0067 5.09882,-4.2189 5.81221,-11.7756 1.59331,-16.8744 -4.2189,-5.09882 -11.7756,-5.81221 -16.8744,-1.59331 -7.11497,5.89725 -13.9276,11.6894 -20.465,17.3799 -6.33662,5.51575 -13.011,11.4673 -19.9713,17.7898zm93.3036 -76.3973c-5.33268,3.90827 -6.48662,11.4024 -2.57835,16.7351 3.90827,5.33268 11.4024,6.48662 16.7351,2.57835 8.63741,-6.35079 17.1721,-12.4252 25.5992,-18.241 8.63505,-5.95985 17.3516,-11.7945 26.1319,-17.5063 5.53937,-3.59764 7.1126,-11.0079 3.51496,-16.5473 -3.59764,-5.53937 -11.0079,-7.1126 -16.5473,-3.51496 -8.98701,5.84646 -17.8914,11.8063 -26.6941,17.8819 -9.01064,6.21851 -17.7437,12.4264 -26.1614,18.6142zm110.583 -71.7178c-5.74725,3.26103 -7.76103,10.5661 -4.5,16.3134 3.26103,5.74725 10.5661,7.76103 16.3134,4.5 7.29922,-4.15276 14.8665,-8.33977 22.7055,-12.5551 7.72087,-4.15158 15.3721,-8.14725 22.9394,-11.9693 5.90197,-2.97638 8.27363,-10.1764 5.29725,-16.0784 -2.97638,-5.90197 -10.1764,-8.27363 -16.0784,-5.29725 -8.00552,4.04292 -15.8374,8.12953 -23.5016,12.2504 -7.54607,4.05827 -15.2776,8.34213 -23.1756,12.8362zm107.923 -53.5559c-6.08386,2.58898 -8.91733,9.62009 -6.32835,15.7039 2.58898,6.08386 9.62009,8.91733 15.7039,6.32835 6.81024,-2.90433 13.5496,-5.69882 20.204,-8.36575 7.11733,-2.85236 13.9016,-5.48859 20.3091,-7.8815 6.18662,-2.30315 9.33426,-9.1878 7.03111,-15.3744 -2.30315,-6.18662 -9.1878,-9.33426 -15.3744,-7.03111 -7.36536,2.74961 -14.3126,5.43898 -20.8713,8.06812 -7.02166,2.81457 -13.911,5.66811 -20.674,8.55237zm105.346 -37.9063c-6.34134,1.86378 -9.97205,8.51812 -8.10827,14.8595 1.86378,6.34134 8.51812,9.97205 14.8595,8.10827 8.32205,-2.45315 16.7114,-4.82481 25.1776,-7.07835 8.40355,-2.23701 16.8307,-4.34646 25.2756,-6.29056 6.44528,-1.4752 10.4752,-7.89804 9.00001,-14.3433 -1.4752,-6.44528 -7.89804,-10.4752 -14.3433,-9.00001 -8.70355,2.00433 -17.3799,4.1752 -26.0268,6.47717 -8.58072,2.28425 -17.1992,4.72087 -25.8343,7.26733zm118.552 -26.2181c-6.54922,0.956694 -11.0823,7.0441 -10.1256,13.5933 0.956694,6.54922 7.0441,11.0823 13.5933,10.1256 8.59961,-1.26614 17.0575,-2.37402 25.3689,-3.32126l-1.31221 -11.9067 1.35945 11.9232c0.210236,-0.0236221 0.416929,-0.0531496 0.623623,-0.0874016 8.16969,-0.924804 16.448,-1.72677 24.828,-2.40355 6.60119,-0.517323 11.5323,-6.28937 11.015,-12.8906 -0.517323,-6.60119 -6.28937,-11.5323 -12.8906,-11.015 -8.46851,0.683859 -17.0268,1.51536 -25.6666,2.49449 -0.209055,0.0129921 -0.418111,0.0318898 -0.628347,0.0555119l0.00236221 0.0165354 -0.00236221 0 0.0011811 0.00472441c-8.88898,1.01339 -17.615,2.15197 -26.1662,3.41103zm120.282 -8.39646c-6.60119,-0.0507874 -11.9953,5.25827 -12.0461,11.8595 -0.0507874,6.60119 5.25827,11.9953 11.8595,12.0461 6.18071,0.0625985 12.5929,0.231496 19.2024,0.491339 6.04843,0.238583 12.4949,0.588189 19.2898,1.03583 6.60119,0.413386 12.2894,-4.60158 12.7028,-11.2028 0.413386,-6.60119 -4.60158,-12.2894 -11.2028,-12.7028 -6.24686,-0.411024 -12.8528,-0.760631 -19.852,-1.03583 -6.43938,-0.253937 -13.0843,-0.422835 -19.9536,-0.491339z"/>
  <path class="fil0" d="M328.981 1354.59c12.8776,4.51418 22.7185,13.8402 28.2095,25.2626 5.47441,11.387 6.60945,24.8551 2.10827,37.6973 -4.51654,12.8776 -13.8402,22.7173 -25.265,28.2095 -11.387,5.47559 -24.8528,6.60827 -37.6937,2.10709 -12.8799,-4.51418 -22.7185,-13.8413 -28.2107,-25.2638 -5.47441,-11.3858 -6.61064,-24.8504 -2.10827,-37.6949 4.51654,-12.8788 13.8402,-22.7185 25.265,-28.2107 11.387,-5.47559 24.854,-6.60827 37.6949,-2.10709zm-0.540945 39.013c-1.92756,-4.00985 -5.40119,-7.28977 -9.95906,-8.8878 -4.59331,-1.60984 -9.39804,-1.21299 -13.4445,0.732284 -4.00985,1.92756 -7.29213,5.40237 -8.89016,9.96024 -1.60984,4.59449 -1.21299,9.39686 0.733465,13.4445 1.92756,4.00866 5.40237,7.29213 9.96024,8.88898 4.59449,1.61102 9.39804,1.21299 13.4433,-0.732284 4.00985,-1.92756 7.29213,-5.40237 8.89016,-9.95906 1.61102,-4.59567 1.21181,-9.39922 -0.733465,-13.4469zm877.404 130.898c12.8799,4.51654 22.7185,13.8413 28.2107,25.2638 5.47559,11.387 6.60827,24.854 2.10709,37.6961 -4.51654,12.8776 -13.8413,22.7173 -25.2638,28.2095 -11.387,5.47441 -24.8528,6.60945 -37.6949,2.10827 -12.8788,-4.51418 -22.7185,-13.8413 -28.2107,-25.2638 -5.47441,-11.3858 -6.60945,-24.854 -2.10827,-37.6961 4.51654,-12.8788 13.8402,-22.7185 25.265,-28.2107 11.387,-5.47559 24.854,-6.60827 37.6949,-2.10709zm-0.539764 39.0142c-1.92756,-4.00866 -5.40237,-7.29095 -9.96024,-8.88898 -4.59449,-1.61102 -9.39804,-1.21299 -13.4445,0.732284 -4.00985,1.92756 -7.29213,5.40237 -8.89016,9.96024 -1.60984,4.59449 -1.21299,9.39804 0.733465,13.4457 1.92756,4.00866 5.40237,7.29213 9.96024,8.88898 4.59331,1.60984 9.39686,1.21181 13.4445,-0.733465 4.00866,-1.92756 7.29095,-5.40237 8.88898,-9.95906 1.60984,-4.59449 1.21299,-9.39922 -0.732284,-13.4457zm324.301 -909.614c1.02756,0.251575 2.01732,0.6 2.9563,1.03819 12.1382,4.69725 21.4252,13.735 26.7012,24.7075 5.2689,10.9618 6.51969,23.85 2.58662,36.2563 -0.250394,1.02402 -0.598819,2.00906 -1.03583,2.94567 -4.69961,12.1394 -13.735,21.4276 -24.7075,26.7036 -11.387,5.47559 -24.854,6.60827 -37.6949,2.10709 -12.8788,-4.51654 -22.7185,-13.8413 -28.2107,-25.2638 -5.47441,-11.3858 -6.60945,-24.8528 -2.10827,-37.6949 4.51418,-12.8799 13.8413,-22.7185 25.2638,-28.2107 10.9606,-5.27008 23.8488,-6.51733 36.2492,-2.58898zm0.907087 39.4961c-1.80945,-3.76181 -4.98071,-6.88583 -9.12993,-8.57599 -0.291733,-0.0838583 -0.583465,-0.175984 -0.874016,-0.277559l0.0153543 -0.0448819c-4.58741,-1.59921 -9.37796,-1.2 -13.4173,0.741733 -4.00985,1.92756 -7.29213,5.40237 -8.88898,9.96024 -1.61102,4.59449 -1.21181,9.39804 0.733465,13.4445 1.92756,4.00866 5.40119,7.29095 9.96024,8.88898 4.59331,1.60984 9.39804,1.21299 13.4445,-0.732284 3.76181,-1.80827 6.88347,-4.97717 8.57481,-9.12875 0.0850394,-0.294095 0.175984,-0.585827 0.27874,-0.87756l0.0448819 0.0153543c1.59921,-4.58504 1.19882,-9.37678 -0.741733,-13.4138zm-9.81142 76.8438c12.1382,4.69725 21.4252,13.7327 26.7024,24.7075 5.47323,11.3858 6.61064,24.854 2.10709,37.6961 -4.51536,12.8764 -13.8413,22.7173 -25.2638,28.2095 -11.387,5.47559 -24.854,6.60827 -37.6949,2.10709 -12.8788,-4.51654 -22.7185,-13.8413 -28.2107,-25.2638 -5.27008,-10.9595 -6.51615,-23.8465 -2.58898,-36.2469 0.250394,-1.02756 0.6,-2.01614 1.03819,-2.9563 4.69725,-12.1394 13.735,-21.4252 24.7075,-26.7024 10.9618,-5.2689 23.8524,-6.51969 36.2575,-2.58662 1.02402,0.250394 2.01024,0.598819 2.94567,1.03583zm-2.04803 38.4579c-1.80827,-3.763 -4.97835,-6.88465 -9.12757,-8.57481 -0.294095,-0.0850394 -0.585827,-0.175984 -0.87756,-0.27874l0.0153543 -0.0448819c-4.58741,-1.59921 -9.37796,-1.19882 -13.415,0.741733 -3.76063,1.80827 -6.88111,4.97599 -8.57127,9.12166 -0.0838583,0.295276 -0.178347,0.589371 -0.281103,0.882284l-0.046063 -0.0165354c-1.60039,4.58622 -1.2,9.37914 0.741733,13.4173 1.92756,4.00866 5.40119,7.29095 9.96024,8.88898 4.59331,1.60984 9.39804,1.21299 13.4445,-0.732284 4.00866,-1.92756 7.29095,-5.40119 8.88898,-9.95906 1.61102,-4.59449 1.21299,-9.39922 -0.732284,-13.4457zm-24.6933 72.4642c12.8776,4.51654 22.7185,13.8402 28.2095,25.265 5.47441,11.3858 6.60827,24.8516 2.10709,37.6949 -4.51418,12.8776 -13.839,22.7185 -25.2626,28.2095 -11.3858,5.47441 -24.854,6.60945 -37.6961,2.10827 -12.8788,-4.51654 -22.7185,-13.8402 -28.2107,-25.265 -5.47559,-11.387 -6.60827,-24.854 -2.10709,-37.6949 4.51654,-12.8799 13.8413,-22.7185 25.2638,-28.2107 11.387,-5.47559 24.854,-6.60827 37.6961,-2.10709zm-0.540945 39.0154c-1.92756,-4.01103 -5.40237,-7.29213 -9.95906,-8.89016 -4.59449,-1.60984 -9.39922,-1.21299 -13.4457,0.732284 -4.00866,1.92756 -7.29095,5.40237 -8.88898,9.96024 -1.61102,4.59449 -1.21299,9.39804 0.732284,13.4445 1.92756,4.00985 5.40237,7.29213 9.96024,8.89016 4.59449,1.60984 9.39804,1.21299 13.4457,-0.733465 4.00866,-1.92638 7.28977,-5.40119 8.8878,-9.95906 1.60984,-4.59449 1.21299,-9.39804 -0.732284,-13.4445zm-28.8496 72.3308c1.02402,0.250394 2.01024,0.598819 2.94567,1.03583 12.1382,4.69725 21.4252,13.735 26.7012,24.7075 5.2689,10.9618 6.51969,23.8512 2.58662,36.2563 -0.250394,1.0252 -0.6,2.01142 -1.03701,2.94803 -4.69489,12.1382 -13.7327,21.4276 -24.7063,26.7012 -11.387,5.47559 -24.8516,6.61064 -37.6925,2.10827l5.25 -15.0626 -0.468898 1.33583 -4.78347 13.7256 -0.0248032 -0.00944883 -0.0165354 0.046063c-0.486615,-0.17126 -0.961418,-0.362599 -1.42087,-0.575197 -12.1606,-4.69252 -21.4666,-13.7386 -26.7484,-24.7252 -5.47559,-11.387 -6.60827,-24.854 -2.10709,-37.6949 4.51418,-12.8799 13.8413,-22.7185 25.2638,-28.2107 10.963,-5.27126 23.8536,-6.51969 36.2587,-2.58662zm0.896457 39.4937c-1.80945,-3.763 -4.98071,-6.88583 -9.12993,-8.57599 -0.291733,-0.0838583 -0.583465,-0.175984 -0.874016,-0.277559l0.0153543 -0.0448819c-4.58741,-1.59921 -9.37796,-1.2 -13.4162,0.741733 -4.00866,1.92756 -7.29213,5.40237 -8.88898,9.96024 -1.60984,4.59331 -1.21299,9.39804 0.732284,13.4445 1.80709,3.75591 4.97126,6.8752 9.11339,8.56772 0.581103,0.166536 1.15512,0.368504 1.72441,0.604725 4.32284,1.27087 8.77678,0.806694 12.5669,-1.01575 3.75827,-1.80709 6.87638,-4.97008 8.56654,-9.11103 0.166536,-0.578741 0.367323,-1.15394 0.603544,-1.72205 1.27441,-4.3252 0.809056,-8.7815 -1.01339,-12.5717zm-33.7902 67.5438c12.8799,4.51654 22.7185,13.8413 28.2107,25.2638 5.47559,11.387 6.60827,24.854 2.10709,37.6961 -4.51654,12.8776 -13.8402,22.7173 -25.265,28.2095 -11.387,5.47559 -24.8528,6.60827 -37.6937,2.10709 -12.8788,-4.51418 -22.7185,-13.8413 -28.2107,-25.2638 -5.47441,-11.3858 -6.60945,-24.8516 -2.10827,-37.6949 4.51654,-12.8788 13.8402,-22.7185 25.265,-28.2107 11.387,-5.47559 24.854,-6.60827 37.6949,-2.10709zm-0.539764 39.0142c-1.92756,-4.00866 -5.40237,-7.29095 -9.96024,-8.88898 -4.59449,-1.61102 -9.39804,-1.21299 -13.4445,0.732284 -4.00985,1.92756 -7.29213,5.40237 -8.89016,9.96024 -1.60984,4.59449 -1.21299,9.39686 0.733465,13.4445 1.92756,4.00866 5.40237,7.29213 9.96024,8.88898 4.59449,1.61102 9.39804,1.21299 13.4433,-0.732284 4.00985,-1.92756 7.29213,-5.40237 8.89016,-9.95906 1.60984,-4.59449 1.21299,-9.39922 -0.732284,-13.4457zm-44.1284 76.0394c12.8799,4.51654 22.7185,13.8413 28.2107,25.2638 5.47559,11.387 6.60827,24.854 2.10709,37.6961 -4.51654,12.8776 -13.8413,22.7173 -25.2638,28.2095 -10.9595,5.27008 -23.8465,6.51615 -36.2469,2.58898 -1.02756,-0.250394 -2.01614,-0.6 -2.9563,-1.03819 -12.1382,-4.69607 -21.4264,-13.7327 -26.7024,-24.7063 -5.2689,-10.9595 -6.51733,-23.8453 -2.59016,-36.2469 0.250394,-1.02756 0.6,-2.01614 1.03819,-2.9563 4.69725,-12.1394 13.7339,-21.4264 24.7087,-26.7036 11.387,-5.47559 24.854,-6.60827 37.6949,-2.10709zm-0.539764 39.0142c-1.92756,-4.00866 -5.40237,-7.29095 -9.96024,-8.88898 -4.59449,-1.61102 -9.39804,-1.21299 -13.4445,0.732284 -3.76063,1.80827 -6.88229,4.97599 -8.57363,9.12284 -0.0838583,0.295276 -0.177165,0.589371 -0.279921,0.882284l-0.046063 -0.0165354c-1.59921,4.58504 -1.19882,9.37796 0.742914,13.4173 1.80709,3.75945 4.97481,6.87993 9.12166,8.57127 0.295276,0.0838583 0.589371,0.177165 0.882284,0.279921l-0.0165354 0.046063c4.58504,1.59921 9.37914,1.2 13.4173,-0.741733 4.00866,-1.92756 7.29095,-5.40237 8.88898,-9.95906 1.60984,-4.59449 1.21299,-9.39922 -0.732284,-13.4457zm-49.9028 65.3563c12.8799,4.51654 22.7185,13.8413 28.2095,25.2638 5.27008,10.9595 6.51615,23.8465 2.58898,36.2481 -0.250394,1.02756 -0.601182,2.01732 -1.03819,2.9563 -4.69489,12.1382 -13.7339,21.4252 -24.7075,26.7012 -10.9618,5.2689 -23.85,6.51969 -36.2563,2.58662 -1.0252,-0.250394 -2.01142,-0.6 -2.94803,-1.03701 -12.1382,-4.69489 -21.4276,-13.7327 -26.7012,-24.7063 -5.47441,-11.3858 -6.60945,-24.8528 -2.10827,-37.6925l15.0626 5.25 -1.33583 -0.468898 -13.7256 -4.78347 0.00944883 -0.0248032 -0.046063 -0.0165354c0.17126,-0.486615 0.362599,-0.961418 0.575197,-1.42087 4.69252,-12.1606 13.7386,-21.4666 24.7252,-26.7484 11.387,-5.47559 24.854,-6.60827 37.6961,-2.10709zm-0.540945 39.0142c-1.92756,-4.00985 -5.40119,-7.29095 -9.95906,-8.88898 -4.59449,-1.60984 -9.39922,-1.21299 -13.4457,0.732284 -3.75591,1.80709 -6.8752,4.97126 -8.56772,9.11339 -0.166536,0.581103 -0.368504,1.15512 -0.604725,1.72441 -1.27087,4.32284 -0.806694,8.77678 1.01575,12.5669 1.80709,3.75827 4.97008,6.87638 9.11103,8.56654 0.578741,0.166536 1.15394,0.367323 1.72205,0.603544 4.3252,1.27441 8.7815,0.809056 12.5717,-1.01339 3.76181,-1.80827 6.88465,-4.98071 8.57481,-9.12875 0.0838583,-0.291733 0.175984,-0.583465 0.277559,-0.872835l0.046063 0.0165354c1.59921,-4.58741 1.2,-9.3815 -0.741733,-13.4197zm-55.9158 61.5189c12.8799,4.51654 22.7185,13.8413 28.2095,25.2638 5.27008,10.9595 6.51615,23.8465 2.58898,36.2481 -0.250394,1.02756 -0.601182,2.01732 -1.03819,2.9563 -4.69489,12.1382 -13.7315,21.4264 -24.7063,26.7012 -10.9571,5.2689 -23.8429,6.51733 -36.2422,2.59134 -1.02992,-0.250394 -2.02087,-0.601182 -2.96103,-1.03937 -12.1382,-4.69607 -21.4264,-13.7327 -26.7036,-24.7075 -5.2689,-10.9642 -6.51969,-23.8536 -2.58662,-36.2575 0.250394,-1.02402 0.598819,-2.00906 1.03583,-2.94567 4.69961,-12.1394 13.735,-21.4276 24.7075,-26.7036 11.387,-5.47559 24.854,-6.60827 37.6961,-2.10709zm-0.540945 39.0142c-1.92756,-4.00985 -5.40119,-7.29095 -9.95906,-8.88898 -4.59449,-1.60984 -9.39922,-1.21299 -13.4457,0.732284 -3.76181,1.80827 -6.88347,4.97717 -8.57481,9.12875 -0.0850394,0.294095 -0.175984,0.585827 -0.27874,0.87756l-0.0448819 -0.0153543c-1.59921,4.58504 -1.2,9.37678 0.741733,13.415 1.80827,3.76181 4.97835,6.88347 9.12875,8.57481 0.292914,0.0850394 0.585827,0.175984 0.87756,0.27874l-0.0153543 0.0448819c4.58386,1.59921 9.37678,1.19882 13.415,-0.742914 3.76181,-1.80827 6.88229,-4.97835 8.57245,-9.1252 0.0838583,-0.292914 0.177165,-0.585827 0.27874,-0.876379l0.046063 0.0165354c1.59921,-4.58741 1.2,-9.3815 -0.741733,-13.4197zm58.8709 -1043.32c12.8799,4.51418 22.7185,13.8413 28.2107,25.2638 5.47441,11.3858 6.61064,24.854 2.10709,37.6961 -4.51536,12.8764 -13.8413,22.7173 -25.2638,28.2095 -10.9595,5.27008 -23.8465,6.51615 -36.2469,2.58898 -1.02756,-0.250394 -2.01614,-0.6 -2.9563,-1.03819 -12.1382,-4.69607 -21.4264,-13.7339 -26.7024,-24.7063 -5.27008,-10.9606 -6.51733,-23.8453 -2.59016,-36.2469 0.250394,-1.02756 0.6,-2.01614 1.03819,-2.9563 4.69725,-12.1394 13.7339,-21.4264 24.7087,-26.7036 11.387,-5.47559 24.854,-6.60827 37.6949,-2.10709zm-0.539764 39.0142c-1.92756,-4.00866 -5.40237,-7.29213 -9.96024,-8.88898 -4.59449,-1.61102 -9.39804,-1.21299 -13.4445,0.732284 -3.76063,1.80827 -6.88229,4.97599 -8.57363,9.12284 -0.0838583,0.295276 -0.177165,0.589371 -0.279921,0.882284l-0.046063 -0.0165354c-1.59921,4.58504 -1.19882,9.37796 0.742914,13.4173 1.80827,3.76063 4.97481,6.87993 9.12166,8.57127 0.295276,0.0838583 0.589371,0.177165 0.882284,0.279921l-0.0165354 0.046063c4.58504,1.59921 9.37914,1.2 13.4173,-0.741733 4.00866,-1.92756 7.29095,-5.40119 8.88898,-9.95906 1.61102,-4.59449 1.21299,-9.39922 -0.732284,-13.4457zm-1015.02 777.048c12.8776,4.51654 22.7185,13.8402 28.2095,25.265 5.47441,11.3858 6.60827,24.8516 2.10709,37.6949 -4.51418,12.8776 -13.8402,22.7185 -25.2638,28.2095 -11.3858,5.47441 -24.8516,6.60945 -37.6949,2.10827 -12.8788,-4.51654 -22.7185,-13.8402 -28.2107,-25.265 -5.47559,-11.387 -6.60827,-24.854 -2.10709,-37.6949 4.51654,-12.8788 13.8413,-22.7185 25.2638,-28.2107 11.387,-5.47559 24.854,-6.60827 37.6961,-2.10709zm-0.540945 39.0154c-1.92756,-4.01103 -5.40237,-7.29213 -9.95906,-8.89016 -4.59449,-1.60984 -9.39922,-1.21299 -13.4457,0.732284 -4.00866,1.92756 -7.29095,5.40119 -8.88898,9.96024 -1.60984,4.59331 -1.21299,9.39804 0.732284,13.4445 1.92756,4.00985 5.40237,7.29213 9.96024,8.89016 4.59449,1.60984 9.39804,1.21181 13.4445,-0.733465 4.00985,-1.92756 7.29213,-5.40237 8.88898,-9.95906 1.60984,-4.59449 1.21299,-9.39804 -0.732284,-13.4445zm14.3563 -157.069c1.0252,0.251575 2.01142,0.6 2.94803,1.03701 12.1358,4.69725 21.424,13.735 26.6988,24.7063 5.2689,10.9618 6.51969,23.8512 2.58662,36.2563 -0.250394,1.02402 -0.598819,2.00906 -1.03583,2.94567 -4.69961,12.1406 -13.735,21.4276 -24.7075,26.7036 -10.9595,5.27008 -23.8465,6.51615 -36.2469,2.58898 -1.02756,-0.250394 -2.01614,-0.6 -2.9563,-1.03819 -12.1382,-4.69725 -21.4252,-13.735 -26.7024,-24.7075 -5.2689,-10.963 -6.51969,-23.8536 -2.58662,-36.2563 0.250394,-1.02402 0.6,-2.01024 1.03583,-2.94567 4.69607,-12.1394 13.735,-21.4276 24.7075,-26.7036 10.9618,-5.27008 23.8536,-6.51969 36.2587,-2.58662zm0.896457 39.4937c-1.80945,-3.763 -4.98071,-6.88583 -9.12993,-8.57599 -0.291733,-0.0838583 -0.583465,-0.175984 -0.874016,-0.277559l0.0153543 -0.0448819c-4.58741,-1.59921 -9.37796,-1.2 -13.4162,0.741733 -3.76063,1.80827 -6.88229,4.97835 -8.57363,9.12638 -0.0850394,0.294095 -0.177165,0.588189 -0.279921,0.881103l-0.046063 -0.0165354c-1.59921,4.58504 -1.19764,9.3756 0.742914,13.4138 1.80827,3.75945 4.97599,6.88111 9.12166,8.57127 0.295276,0.0838583 0.589371,0.178347 0.882284,0.281103l-0.0165354 0.046063c4.58622,1.60039 9.37914,1.2 13.4173,-0.741733 3.76181,-1.80827 6.88347,-4.97835 8.57481,-9.12875 0.0850394,-0.294095 0.175984,-0.585827 0.27874,-0.87756l0.0448819 0.0153543c1.59921,-4.58504 1.19882,-9.37678 -0.741733,-13.4138zm42.4737 -161.087c12.8776,4.51418 22.7185,13.8402 28.2095,25.2638 5.27008,10.9606 6.51733,23.8477 2.58898,36.2481 -0.250394,1.02756 -0.6,2.01732 -1.03819,2.9563 -4.69725,12.1394 -13.7327,21.4264 -24.7063,26.7012 -10.9583,5.27008 -23.8441,6.51733 -36.2422,2.59134 -1.02992,-0.250394 -2.02087,-0.601182 -2.96103,-1.03937 -12.1382,-4.69725 -21.4276,-13.7339 -26.7036,-24.7075 -5.2689,-10.9618 -6.51969,-23.8524 -2.58662,-36.2563 0.250394,-1.02402 0.598819,-2.00906 1.03583,-2.94567 4.69843,-12.1394 13.735,-21.4288 24.7075,-26.7047 11.387,-5.47559 24.854,-6.60827 37.6961,-2.10709zm-0.540945 39.0142c-1.92756,-4.00985 -5.40237,-7.29213 -9.95906,-8.88898 -4.59449,-1.60984 -9.39922,-1.21299 -13.4457,0.732284 -3.76181,1.80827 -6.88347,4.97835 -8.57481,9.12993 -0.0850394,0.294095 -0.175984,0.585827 -0.27874,0.87756l-0.0448819 -0.0153543c-1.59921,4.58504 -1.19882,9.37678 0.741733,13.4138 1.80827,3.76181 4.97835,6.88347 9.12875,8.57481 0.292914,0.0850394 0.585827,0.175984 0.87756,0.27874l-0.0153543 0.0448819c4.58386,1.59921 9.37678,1.19882 13.415,-0.742914 3.763,-1.80827 6.88347,-4.97717 8.57363,-9.12638 0.0838583,-0.292914 0.175984,-0.585827 0.27874,-0.87756l0.0448819 0.0153543c1.59921,-4.58741 1.2,-9.37796 -0.741733,-13.4162zm62.628 -144.496c12.8776,4.51654 22.7185,13.8402 28.2095,25.265 5.47441,11.3858 6.60827,24.8516 2.10709,37.6949 -4.51536,12.8764 -13.8413,22.7173 -25.2638,28.2095 -11.387,5.47559 -24.854,6.60827 -37.6949,2.10709 -12.8799,-4.51654 -22.7185,-13.8413 -28.2107,-25.2638 -5.47441,-11.3858 -6.60945,-24.8528 -2.10827,-37.6949 4.51654,-12.8788 13.8402,-22.7185 25.265,-28.2107 11.387,-5.47559 24.854,-6.60827 37.6961,-2.10709zm-0.540945 39.0154c-1.92756,-4.01103 -5.40119,-7.29213 -9.95906,-8.89016 -4.59449,-1.60984 -9.39922,-1.21299 -13.4457,0.732284 -4.00985,1.92756 -7.29213,5.40237 -8.89016,9.96024 -1.61102,4.59449 -1.21181,9.39804 0.733465,13.4445 1.92756,4.00866 5.40237,7.29095 9.96024,8.88898 4.59449,1.61102 9.39804,1.21299 13.4445,-0.732284 4.00866,-1.92756 7.29095,-5.40119 8.88898,-9.95906 1.60984,-4.59449 1.21299,-9.39804 -0.732284,-13.4445zm57.7122 -102.867c-0.578741,-0.165354 -1.15394,-0.367323 -1.72205,-0.603544 -4.32638,-1.27323 -8.7815,-0.809056 -12.5728,1.01339 -3.76063,1.80827 -6.88111,4.97599 -8.57127,9.12166 -0.0838583,0.295276 -0.178347,0.589371 -0.281103,0.882284l-0.046063 -0.0165354c-1.60039,4.58622 -1.19882,9.37914 0.742914,13.4173 1.80827,3.76181 4.97835,6.88347 9.12638,8.57363 0.294095,0.0850394 0.588189,0.177165 0.881103,0.279921l-0.0165354 0.046063c4.58504,1.59921 9.3756,1.19764 13.4138,-0.742914 3.75709,-1.80591 6.8752,-4.9689 8.56654,-9.10985 0.167717,-0.582284 0.368504,-1.15748 0.605906,-1.72795 1.27087,-4.32284 0.806694,-8.77678 -1.01575,-12.5669 -1.80591,-3.75827 -4.97008,-6.8752 -9.11103,-8.56654zm11.1602 -29.8902c12.1382,4.69489 21.4276,13.7327 26.7012,24.7063 5.27008,10.9606 6.51733,23.85 2.5878,36.2528 -0.250394,1.0252 -0.6,2.0126 -1.03701,2.9504 -4.69607,12.1394 -13.735,21.4264 -24.7075,26.7024 -10.963,5.2689 -23.8547,6.51969 -36.2563,2.58662 -1.02402,-0.250394 -2.01024,-0.6 -2.94567,-1.03583 -12.1406,-4.69607 -21.4276,-13.735 -26.7036,-24.7075 -5.2689,-10.9583 -6.51733,-23.8453 -2.59016,-36.2469 0.250394,-1.02756 0.6,-2.01614 1.03819,-2.9563 4.69607,-12.1382 13.7339,-21.4264 24.7075,-26.7024 10.9642,-5.27126 23.8536,-6.51969 36.2575,-2.58662 1.0252,0.251575 2.01142,0.6 2.94803,1.03701zm86.3233 -85.7327c12.1382,4.69725 21.4276,13.7339 26.7024,24.7075 5.47559,11.3882 6.60945,24.8528 2.10827,37.6961 -4.51418,12.8776 -13.8402,22.7185 -25.2638,28.2095 -10.9583,5.2689 -23.8453,6.51733 -36.2469,2.59016 -1.02756,-0.250394 -2.01614,-0.6 -2.9563,-1.03819 -12.1382,-4.69725 -21.4264,-13.7362 -26.7036,-24.7075 -5.2689,-10.9606 -6.51969,-23.85 -2.5878,-36.2516 0.250394,-1.02638 0.6,-2.01378 1.03701,-2.95158 4.69725,-12.1394 13.735,-21.4276 24.7075,-26.7036 10.9642,-5.2689 23.8536,-6.51969 36.2575,-2.58662 1.02402,0.250394 2.01024,0.598819 2.94567,1.03583zm-2.04803 38.4579c-1.80827,-3.763 -4.97835,-6.88465 -9.12757,-8.57481 -0.294095,-0.0850394 -0.585827,-0.175984 -0.87756,-0.27874l0.0153543 -0.0448819c-4.58504,-1.59921 -9.37678,-1.2 -13.415,0.741733 -3.76063,1.80827 -6.88229,4.97835 -8.57363,9.12638 -0.0850394,0.294095 -0.177165,0.588189 -0.279921,0.881103l-0.0448819 -0.0153543c-1.59921,4.58504 -1.19882,9.37678 0.741733,13.4138 1.80827,3.76063 4.97599,6.88111 9.12284,8.57245 0.295276,0.0838583 0.589371,0.177165 0.882284,0.279921l-0.0165354 0.046063c4.58622,1.60039 9.37914,1.19882 13.4173,-0.742914 4.00985,-1.92756 7.29213,-5.40237 8.88898,-9.95906 1.60984,-4.59449 1.21181,-9.39804 -0.733465,-13.4457zm86.8276 -122.163c12.8788,4.51654 22.7185,13.8413 28.2107,25.2638 5.47559,11.387 6.60827,24.854 2.10709,37.6961 -4.51654,12.8776 -13.8402,22.7173 -25.265,28.2095 -11.387,5.47559 -24.8528,6.60827 -37.6937,2.10709 -12.8799,-4.51418 -22.7185,-13.8413 -28.2107,-25.2638 -5.47441,-11.3858 -6.60945,-24.8516 -2.10827,-37.6949 4.51654,-12.8788 13.8402,-22.7185 25.265,-28.2107 11.387,-5.47559 24.854,-6.60827 37.6949,-2.10709zm-0.539764 39.0142c-1.92756,-4.00866 -5.40119,-7.29095 -9.96024,-8.88898 -4.59331,-1.60984 -9.39804,-1.21299 -13.4445,0.732284 -4.00985,1.92756 -7.29213,5.40237 -8.89016,9.96024 -1.60984,4.59449 -1.21181,9.39804 0.733465,13.4445 1.92756,4.00985 5.40237,7.29213 9.96024,8.88898 4.59449,1.61102 9.39804,1.21299 13.4433,-0.732284 4.00985,-1.92756 7.29213,-5.40119 8.89016,-9.95906 1.60984,-4.59449 1.21299,-9.39922 -0.732284,-13.4457zm110.561 -108.98c12.8776,4.51654 22.7185,13.8402 28.2095,25.265 5.47441,11.3858 6.60827,24.8516 2.10709,37.6949 -4.51418,12.8776 -13.8402,22.7185 -25.2626,28.2095 -11.387,5.47559 -24.854,6.60945 -37.6961,2.10827 -12.8788,-4.51654 -22.7185,-13.8402 -28.2107,-25.265 -5.47559,-11.387 -6.60827,-24.854 -2.10709,-37.6949 4.51654,-12.8799 13.8413,-22.7185 25.2638,-28.2107 11.387,-5.47559 24.854,-6.60827 37.6961,-2.10709zm-0.540945 39.0154c-1.92756,-4.01103 -5.40119,-7.29213 -9.95906,-8.89016 -4.59449,-1.60984 -9.39922,-1.21299 -13.4457,0.732284 -4.00866,1.92756 -7.29095,5.40119 -8.88898,9.96024 -1.61102,4.59449 -1.21299,9.39804 0.732284,13.4445 1.92756,4.00985 5.40237,7.29213 9.96024,8.89016 4.59449,1.60984 9.39922,1.21181 13.4457,-0.733465 4.00985,-1.92756 7.28977,-5.40119 8.8878,-9.95906 1.60984,-4.59449 1.21299,-9.39804 -0.732284,-13.4445zm104.277 -97.8662c12.8776,4.51654 22.7173,13.8402 28.2095,25.265 5.47559,11.387 6.60827,24.854 2.10709,37.6949 -4.51418,12.8776 -13.8402,22.7185 -25.2638,28.2095 -10.9583,5.2689 -23.8441,6.51733 -36.2469,2.59016 -1.02756,-0.250394 -2.01732,-0.601182 -2.9563,-1.03819 -12.1382,-4.69489 -21.4264,-13.7339 -26.7024,-24.7075 -5.2689,-10.963 -6.51969,-23.8547 -2.58662,-36.2563 0.250394,-1.02402 0.6,-2.01024 1.03583,-2.94567 4.69725,-12.1406 13.735,-21.4288 24.7075,-26.7047 11.387,-5.47559 24.854,-6.60827 37.6961,-2.10709zm-0.540945 39.0154c-1.92756,-4.00985 -5.40119,-7.29213 -9.95906,-8.89016 -4.59449,-1.60984 -9.39922,-1.21299 -13.4457,0.732284 -3.76063,1.80827 -6.88229,4.97953 -8.57363,9.12757 -0.0850394,0.294095 -0.177165,0.588189 -0.279921,0.881103l-0.046063 -0.0165354c-1.59921,4.58504 -1.19646,9.37678 0.742914,13.4138 1.80827,3.76181 4.97835,6.88347 9.12638,8.57363 0.292914,0.0838583 0.585827,0.177165 0.876379,0.27874l-0.0165354 0.046063c4.58741,1.59921 9.38032,1.19882 13.4185,-0.742914 4.00985,-1.92756 7.29213,-5.40237 8.88898,-9.95906 1.60984,-4.59331 1.21299,-9.39804 -0.732284,-13.4445zm102.996 -81.867c12.8776,4.51654 22.7185,13.8402 28.2095,25.265 5.2689,10.9583 6.51615,23.8441 2.58898,36.2469 -0.250394,1.02874 -0.6,2.01969 -1.03937,2.95866 -4.69607,12.1358 -13.7339,21.4229 -24.7063,26.6988 -10.9618,5.2689 -23.8512,6.51969 -36.2563,2.58662 -1.0252,-0.250394 -2.01142,-0.6 -2.94803,-1.03701 -12.1382,-4.69489 -21.4276,-13.7327 -26.7012,-24.7063 -5.47559,-11.387 -6.60945,-24.8528 -2.10827,-37.6925l15.0626 5.25 -1.33583 -0.468898 -13.7256 -4.78347 0.00944883 -0.0248032 -0.046063 -0.0165354c0.17126,-0.486615 0.362599,-0.961418 0.575197,-1.42087 4.69252,-12.1618 13.7386,-21.4666 24.7252,-26.7484 11.387,-5.47559 24.854,-6.60827 37.6961,-2.10709zm-0.540945 39.0154c-1.92756,-4.01103 -5.40119,-7.29213 -9.95906,-8.89016 -4.59449,-1.60984 -9.39922,-1.21299 -13.4457,0.732284 -3.75591,1.80709 -6.8752,4.97126 -8.56772,9.11339 -0.166536,0.581103 -0.368504,1.15512 -0.604725,1.72441 -1.27087,4.32284 -0.806694,8.77678 1.01575,12.5669 1.80709,3.75827 4.97008,6.87638 9.11103,8.56654 0.578741,0.166536 1.15394,0.367323 1.72205,0.603544 4.3252,1.27441 8.7815,0.809056 12.5717,-1.01339 3.763,-1.80827 6.88465,-4.98071 8.57481,-9.12875 0.0838583,-0.291733 0.175984,-0.583465 0.277559,-0.872835l0.046063 0.0165354c1.59921,-4.58741 1.2,-9.38032 -0.741733,-13.4185zm107.53 -35.9292c-0.579922,-0.166536 -1.1563,-0.368504 -1.72441,-0.604725 -4.3252,-1.27205 -8.78032,-0.807875 -12.5705,1.01457 -4.00985,1.92756 -7.29213,5.40237 -8.88898,9.96024 -1.61102,4.59449 -1.21299,9.39804 0.732284,13.4445 1.80709,3.75591 4.97126,6.8752 9.11339,8.56772 0.581103,0.166536 1.15512,0.368504 1.72441,0.604725 4.32284,1.27087 8.77678,0.806694 12.5669,-1.01575 3.75709,-1.80591 6.87402,-4.9689 8.56654,-9.11103 0.167717,-0.582284 0.368504,-1.15748 0.605906,-1.72795 1.27087,-4.32166 0.806694,-8.77678 -1.01457,-12.5658 -1.80591,-3.75709 -4.97008,-6.8752 -9.11103,-8.56654zm9.65316 -30.4465l0.0259843 0.00944883 0.0165354 -0.046063c0.490158,0.17126 0.966142,0.364961 1.42795,0.578741 12.1571,4.69252 21.4559,13.7374 26.7378,24.7205 5.47323,11.3858 6.60827,24.8528 2.10709,37.6925l-15.0626 -5.25 2.67166 0.936615 12.3886 4.31811 -0.00826772 0.022441 0.046063 0.0165354c-0.17126,0.488977 -0.364961,0.962599 -0.577559,1.42441 -4.69134,12.1606 -13.7362,21.4642 -24.7229,26.7449 -11.3858,5.47441 -24.8528,6.60945 -37.6925,2.10827l5.25 -15.0626 -0.468898 1.33583 -4.78347 13.7256 -0.0248032 -0.00944883 -0.0165354 0.046063c-0.486615,-0.17126 -0.961418,-0.362599 -1.42087,-0.575197 -12.1606,-4.69252 -21.4666,-13.7386 -26.7484,-24.7252 -5.47559,-11.387 -6.60827,-24.854 -2.10709,-37.6949 4.51418,-12.8799 13.8413,-22.7185 25.2638,-28.2107 11.387,-5.47559 24.854,-6.61064 37.6961,-2.10709l-5.25 15.0626 0.451181 -1.2874 4.80118 -13.774zm119.706 -9.80552c12.1406,4.69961 21.4276,13.735 26.7024,24.7075 5.27008,10.9595 6.51615,23.8465 2.58898,36.2481 -0.250394,1.02756 -0.601182,2.01732 -1.03819,2.9563 -4.69489,12.1382 -13.7315,21.4264 -24.7063,26.7012 -10.9571,5.2689 -23.8441,6.51615 -36.2422,2.59134 -1.02992,-0.250394 -2.02087,-0.601182 -2.96103,-1.03937 -12.137,-4.69725 -21.4276,-13.7339 -26.7036,-24.7075 -5.2689,-10.9606 -6.51969,-23.85 -2.5878,-36.2516 0.250394,-1.02638 0.6,-2.01378 1.03701,-2.95158 4.69725,-12.1394 13.735,-21.4276 24.7075,-26.7036 10.9642,-5.2689 23.8536,-6.51969 36.2575,-2.58662 1.02402,0.250394 2.01024,0.598819 2.94567,1.03583zm-2.04803 38.4579c-1.80827,-3.763 -4.97717,-6.88347 -9.12757,-8.57481 -0.292914,-0.0850394 -0.585827,-0.177165 -0.87756,-0.27874l0.0153543 -0.0448819c-4.58504,-1.59921 -9.37678,-1.2 -13.415,0.741733 -3.76181,1.80827 -6.88229,4.97835 -8.57363,9.12638 -0.0850394,0.294095 -0.177165,0.588189 -0.279921,0.881103l-0.0448819 -0.0153543c-1.59921,4.58504 -1.19882,9.37678 0.741733,13.4138 1.80827,3.76181 4.97835,6.88347 9.12875,8.57481 0.292914,0.0850394 0.585827,0.175984 0.87756,0.27874l-0.0153543 0.0448819c4.58386,1.59921 9.37678,1.19882 13.415,-0.742914 3.76181,-1.80827 6.88229,-4.97835 8.57245,-9.1252 0.0838583,-0.292914 0.177165,-0.585827 0.27874,-0.876379l0.046063 0.0165354c1.59921,-4.58741 1.2,-9.3815 -0.741733,-13.4197zm-130.074 1191.3c-0.578741,-0.165354 -1.15394,-0.367323 -1.72205,-0.603544 -4.32638,-1.27323 -8.7815,-0.809056 -12.5728,1.01339 -3.76063,1.80827 -6.88111,4.97599 -8.57127,9.12166 -0.0838583,0.295276 -0.178347,0.589371 -0.281103,0.882284l-0.046063 -0.0165354c-1.59921,4.58504 -1.19882,9.37914 0.742914,13.4173 1.92756,4.00866 5.40237,7.29213 9.96024,8.88898 4.59331,1.60984 9.39804,1.21299 13.4445,-0.732284 3.75591,-1.80709 6.8752,-4.97126 8.56772,-9.11339 0.166536,-0.581103 0.368504,-1.15512 0.604725,-1.72441 1.27087,-4.32284 0.806694,-8.77678 -1.01575,-12.5669 -1.80591,-3.75827 -4.97008,-6.8752 -9.11103,-8.56654zm11.1602 -29.8902c12.1382,4.69489 21.4276,13.7327 26.7012,24.7063 5.47559,11.387 6.60945,24.8528 2.10827,37.6925l-15.0626 -5.25 1.33583 0.468898 13.7256 4.78347 -0.00944883 0.0248032 0.046063 0.0165354c-0.17126,0.486615 -0.362599,0.961418 -0.575197,1.42087 -4.69252,12.1618 -13.7386,21.4666 -24.7252,26.7484 -11.387,5.47559 -24.854,6.60827 -37.6949,2.10709 -12.8788,-4.51418 -22.7185,-13.8413 -28.2107,-25.2638 -5.2689,-10.9583 -6.51733,-23.8453 -2.59016,-36.2469 0.250394,-1.02756 0.6,-2.01614 1.03819,-2.9563 4.69607,-12.1382 13.7339,-21.4264 24.7075,-26.7024 10.9606,-5.27008 23.8477,-6.51733 36.2469,-2.58898 1.02756,0.251575 2.01851,0.6 2.95866,1.03937zm-98.8477 62.2666c12.8788,4.51654 22.7185,13.8413 28.2095,25.2638 5.47559,11.387 6.60827,24.854 2.10709,37.6961 -4.51418,12.8788 -13.839,22.7185 -25.2626,28.2095 -10.9595,5.27008 -23.8465,6.51733 -36.2481,2.59016 -1.02756,-0.250394 -2.01732,-0.601182 -2.9563,-1.03819 -12.1382,-4.69489 -21.4264,-13.7339 -26.7024,-24.7075 -5.2689,-10.963 -6.51969,-23.8536 -2.58662,-36.2563 0.250394,-1.02402 0.6,-2.01024 1.03583,-2.94567 4.69725,-12.1406 13.735,-21.4288 24.7075,-26.7047 11.387,-5.47559 24.854,-6.60827 37.6961,-2.10709zm-0.540945 39.0142c-1.92756,-4.00985 -5.40119,-7.29095 -9.95906,-8.88898 -4.59449,-1.60984 -9.39922,-1.21299 -13.4457,0.732284 -3.76063,1.80827 -6.88229,4.97835 -8.57363,9.12757 -0.0850394,0.294095 -0.177165,0.588189 -0.279921,0.881103l-0.046063 -0.0165354c-1.59921,4.58504 -1.19764,9.3756 0.742914,13.4138 1.80827,3.76063 4.97835,6.88347 9.12638,8.57363 0.292914,0.0838583 0.585827,0.177165 0.876379,0.27874l-0.0165354 0.046063c4.58741,1.59921 9.3815,1.19882 13.4197,-0.742914 4.00985,-1.92756 7.29095,-5.40237 8.8878,-9.95906 1.61102,-4.59567 1.21299,-9.39922 -0.732284,-13.4457zm-114.132 6.50788c12.1382,4.69725 21.4252,13.7327 26.7024,24.7075 5.47323,11.3858 6.61064,24.854 2.10709,37.6961 -4.51654,12.8776 -13.8413,22.7173 -25.2638,28.2095 -11.387,5.47559 -24.854,6.60827 -37.6949,2.10709 -12.8799,-4.51654 -22.7185,-13.8413 -28.2107,-25.2638 -5.27008,-10.9595 -6.51615,-23.8465 -2.58898,-36.2469 0.250394,-1.02756 0.6,-2.01614 1.03819,-2.9563 4.69725,-12.1382 13.735,-21.4252 24.7075,-26.7024 10.9618,-5.2689 23.8524,-6.51969 36.2575,-2.58662 1.02402,0.250394 2.01024,0.598819 2.94567,1.03583zm-2.04803 38.4579c-1.80827,-3.763 -4.97835,-6.88465 -9.12757,-8.57481 -0.294095,-0.0850394 -0.585827,-0.175984 -0.87756,-0.27874l0.0153543 -0.0448819c-4.58741,-1.59921 -9.37796,-1.19882 -13.415,0.741733 -3.75945,1.80827 -6.88111,4.97599 -8.57127,9.12166 -0.0838583,0.295276 -0.178347,0.589371 -0.281103,0.882284l-0.046063 -0.0165354c-1.59921,4.58504 -1.2,9.37914 0.741733,13.4173 1.92756,4.00866 5.40119,7.29095 9.96024,8.88898 4.59449,1.61102 9.39804,1.21299 13.4445,-0.732284 4.00985,-1.92756 7.29095,-5.40237 8.88898,-9.95906 1.61102,-4.59567 1.21299,-9.39922 -0.732284,-13.4457zm-125.419 -39.8693c1.0252,0.251575 2.01142,0.6 2.94803,1.03701 12.1358,4.69725 21.424,13.735 26.6988,24.7063 5.2689,10.9618 6.51969,23.8512 2.58662,36.2563 -0.250394,1.0252 -0.6,2.01142 -1.03701,2.94803 -4.69489,12.1382 -13.7327,21.4276 -24.7063,26.7012 -11.387,5.47559 -24.8528,6.60945 -37.6925,2.10827l5.25 -15.0626 -0.468898 1.33583 -4.78347 13.7256 -0.0248032 -0.00944883 -0.0165354 0.046063c-0.486615,-0.17126 -0.961418,-0.362599 -1.42087,-0.575197 -12.1618,-4.69252 -21.4666,-13.7386 -26.7484,-24.7252 -5.47559,-11.387 -6.60827,-24.854 -2.10709,-37.6949 4.51418,-12.8788 13.8413,-22.7185 25.2638,-28.2107 10.9618,-5.27008 23.8536,-6.51969 36.2587,-2.58662zm0.896457 39.4937c-1.80945,-3.763 -4.98071,-6.88583 -9.12993,-8.57599 -0.291733,-0.0838583 -0.583465,-0.175984 -0.874016,-0.277559l0.0153543 -0.0448819c-4.58741,-1.59921 -9.37796,-1.2 -13.4162,0.741733 -4.00866,1.92756 -7.29213,5.40237 -8.88898,9.96024 -1.60984,4.59331 -1.21299,9.39804 0.732284,13.4445 1.80709,3.75591 4.97126,6.8752 9.11339,8.56772 0.581103,0.166536 1.15512,0.368504 1.72441,0.604725 4.32284,1.27087 8.77678,0.806694 12.5669,-1.01575 3.75827,-1.80709 6.87638,-4.97008 8.56654,-9.11103 0.166536,-0.578741 0.367323,-1.15394 0.603544,-1.72205 1.27441,-4.3252 0.809056,-8.7815 -1.01339,-12.5717zm-118.006 -68.4343c1.02638,0.251575 2.01496,0.6 2.95276,1.03819 12.1358,4.69725 21.424,13.735 26.6988,24.7063 5.2689,10.9618 6.51969,23.8512 2.58662,36.2563 -0.250394,1.02402 -0.598819,2.00906 -1.03583,2.94567 -4.69961,12.1406 -13.735,21.4276 -24.7075,26.7036 -10.9595,5.27008 -23.8465,6.51615 -36.2469,2.58898 -1.02756,-0.250394 -2.01614,-0.6 -2.9563,-1.03819 -12.1382,-4.69725 -21.4252,-13.735 -26.7024,-24.7075 -5.2689,-10.963 -6.51969,-23.8536 -2.58662,-36.2563 0.250394,-1.0252 0.598819,-2.01142 1.03701,-2.94803 4.69725,-12.137 13.7339,-21.4264 24.7063,-26.7012 10.9606,-5.27008 23.85,-6.51733 36.254,-2.5878zm0.901182 39.4949c-1.80591,-3.75827 -4.97244,-6.87638 -9.11221,-8.56772 -0.579922,-0.166536 -1.1563,-0.368504 -1.72441,-0.604725 -4.32402,-1.27087 -8.77796,-0.806694 -12.5681,1.01575 -3.75827,1.80709 -6.87638,4.97008 -8.56654,9.11103 -0.166536,0.578741 -0.367323,1.15394 -0.603544,1.72205 -1.27441,4.3252 -0.809056,8.78032 1.01339,12.5717 1.80827,3.75945 4.97599,6.88111 9.12166,8.57127 0.295276,0.0838583 0.589371,0.178347 0.882284,0.281103l-0.0165354 0.046063c4.58622,1.60039 9.37914,1.2 13.4173,-0.741733 3.76181,-1.80827 6.88347,-4.97835 8.57481,-9.12875 0.0850394,-0.294095 0.175984,-0.585827 0.27874,-0.87756l0.0448819 0.0153543c1.59921,-4.58504 1.19882,-9.37678 -0.741733,-13.4138zm-105.908 -91.0241c12.1382,4.69725 21.4276,13.7339 26.7024,24.7075 5.47559,11.3882 6.60945,24.854 2.10827,37.6961 -4.51418,12.8776 -13.8402,22.7185 -25.2638,28.2095 -11.3858,5.47441 -24.8528,6.60945 -37.6949,2.10827 -12.8799,-4.51418 -22.7185,-13.8413 -28.2107,-25.2638 -5.2689,-10.9583 -6.51733,-23.8453 -2.59016,-36.2469 0.250394,-1.02756 0.6,-2.01614 1.03819,-2.9563 4.69607,-12.1382 13.7339,-21.4252 24.7075,-26.7036 10.9642,-5.2689 23.8536,-6.51969 36.2575,-2.58662 1.02402,0.250394 2.01024,0.598819 2.94567,1.03583zm-2.04803 38.4579c-1.80827,-3.763 -4.97835,-6.88465 -9.12757,-8.57481 -0.294095,-0.0850394 -0.585827,-0.175984 -0.87756,-0.27874l0.0153543 -0.0448819c-4.58504,-1.59921 -9.37678,-1.2 -13.415,0.741733 -3.75945,1.80827 -6.88111,4.97599 -8.57245,9.12284 -0.0838583,0.295276 -0.177165,0.589371 -0.279921,0.882284l-0.046063 -0.0165354c-1.59921,4.58504 -1.19882,9.37914 0.742914,13.4173 1.92756,4.00866 5.40237,7.29213 9.96024,8.88898 4.59449,1.61102 9.39804,1.21181 13.4445,-0.733465 4.00985,-1.92756 7.29213,-5.40237 8.88898,-9.95906 1.60984,-4.59449 1.21181,-9.39804 -0.733465,-13.4457zm-101.658 -112.936c12.8776,4.51654 22.7173,13.8402 28.2095,25.265 5.47559,11.387 6.60827,24.854 2.10709,37.6949 -4.51418,12.8776 -13.8402,22.7185 -25.2638,28.2095 -11.3858,5.47441 -24.8516,6.60945 -37.6949,2.10827 -12.8776,-4.51418 -22.7185,-13.8413 -28.2107,-25.2638 -5.47441,-11.3858 -6.60945,-24.8528 -2.10827,-37.6949 4.51654,-12.8788 13.8402,-22.7197 25.265,-28.2118 11.387,-5.47559 24.854,-6.60827 37.6961,-2.10709zm-0.540945 39.0154c-1.92756,-4.00985 -5.40119,-7.29213 -9.95906,-8.89016 -4.59449,-1.60984 -9.39922,-1.21299 -13.4457,0.732284 -4.00985,1.92756 -7.29213,5.40237 -8.89016,9.96142 -1.60984,4.59331 -1.21181,9.39804 0.733465,13.4445 1.92756,4.00866 5.40237,7.29095 9.96024,8.88898 4.59449,1.60984 9.39804,1.21181 13.4445,-0.733465 4.00985,-1.92756 7.29213,-5.40237 8.88898,-9.95906 1.61102,-4.59449 1.21299,-9.39804 -0.732284,-13.4445zm-72.4276 -132.119c12.8799,4.51654 22.7185,13.8413 28.2095,25.2638 5.47559,11.387 6.60827,24.854 2.10709,37.6961l-15.0626 -5.25 1.40788 0.493701 13.6536 4.75867 -0.00826772 0.0236221 0.046063 0.0165354c-0.172441,0.491339 -0.367323,0.968505 -0.581103,1.4315 -4.69252,12.1559 -13.7362,21.4559 -24.7193,26.7355 -11.387,5.47559 -24.8504,6.61064 -37.6914,2.10827l5.25 -15.0626 -0.936615 2.67166 -4.31811 12.3886 -0.022441 -0.00826772 -0.0165354 0.046063c-0.488977,-0.17126 -0.962599,-0.364961 -1.42441,-0.577559 -12.1618,-4.69134 -21.4642,-13.7374 -26.7461,-24.7229 -5.47441,-11.3847 -6.60945,-24.8504 -2.10827,-37.6925l15.0626 5.25 -1.35354 -0.474804 -13.7079 -4.77756 0.00944883 -0.0248032 -0.0472441 -0.0165354c0.173622,-0.493701 0.368504,-0.973229 0.583465,-1.43858 4.69607,-12.1536 13.7374,-21.4512 24.7181,-26.7307 11.387,-5.47559 24.854,-6.60827 37.6961,-2.10709zm-0.540945 39.0142c-1.92756,-4.00985 -5.40119,-7.29095 -9.95906,-8.88898 -4.59449,-1.60984 -9.39922,-1.21299 -13.4457,0.732284 -3.75709,1.80591 -6.8752,4.97126 -8.56772,9.11339 -0.166536,0.579922 -0.367323,1.1563 -0.604725,1.72441 -1.27087,4.32284 -0.806694,8.77796 1.01575,12.5669 1.80591,3.75591 4.97126,6.87402 9.11221,8.56654 0.582284,0.167717 1.15748,0.368504 1.72795,0.605906 4.32048,1.27087 8.7756,0.806694 12.5646,-1.01575 3.75945,-1.80591 6.87638,-4.97244 8.56772,-9.11339 0.166536,-0.578741 0.367323,-1.15276 0.603544,-1.72087 1.27087,-4.3252 0.807875,-8.78032 -1.01457,-12.5705z"/>
  <path class="fil0" d="M1521.73 442.631c-12.978,11.9421 -13.8177,32.1473 -1.87559,45.1252 11.9421,12.978 32.1473,13.8177 45.1252,1.87559l69.8209 -64.2201c12.978,-11.9421 13.8177,-32.1473 1.87559,-45.1252 -11.9421,-12.978 -32.1473,-13.8177 -45.1252,-1.87559l-69.8209 64.2201z"/>
  <path class="fil0" d="M1485.99 497.393c-6.48898,5.97048 -6.90827,16.0725 -0.937796,22.5614 5.97048,6.48898 16.0725,6.90827 22.5614,0.937796l96.4276 -88.6938c6.48898,-5.97048 6.90827,-16.0725 0.937796,-22.5614 -5.97048,-6.48898 -16.0725,-6.90827 -22.5614,-0.937796l-96.4276 88.6938z"/>
  <path class="fil0" d="M1600.58 379.535c-9.78544,8.85355 -10.5413,23.9646 -1.6878,33.75 8.85355,9.78544 23.9646,10.5413 33.75,1.6878l33.1016 -30.0236c9.78544,-8.85355 10.5413,-23.9646 1.6878,-33.75 -8.85355,-9.78544 -23.9646,-10.5413 -33.75,-1.6878l-33.1016 30.0236z"/>
  <path class="fil0" d="M1642.36 352.356c-6.45355,5.97048 -6.84567,16.0453 -0.875198,22.4988 5.97048,6.45355 16.0453,6.84567 22.4988,0.875198l70.2981 -65.0835c6.45355,-5.97048 6.84567,-16.0453 0.875198,-22.4988 -5.97048,-6.45355 -16.0453,-6.84567 -22.4988,-0.875198l-70.2981 65.0835z"/>
  <path class="fil0" d="M1747.31 230.762c12.5693,0.523229 23.7177,6.07323 31.5733,14.615 7.86024,8.54646 12.4618,20.0906 11.9386,32.6067 -0.525591,12.5681 -6.07323,23.7166 -14.615,31.5733 -8.5441,7.86024 -20.0906,12.4606 -32.6055,11.9386 -12.5681,-0.525591 -23.7166,-6.07323 -31.5733,-14.615 -7.86024,-8.54646 -12.4606,-20.0917 -11.9386,-32.6055 0.523229,-12.5693 6.07323,-23.7177 14.615,-31.5733 8.5441,-7.86024 20.0906,-12.4618 32.6055,-11.9398zm8.07402 36.2386c-2.34685,-2.55118 -5.64331,-4.21063 -9.32363,-4.363 -3.73583,-0.154725 -7.18347,1.2189 -9.73229,3.56339 -2.55118,2.34685 -4.21063,5.64331 -4.363,9.32363 -0.154725,3.73583 1.21772,7.18347 3.56221,9.73229 2.34685,2.55118 5.64213,4.20945 9.32363,4.363 3.73583,0.154725 7.18347,-1.21772 9.73229,-3.56221 2.55118,-2.34685 4.20945,-5.64213 4.363,-9.32363 0.155906,-3.73583 -1.21772,-7.18465 -3.56221,-9.73347z"/>
 </g>
 <rect class="fil1" width="2048" height="2048"/>
</svg>
