<?xml version="1.0" encoding="UTF-8"?>
<!DOCTYPE svg PUBLIC "-//W3C//DTD SVG 1.1//EN" "http://www.w3.org/Graphics/SVG/1.1/DTD/svg11.dtd">
<!-- Creator: CorelDRAW -->
<svg xmlns="http://www.w3.org/2000/svg" xml:space="preserve" width="2048px" height="2048px" style="shape-rendering:geometricPrecision; text-rendering:geometricPrecision; image-rendering:optimizeQuality; fill-rule:evenodd; clip-rule:evenodd"
viewBox="0 0 2048 2048"
 xmlns:xlink="http://www.w3.org/1999/xlink">
 <defs>
  <style type="text/css">
   <![CDATA[
    .fil1 {fill:none}
    .fil0 {fill:#212121;fill-rule:nonzero}
   ]]>
  </style>
 </defs>
 <g id="Layer_x0020_1">
  <metadata id="CorelCorpID_0Corel-Layer"/>
  <path class="fil0" d="M503.569 471.568l291.611 0 206.195 -206.193 22.6252 -22.624 22.6252 22.624 206.195 206.193 291.611 0 32.0008 0 0 32.0008 0 291.611 206.193 206.195 22.624 22.6252 -22.624 22.6252 -206.193 206.195 0 291.611 0 32.0008 -32.0008 0 -291.611 0 -206.195 206.193 -22.6252 22.624 -22.6252 -22.624 -206.195 -206.193 -291.611 0 -32.0008 0 0 -32.0008 0 -291.611 -206.193 -206.195 -22.624 -22.6252 22.624 -22.6252 206.193 -206.195 0 -291.611 0 -32.0008 32.0008 0zm304.86 64.0016l-272.86 0 0 272.86 -9.3756 22.6252 -192.944 192.945 192.944 192.945 9.3756 22.6252 0 272.86 272.86 0 22.6252 9.3756 192.945 192.944 192.945 -192.944 22.6252 -9.3756 272.86 0 0 -272.86 9.3756 -22.6252 192.944 -192.945 -192.944 -192.945 -9.3756 -22.6252 0 -272.86 -272.86 0 -22.6252 -9.3756 -192.945 -192.944 -192.945 192.944 -22.6252 9.3756z"/>
  <path class="fil0" d="M766.06 734.059l137.848 0 97.467 -97.467 22.6252 -22.6252 22.6252 22.6252 97.467 97.467 137.848 0 32.0008 0 0 32.0008 0 137.848 97.467 97.467 22.6252 22.6252 -22.6252 22.6252 -97.467 97.467 0 137.848 0 32.0008 -32.0008 0 -137.848 0 -97.467 97.467 -22.6252 22.6252 -22.6252 -22.6252 -97.467 -97.467 -137.848 0 -32.0008 0 0 -32.0008 0 -137.848 -97.467 -97.467 -22.6252 -22.6252 22.6252 -22.6252 97.467 -97.467 0 -137.848 0 -32.0008 32.0008 0zm151.097 64.0016l-119.097 0 0 119.097 0 13.2496 -9.3756 9.3756 -84.2174 84.2174 84.2174 84.2174 9.3756 9.3756 0 13.2496 0 119.097 119.097 0 13.2496 0 9.3756 9.3756 84.2174 84.2174 84.2174 -84.2174 9.3756 -9.3756 13.2496 0 119.097 0 0 -119.097 0 -13.2496 9.3756 -9.3756 84.2174 -84.2174 -84.2174 -84.2174 -9.3756 -9.3756 0 -13.2496 0 -119.097 -119.097 0 -13.2496 0 -9.3756 -9.3756 -84.2174 -84.2174 -84.2174 84.2174 -9.3756 9.3756 -13.2496 0z"/>
 </g>
 <rect class="fil1" width="2048" height="2048"/>
</svg>
