<?xml version="1.0" encoding="UTF-8"?>
<!DOCTYPE svg PUBLIC "-//W3C//DTD SVG 1.1//EN" "http://www.w3.org/Graphics/SVG/1.1/DTD/svg11.dtd">
<!-- Creator: CorelDRAW -->
<svg xmlns="http://www.w3.org/2000/svg" xml:space="preserve" width="2048px" height="2048px" style="shape-rendering:geometricPrecision; text-rendering:geometricPrecision; image-rendering:optimizeQuality; fill-rule:evenodd; clip-rule:evenodd"
viewBox="0 0 2048 2048"
 xmlns:xlink="http://www.w3.org/1999/xlink">
 <defs>
  <style type="text/css">
   <![CDATA[
    .fil1 {fill:none}
    .fil0 {fill:#212121;fill-rule:nonzero}
   ]]>
  </style>
 </defs>
 <g id="Layer_x0020_1">
  <metadata id="CorelCorpID_0Corel-Layer"/>
  <g id="_177042520">
   <path id="_177042928" class="fil0" d="M1023.42 969.376c85.7316,-83.6682 174.379,-158.88 266.231,-224.782 88.0642,-63.1831 179.399,-118.032 274.285,-163.818l-148.436 -142.689c-67.0512,26.8087 -129.56,62.7083 -189.259,105.383 -64.2922,45.9579 -125.407,99.8339 -185.462,158.725l-16.7811 -17.0622 16.8036 17.1354c-9.463,9.27993 -24.6591,9.13111 -33.939,-0.33189l-0.455906 -0.478347c-11.2902,-10.6122 -23.1945,-21.9461 -35.1402,-33.3166 -93.3142,-88.8237 -189.575,-180.445 -330.651,-242.819l-157.782 156.031c94.4894,49.2272 185.769,106.565 274.409,170.543 91.6808,66.1749 180.164,139.189 266.177,217.48zm294.169 -185.782c-95.4887,68.5111 -187.192,147.01 -275.47,234.526 -0.154725,0.178347 -0.311811,0.355512 -0.473622,0.530315 -8.98229,9.74646 -24.1666,10.3654 -33.913,1.38307l0.0318898 -0.0354331c-90.2741,-83.1934 -182.85,-160.279 -278.459,-229.289 -95.1509,-68.6776 -193.743,-129.666 -296.601,-181.095 -1.29213,-0.583465 -2.55,-1.28858 -3.75709,-2.12008 -1.28268,-0.868111 -2.49803,-1.87205 -3.62835,-3.01418 -9.32009,-9.42402 -9.23505,-24.6201 0.188977,-33.9402l0.0011811 0.0011811 192.408 -190.272c6.67087,-6.92717 17.1591,-9.42993 26.563,-5.49449l-0.0165354 0.0401575c157.233,65.8193 260.143,163.775 359.804,258.64 6.47126,6.16063 12.9284,12.3059 19.5036,18.5386 56.4284,-54.2788 114.082,-104.177 174.719,-147.523 66.5457,-47.5689 136.612,-87.1949 212.467,-116.003 8.7189,-4.04646 19.3961,-2.59252 26.7425,4.46929l-16.6323 17.302 16.5933 -17.25 183.213 176.12c2.71654,2.23819 4.97953,5.11063 6.54213,8.52638 5.51339,12.0532 0.212599,26.2949 -11.8406,31.8083l-9.98387 -21.8244 9.9378 21.75c-102.95,47.0929 -202.154,105.503 -297.94,174.226z"/>
   <path id="_177043600" class="fil0" d="M1741.5 1687.18c14.3587,10.2165 34.2827,6.85867 44.4992,-7.50001 10.2165,-14.3587 6.85867,-34.2827 -7.50001,-44.4992l-699.544 -498.883 697.632 -497.518c0.390945,-0.237402 0.779528,-0.48189 1.16339,-0.73819 13.591,-9.06142 18.0142,-26.7201 10.865,-40.9536l-0.297638 -0.579922 -0.0188977 -0.0366142c-1.61693,-3.07205 -3.76418,-5.93268 -6.43938,-8.44016l-0.0531496 0.056693 -237.181 -222.339c-12.8398,-12.0803 -33.0449,-11.465 -45.1252,1.3748 -12.0803,12.8398 -11.465,33.0449 1.3748,45.1252l208.879 195.807 -685.756 489.05 -686.731 -489.746 199.232 -197.923c12.4949,-12.4264 12.5516,-32.6303 0.125197,-45.1252 -12.4264,-12.4949 -32.6303,-12.5516 -45.1252,-0.125197l-224.193 222.721c-3.72284,3.16299 -6.76654,7.2189 -8.76733,12.0024 -5.75197,13.5154 -1.57323,29.6811 10.8791,38.5607l18.5799 -26.054 -18.4996 25.9996 699.544 498.883 -699.544 498.883c-14.3587,10.2165 -17.7165,30.1406 -7.50001,44.4992 10.2165,14.3587 30.1406,17.7165 44.4992,7.50001l717.501 -511.689 717.501 511.689z"/>
   <path id="_177043552" class="fil0" d="M259.5 1637.75c-7.86969,15.7394 -1.48937,34.8803 14.25,42.75 15.7394,7.86969 34.8803,1.48937 42.75,-14.25l160.001 -320 0.121654 0.0614174c7.72205,-15.4441 1.7811,-34.1457 -13.2378,-42.3685l-70.839 -44.2441 398.404 -264.825c14.7047,-9.73347 18.7335,-29.5465 9.00001,-44.2512 -9.73347,-14.7047 -29.5465,-18.7335 -44.2512,-9.00001l-437.957 291.116c-4.46457,2.53937 -8.37875,6.19134 -11.2902,10.852 -9.36142,14.9894 -4.8,34.7327 10.1894,44.0941l16.9524 -27.1418 -16.8756 27.1252 89.7851 56.0776 -147.002 294.004z"/>
   <path id="_177042736" class="fil0" d="M1731.43 1666.25c7.86969,15.7394 27.0107,22.1197 42.75,14.25 15.7394,-7.86969 22.1197,-27.0107 14.25,-42.75l-147.002 -294.004 89.7851 -56.0776 -16.8756 -27.1252 16.9524 27.1418c14.9894,-9.36142 19.5508,-29.1047 10.1894,-44.0941 -2.91142,-4.66063 -6.8256,-8.3126 -11.2902,-10.852l-439.851 -292.375c-14.7047,-9.73347 -34.5177,-5.70473 -44.2512,9.00001 -9.73347,14.7047 -5.70473,34.5177 9.00001,44.2512l400.298 266.084 -70.839 44.2441c-15.0189,8.22284 -20.9599,26.9244 -13.2378,42.3685l0.121654 -0.0614174 160.001 320z"/>
   <path id="_177042328" class="fil0" d="M1048 682.115c0,-13.2543 -10.7457,-24 -24,-24 -13.2543,0 -24,10.7457 -24,24l0 297.888c0,13.2543 10.7457,24 24,24 13.2543,0 24,-10.7457 24,-24l0 -297.888z"/>
   <path id="_177042784" class="fil0" d="M463.549 598.589c4.76339,-12.3225 -1.36417,-26.1744 -13.6866,-30.9378 -12.3225,-4.76339 -26.1744,1.36417 -30.9378,13.6866l-36.7406 94.239c-4.76339,12.3225 1.36417,26.1744 13.6866,30.9378 12.3225,4.76339 26.1744,-1.36417 30.9378,-13.6866l36.7406 -94.239z"/>
   <path id="_177042664" class="fil0" d="M1626.81 581.338c-4.76339,-12.3225 -18.6154,-18.45 -30.9378,-13.6866 -12.3225,4.76339 -18.45,18.6154 -13.6866,30.9378l36.7406 94.239c4.76339,12.3225 18.6154,18.45 30.9378,13.6866 12.3225,-4.76339 18.45,-18.6154 13.6866,-30.9378l-36.7406 -94.239z"/>
   <path id="_177042544" class="fil0" d="M1047.63 1008.46c-0.0507874,-13.2024 -10.7976,-23.8642 -24,-23.8134 -13.2024,0.0507874 -23.8642,10.7976 -23.8134,24l0.544489 101.147c0.0507874,13.2024 10.7976,23.8642 24,23.8134 13.2024,-0.0507874 23.8642,-10.7976 23.8134,-24l-0.544489 -101.147z"/>
   <path id="_177042280" class="fil0" d="M1538.5 414.254c14.0138,-10.6996 16.6996,-30.7359 6,-44.7496 -10.6996,-14.0138 -30.7359,-16.6996 -44.7496,-6l-58.1233 44.2807c-14.0138,10.6996 -16.6996,30.7359 -6,44.7496 10.6996,14.0138 30.7359,16.6996 44.7496,6l58.1233 -44.2807z"/>
   <path id="_177042256" class="fil0" d="M537.252 363.505c-14.0138,-10.6996 -34.05,-8.01379 -44.7496,6 -10.6996,14.0138 -8.01379,34.05 6,44.7496l58.1233 44.2807c14.0138,10.6996 34.05,8.01379 44.7496,-6 10.6996,-14.0138 8.01379,-34.05 -6,-44.7496l-58.1233 -44.2807z"/>
  </g>
 </g>
 <rect class="fil1" width="2048" height="2048"/>
</svg>
