<?xml version="1.0" encoding="UTF-8"?>
<!DOCTYPE svg PUBLIC "-//W3C//DTD SVG 1.1//EN" "http://www.w3.org/Graphics/SVG/1.1/DTD/svg11.dtd">
<!-- Creator: CorelDRAW -->
<svg xmlns="http://www.w3.org/2000/svg" xml:space="preserve" width="2048px" height="2048px" style="shape-rendering:geometricPrecision; text-rendering:geometricPrecision; image-rendering:optimizeQuality; fill-rule:evenodd; clip-rule:evenodd"
viewBox="0 0 2048 2048"
 xmlns:xlink="http://www.w3.org/1999/xlink">
 <defs>
  <style type="text/css">
   <![CDATA[
    .fil1 {fill:none}
    .fil0 {fill:#212121;fill-rule:nonzero}
   ]]>
  </style>
 </defs>
 <g id="Layer_x0020_1">
  <metadata id="CorelCorpID_0Corel-Layer"/>
  <g id="_177043360">
   <path id="_177043936" class="fil0" d="M572.346 537.377c-54.7087,44.5217 -84.4879,94.0406 -97.8922,147.572 -6.34489,25.3418 -9.12402,51.8374 -9.20079,79.3229 13.2732,-20.2606 27.8693,-40.4221 43.689,-60.2705 38.2559,-47.9953 83.8879,-94.4812 135.48,-136.466 51.593,-41.9859 104.313,-75.4394 155.351,-99.9308 20.0705,-9.63072 39.8882,-17.8784 59.289,-24.7217 -24.0969,-3.30827 -50.6882,-2.60906 -78.2753,1.5189 -72.2221,10.8071 -149.498,45.0083 -208.44,92.9753zm-159.893 132.071c16.6205,-66.3792 53.0504,-127.378 119.643,-181.571 67.6335,-55.0406 156.404,-94.3005 239.439,-106.726 78.7264,-11.7815 153.592,0.369685 204.168,45.2044 6.88465,5.08583 11.7248,12.9 12.7819,22.0725 2.02441,17.5559 -10.5661,33.4323 -28.1221,35.4567l-3.66733 -31.7894 3.62481 31.7504c-40.4658,4.66772 -85.7375,18.5575 -133.048,41.2595 -46.4634,22.2957 -94.8367,53.0587 -142.602,91.93 -47.765,38.8713 -90.1194,82.0418 -125.728,126.717 -36.176,45.3886 -65.1626,92.0056 -85.5662,136.924 -3.75591,10.5343 -12.9307,18.7937 -24.7382,20.8205 -17.4177,2.99055 -33.9638,-8.70355 -36.9544,-26.1213l31.5378 -5.41654 -31.5 5.3752c-12.385,-72.1052 -15.5209,-140.98 0.731103,-205.886z"/>
   <path id="_177043792" class="fil0" d="M1339.37 260.299c85.0205,11.4224 147.944,44.4378 196.834,92.406 47.6764,46.7788 80.9729,107.174 108.105,175.205l0.120473 -0.0484252c6.54567,16.415 -1.45512,35.0315 -17.8701,41.5772 -10.9606,4.37126 -22.9016,2.25355 -31.5768,-4.52126 -41.1071,-27.8681 -90.2953,-52.5969 -144.814,-72.3934 -53.628,-19.4728 -112.316,-34.1599 -173.479,-42.3768 -60.9178,-8.18386 -118.25,-9.13701 -169.644,-3.87048 -52.2697,5.35748 -98.1284,17.139 -135.012,34.2508l0.0271654 0.0590552c-16.0288,7.44213 -35.0587,0.480709 -42.5008,-15.548 -3.70748,-7.98426 -3.83977,-16.7126 -1.05827,-24.3839 19.3701,-65.0918 77.2217,-114.959 151.125,-146.291 77.2914,-32.7673 173.43,-45.6603 259.744,-34.0642zm152.085 137.907c-39.3437,-38.602 -90.6036,-65.2548 -160.584,-74.6564 -75.4229,-10.1327 -159.252,1.05709 -226.493,29.5642 -25.6252,10.8638 -48.6178,24.1536 -67.4008,39.58 20.1543,-4.31575 41.3953,-7.64528 63.5682,-9.91772 56.1874,-5.75788 118.603,-4.75158 184.644,4.12087 65.7957,8.83938 128.969,24.6532 186.731,45.6272 23.9504,8.69646 46.9878,18.2847 68.9186,28.6335 -14.4378,-23.4201 -30.6815,-44.6008 -49.3843,-62.9516z"/>
   <path id="_177043720" class="fil0" d="M1381.86 589.819c106.082,98.3646 78.8351,186.171 45.5445,293.442 -7.6004,24.4937 -15.5551,50.1237 -21.6803,75.7453l-31.0004 -7.37481 31.1233 7.44095c-4.10906,17.1886 -21.3756,27.7914 -38.5642,23.6823 -11.713,-2.8004 -20.3658,-11.7106 -23.3906,-22.5425 -17.4284,-45.9933 -43.3347,-94.3123 -76.5237,-141.963 -32.661,-46.8922 -72.1583,-92.7249 -117.34,-134.621 -37.0973,-34.3973 -65.6953,-70.2319 -91.7139,-102.834 -39.2091,-49.1315 -71.7851,-89.9481 -113.577,-97.5284l5.62559 -31.3748 -5.71182 31.4859c-17.3882,-3.15355 -28.9276,-19.8095 -25.774,-37.1977 1.60866,-8.8689 6.72993,-16.2154 13.6701,-20.8677 50.9764,-39.5162 121.099,-34.1717 194.597,-5.23701 89.7887,35.3469 186.934,106.893 254.716,169.745zm-13.9913 269.971c26.0646,-84.0934 45.7949,-153.395 -29.5087,-223.22 -63.1193,-58.5284 -152.822,-124.856 -234.467,-156.996 -23.4567,-9.23387 -45.9355,-15.5717 -66.3237,-17.8406 24.5327,21.4087 46.5981,49.05 70.7457,79.3099 24.5988,30.8221 51.6343,64.6997 85.2131,95.8347 48.7489,45.2032 91.2709,94.519 126.34,144.871 17.9504,25.7717 34.004,51.9237 48,78.0414z"/>
   <path id="_177044008" class="fil0" d="M781.823 827.618c0.115748,66.6142 22.6524,130.055 57.991,185.217 20.2276,31.5756 44.5902,60.3615 71.3327,85.454 -11.8441,-35.6481 -23.0882,-74.8371 -32.7378,-114.769 -18.5256,-76.6654 -31.3311,-156.783 -31.4422,-220.794 -0.115748,-66.8989 7.05119,-128.865 20.074,-183.509 4.3004,-18.0449 9.2445,-35.3599 14.7815,-51.8599 -14.3587,16.5 -27.6083,36.3981 -39.4725,58.5024 -38.2181,71.2052 -60.6615,163.205 -60.5268,241.759zm4.24134 219.717c-41.4307,-64.6725 -67.8544,-139.815 -67.9926,-219.717 -0.152362,-88.467 25.0725,-191.98 68.0268,-272.009 39.4677,-73.5308 94.6973,-128.732 161.08,-139.369 7.95001,-1.72677 16.5567,-0.441733 23.9622,4.26851 14.9114,9.48426 19.311,29.2642 9.82678,44.1756l-0.0236221 -0.0141732c-21.7689,34.2366 -39.4595,78.1347 -51.652,129.297 -12.0484,50.5559 -18.6791,107.56 -18.574,168.76 0.100394,58.5367 12.1949,133.386 29.6918,205.794 19.539,80.8607 45.6237,157.791 69.1701,205.083 5.65512,9.51142 6.21851,21.698 0.415748,32.041 -8.64686,15.4122 -28.1528,20.8984 -43.565,12.2516l0.0212599 -0.0389764c-68.38,-38.3646 -133.938,-98.015 -180.388,-170.522z"/>
   <path id="_177043504" class="fil0" d="M983.851 441.759c-9.52678,-14.8417 -29.2831,-19.1516 -44.1248,-9.62481 -14.8417,9.52678 -19.1516,29.2831 -9.62481,44.1248 135.741,211.152 196.051,406.703 203.555,598.082 7.53426,192.141 -37.9524,381.24 -113.738,578.284 -6.28229,16.4291 1.94528,34.8425 18.3744,41.1248 16.4291,6.28229 34.8425,-1.94528 41.1248,-18.3744 78.6981,-204.616 125.903,-401.739 117.99,-603.533 -7.94174,-202.559 -71.2229,-408.677 -213.556,-630.083z"/>
  </g>
  <path class="fil0" d="M255.999 1760c-17.6728,0 -32.0008,14.328 -32.0008,32.0008 0,17.6728 14.328,32.0008 32.0008,32.0008 173.562,0 346.031,-35.9327 518.5,-71.863 335.041,-69.7997 670.088,-139.601 1000.63,66.9875 14.9799,9.32009 34.6807,4.73032 44.0008,-10.2496 9.32009,-14.9799 4.73032,-34.6807 -10.2496,-44.0008 -352.125,-220.08 -699.753,-147.657 -1047.38,-75.2363 -168.864,35.1792 -337.728,70.3607 -505.5,70.3607z"/>
 </g>
 <rect class="fil1" width="2048" height="2048"/>
</svg>
