<?xml version="1.0" encoding="UTF-8"?>
<!DOCTYPE svg PUBLIC "-//W3C//DTD SVG 1.1//EN" "http://www.w3.org/Graphics/SVG/1.1/DTD/svg11.dtd">
<!-- Creator: CorelDRAW -->
<svg xmlns="http://www.w3.org/2000/svg" xml:space="preserve" width="2048px" height="2048px" style="shape-rendering:geometricPrecision; text-rendering:geometricPrecision; image-rendering:optimizeQuality; fill-rule:evenodd; clip-rule:evenodd"
viewBox="0 0 2048 2048"
 xmlns:xlink="http://www.w3.org/1999/xlink">
 <defs>
  <style type="text/css">
   <![CDATA[
    .fil1 {fill:none}
    .fil0 {fill:#212121;fill-rule:nonzero}
   ]]>
  </style>
 </defs>
 <g id="Layer_x0020_1">
  <metadata id="CorelCorpID_0Corel-Layer"/>
  <g id="_177043912">
   <path id="_177014872" class="fil0" d="M281.511 522.248l733.21 -223.149 -0.0377953 -0.124016c7.29686,-2.22047 14.7732,-1.70433 21.3307,0.955513l733.237 223.158 -9.2504 30.4996 9.31772 -30.6142c16.9075,5.14489 26.4414,23.0244 21.2965,39.9319 -3.52796,11.5925 -13.0417,19.7162 -24.124,22.0217l-733.21 223.149 0.0377953 0.124016c-7.29686,2.22047 -14.7732,1.70433 -21.3307,-0.955513l-733.237 -223.158 9.2504 -30.4996 -9.31772 30.6142c-16.9075,-5.14489 -26.4414,-23.0244 -21.2965,-39.9319 3.52796,-11.5925 13.0417,-19.7162 24.124,-22.0217zm742.49 -159.344l-626.535 190.683 626.535 190.683 626.535 -190.683 -626.535 -190.683z"/>
   <path id="_177015064" class="fil0" d="M1769.25 1524.91c16.8437,-5.10827 26.3575,-22.9063 21.2492,-39.75 -5.10827,-16.8437 -22.9063,-26.3575 -39.75,-21.2492l-726.749 221.183 -726.751 -221.183c-16.8437,-5.10827 -34.6418,4.40552 -39.75,21.2492 -5.10827,16.8437 4.40552,34.6418 21.2492,39.75l733.238 223.158c6.55749,2.65984 14.0339,3.17599 21.3307,0.955513l-0.0377953 -0.124016 735.97 -223.989z"/>
   <path id="_177015256" class="fil0" d="M320.002 559.412c0,-17.6728 -14.328,-32.0008 -32.0008,-32.0008 -17.6728,0 -32.0008,14.328 -32.0008,32.0008l0 752.536 0 175.464c0,17.6728 14.328,32.0008 32.0008,32.0008 17.6728,0 32.0008,-14.328 32.0008,-32.0008l0 -175.464 0 -752.536z"/>
   <path id="_177015040" class="fil0" d="M1056 790.411c0,-17.6728 -14.328,-32.0008 -32.0008,-32.0008 -17.6728,0 -32.0008,14.328 -32.0008,32.0008l0 928c0,17.6728 14.328,32.0008 32.0008,32.0008 17.6728,0 32.0008,-14.328 32.0008,-32.0008l0 -928z"/>
   <path id="_177015208" class="fil0" d="M1792 566.412c0,-17.6728 -14.328,-32.0008 -32.0008,-32.0008 -17.6728,0 -32.0008,14.328 -32.0008,32.0008l0 928c0,17.6728 14.328,32.0008 32.0008,32.0008 17.6728,0 32.0008,-14.328 32.0008,-32.0008l0 -928z"/>
   <path id="_177015184" class="fil0" d="M528.213 1139.68c0.379134,-8.80158 -6.44882,-16.2461 -15.2504,-16.6252 -8.80158,-0.379134 -16.2461,6.44882 -16.6252,15.2504 -0.400394,8.96457 -2.06811,16.9429 -4.82126,23.8382 -4.22481,10.5839 -11.0976,18.7429 -19.8957,24.0732 -9.05198,5.48504 -20.3906,8.14607 -33.267,7.57087 -10.089,-0.45 -21.0579,-2.88425 -32.5819,-7.48465 -26.0965,-10.4173 -50.2382,-30.0107 -68.6197,-53.85 -18.2823,-23.7083 -30.6355,-51.3485 -33.2764,-78.0131 -0.862205,-8.76733 -8.67048,-15.1748 -17.4378,-14.3126 -8.76733,0.862205 -15.1748,8.67048 -14.3126,17.4378 3.24331,32.7437 18.0036,66.1512 39.7772,94.3879 21.6721,28.1055 50.5394,51.3685 82.1197,63.9745 14.9421,5.96457 29.413,9.13111 42.9567,9.73583 19.2236,0.859843 36.6685,-3.4252 51.1418,-12.1961 14.7307,-8.92678 26.1414,-22.3406 33.0201,-39.574 4.063,-10.1787 6.51024,-21.639 7.07245,-34.213z"/>
   <path id="_177014752" class="fil0" d="M751.939 1226.37c0.379134,-8.80158 -6.44882,-16.2461 -15.2504,-16.6252 -8.80158,-0.379134 -16.2461,6.44882 -16.6252,15.2504 -0.400394,8.96575 -2.06811,16.9429 -4.82126,23.8394 -4.22481,10.5839 -11.0976,18.7429 -19.8957,24.0732 -9.05198,5.48386 -20.3917,8.14489 -33.267,7.56969 -10.089,-0.45 -21.0567,-2.88307 -32.5807,-7.48347 -26.0965,-10.4173 -50.2382,-30.0095 -68.6197,-53.8489 -18.2823,-23.7095 -30.6355,-51.3485 -33.2776,-78.0142 -0.862205,-8.76733 -8.67048,-15.1748 -17.4378,-14.3126 -8.76733,0.862205 -15.1748,8.67048 -14.3126,17.4378 3.24567,32.7437 18.0047,66.1524 39.7784,94.389 21.6721,28.1055 50.5406,51.3674 82.1197,63.9733 14.9421,5.96457 29.413,9.12993 42.9555,9.73465 19.2225,0.859843 36.6662,-3.4252 51.1418,-12.1949 14.7307,-8.92678 26.1414,-22.3406 33.0201,-39.574 4.063,-10.1799 6.51024,-21.639 7.07245,-34.2142z"/>
   <path id="_177014368" class="fil0" d="M1033.22 1295.87c0.483071,-8.80158 -6.26103,-16.3299 -15.0626,-16.813 -8.80158,-0.483071 -16.3299,6.26103 -16.813,15.0626 -0.308268,5.49685 -1.22126,10.5532 -2.6811,15.1476 -4.22953,13.3028 -13.3358,23.713 -25.9205,30.6083 -13.5543,7.42678 -31.1658,10.9051 -51.3201,9.77481 -12.7134,-0.713386 -26.302,-3.23504 -40.4055,-7.71969 -33.6095,-10.6866 -64.5591,-30.6378 -87.9946,-54.8481 -22.7858,-23.5382 -38.1626,-50.8323 -41.4189,-77.0138 -1.0689,-8.76733 -9.04489,-15.0071 -17.8122,-13.9382 -8.76733,1.0689 -15.0071,9.04489 -13.9382,17.8122 4.13268,33.2256 22.7929,66.9804 50.2937,95.3894 26.8488,27.7358 62.4485,50.6386 101.244,62.9741 16.8402,5.35512 33.078,8.36575 48.2811,9.21969 26.2051,1.46929 49.7115,-3.38622 68.4461,-13.6512 19.7043,-10.7965 34.0725,-27.4441 40.9205,-48.9815 2.30433,-7.24843 3.72756,-14.9398 4.18111,-23.0232z"/>
   <path id="_177014248" class="fil0" d="M1551.66 1138.3c-0.379134,-8.80158 -7.82363,-15.6295 -16.6252,-15.2504 -8.80158,0.379134 -15.6295,7.82363 -15.2504,16.6252 0.562205,12.574 3.00945,24.0343 7.07245,34.213 6.87875,17.2335 18.2894,30.6473 33.0201,39.574 14.4732,8.77087 31.9181,13.0559 51.1418,12.1961 13.5437,-0.604725 28.0146,-3.77126 42.9567,-9.73583 31.5803,-12.6059 60.4477,-35.8689 82.1197,-63.9745 21.7736,-28.2366 36.5339,-61.6441 39.7772,-94.3879 0.862205,-8.76733 -5.54528,-16.5756 -14.3126,-17.4378 -8.76733,-0.862205 -16.5756,5.54528 -17.4378,14.3126 -2.64095,26.6646 -14.9941,54.3048 -33.2764,78.0131 -18.3815,23.8394 -42.5233,43.4327 -68.6197,53.85 -11.524,4.6004 -22.4929,7.03465 -32.5819,7.48465 -12.8764,0.575197 -24.215,-2.08583 -33.267,-7.57087 -8.79804,-5.33032 -15.6709,-13.4894 -19.8957,-24.0732 -2.75315,-6.89528 -4.42087,-14.8736 -4.82126,-23.8382z"/>
   <path id="_177013888" class="fil0" d="M1327.94 1225c-0.379134,-8.80158 -7.82363,-15.6295 -16.6252,-15.2504 -8.80158,0.379134 -15.6295,7.82363 -15.2504,16.6252 0.562205,12.5752 3.00945,24.0343 7.07245,34.2142 6.87875,17.2335 18.2894,30.6473 33.0201,39.574 14.4756,8.76969 31.9193,13.0547 51.1418,12.1949 13.5425,-0.604725 28.0134,-3.77008 42.9555,-9.73465 31.5792,-12.6059 60.4477,-35.8677 82.1197,-63.9733 21.7736,-28.2366 36.5327,-61.6453 39.7784,-94.389 0.862205,-8.76733 -5.54528,-16.5756 -14.3126,-17.4378 -8.76733,-0.862205 -16.5756,5.54528 -17.4378,14.3126 -2.64213,26.6658 -14.9953,54.3048 -33.2776,78.0142 -18.3815,23.8394 -42.5233,43.4315 -68.6197,53.8489 -11.524,4.6004 -22.4917,7.03347 -32.5807,7.48347 -12.8752,0.575197 -24.215,-2.08583 -33.267,-7.56969 -8.79804,-5.33032 -15.6709,-13.4894 -19.8957,-24.0732 -2.75315,-6.89646 -4.42087,-14.8736 -4.82126,-23.8394z"/>
   <path id="_177014152" class="fil0" d="M1046.66 1294.12c-0.483071,-8.80158 -8.01142,-15.5457 -16.813,-15.0626 -8.80158,0.483071 -15.5457,8.01142 -15.0626,16.813 0.453544,8.08347 1.87677,15.7748 4.18111,23.0232 6.84804,21.5374 21.2162,38.1851 40.9205,48.9815 18.7347,10.265 42.241,15.1205 68.4461,13.6512 15.2032,-0.853938 31.441,-3.86457 48.2811,-9.21969 38.7957,-12.3354 74.3953,-35.2382 101.244,-62.9741 27.5008,-28.4091 46.1611,-62.1638 50.2937,-95.3894 1.0689,-8.76733 -5.17087,-16.7433 -13.9382,-17.8122 -8.76733,-1.0689 -16.7433,5.17087 -17.8122,13.9382 -3.2563,26.1815 -18.6331,53.4756 -41.4189,77.0138 -23.4355,24.2103 -54.3851,44.1615 -87.9946,54.8481 -14.1036,4.48465 -27.6921,7.0063 -40.4055,7.71969 -20.1543,1.13032 -37.7658,-2.34803 -51.3201,-9.77481 -12.5847,-6.89528 -21.691,-17.3055 -25.9205,-30.6083 -1.45984,-4.59449 -2.37284,-9.65079 -2.6811,-15.1476z"/>
   <path id="_177013840" class="fil0" d="M361.499 759.499c-3.15945,-0.983859 -6.35552,-1.45276 -9.49843,-1.45394l0 65.4225 566.501 177.032c3.15945,0.983859 6.3567,1.45276 9.49961,1.45394l0 -65.4213 -566.502 -177.033z"/>
   <path id="_177013816" class="fil0" d="M1686.5 759.499c3.15945,-0.983859 6.35552,-1.45276 9.49843,-1.45394l0 65.4225 -566.501 177.032c-3.15945,0.983859 -6.3567,1.45276 -9.49961,1.45394l0 -65.4213 566.502 -177.033z"/>
   <path id="_177013984" class="fil0" d="M361.499 877.544c-3.15945,-0.983859 -6.35552,-1.45276 -9.49843,-1.45394l0 65.4225 213.625 66.7583 0 -66.9367 -204.127 -63.7902zm352.877 177.212l204.125 63.789c3.15945,0.983859 6.3567,1.45276 9.49961,1.45394l0 -65.4213 -213.625 -66.7583 0 66.9367z"/>
   <path id="_177013600" class="fil0" d="M1686.5 877.544c3.15945,-0.983859 6.35552,-1.45276 9.49843,-1.45394l0 65.4225 -213.625 66.7583 0 -66.9367 204.127 -63.7902zm-352.877 177.212l-204.125 63.789c-3.15945,0.983859 -6.3567,1.45276 -9.49961,1.45394l0 -65.4213 213.625 -66.7583 0 66.9367z"/>
   <path id="_177013432" class="fil0" d="M305.75 1368.88c-8.49095,-2.34685 -17.2772,2.63386 -19.624,11.1248 -2.34685,8.49095 2.63386,17.2772 11.1248,19.624l722.501 200.25c8.49095,2.34685 17.2772,-2.63386 19.624,-11.1248 2.34685,-8.49095 -2.63386,-17.2772 -11.1248,-19.624l-722.501 -200.25z"/>
   <path id="_177013696" class="fil0" d="M1750.75 1399.62c8.49095,-2.34685 13.4717,-11.1331 11.1248,-19.624 -2.34685,-8.49095 -11.1331,-13.4717 -19.624,-11.1248l-722.501 200.25c-8.49095,2.34685 -13.4717,11.1331 -11.1248,19.624 2.34685,8.49095 11.1331,13.4717 19.624,11.1248l722.501 -200.25z"/>
   <path id="_177013672" class="fil0" d="M292.25 1264.62c-8.49095,-2.34685 -17.2772,2.63386 -19.624,11.1248 -2.34685,8.49095 2.63386,17.2772 11.1248,19.624l722.501 200.25c8.49095,2.34685 17.2772,-2.63386 19.624,-11.1248 2.34685,-8.49095 -2.63386,-17.2772 -11.1248,-19.624l-722.501 -200.25z"/>
   <path id="_177013648" class="fil0" d="M1764.25 1295.37c8.49095,-2.34685 13.4717,-11.1331 11.1248,-19.624 -2.34685,-8.49095 -11.1331,-13.4717 -19.624,-11.1248l-722.501 200.25c-8.49095,2.34685 -13.4717,11.1331 -11.1248,19.624 2.34685,8.49095 11.1331,13.4717 19.624,11.1248l722.501 -200.25z"/>
   <path id="_177013312" class="fil0" d="M473.902 1429.61c0,-8.83583 -7.16457,-16.0004 -16.0004,-16.0004 -8.83583,0 -16.0004,7.16457 -16.0004,16.0004l0 121.093c0,8.83583 7.16457,16.0004 16.0004,16.0004 8.83583,0 16.0004,-7.16457 16.0004,-16.0004l0 -121.093z"/>
   <path id="_177013528" class="fil0" d="M1606.1 1429.61c0,-8.83583 -7.16457,-16.0004 -16.0004,-16.0004 -8.83583,0 -16.0004,7.16457 -16.0004,16.0004l0 121.093c0,8.83583 7.16457,16.0004 16.0004,16.0004 8.83583,0 16.0004,-7.16457 16.0004,-16.0004l0 -121.093z"/>
   <path id="_177013120" class="fil0" d="M656.004 1478.91c0,-8.83583 -7.16457,-16.0004 -16.0004,-16.0004 -8.83583,0 -16.0004,7.16457 -16.0004,16.0004l0 121.093c0,8.83583 7.16457,16.0004 16.0004,16.0004 8.83583,0 16.0004,-7.16457 16.0004,-16.0004l0 -121.093z"/>
   <path id="_177013048" class="fil0" d="M1424 1478.91c0,-8.83583 -7.16457,-16.0004 -16.0004,-16.0004 -8.83583,0 -16.0004,7.16457 -16.0004,16.0004l0 121.093c0,8.83583 7.16457,16.0004 16.0004,16.0004 8.83583,0 16.0004,-7.16457 16.0004,-16.0004l0 -121.093z"/>
   <path id="_177013168" class="fil0" d="M816.003 1536c0,-8.83583 -7.16457,-16.0004 -16.0004,-16.0004 -8.83583,0 -16.0004,7.16457 -16.0004,16.0004l0 121.093c0,8.83583 7.16457,16.0004 16.0004,16.0004 8.83583,0 16.0004,-7.16457 16.0004,-16.0004l0 -121.093z"/>
   <path id="_177045496" class="fil0" d="M1264 1536c0,-8.83583 -7.16457,-16.0004 -16.0004,-16.0004 -8.83583,0 -16.0004,7.16457 -16.0004,16.0004l0 121.093c0,8.83583 7.16457,16.0004 16.0004,16.0004 8.83583,0 16.0004,-7.16457 16.0004,-16.0004l0 -121.093z"/>
   <path id="_177045400" class="fil0" d="M400.003 1308.51c0,-8.83583 -7.16457,-16.0004 -16.0004,-16.0004 -8.83583,0 -16.0004,7.16457 -16.0004,16.0004l0 90.5351c0,8.83583 7.16457,16.0004 16.0004,16.0004 8.83583,0 16.0004,-7.16457 16.0004,-16.0004l0 -90.5351z"/>
   <path id="_177045304" class="fil0" d="M1680 1308.51c0,-8.83583 -7.16457,-16.0004 -16.0004,-16.0004 -8.83583,0 -16.0004,7.16457 -16.0004,16.0004l0 90.5351c0,8.83583 7.16457,16.0004 16.0004,16.0004 8.83583,0 16.0004,-7.16457 16.0004,-16.0004l0 -90.5351z"/>
   <path id="_177045328" class="fil0" d="M582.104 1364.23c0,-8.83583 -7.16457,-16.0004 -16.0004,-16.0004 -8.83583,0 -16.0004,7.16457 -16.0004,16.0004l0 93.6591c0,8.83583 7.16457,16.0004 16.0004,16.0004 8.83583,0 16.0004,-7.16457 16.0004,-16.0004l0 -93.6591z"/>
   <path id="_177044944" class="fil0" d="M1497.9 1364.23c0,-8.83583 -7.16457,-16.0004 -16.0004,-16.0004 -8.83583,0 -16.0004,7.16457 -16.0004,16.0004l0 93.6591c0,8.83583 7.16457,16.0004 16.0004,16.0004 8.83583,0 16.0004,-7.16457 16.0004,-16.0004l0 -93.6591z"/>
   <path id="_177044824" class="fil0" d="M742.104 1401.79c0,-8.83583 -7.16457,-16.0004 -16.0004,-16.0004 -8.83583,0 -16.0004,7.16457 -16.0004,16.0004l0 92.3481c0,8.83583 7.16457,16.0004 16.0004,16.0004 8.83583,0 16.0004,-7.16457 16.0004,-16.0004l0 -92.3481z"/>
   <path id="_177044776" class="fil0" d="M1337.9 1401.79c0,-8.83583 -7.16457,-16.0004 -16.0004,-16.0004 -8.83583,0 -16.0004,7.16457 -16.0004,16.0004l0 92.3481c0,8.83583 7.16457,16.0004 16.0004,16.0004 8.83583,0 16.0004,-7.16457 16.0004,-16.0004l0 -92.3481z"/>
   <path id="_177044584" class="fil0" d="M911.998 1454.13c0,-8.83583 -7.16457,-16.0004 -16.0004,-16.0004 -8.83583,0 -16.0004,7.16457 -16.0004,16.0004l0 81.8658c0,8.83583 7.16457,16.0004 16.0004,16.0004 8.83583,0 16.0004,-7.16457 16.0004,-16.0004l0 -81.8658z"/>
   <path id="_177045208" class="fil0" d="M1168 1454.13c0,-8.83583 -7.16457,-16.0004 -16.0004,-16.0004 -8.83583,0 -16.0004,7.16457 -16.0004,16.0004l0 81.8658c0,8.83583 7.16457,16.0004 16.0004,16.0004 8.83583,0 16.0004,-7.16457 16.0004,-16.0004l0 -81.8658z"/>
   <path id="_177044968" class="fil0" d="M473.902 1217.38c0,-8.83583 -7.16457,-16.0004 -16.0004,-16.0004 -8.83583,0 -16.0004,7.16457 -16.0004,16.0004l0 109.843c0,8.83583 7.16457,16.0004 16.0004,16.0004 8.83583,0 16.0004,-7.16457 16.0004,-16.0004l0 -109.843z"/>
   <path id="_177044560" class="fil0" d="M1616 1211.75c0,-8.83583 -7.16457,-16.0004 -16.0004,-16.0004 -8.83583,0 -16.0004,7.16457 -16.0004,16.0004l0 109.843c0,8.83583 7.16457,16.0004 16.0004,16.0004 8.83583,0 16.0004,-7.16457 16.0004,-16.0004l0 -109.843z"/>
   <path id="_177045112" class="fil0" d="M656.004 1294.18c0,-8.83583 -7.16457,-16.0004 -16.0004,-16.0004 -8.83583,0 -16.0004,7.16457 -16.0004,16.0004l0 82.343c0,8.83583 7.16457,16.0004 16.0004,16.0004 8.83583,0 16.0004,-7.16457 16.0004,-16.0004l0 -82.343z"/>
   <path id="_177044488" class="fil0" d="M1415.65 1297.3c0,-8.83583 -7.16457,-16.0004 -16.0004,-16.0004 -8.83583,0 -16.0004,7.16457 -16.0004,16.0004l0 82.343c0,8.83583 7.16457,16.0004 16.0004,16.0004 8.83583,0 16.0004,-7.16457 16.0004,-16.0004l0 -82.343z"/>
   <path id="_177044848" class="fil0" d="M816.003 1326.27c0,-8.83583 -7.16457,-16.0004 -16.0004,-16.0004 -8.83583,0 -16.0004,7.16457 -16.0004,16.0004l0 81.7264c0,8.83583 7.16457,16.0004 16.0004,16.0004 8.83583,0 16.0004,-7.16457 16.0004,-16.0004l0 -81.7264z"/>
   <path id="_177045088" class="fil0" d="M1241.9 1334.4c0,-8.83583 -7.16457,-16.0004 -16.0004,-16.0004 -8.83583,0 -16.0004,7.16457 -16.0004,16.0004l0 81.7264c0,8.83583 7.16457,16.0004 16.0004,16.0004 8.83583,0 16.0004,-7.16457 16.0004,-16.0004l0 -81.7264z"/>
  </g>
 </g>
 <rect class="fil1" width="2048" height="2048"/>
</svg>
