<?xml version="1.0" encoding="UTF-8"?>
<!DOCTYPE svg PUBLIC "-//W3C//DTD SVG 1.1//EN" "http://www.w3.org/Graphics/SVG/1.1/DTD/svg11.dtd">
<!-- Creator: CorelDRAW -->
<svg xmlns="http://www.w3.org/2000/svg" xml:space="preserve" width="2048px" height="2048px" style="shape-rendering:geometricPrecision; text-rendering:geometricPrecision; image-rendering:optimizeQuality; fill-rule:evenodd; clip-rule:evenodd"
viewBox="0 0 2048 2048"
 xmlns:xlink="http://www.w3.org/1999/xlink">
 <defs>
  <style type="text/css">
   <![CDATA[
    .fil1 {fill:none}
    .fil0 {fill:#212121;fill-rule:nonzero}
   ]]>
  </style>
 </defs>
 <g id="Layer_x0020_1">
  <metadata id="CorelCorpID_0Corel-Layer"/>
  <path class="fil0" d="M288.642 762.786c142.72,0.0236221 296.521,7.84489 450.319,15.665l0.00472441 -0.0838583c0.807875,0.0413386 1.60866,0.113386 2.39882,0.212599 302.659,15.3886 605.116,30.6083 833.995,-15.163l-0.0011811 -0.00826772c17.3291,-3.46536 34.1894,7.77284 37.6548,25.102 0.458268,2.28898 0.656693,4.56851 0.62126,6.8126 -0.011811,3.59882 -0.145276,9.02481 -0.394488,16.2284 -4.33701,125.074 -56.315,208.422 -132.363,260.72 -74.1036,50.9611 -170.13,71.0682 -265.977,71.0682 -6.02953,0 -14.1933,-0.180709 -24.365,-0.532678 -177.216,-6.14646 -368.605,-91.63 -561.749,-177.895 -117.391,-52.4315 -235.452,-105.163 -349.91,-139.5l9.1252 -30.6248 -9.19489 30.6508c-16.9276,-5.07756 -26.5335,-22.9181 -21.4559,-39.8457 4.22363,-14.0799 17.2784,-23.0941 31.2922,-22.8059zm448.699 47.5406l-1.6252 31.8756c-85.7079,-4.35827 -171.417,-8.71536 -255.861,-11.6799 58.2071,24.0059 116.65,50.1083 174.932,76.1398 187.452,83.7237 373.198,166.687 537.749,172.394 5.38937,0.185433 12.815,0.282284 22.3642,0.282284 84.3402,0 167.615,-16.8532 229.727,-59.5666 55.3276,-38.0481 94.5827,-97.8095 103.286,-186.326 -230.167,38.2028 -519.893,23.6114 -809.783,8.87363 -0.798426,0.0188977 -1.60394,0.00826772 -2.41418,-0.0330709l1.6252 -31.9595z"/>
  <path class="fil0" d="M903.702 692.861c-17.6728,0 -32.0008,14.328 -32.0008,32.0008 0,17.6728 14.328,32.0008 32.0008,32.0008l664.299 0c17.6728,0 32.0008,-14.328 32.0008,-32.0008 0,-17.6728 -14.328,-32.0008 -32.0008,-32.0008l-664.299 0z"/>
  <path class="fil0" d="M1267.85 667.371c0,-17.6728 -14.328,-32.0008 -32.0008,-32.0008 -17.6728,0 -32.0008,14.328 -32.0008,32.0008l0 47.2477c0,17.6728 14.328,32.0008 32.0008,32.0008 17.6728,0 32.0008,-14.328 32.0008,-32.0008l0 -47.2477z"/>
  <path class="fil0" d="M1578.12 832.297c-17.6043,0.827953 -31.2036,15.7713 -30.3756,33.3756 0.827953,17.6043 15.7713,31.2036 33.3756,30.3756 38.2465,-1.81654 68.478,-4.79528 97.1812,-8.93387 16.3382,-2.3563 31.8213,-4.99489 47.7142,-7.94528 -4.30276,40.7929 -15.4016,74.1532 -31.402,99.8564 -13.0701,20.9953 -29.3646,36.7985 -47.7461,47.2252 -18.0331,10.2295 -38.4992,15.4394 -60.2575,15.4394 -29.517,0 -61.3796,-9.61064 -92.9883,-29.2866 -14.9799,-9.32009 -34.6807,-4.73032 -44.0008,10.2496 -9.32009,14.9799 -4.73032,34.6807 10.2496,44.0008 42.1335,26.2276 85.6028,39.0378 126.739,39.0378 32.6339,0 63.7949,-8.07875 91.7576,-23.941 27.6107,-15.6626 51.6874,-38.7591 70.4965,-68.9741 26.8795,-43.1811 43.0548,-100.981 43.1386,-172.262 0.0366142,-2.24646 -0.161811,-4.53189 -0.620079,-6.8256 -3.46536,-17.3291 -20.3244,-28.5685 -37.6536,-25.1032l0.0011811 0.00826772c-31.5662,6.31182 -58.0737,11.4685 -84.4288,15.2693 -27.2693,3.93189 -55.6784,6.74764 -91.1812,8.43308z"/>
  <path class="fil0" d="M1021.11 1356.06c67.017,-64.78 133.949,-129.634 164.515,-224.191l30.3756 9.75001 -30.4488 -9.84213c5.43544,-16.8154 23.4756,-26.0421 40.291,-20.6067 11.4638,3.70512 19.3973,13.2685 21.5669,24.3083 8.66339,33.776 23.9729,68.8323 45.502,104.969 23.0008,38.6079 52.9075,78.326 89.2312,118.935l-23.7496 21.2504 23.8512 -21.3343c11.7815,13.1717 10.6547,33.404 -2.51693,45.1855 -6.10867,5.46378 -13.7362,8.14961 -21.3343,8.14607l0 0.00354331 -316.786 0c-17.6728,0 -32.0008,-14.328 -32.0008,-32.0008 0,-9.87402 4.47402,-18.7028 11.5039,-24.5729zm192.256 -129.099c-25.8945,46.3205 -58.7693,85.2379 -93.9851,121.671l170.707 0c-19.813,-25.4823 -37.1587,-50.6433 -51.9284,-75.4347 -9.26103,-15.5457 -17.5323,-30.9614 -24.7937,-46.2366z"/>
 </g>
 <rect class="fil1" width="2048" height="2048"/>
</svg>
