<?xml version="1.0" encoding="UTF-8"?>
<!DOCTYPE svg PUBLIC "-//W3C//DTD SVG 1.1//EN" "http://www.w3.org/Graphics/SVG/1.1/DTD/svg11.dtd">
<!-- Creator: CorelDRAW -->
<svg xmlns="http://www.w3.org/2000/svg" xml:space="preserve" width="2048px" height="2048px" style="shape-rendering:geometricPrecision; text-rendering:geometricPrecision; image-rendering:optimizeQuality; fill-rule:evenodd; clip-rule:evenodd"
viewBox="0 0 2048 2048"
 xmlns:xlink="http://www.w3.org/1999/xlink">
 <defs>
  <style type="text/css">
   <![CDATA[
    .fil1 {fill:none}
    .fil0 {fill:#212121;fill-rule:nonzero}
   ]]>
  </style>
 </defs>
 <g id="Layer_x0020_1">
  <metadata id="CorelCorpID_0Corel-Layer"/>
  <path class="fil0" d="M1789.93 963.589c0.568111,7.96654 1.04291,16.9536 1.41851,26.9929 0.42874,11.4213 0.647245,21.0744 0.647245,28.891 0,212.073 -85.9631,404.074 -224.945,543.056 -138.982,138.982 -330.983,224.945 -543.056,224.945 -212.073,0 -404.074,-85.9631 -543.056,-224.945 -138.982,-138.982 -224.945,-330.983 -224.945,-543.056 0,-190.063 69.1477,-364.07 183.68,-498.26 116.088,-136.011 278.965,-231 463.813,-260.172l-0.0200788 -0.124016c17.4567,-2.75197 33.8422,9.1689 36.5941,26.6256 2.61378,16.5803 -8.01024,32.1922 -24.0402,36.0756 -124.973,40.8874 -232.48,120.541 -308.318,224.786 -74.2831,102.111 -118.106,227.85 -118.106,363.87 0,170.991 69.3071,325.793 181.356,437.842 112.049,112.049 266.851,181.356 437.842,181.356 162.098,0 309.617,-62.2335 419.957,-164.098 111.194,-102.652 184.676,-245.593 197.306,-405.672l31.8756 2.5004 -31.9016 -2.51693c1.38898,-17.6185 16.8,-30.7736 34.4185,-29.3847 16.5662,1.3063 29.1839,15.0095 29.478,31.2886zm-268.129 553.689c60.6615,-60.6615 110.293,-132.351 145.656,-211.793 -27.9225,39.5988 -59.9422,76.1056 -95.4532,108.889 -121.771,112.417 -284.489,181.099 -463.206,181.099 -188.656,0 -359.458,-76.4729 -483.092,-200.107 -123.634,-123.634 -200.107,-294.436 -200.107,-483.092 0,-149.964 48.3674,-288.666 130.356,-401.37 13.0205,-17.8984 26.8949,-35.1402 41.5571,-51.6662 -40.0193,30.5185 -76.6867,65.2241 -109.335,103.474 -104.868,122.865 -168.18,282.369 -168.18,456.761 0,194.407 78.7973,370.409 206.193,497.806 127.396,127.396 303.398,206.193 497.806,206.193 194.407,0 370.409,-78.7973 497.806,-206.193z"/>
 </g>
 <rect class="fil1" width="2048" height="2048"/>
</svg>
