<?xml version="1.0" encoding="UTF-8"?>
<!DOCTYPE svg PUBLIC "-//W3C//DTD SVG 1.1//EN" "http://www.w3.org/Graphics/SVG/1.1/DTD/svg11.dtd">
<!-- Creator: CorelDRAW -->
<svg xmlns="http://www.w3.org/2000/svg" xml:space="preserve" width="2048px" height="2048px" style="shape-rendering:geometricPrecision; text-rendering:geometricPrecision; image-rendering:optimizeQuality; fill-rule:evenodd; clip-rule:evenodd"
viewBox="0 0 2048 2048"
 xmlns:xlink="http://www.w3.org/1999/xlink">
 <defs>
  <style type="text/css">
   <![CDATA[
    .fil1 {fill:none}
    .fil0 {fill:#212121;fill-rule:nonzero}
   ]]>
  </style>
 </defs>
 <g id="Layer_x0020_1">
  <metadata id="CorelCorpID_0Corel-Layer"/>
  <g id="_177016432">
   <path id="_177017752" class="fil0" d="M880.491 745.926c1.59803,-15.0284 -9.28938,-28.5071 -24.3177,-30.104 -15.0272,-1.59685 -28.5059,9.29056 -30.1028,24.3177l-32.837 301.357c-1.59685,15.0272 9.29056,28.5059 24.3177,30.1028 15.0272,1.59803 28.5059,-9.28938 30.104,-24.3177l32.8359 -301.356z"/>
   <path id="_177017368" class="fil0" d="M765.57 712.202c1.59685,-15.0272 -9.29056,-28.5059 -24.3177,-30.1028 -15.0272,-1.59803 -28.5059,9.28938 -30.104,24.3177l-35.1177 322.309c-1.59685,15.0272 9.29056,28.5059 24.3177,30.1028 15.0272,1.59803 28.5059,-9.28938 30.104,-24.3177l35.1177 -322.309z"/>
   <path id="_177017080" class="fil0" d="M645.174 728.734c1.59685,-15.0272 -9.29056,-28.5059 -24.3177,-30.104 -15.0284,-1.59685 -28.5071,9.29056 -30.104,24.3177l-31.9252 293.008c-1.59803,15.0284 9.28938,28.5071 24.3177,30.104 15.0272,1.59685 28.5059,-9.29056 30.1028,-24.3177l31.9264 -293.008z"/>
   <path id="_177016960" class="fil0" d="M591.577 715.405c-1.59803,15.0272 9.28938,28.5059 24.3177,30.104 15.0272,1.59685 28.5059,-9.29056 30.1028,-24.3177 4.44095,-40.7599 -15.3815,-69.5221 -43.1481,-84.3568 -10.3973,-5.55591 -21.8469,-9.01536 -33.4359,-10.278 -11.5878,-1.26142 -23.4768,-0.360236 -34.7516,2.80512 -30.2882,8.5004 -55.8331,32.3752 -60.2894,73.2733l-32.4673 297.979c-1.59803,15.0284 9.28938,28.5071 24.3177,30.104 15.0272,1.59685 28.5059,-9.29056 30.1028,-24.3177l32.4673 -297.981c1.62638,-14.9173 10.3583,-23.4626 20.654,-26.3516 4.50709,-1.26496 9.36261,-1.61457 14.1815,-1.09016 4.81772,0.52441 9.44883,1.89449 13.5106,4.06418 9.41221,5.02796 16.0772,15.3047 14.4378,30.3626z"/>
   <path id="_177017416" class="fil0" d="M709.778 719.019c-1.59685,15.0284 9.29056,28.5071 24.3177,30.104 15.0272,1.59685 28.5059,-9.29056 30.104,-24.3177l4.56496 -41.9032c4.43977,-40.7587 -15.3827,-69.5221 -43.1492,-84.3579 -10.3984,-5.55473 -21.8469,-9.01418 -33.4347,-10.2756 -11.5878,-1.2626 -23.4756,-0.360236 -34.7516,2.80394 -30.2906,8.50276 -55.8331,32.3752 -60.2894,73.2733l-5.563 51.0591c-1.59803,15.0272 9.28938,28.5059 24.3177,30.104 15.0272,1.59685 28.5059,-9.29056 30.1028,-24.3177l5.563 -51.0591c1.62638,-14.9185 10.3571,-23.4638 20.6528,-26.3528 4.50709,-1.26496 9.36379,-1.61457 14.1815,-1.09016 4.81772,0.52441 9.44883,1.89449 13.5106,4.063 9.41457,5.0315 16.0772,15.3059 14.4378,30.3638l-4.56496 41.9032z"/>
   <path id="_177017128" class="fil0" d="M821.969 777.79c-1.59685,15.0272 9.29056,28.5059 24.3177,30.1028 15.0272,1.59803 28.5059,-9.28938 30.104,-24.3177l5.0126 -45.9992c4.44095,-40.7599 -15.3815,-69.5221 -43.1492,-84.3579 -10.3973,-5.55355 -21.8457,-9.01418 -33.4347,-10.2768 -11.5878,-1.2626 -23.4768,-0.360236 -34.7516,2.80512 -30.2906,8.5004 -55.8331,32.3752 -60.2894,73.2733 -1.59685,15.0284 9.29056,28.5071 24.3177,30.104 15.0272,1.59685 28.5059,-9.29056 30.104,-24.3177 1.6252,-14.9185 10.3571,-23.4638 20.6516,-26.3528 4.50827,-1.26614 9.36379,-1.61457 14.1815,-1.09016 4.81772,0.52441 9.44765,1.89449 13.5106,4.06418 9.41339,5.02914 16.0772,15.3047 14.4378,30.3626l-5.0126 46.0004z"/>
   <path id="_177017032" class="fil0" d="M511.065 1106.27c9.05198,12.0697 26.1756,14.5158 38.2441,5.46378 12.0685,-9.05198 14.5158,-26.1768 5.4626,-38.2453l-144.103 -191.954c-23.4508,-31.239 -55.0252,-39.7843 -83.8359,-33.6992 -12.0201,2.53819 -23.4201,7.71969 -33.3803,14.9185 -9.96142,7.19764 -18.5114,16.3453 -24.828,26.811 -15.9768,26.4756 -18.861,61.2449 3.5315,94.8367 52.0134,78.0272 75.717,143.355 95.9457,199.106 23.1614,63.8351 42.1146,116.071 91.3335,163.495 51.8528,49.9642 105.117,85.0631 160.413,101.534 57.1642,17.0291 115.671,14.2559 176.007,-12.3142 147.367,-64.8981 152.483,-148.486 159.992,-271.263 1.49291,-24.4169 3.09213,-50.5477 6.12048,-78.3461l31.6276 -290.269c4.44095,-40.7611 -15.3815,-69.5233 -43.1492,-84.3579 -10.3961,-5.55473 -21.8469,-9.01536 -33.4347,-10.278 -11.5878,-1.26142 -23.4768,-0.360236 -34.7516,2.80512 -30.2894,8.5004 -55.8331,32.374 -60.2906,73.2745 -1.59685,15.0272 9.29056,28.5059 24.3177,30.1028 15.0272,1.59803 28.5059,-9.28938 30.104,-24.3177 1.6252,-14.9185 10.3583,-23.4638 20.6528,-26.3528 4.50827,-1.26496 9.36379,-1.61457 14.1815,-1.09016 4.81772,0.52441 9.44883,1.89449 13.5106,4.06418 9.41339,5.02914 16.0784,15.3059 14.4378,30.3638l-31.6264 290.27c-3.15945,28.9961 -4.80237,55.8367 -6.33544,80.9162 -6.29174,102.858 -10.5756,172.884 -127.426,224.342 -47.6717,20.9929 -93.6272,23.2654 -138.297,9.95788 -46.5366,-13.8614 -92.4827,-44.4803 -138.13,-88.4646 -40.0595,-38.5985 -57.0603,-85.454 -77.8371,-142.714 -21.2882,-58.6737 -46.2355,-127.428 -101.73,-210.675 -8.90906,-13.3654 -8.12835,-26.5961 -2.24528,-36.3449 2.59134,-4.29213 5.9752,-7.95709 9.82914,-10.741 3.85512,-2.7874 8.16142,-4.77048 12.5976,-5.70709 9.49371,-2.00433 20.302,1.34764 28.9866,12.9177l144.104 191.954z"/>
   <path id="_177016816" class="fil0" d="M1219.42 743.049c-1.83425,-15.0272 -15.5043,-25.7232 -30.5315,-23.889 -15.0272,1.83425 -25.7232,15.5043 -23.8902,30.5315l36.9449 300.881c1.83425,15.0272 15.5043,25.7232 30.5315,23.889 15.0272,-1.83425 25.7232,-15.5043 23.889,-30.5315l-36.9437 -300.881z"/>
   <path id="_177017008" class="fil0" d="M1333.87 707.762c-1.83425,-15.0284 -15.5043,-25.7244 -30.5315,-23.8902 -15.0272,1.83425 -25.7232,15.5043 -23.889,30.5315l39.5114 321.799c1.83425,15.0284 15.5043,25.7244 30.5315,23.8902 15.0284,-1.83425 25.7244,-15.5043 23.8902,-30.5315l-39.5126 -321.799z"/>
   <path id="_177017488" class="fil0" d="M1454.48 722.649c-1.83425,-15.0284 -15.5043,-25.7244 -30.5315,-23.8902 -15.0272,1.83425 -25.7232,15.5043 -23.889,30.5315l35.9197 292.546c1.83425,15.0272 15.5043,25.7232 30.5315,23.889 15.0272,-1.83425 25.7232,-15.5043 23.889,-30.5315l-35.9197 -292.545z"/>
   <path id="_177017440" class="fil0" d="M1399.13 721.759c1.83425,15.0284 15.5043,25.7244 30.5327,23.8902 15.0272,-1.83425 25.7232,-15.5043 23.889,-30.5315 -1.06536,-8.67284 1.47874,-16.9488 6.43465,-23.2925 4.95355,-6.34016 12.3543,-10.8083 21.0012,-11.8701 8.67166,-1.06299 16.9477,1.47992 23.2914,6.43583 6.34016,4.95355 10.8083,12.3532 11.8701,21l36.5292 297.51c1.83425,15.0272 15.5043,25.7232 30.5315,23.889 15.0272,-1.83425 25.7232,-15.5043 23.889,-30.5315l-36.5292 -297.51c-2.8878,-23.5335 -15.1807,-43.774 -32.6516,-57.4229 -17.4685,-13.6476 -40.0666,-20.6764 -63.5729,-17.791 -23.5323,2.88898 -43.774,15.1807 -57.4252,32.6516 -13.6476,17.4697 -20.6752,40.0677 -17.7898,63.5729z"/>
   <path id="_177017104" class="fil0" d="M1280.99 726.987c1.83425,15.0272 15.5043,25.7232 30.5315,23.889 15.0272,-1.83425 25.7232,-15.5043 23.889,-30.5315l-5.13662 -41.837c-1.06536,-8.67166 1.47992,-16.9488 6.43701,-23.2925 4.95237,-6.33898 12.3532,-10.8071 20.9988,-11.8689 8.67166,-1.06536 16.9488,1.47992 23.2925,6.43583 6.34016,4.95355 10.8083,12.3543 11.8701,21l6.25867 50.9776c1.83425,15.0284 15.5043,25.7244 30.5327,23.8902 15.0272,-1.83425 25.7232,-15.5043 23.889,-30.5315l-6.25985 -50.9788c-2.88898,-23.5323 -15.1807,-43.7729 -32.6516,-57.4229 -17.4685,-13.6488 -40.0666,-20.6776 -63.5729,-17.7921 -23.5335,2.88898 -43.774,15.1819 -57.4241,32.6528 -13.6488,17.4673 -20.6776,40.0654 -17.7921,63.5729l5.1378 41.837z"/>
   <path id="_177016408" class="fil0" d="M1169.61 787.281c1.83425,15.0272 15.5043,25.7232 30.5315,23.889 15.0272,-1.83307 25.7232,-15.5032 23.889,-30.5315l-5.63859 -45.926c-1.06536,-8.67166 1.47874,-16.9477 6.43583,-23.2914 4.95355,-6.34134 12.3532,-10.8095 20.9988,-11.8713 8.67284,-1.06417 16.9488,1.47992 23.2937,6.43701 6.34016,4.95355 10.8083,12.3532 11.8689,21 1.83425,15.0272 15.5043,25.7232 30.5315,23.889 15.0272,-1.83425 25.7232,-15.5043 23.889,-30.5315 -2.8878,-23.5323 -15.1784,-43.774 -32.6504,-57.4229 -17.4709,-13.6488 -40.0689,-20.6788 -63.5741,-17.7921 -23.5323,2.88898 -43.774,15.1795 -57.4241,32.6528 -13.6488,17.4685 -20.6764,40.0677 -17.791,63.5717l5.63977 45.9272z"/>
   <path id="_177016672" class="fil0" d="M1495.2 1072.75c-8.87481,12.1878 -6.1878,29.2642 5.99882,38.1378 12.1878,8.87481 29.263,6.1878 38.1378,-5.99882l141.47 -193.904c8.49922,-11.6469 19.2484,-15.1299 28.7693,-13.2543 4.45394,0.876379 8.77087,2.78977 12.6295,5.49804 4.01457,2.81929 7.48938,6.43938 10.0854,10.6134 6.02008,9.67324 7.00276,22.8626 -1.67244,36.2693 -54.4737,84.1831 -78.4571,153.207 -98.9257,212.111 -19.9973,57.554 -36.3638,104.65 -75.952,143.852 -45.0107,44.5725 -90.5068,75.7926 -136.821,90.2788 -44.5666,13.9406 -90.5942,12.3118 -138.542,-8.02678 -117.418,-49.8083 -122.663,-119.829 -130.363,-222.678 -1.88858,-25.2355 -3.91181,-52.2414 -7.42087,-80.8253l-35.5855 -289.812c-1.06536,-8.67166 1.47992,-16.9488 6.43701,-23.2937 4.95237,-6.34016 12.3532,-10.8071 21,-11.8689 8.67166,-1.06417 16.9488,1.47992 23.2914,6.43583 6.34016,4.95355 10.8083,12.3532 11.8701,21 1.83425,15.0272 15.5043,25.7232 30.5315,23.889 15.0272,-1.83307 25.7232,-15.5032 23.889,-30.5315 -2.88898,-23.5335 -15.1807,-43.7729 -32.6516,-57.4229 -17.4685,-13.6488 -40.0677,-20.6776 -63.5729,-17.791 -23.5323,2.8878 -43.774,15.1795 -57.4241,32.6516 -13.6488,17.4697 -20.6776,40.0677 -17.7921,63.5729l35.5855 289.813c3.45355,28.1232 5.3941,54.0367 7.20709,78.254 9.17717,122.574 15.4264,206.023 163.787,268.957 60.6957,25.7457 119.193,27.7347 176.036,9.95434 55.0949,-17.2335 107.907,-53.0788 159.104,-103.776 48.5044,-48.0307 66.7406,-100.506 89.0221,-164.635 19.4858,-56.0764 42.3189,-121.787 93.1394,-200.327 21.9815,-33.9709 18.6496,-68.7296 2.31614,-94.9761 -6.51142,-10.4658 -15.1453,-19.4906 -25.0819,-26.4673 -10.0913,-7.08544 -21.5788,-12.1228 -33.6272,-14.4969 -28.8862,-5.69056 -60.3532,3.29882 -83.4048,34.8945l-141.47 193.903z"/>
  </g>
 </g>
 <rect class="fil1" width="2048" height="2048"/>
</svg>
