<?xml version="1.0" encoding="UTF-8"?>
<!DOCTYPE svg PUBLIC "-//W3C//DTD SVG 1.1//EN" "http://www.w3.org/Graphics/SVG/1.1/DTD/svg11.dtd">
<!-- Creator: CorelDRAW -->
<svg xmlns="http://www.w3.org/2000/svg" xml:space="preserve" width="2048px" height="2048px" style="shape-rendering:geometricPrecision; text-rendering:geometricPrecision; image-rendering:optimizeQuality; fill-rule:evenodd; clip-rule:evenodd"
viewBox="0 0 2048 2048"
 xmlns:xlink="http://www.w3.org/1999/xlink">
 <defs>
  <style type="text/css">
   <![CDATA[
    .fil1 {fill:none}
    .fil0 {fill:#212121;fill-rule:nonzero}
   ]]>
  </style>
 </defs>
 <g id="Layer_x0020_1">
  <metadata id="CorelCorpID_0Corel-Layer"/>
  <g id="_177017656">
   <path id="_177019168" class="fil0" d="M380.977 1085.92l164.458 0c17.6728,0 32.0008,14.328 32.0008,32.0008l0 672.002c0,17.6728 -14.328,32.0008 -32.0008,32.0008l-164.458 0c-17.6728,0 -32.0008,-14.328 -32.0008,-32.0008l0 -672.002c0,-17.6728 14.328,-32.0008 32.0008,-32.0008zm132.457 64.0016l-100.456 0 0 608 100.456 0 0 -608z"/>
   <path id="_177019360" class="fil0" d="M427.183 989.924l72.0461 0 0 -143.999 -72.0461 0 0 143.999zm104.047 64.0016l-136.048 0c-17.6728,0 -32.0008,-14.328 -32.0008,-32.0008l0 -208.001c0,-17.6728 14.328,-32.0008 32.0008,-32.0008l136.048 0c17.6728,0 32.0008,14.328 32.0008,32.0008l0 208.001c0,17.6728 -14.328,32.0008 -32.0008,32.0008z"/>
   <path id="_177018376" class="fil0" d="M360.331 1085.92l205.748 0 8.72481 -31.9984 -223.198 0 8.72481 31.9984zm230.056 64.0016l-253.795 0c-14.302,0.264567 -27.5079,-9.15237 -31.4422,-23.5831l30.8729 -8.41772 -30.75 8.3752 -25.3937 -93.1347c-1.31221,-3.49725 -2.03268,-7.28504 -2.03268,-11.2406 0,-17.6728 14.328,-32.0008 32.0008,-32.0008l306.153 0c2.96103,-0.0507874 5.97993,0.309449 8.98111,1.12795 17.0504,4.64882 27.104,22.2402 22.4551,39.2906l-0.125197 -0.034252 -25.4032 93.1678c-2.62914,15.026 -15.7406,26.4496 -31.5201,26.4496z"/>
   <path id="_177019048" class="fil0" d="M380.577 781.923l165.258 0 7.40906 -31.9984 -180.076 0 7.40906 31.9984zm190.624 64.0016l-215.556 0c-14.7402,0.214961 -28.1492,-9.83741 -31.6099,-24.7831l31.1752 -7.21772 -31.1256 7.1256 -21.7087 -93.7607c-0.905906,-2.96221 -1.3937,-6.1063 -1.3937,-9.36497 0,-17.6728 14.328,-32.0008 32.0008,-32.0008l259.942 0c2.54292,-0.0377953 5.13189,0.225591 7.72087,0.825591 17.2169,3.98622 27.9437,21.176 23.9575,38.3929l-0.0673229 -0.0153543 -21.7406 93.8953c-2.44252,15.2492 -15.6567,26.9032 -31.5945,26.9032z"/>
   <path id="_177018976" class="fil0" d="M1706.15 1485.93l-1128.72 0 0 272 1128.72 0 0 -272zm-1160.72 -64.0016l1192.72 0c17.6728,0 32.0008,14.328 32.0008,32.0008l0 336.001c0,17.6728 -14.328,32.0008 -32.0008,32.0008l-1192.72 0c-17.6728,0 -32.0008,-14.328 -32.0008,-32.0008l0 -336.001c0,-17.6728 14.328,-32.0008 32.0008,-32.0008z"/>
   <g>
    <path id="_177018424" class="fil0" d="M1173.67 687.121c1.44921,-17.6043 -11.6457,-33.052 -29.25,-34.5012 -17.6043,-1.44921 -33.052,11.6457 -34.5012,29.25 -4.36181,50.9351 -74.8016,96.1087 -151.585,145.348 -28.9961,18.5941 -58.8154,37.7185 -87.4052,58.6583 -133.253,97.5969 -229.979,224.061 -59.0056,457.496 10.4244,14.2205 30.4051,17.2996 44.6256,6.8752 14.2205,-10.4244 17.2996,-30.4051 6.8752,-44.6256 -138.295,-188.818 -61.2449,-290.242 45.2552,-368.244 26.7874,-19.6193 55.8721,-38.2737 84.1548,-56.4095 90.6343,-58.1221 173.78,-111.445 180.836,-193.846z"/>
    <path id="_177018400" class="fil0" d="M1173.67 681.87c-1.44921,-17.6043 -16.8969,-30.6992 -34.5012,-29.25 -17.6043,1.44921 -30.6992,16.8969 -29.25,34.5012 7.05591,82.4009 90.202,135.724 180.836,193.846 28.2827,18.1358 57.3674,36.7902 84.1548,56.4095 106.5,78.0024 183.551,179.426 45.2552,368.244 -10.4244,14.2205 -7.34528,34.2012 6.8752,44.6256 14.2205,10.4244 34.2012,7.34528 44.6256,-6.8752 170.973,-233.434 74.2477,-359.899 -59.0056,-457.496 -28.5898,-20.9398 -58.4091,-40.0642 -87.4052,-58.6583 -76.7835,-49.239 -147.223,-94.4127 -151.585,-145.348z"/>
   </g>
   <path id="_177018928" class="fil0" d="M376.692 555.071c-10.1776,-17.8854 -18.228,-37.5272 -23.7047,-58.389 -5.58898,-21.2882 -8.60906,-43.7599 -8.60906,-66.841 0,-42.0071 9.8256,-81.4678 26.8512,-115.148 17.9681,-35.5453 44.0705,-64.7067 75.3095,-83.8442l-0.0413386 -0.0673229c11.3941,-6.9756 25.4315,-5.96811 35.5925,1.44921 30.2575,19.1457 55.5508,47.7591 73.0938,82.4634 17.0232,33.6803 26.8512,73.141 26.8512,115.147 0,23.0835 -3.02008,45.5552 -8.61024,66.8422 -5.74961,21.8988 -14.3327,42.4548 -25.239,61.043l-27.4996 -16.1256 27.6 16.1941c-6.03071,10.278 -16.9099,15.9461 -28.0299,15.8067l-114.53 0c-12.861,0 -23.948,-7.58859 -29.0339,-18.5303zm38.0457 -74.6386c2.69292,10.2555 6.15237,20.0138 10.2886,29.1673l76.3607 0c4.13504,-9.15355 7.59568,-18.9106 10.2874,-29.1662 4.12796,-15.7205 6.35906,-32.713 6.35906,-50.5926 0,-31.9158 -7.26497,-61.4989 -19.8496,-86.3965 -9.16182,-18.124 -21.0827,-33.7323 -34.9772,-45.8646 -13.8957,12.1323 -25.8166,27.7406 -34.9772,45.8634 -12.5858,24.8977 -19.8496,54.4808 -19.8496,86.3977 0,17.8784 2.22992,34.8709 6.35788,50.5914z"/>
   <path id="_177018736" class="fil0" d="M463.205 509.599l0.0011811 0c30.8327,0 58.8414,12.5917 79.1257,32.8748 20.2831,20.2843 32.8748,48.293 32.8748,79.1257l0 98.7509c0,17.6728 -14.328,32.0008 -32.0008,32.0008l-160.001 0c-17.6728,0 -32.0008,-14.328 -32.0008,-32.0008l0 -98.7509c0,-30.8327 12.5917,-58.8414 32.8748,-79.1257 20.2843,-20.2831 48.293,-32.8748 79.1257,-32.8748zm0.0011811 64.0016l-0.0011811 0c-13.1669,0 -25.161,5.41063 -33.8752,14.1236 -8.713,8.71418 -14.1236,20.7083 -14.1236,33.8752l0 66.7501 95.9989 0 0 -66.7501c0,-13.1669 -5.41063,-25.161 -14.1236,-33.8752 -8.71418,-8.713 -20.7083,-14.1236 -33.8752,-14.1236z"/>
   <path id="_177018952" class="fil0" d="M785.173 1303.67l713.667 0c13.0973,0 24.3543,7.86969 29.3079,19.1374l62.654 114.365 0.101575 -0.0555119c8.49095,15.4984 2.80866,34.9477 -12.6898,43.4386 -5.00433,2.74134 -10.4209,4.00394 -15.7476,3.93662l-841.717 0c-17.6728,0 -32.0008,-14.328 -32.0008,-32.0008 0,-6.55749 1.97362,-12.6532 5.35748,-17.7284l62.6422 -114.343 28.0004 15.2504 -28.0642 -15.3744c5.88544,-10.7433 17.0374,-16.7669 28.4882,-16.6264zm694.844 64.0016l-676.445 0 -28.9358 52.8189 734.317 0 -28.9358 -52.8189z"/>
   <g>
    <path id="_177018688" class="fil0" d="M1016.65 1624.11c14.0551,0 26.7827,5.69882 35.9953,14.9114 9.21261,9.21261 14.9114,21.939 14.9114,35.9941 0,14.0551 -5.69882,26.7815 -14.9114,35.9941 -9.21261,9.21261 -21.9402,14.9114 -35.9953,14.9114 -14.0551,0 -26.7815,-5.69882 -35.9941,-14.9114 -9.21261,-9.21261 -14.9114,-21.939 -14.9114,-35.9941 0,-14.0551 5.69882,-26.7815 14.9114,-35.9941 9.21261,-9.21261 21.939,-14.9114 35.9941,-14.9114zm13.3701 37.5366c-3.41929,-3.41929 -8.14843,-5.53583 -13.3701,-5.53583 -5.22166,0 -9.94961,2.11654 -13.3689,5.53583 -3.41929,3.41929 -5.53583,8.14725 -5.53583,13.3689 0,5.22166 2.11654,9.94961 5.53583,13.3689 3.41929,3.41929 8.14725,5.53583 13.3689,5.53583 5.22166,0 9.9508,-2.11654 13.3701,-5.53583 3.41929,-3.41929 5.53583,-8.14725 5.53583,-13.3689 0,-5.22166 -2.11654,-9.94961 -5.53583,-13.3689z"/>
    <path id="_177018496" class="fil0" d="M1141.79 1501.92c14.0551,0 26.7815,5.69882 35.9941,14.9114 9.21261,9.21261 14.9114,21.939 14.9114,35.9941 0,14.0551 -5.69882,26.7815 -14.9114,35.9941 -9.21261,9.21261 -21.939,14.9114 -35.9941,14.9114 -14.0551,0 -26.7815,-5.69882 -35.9941,-14.9114 -9.21261,-9.21261 -14.9114,-21.939 -14.9114,-35.9941 0,-14.0551 5.69882,-26.7815 14.9114,-35.9941 9.21261,-9.21261 21.939,-14.9114 35.9941,-14.9114zm13.3689 37.5366c-3.41929,-3.41929 -8.14725,-5.53583 -13.3689,-5.53583 -5.22166,0 -9.94961,2.11654 -13.3689,5.53583 -3.41929,3.41929 -5.53583,8.14725 -5.53583,13.3689 0,5.22166 2.11654,9.94961 5.53583,13.3689 3.41929,3.41929 8.14725,5.53583 13.3689,5.53583 5.22166,0 9.94961,-2.11654 13.3689,-5.53583 3.41929,-3.41929 5.53583,-8.14725 5.53583,-13.3689 0,-5.22166 -2.11654,-9.94961 -5.53583,-13.3689z"/>
    <path id="_177018232" class="fil0" d="M1266.94 1624.11c14.0551,0 26.7815,5.69882 35.9941,14.9114 9.21261,9.21261 14.9114,21.939 14.9114,35.9941 0,14.0551 -5.69882,26.7815 -14.9114,35.9941 -9.21261,9.21261 -21.939,14.9114 -35.9941,14.9114 -14.0551,0 -26.7827,-5.69882 -35.9953,-14.9114 -9.21261,-9.21261 -14.9114,-21.939 -14.9114,-35.9941 0,-14.0551 5.69882,-26.7815 14.9114,-35.9941 9.21261,-9.21261 21.9402,-14.9114 35.9953,-14.9114zm13.3689 37.5366c-3.41929,-3.41929 -8.14725,-5.53583 -13.3689,-5.53583 -5.22166,0 -9.9508,2.11654 -13.3701,5.53583 -3.41929,3.41929 -5.53583,8.14725 -5.53583,13.3689 0,5.22166 2.11654,9.94961 5.53583,13.3689 3.41929,3.41929 8.14843,5.53583 13.3701,5.53583 5.22166,0 9.94961,-2.11654 13.3689,-5.53583 3.41929,-3.41929 5.53583,-8.14725 5.53583,-13.3689 0,-5.22166 -2.11654,-9.94961 -5.53583,-13.3689z"/>
   </g>
   <path id="_177018304" class="fil0" d="M1125.85 685.925c0,8.83583 7.16457,16.0004 16.0004,16.0004 8.83583,0 16.0004,-7.16457 16.0004,-16.0004l0 -123.07c0,-8.83583 -7.16457,-16.0004 -16.0004,-16.0004 -8.83583,0 -16.0004,7.16457 -16.0004,16.0004l0 123.07z"/>
   <path id="_177018280" class="fil0" d="M1129.17 495.591c7.69607,-4.31457 10.4386,-14.0539 6.12402,-21.75 -4.31457,-7.69607 -14.0539,-10.4386 -21.75,-6.12402 -9.30237,5.2193 -16.8602,12.7913 -22.1067,21.75 -5.26654,8.99528 -8.1815,19.2933 -8.1815,29.9315 0,16.3665 6.6378,31.1882 17.3646,41.9174 10.7291,10.7268 25.5508,17.3646 41.9174,17.3646 11.2583,0 22.1043,-3.26929 31.4209,-9.10631 9.29883,-5.82756 16.9713,-14.1815 21.9047,-24.365 3.8315,-7.9382 0.500788,-17.4815 -7.43741,-21.313 -7.9382,-3.8315 -17.4815,-0.500788 -21.313,7.43741 -2.29725,4.74331 -5.80985,8.59607 -10.0299,11.2406 -4.2,2.6315 -9.21733,4.10551 -14.5453,4.10551 -7.53426,0 -14.3563,-3.05433 -19.2921,-7.98898 -4.93465,-4.93583 -7.98898,-11.7579 -7.98898,-19.2921 0,-5.0126 1.31221,-9.76064 3.6815,-13.8071 2.39055,-4.08189 5.8878,-7.56379 10.2319,-10.0004z"/>
  </g>
 </g>
 <rect class="fil1" width="2048" height="2048"/>
</svg>
