<?xml version="1.0" encoding="UTF-8"?>
<!DOCTYPE svg PUBLIC "-//W3C//DTD SVG 1.1//EN" "http://www.w3.org/Graphics/SVG/1.1/DTD/svg11.dtd">
<!-- Creator: CorelDRAW -->
<svg xmlns="http://www.w3.org/2000/svg" xml:space="preserve" width="2048px" height="2048px" style="shape-rendering:geometricPrecision; text-rendering:geometricPrecision; image-rendering:optimizeQuality; fill-rule:evenodd; clip-rule:evenodd"
viewBox="0 0 2048 2048"
 xmlns:xlink="http://www.w3.org/1999/xlink">
 <defs>
  <style type="text/css">
   <![CDATA[
    .fil1 {fill:none}
    .fil0 {fill:#212121;fill-rule:nonzero}
   ]]>
  </style>
 </defs>
 <g id="Layer_x0020_1">
  <metadata id="CorelCorpID_0Corel-Layer"/>
  <path class="fil0" d="M557.373 981.852c-16.0158,-7.31693 -34.9323,-0.265748 -42.2492,15.75 -7.31693,16.0158 -0.265748,34.9323 15.75,42.2492 156.697,71.6859 345.331,83.8831 555.932,41.0433 152.557,-31.0323 316.948,-91.0713 489.254,-178.365 -112.599,89.9032 -248.886,163.388 -392.354,213.067 -213.377,73.8863 -441.782,94.8036 -630.458,38.3457 -16.9134,-5.03859 -34.7114,4.58622 -39.75,21.4996 -5.03859,16.9134 4.58622,34.7114 21.4996,39.75 201.787,60.3804 444.17,38.6658 669.458,-39.3449 230.893,-79.9512 444.707,-219.398 578.948,-390.385 9.64489,-10.2106 11.7189,-25.9725 4.08071,-38.563 -9.16654,-15.1099 -28.8473,-19.9276 -43.9571,-10.761l0.0744095 0.122835c-239.279,145.161 -465.801,240.69 -669.547,282.135 -197.313,40.1363 -372.677,29.3362 -516.682,-36.5433z"/>
  <path class="fil0" d="M576.127 931.624c0,-17.6728 -14.328,-32.0008 -32.0008,-32.0008 -17.6728,0 -32.0008,14.328 -32.0008,32.0008l0 352.878c0,17.6728 14.328,32.0008 32.0008,32.0008 17.6728,0 32.0008,-14.328 32.0008,-32.0008l0 -352.878z"/>
  <path class="fil0" d="M319.876 995.623c0,-17.6728 -14.328,-32.0008 -32.0008,-32.0008 -17.6728,0 -32.0008,14.328 -32.0008,32.0008l0 224.88c0,17.6728 14.328,32.0008 32.0008,32.0008 17.6728,0 32.0008,-14.328 32.0008,-32.0008l0 -224.88z"/>
  <path class="fil0" d="M512.123 1093.88l-192.249 0 0 32.2477 192.249 0 0 -32.2477zm-224.25 -64.0016l256.251 0c17.6728,0 32.0008,14.328 32.0008,32.0008l0 96.2493c0,17.6728 -14.328,32.0008 -32.0008,32.0008l-256.251 0c-17.6728,0 -32.0008,-14.328 -32.0008,-32.0008l0 -96.2493c0,-17.6728 14.328,-32.0008 32.0008,-32.0008z"/>
 </g>
 <rect class="fil1" width="2048" height="2048"/>
</svg>
