<?xml version="1.0" encoding="UTF-8"?>
<!DOCTYPE svg PUBLIC "-//W3C//DTD SVG 1.1//EN" "http://www.w3.org/Graphics/SVG/1.1/DTD/svg11.dtd">
<!-- Creator: CorelDRAW -->
<svg xmlns="http://www.w3.org/2000/svg" xml:space="preserve" width="2048px" height="2048px" style="shape-rendering:geometricPrecision; text-rendering:geometricPrecision; image-rendering:optimizeQuality; fill-rule:evenodd; clip-rule:evenodd"
viewBox="0 0 2048 2048"
 xmlns:xlink="http://www.w3.org/1999/xlink">
 <defs>
  <style type="text/css">
   <![CDATA[
    .fil1 {fill:none}
    .fil0 {fill:#212121;fill-rule:nonzero}
   ]]>
  </style>
 </defs>
 <g id="Layer_x0020_1">
  <metadata id="CorelCorpID_0Corel-Layer"/>
  <g id="_177020176">
   <g>
    <path id="_177021400" class="fil0" d="M1051.13 304.749c9.2504,-14.9799 4.60512,-34.6252 -10.3748,-43.8756 -14.9799,-9.2504 -34.6252,-4.60512 -43.8756,10.3748 -42.7807,69.2611 -131.6,97.9595 -214.141,124.628 -143.06,46.2213 -270.447,87.3816 -202.322,289.342 5.59134,16.7067 23.6693,25.7162 40.376,20.1248 16.7067,-5.59134 25.7162,-23.6693 20.1248,-40.376 -47.5158,-140.864 50.8512,-172.648 161.321,-208.34 93.3249,-30.1524 193.746,-62.5997 248.892,-151.878z"/>
    <path id="_177021280" class="fil0" d="M1051.13 271.249c-9.2504,-14.9799 -28.8957,-19.6252 -43.8756,-10.3748 -14.9799,9.2504 -19.6252,28.8957 -10.3748,43.8756 55.1457,89.2784 155.567,121.726 248.892,151.878 110.47,35.6918 208.837,67.4752 161.321,208.34 -5.59134,16.7067 3.41811,34.7847 20.1248,40.376 16.7067,5.59134 34.7847,-3.41811 40.376,-20.1248 68.1249,-201.96 -59.2619,-243.121 -202.322,-289.342 -82.5414,-26.6681 -171.36,-55.3666 -214.141,-124.628z"/>
   </g>
   <g>
    <path id="_177020920" class="fil0" d="M997.875 1778.38c10.148,14.4272 30.0733,17.8973 44.5004,7.74922 14.4272,-10.148 17.8973,-30.0733 7.74922,-44.5004 -55.5083,-78.6367 -155.784,-107.006 -248.973,-133.368 -84.991,-24.0425 -163.004,-46.1138 -172.825,-100.218 -3.1063,-17.3268 -19.6736,-28.8555 -37.0004,-25.7492 -17.3268,3.1063 -28.8555,19.6736 -25.7492,37.0004 16.9725,93.5056 113.339,120.768 218.323,150.467 82.6394,23.3776 171.562,48.5351 213.975,108.619z"/>
    <path id="_177021256" class="fil0" d="M997.875 1741.62c-10.148,14.4272 -6.67796,34.3524 7.74922,44.5004 14.4272,10.148 34.3524,6.67796 44.5004,-7.74922 42.4122,-60.0839 131.336,-85.2414 213.975,-108.619 104.985,-29.6988 201.351,-56.9611 218.323,-150.467 3.1063,-17.3268 -8.42245,-33.8941 -25.7492,-37.0004 -17.3268,-3.1063 -33.8941,8.42245 -37.0004,25.7492 -9.82087,54.104 -87.8339,76.1753 -172.825,100.218 -93.1879,26.3622 -193.465,54.7311 -248.973,133.368z"/>
   </g>
   <path id="_177021136" class="fil0" d="M576.504 1481.67c-17.6728,0 -32.0008,14.328 -32.0008,32.0008 0,17.6728 14.328,32.0008 32.0008,32.0008l894.993 0c17.6728,0 32.0008,-14.328 32.0008,-32.0008 0,-17.6728 -14.328,-32.0008 -32.0008,-32.0008l-894.993 0z"/>
   <path id="_177021160" class="fil0" d="M545.6 643.098c-17.6728,0 -32.0008,14.328 -32.0008,32.0008 0,17.6728 14.328,32.0008 32.0008,32.0008l956.801 0c17.6728,0 32.0008,-14.328 32.0008,-32.0008 0,-17.6728 -14.328,-32.0008 -32.0008,-32.0008l-956.801 0z"/>
   <g>
    <path id="_177020488" class="fil0" d="M714.467 694.762c0,-17.6728 -14.328,-32.0008 -32.0008,-32.0008 -17.6728,0 -32.0008,14.328 -32.0008,32.0008l0 812.896c0,17.6728 14.328,32.0008 32.0008,32.0008 17.6728,0 32.0008,-14.328 32.0008,-32.0008l0 -812.896z"/>
    <path id="_177020248" class="fil0" d="M942.155 694.762c0,-17.6728 -14.328,-32.0008 -32.0008,-32.0008 -17.6728,0 -32.0008,14.328 -32.0008,32.0008l0 812.896c0,17.6728 14.328,32.0008 32.0008,32.0008 17.6728,0 32.0008,-14.328 32.0008,-32.0008l0 -812.896z"/>
    <path id="_177020464" class="fil0" d="M1169.84 694.762c0,-17.6728 -14.328,-32.0008 -32.0008,-32.0008 -17.6728,0 -32.0008,14.328 -32.0008,32.0008l0 812.896c0,17.6728 14.328,32.0008 32.0008,32.0008 17.6728,0 32.0008,-14.328 32.0008,-32.0008l0 -812.896z"/>
    <path id="_177020032" class="fil0" d="M1397.53 694.762c0,-17.6728 -14.328,-32.0008 -32.0008,-32.0008 -17.6728,0 -32.0008,14.328 -32.0008,32.0008l0 812.896c0,17.6728 14.328,32.0008 32.0008,32.0008 17.6728,0 32.0008,-14.328 32.0008,-32.0008l0 -812.896z"/>
   </g>
  </g>
 </g>
 <rect class="fil1" width="2048" height="2048"/>
</svg>
