<?xml version="1.0" encoding="UTF-8"?>
<!DOCTYPE svg PUBLIC "-//W3C//DTD SVG 1.1//EN" "http://www.w3.org/Graphics/SVG/1.1/DTD/svg11.dtd">
<!-- Creator: CorelDRAW -->
<svg xmlns="http://www.w3.org/2000/svg" xml:space="preserve" width="2048px" height="2048px" style="shape-rendering:geometricPrecision; text-rendering:geometricPrecision; image-rendering:optimizeQuality; fill-rule:evenodd; clip-rule:evenodd"
viewBox="0 0 2048 2048"
 xmlns:xlink="http://www.w3.org/1999/xlink">
 <defs>
  <style type="text/css">
   <![CDATA[
    .fil1 {fill:none}
    .fil0 {fill:#212121;fill-rule:nonzero}
   ]]>
  </style>
 </defs>
 <g id="Layer_x0020_1">
  <metadata id="CorelCorpID_0Corel-Layer"/>
  <path class="fil0" d="M1396.84 863.874c0,-17.6728 -14.328,-32.0008 -32.0008,-32.0008 -17.6728,0 -32.0008,14.328 -32.0008,32.0008l0 246.636c0,17.6728 14.328,32.0008 32.0008,32.0008 17.6728,0 32.0008,-14.328 32.0008,-32.0008l0 -246.636z"/>
  <path class="fil0" d="M1209.12 830.317c0,-17.6728 -14.328,-32.0008 -32.0008,-32.0008 -17.6728,0 -32.0008,14.328 -32.0008,32.0008l0 280.19c0,17.6728 14.328,32.0008 32.0008,32.0008 17.6728,0 32.0008,-14.328 32.0008,-32.0008l0 -280.19z"/>
  <path class="fil0" d="M1021.41 641.225c0,-17.6728 -14.328,-32.0008 -32.0008,-32.0008 -17.6728,0 -32.0008,14.328 -32.0008,32.0008l0 438.31c0,17.6728 14.328,32.0008 32.0008,32.0008 17.6728,0 32.0008,-14.328 32.0008,-32.0008l0 -438.31z"/>
  <path class="fil0" d="M957.411 911.218c0,17.6728 14.328,32.0008 32.0008,32.0008 17.6728,0 32.0008,-14.328 32.0008,-32.0008 0,-6.12402 -0.765355,-235.784 -2.21575,-408.807 -0.725197,-86.465 -1.97953,-153.615 -4.09725,-160.031 -13.989,-42.3851 -43.7303,-68.4048 -77.9835,-79.7883 -19.8532,-6.59764 -41.0681,-8.0752 -61.3914,-4.80355 -20.4603,3.2941 -40.1941,11.3516 -56.9386,23.7933 -28.9831,21.5374 -49.0902,55.5414 -49.0902,100.026l0 724.784c0,17.6728 14.328,32.0008 32.0008,32.0008 17.6728,0 32.0008,-14.328 32.0008,-32.0008l0 -724.784c0,-22.1327 9.45709,-38.6469 23.0894,-48.776 8.45316,-6.28111 18.4854,-10.3618 28.937,-12.0437 10.5886,-1.70433 21.4453,-1.00039 31.3914,2.30433 16.0925,5.34804 30.2445,18.1134 37.2331,39.2882 0.0625985,0.191339 0.422835,60.1666 1.09724,140.531 1.28622,153.47 1.96536,400.94 1.96536,408.306z"/>
  <path class="fil0" d="M1145.12 896.553c0,17.6728 14.328,32.0008 32.0008,32.0008 17.6728,0 32.0008,-14.328 32.0008,-32.0008l0 -67.1103c0,-59.8548 -33.1547,-98.3954 -75.593,-115.453 -16.0488,-6.45 -33.2492,-9.67678 -50.2642,-9.67678 -17.015,0 -34.2154,3.22677 -50.2642,9.67678 -42.437,17.0563 -75.5942,55.5981 -75.5942,115.453l0 81.7749c0,17.6728 14.328,32.0008 32.0008,32.0008 17.6728,0 32.0008,-14.328 32.0008,-32.0008l0 -81.7749c0,-29.5488 15.5032,-48.228 35.3422,-56.2016 8.16969,-3.28347 17.2512,-4.92638 26.5146,-4.92638 9.26339,0 18.3449,1.64291 26.5146,4.92638 19.839,7.97363 35.341,26.6528 35.341,56.2016l0 67.1103z"/>
  <path class="fil0" d="M1332.84 970.227c0,17.6728 14.328,32.0008 32.0008,32.0008 17.6728,0 32.0008,-14.328 32.0008,-32.0008l0 -73.6737c0,-59.8536 -33.1571,-98.3954 -75.593,-115.452 -15.841,-6.36615 -33.0473,-9.55158 -50.2654,-9.5504l0 -0.125197c-17.015,0 -34.2154,3.22677 -50.2654,9.67678 -42.4359,17.0563 -75.593,55.5957 -75.593,115.45 0,17.6728 14.328,32.0008 32.0008,32.0008 17.6728,0 32.0008,-14.328 32.0008,-32.0008 0,-29.5465 15.502,-48.2256 35.341,-56.1993 8.17087,-3.28347 17.2524,-4.92638 26.5158,-4.92638l0 -0.125197c9.06142,0 18.1394,1.68425 26.5158,5.0504 19.839,7.97363 35.341,26.6528 35.341,56.2004l0 73.6737z"/>
  <path class="fil0" d="M894.329 1253.85c12.0118,12.8398 32.1603,13.5118 45,1.5 12.8398,-12.0118 13.5118,-32.1603 1.5,-45l-261.194 -278.978c-38.9516,-41.6032 -85.8863,-49.076 -126.432,-35.7898 -17.0847,5.59725 -32.8181,14.915 -46.1103,26.9126 -13.2154,11.9291 -24.1807,26.6362 -31.8142,43.0855 -18.9662,40.8768 -17.5689,91.8131 20.3835,137.195 97.656,116.77 147.817,227.339 191.201,322.972 47.2607,104.178 86.9351,191.632 170.27,256.082 54.5126,42.1618 108.353,71.3516 161.782,89.0198 54.2823,17.9504 108.059,24.0685 161.606,19.8449 402.441,-31.7481 398.903,-272.23 394.68,-559.302 -0.340158,-23.2146 -0.688583,-46.7859 -0.715749,-81.7229l8.57127 -28.2567 0.122835 0.0377953c0.999213,-3.29292 1.43858,-6.62126 1.37835,-9.88583l0 -141.339c0,-59.8536 -33.1571,-98.3954 -75.593,-115.452 -15.841,-6.36615 -33.0473,-9.55158 -50.2654,-9.5504l0 -0.125197c-17.015,0 -34.2154,3.22677 -50.2654,9.67678 -42.4359,17.0563 -75.593,55.5957 -75.593,115.45 0,17.6728 14.328,32.0008 32.0008,32.0008 17.6728,0 32.0008,-14.328 32.0008,-32.0008 0,-29.5465 15.502,-48.2256 35.341,-56.1993 8.17087,-3.28347 17.2524,-4.92638 26.5158,-4.92638l0 -0.125197c9.06142,0 18.1394,1.68425 26.5158,5.0504 19.839,7.97363 35.341,26.6528 35.341,56.2004l0 137.635 -7.71851 25.4481c-1.51654,3.72402 -2.35512,7.79646 -2.35512,12.065 0,20.9953 0.488977,54.1784 0.967324,86.7698 3.74528,254.532 6.88111,467.756 -335.929,494.8 -45.15,3.56103 -90.6036,-1.63347 -136.604,-16.8449 -46.8544,-15.4937 -94.3619,-41.3174 -142.782,-78.7678 -70.6276,-54.6225 -107.317,-135.496 -151.021,-231.834 -45.0792,-99.3721 -97.2013,-214.264 -200.451,-337.721 -19.6902,-23.5453 -20.7685,-49.2154 -11.3835,-69.4441 3.92126,-8.45079 9.63308,-16.0784 16.5662,-22.3358 6.8563,-6.1878 14.7484,-10.9217 23.1095,-13.6606 18.6862,-6.12284 40.8839,-2.07284 60.1819,18.5386l261.194 278.978z"/>
  <path class="fil0" d="M1584.11 1070.99c0,-17.6728 -14.328,-32.0008 -32.0008,-32.0008 -17.6728,0 -32.0008,14.328 -32.0008,32.0008 0,29.5477 -15.502,48.2268 -35.341,56.2004 -8.37638,3.36614 -17.4543,5.0504 -26.5146,5.0504l0 -0.125197c-9.26339,0 -18.3449,-1.64291 -26.5158,-4.92638 -19.839,-7.97363 -35.341,-26.6528 -35.341,-56.1993 0,-17.6728 -14.328,-32.0008 -32.0008,-32.0008 -17.6728,0 -32.0008,14.328 -32.0008,32.0008 0,59.8548 33.1571,98.3942 75.593,115.45 16.05,6.45 33.2504,9.67678 50.2654,9.67678l0 -0.125197c17.2169,0.0011811 34.4233,-3.18425 50.2642,-9.5504 42.4382,-17.0575 75.593,-55.5981 75.593,-115.452z"/>
  <path class="fil0" d="M1208.68 1070.99c0,-17.6728 -14.328,-32.0008 -32.0008,-32.0008 -17.6728,0 -32.0008,14.328 -32.0008,32.0008 0,59.8536 33.1571,98.3954 75.593,115.452 15.841,6.36615 33.0473,9.55158 50.2654,9.5504l0 0.125197c17.015,0 34.2166,-3.22677 50.2654,-9.67678 42.4359,-17.0563 75.593,-55.5957 75.593,-115.45 0,-17.6728 -14.328,-32.0008 -32.0008,-32.0008 -17.6728,0 -32.0008,14.328 -32.0008,32.0008 0,29.5465 -15.502,48.2256 -35.341,56.1993 -8.17087,3.28347 -17.2524,4.92638 -26.5158,4.92638l0 0.125197c-9.06142,0 -18.1394,-1.68425 -26.5158,-5.0504 -19.839,-7.97363 -35.341,-26.6528 -35.341,-56.2004z"/>
  <path class="fil0" d="M1208.68 1070.99c0,-17.6728 -14.328,-32.0008 -32.0008,-32.0008 -17.6728,0 -32.0008,14.328 -32.0008,32.0008 0,29.5477 -15.502,48.2268 -35.341,56.2004 -8.37638,3.36614 -17.4543,5.0504 -26.5158,5.0504l0 -0.125197c-9.26339,0 -18.3449,-1.64291 -26.5158,-4.92638 -19.839,-7.97363 -35.341,-26.6528 -35.341,-56.1993 0,-17.6728 -14.328,-32.0008 -32.0008,-32.0008 -17.6728,0 -32.0008,14.328 -32.0008,32.0008 0,59.8548 33.1571,98.3942 75.593,115.45 16.05,6.45 33.2504,9.67678 50.2654,9.67678l0 -0.125197c17.2181,0.0011811 34.4244,-3.18425 50.2654,-9.5504 42.4359,-17.0563 75.593,-55.5981 75.593,-115.452z"/>
 </g>
 <rect class="fil1" width="2048" height="2048"/>
</svg>
