<?xml version="1.0" encoding="UTF-8"?>
<!DOCTYPE svg PUBLIC "-//W3C//DTD SVG 1.1//EN" "http://www.w3.org/Graphics/SVG/1.1/DTD/svg11.dtd">
<!-- Creator: CorelDRAW -->
<svg xmlns="http://www.w3.org/2000/svg" xml:space="preserve" width="2048px" height="2048px" style="shape-rendering:geometricPrecision; text-rendering:geometricPrecision; image-rendering:optimizeQuality; fill-rule:evenodd; clip-rule:evenodd"
viewBox="0 0 2048 2048"
 xmlns:xlink="http://www.w3.org/1999/xlink">
 <defs>
  <style type="text/css">
   <![CDATA[
    .fil1 {fill:none}
    .fil0 {fill:#212121;fill-rule:nonzero}
   ]]>
  </style>
 </defs>
 <g id="Layer_x0020_1">
  <metadata id="CorelCorpID_0Corel-Layer"/>
  <path class="fil0" d="M1789.93 963.589c0.568111,7.96654 1.04291,16.9536 1.41851,26.9929 0.42874,11.4213 0.647245,21.0744 0.647245,28.891 0,212.073 -85.9631,404.074 -224.945,543.056 -138.982,138.982 -330.983,224.945 -543.056,224.945 -212.073,0 -404.074,-85.9631 -543.056,-224.945 -138.982,-138.982 -224.945,-330.983 -224.945,-543.056 0,-190.063 69.1477,-364.07 183.68,-498.26 116.088,-136.011 278.965,-231 463.813,-260.172l-0.0200788 -0.124016c17.4567,-2.75197 33.8422,9.1689 36.5941,26.6256 2.61378,16.5803 -8.01024,32.1922 -24.0402,36.0756 -124.973,40.8874 -232.48,120.541 -308.318,224.786 -74.2831,102.111 -118.106,227.85 -118.106,363.87 0,170.991 69.3071,325.793 181.356,437.842 112.049,112.049 266.851,181.356 437.842,181.356 162.098,0 309.617,-62.2335 419.957,-164.098 111.194,-102.652 184.676,-245.593 197.306,-405.672l31.8756 2.5004 -31.9016 -2.51693c1.38898,-17.6185 16.8,-30.7736 34.4185,-29.3847 16.5662,1.3063 29.1839,15.0095 29.478,31.2886zm-268.129 553.689c60.6615,-60.6615 110.293,-132.351 145.656,-211.793 -27.9225,39.5988 -59.9422,76.1056 -95.4532,108.889 -121.771,112.417 -284.489,181.099 -463.206,181.099 -188.656,0 -359.458,-76.4729 -483.092,-200.107 -123.634,-123.634 -200.107,-294.436 -200.107,-483.092 0,-149.964 48.3674,-288.666 130.356,-401.37 13.0205,-17.8984 26.8949,-35.1402 41.5571,-51.6662 -40.0193,30.5185 -76.6867,65.2241 -109.335,103.474 -104.868,122.865 -168.18,282.369 -168.18,456.761 0,194.407 78.7973,370.409 206.193,497.806 127.396,127.396 303.398,206.193 497.806,206.193 194.407,0 370.409,-78.7973 497.806,-206.193z"/>
  <path class="fil0" d="M1361.05 367.631l56.4426 174.855 186.256 -0.357874 0 -0.124016c17.6728,-0.0330709 32.028,14.2654 32.061,31.9382 0.0212599,11.3197 -5.83701,21.2776 -14.6953,26.9835l-149.456 108.147 57.8871 176.998 0.056693 -0.0188977c5.49331,16.7965 -3.67087,34.8685 -20.4673,40.3618 -11.2087,3.66614 -22.9831,0.801969 -31.2107,-6.49843l-148.019 -107.976 -150.51 109.794 0.0862205 0.11811c-14.2772,10.415 -34.2957,7.28386 -44.7107,-6.99331 -6.71693,-9.20788 -7.79882,-20.8051 -3.88937,-30.6733l57.2705 -175.112 -150.884 -109.18 -0.0271654 0.0366142c-14.3173,-10.3595 -17.5252,-30.3673 -7.16575,-44.6847 6.86457,-9.48662 17.9634,-14.0929 28.8378,-13.1102l183.405 0.351969 57.2115 -177.235 30.3756 9.75001 -30.4524 -9.83032c5.42835,-16.8177 23.465,-26.0504 40.2827,-20.6221 11.041,3.56339 18.8138,12.5622 21.3142,23.0823zm33.2233 206.776l-30.3756 9.75001 -33.9922 -105.305 -33.2138 102.893c-3.32126,14.1591 -16.0465,24.6898 -31.2154,24.6614l0 -0.124016 -110.653 -0.212599 88.1753 63.8044c12.0106,7.66772 17.8075,22.7445 13.1728,36.9142l-0.056693 -0.0188977 -34.4221 105.252 86.9375 -63.4193c11.0079,-9.81497 27.7358,-10.989 40.1339,-1.9441l-0.0862205 0.11811 89.4402 65.2453 -33.7866 -103.308c-5.32559,-13.3039 -1.17284,-29.0162 10.963,-37.7977l0.0271654 0.0366142 89.6658 -64.8827 -107.787 0.206693c-14.5925,1.35354 -28.6902,-7.51182 -33.3792,-22.0394l30.4524 -9.83032z"/>
 </g>
 <rect class="fil1" width="2048" height="2048"/>
</svg>
