<?xml version="1.0" encoding="UTF-8"?>
<!DOCTYPE svg PUBLIC "-//W3C//DTD SVG 1.1//EN" "http://www.w3.org/Graphics/SVG/1.1/DTD/svg11.dtd">
<!-- Creator: CorelDRAW -->
<svg xmlns="http://www.w3.org/2000/svg" xml:space="preserve" width="2048px" height="2048px" style="shape-rendering:geometricPrecision; text-rendering:geometricPrecision; image-rendering:optimizeQuality; fill-rule:evenodd; clip-rule:evenodd"
viewBox="0 0 2048 2048"
 xmlns:xlink="http://www.w3.org/1999/xlink">
 <defs>
  <style type="text/css">
   <![CDATA[
    .fil1 {fill:none}
    .fil0 {fill:#212121;fill-rule:nonzero}
   ]]>
  </style>
 </defs>
 <g id="Layer_x0020_1">
  <metadata id="CorelCorpID_0Corel-Layer"/>
  <g id="_177023296">
   <path id="_177025624" class="fil0" d="M1024 255.998c212.073,0 404.074,85.9631 543.056,224.946 138.983,138.982 224.946,330.983 224.946,543.056 0,212.073 -85.9631,404.074 -224.946,543.056 -138.982,138.983 -330.983,224.946 -543.056,224.946 -212.073,0 -404.074,-85.9631 -543.056,-224.946 -138.983,-138.982 -224.946,-330.983 -224.946,-543.056 0,-212.073 85.9631,-404.074 224.946,-543.056 138.982,-138.983 330.983,-224.946 543.056,-224.946zm497.806 270.196c-127.396,-127.397 -303.398,-206.195 -497.806,-206.195 -194.407,0 -370.409,78.7973 -497.806,206.195 -127.397,127.396 -206.195,303.398 -206.195,497.806 0,194.407 78.7973,370.409 206.195,497.806 127.396,127.397 303.398,206.195 497.806,206.195 194.407,0 370.409,-78.7973 497.806,-206.195 127.397,-127.396 206.195,-303.398 206.195,-497.806 0,-194.407 -78.7973,-370.409 -206.195,-497.806z"/>
   <path id="_177025072" class="fil0" d="M534.624 489.374c-12.4949,-12.4949 -32.7555,-12.4949 -45.2504,0 -12.4949,12.4949 -12.4949,32.7555 0,45.2504l1024 1024c12.4949,12.4949 32.7555,12.4949 45.2504,0 12.4949,-12.4949 12.4949,-32.7555 0,-45.2504l-1024 -1024z"/>
   <g>
    <path id="_177024592" class="fil0" d="M524.876 890.518l371.957 0c13.2543,0 24,10.7457 24,24l0 82.6572c0,13.2543 -10.7457,24 -24,24l-371.957 0c-13.2543,0 -24,-10.7457 -24,-24l0 -82.6572c0,-13.2543 10.7457,-24 24,-24zm347.957 48l-323.957 0 0 34.6571 323.957 0 0 -34.6571z"/>
    <path id="_177025024" class="fil0" d="M638.637 1407.12l144.436 0 55.1339 -385.948 -254.704 0 55.1339 385.948zm165.208 48l-185.639 0c-11.9043,0.184252 -22.3725,-8.50985 -24.1004,-20.6055l23.7591 -3.39449 -23.7189 3.37559 -61.7788 -432.46c-0.323622,-1.57087 -0.493701,-3.19725 -0.493701,-4.86378 0,-13.2543 10.7457,-24 24,-24l309.6 0c1.2378,-0.0165354 2.49331,0.0602363 3.75709,0.240945 13.1209,1.87441 22.239,14.0327 20.3646,27.1536l-0.0425197 -0.00590552 -61.7894 432.538c-1.0063,12.3284 -11.3303,22.0217 -23.9185,22.0217z"/>
    <path id="_177025216" class="fil0" d="M1412.88 630.918c0,-13.2543 -10.7457,-24 -24,-24 -13.2543,0 -24,10.7457 -24,24l0 163.871c0,16.0996 -6.60473,30.7559 -17.2429,41.3953 -10.6394,10.6382 -25.2945,17.2429 -41.3953,17.2429l-24.8858 0c-16.1008,0 -30.7571,-6.60473 -41.3965,-17.2429 -10.6382,-10.6382 -17.2429,-25.2945 -17.2429,-41.3953l0 -163.871c0,-13.2543 -10.7457,-24 -24,-24 -13.2543,0 -24,10.7457 -24,24l0 163.871c0,29.3516 11.9906,56.0185 31.3051,75.3331 19.3169,19.3158 45.9839,31.3051 75.3343,31.3051l24.8858 0c29.3516,0 56.0162,-11.9894 75.3331,-31.3051 19.3158,-19.3169 31.3051,-45.9839 31.3051,-75.3331l0 -163.871z"/>
    <path id="_177025192" class="fil0" d="M1317.79 588.266c0,-13.2543 -10.7457,-24 -24,-24 -13.2543,0 -24,10.7457 -24,24l0 540.911c0,13.2543 10.7457,24 24,24 13.2543,0 24,-10.7457 24,-24l0 -540.911z"/>
    <path id="_177024736" class="fil0" d="M1293.79 1105.18l0.0011811 0c18.5445,0 35.387,7.56969 47.5796,19.7622 12.1925,12.1925 19.7622,29.0339 19.7622,47.5784l0 243.877c0,18.5445 -7.56969,35.3859 -19.7622,47.5784 -12.1925,12.1925 -29.0351,19.7622 -47.5796,19.7622l-0.0011811 0c-18.5433,0 -35.3859,-7.56969 -47.5772,-19.7622 -12.1925,-12.1925 -19.7622,-29.0351 -19.7622,-47.5784l0 -243.877c0,-18.5433 7.56969,-35.3859 19.7622,-47.5784 12.1913,-12.1925 29.0339,-19.7622 47.5772,-19.7622zm0.0011811 48l-0.0011811 0c-5.29252,0 -10.1244,2.18386 -13.6394,5.7 -3.51614,3.51614 -5.7,8.34804 -5.7,13.6406l0 243.877c0,5.29252 2.18386,10.1244 5.7,13.6406 3.51496,3.51614 8.34686,5.7 13.6394,5.7l0.0011811 0c5.2937,0 10.1256,-2.18386 13.6417,-5.7 3.51614,-3.51614 5.7,-8.34686 5.7,-13.6406l0 -243.877c0,-5.2937 -2.18386,-10.1244 -5.7,-13.6406 -3.51614,-3.51614 -8.34804,-5.7 -13.6417,-5.7z"/>
    <path id="_177024328" class="fil0" d="M1040.22 1001.94c0,-13.2543 -10.7457,-24 -24,-24 -13.2543,0 -24,10.7457 -24,24l0 127.233c0,13.2543 10.7457,24 24,24 13.2543,0 24,-10.7457 24,-24l0 -127.233z"/>
    <path id="_177024064" class="fil0" d="M1016.22 1153.18l-0.0011811 0c-5.2937,0 -10.1244,2.18386 -13.6406,5.7 -3.51614,3.51614 -5.7,8.34686 -5.7,13.6406l0 243.877c0,5.2937 2.18386,10.1244 5.7,13.6406 3.51614,3.51614 8.34686,5.7 13.6406,5.7l0.0011811 0c5.2937,0 10.1244,-2.18386 13.6406,-5.7 3.51614,-3.51614 5.7,-8.34686 5.7,-13.6406l0 -243.877c0,-5.29252 -2.18386,-10.1244 -5.7,-13.6406 -3.51614,-3.51614 -8.34686,-5.7 -13.6406,-5.7zm-0.0011811 -48l0.0011811 0c18.5445,0 35.3859,7.56969 47.5784,19.7622 12.1925,12.1925 19.7622,29.0351 19.7622,47.5784l0 243.877c0,18.5445 -7.56969,35.3859 -19.7622,47.5784 -12.1925,12.1925 -29.0339,19.7622 -47.5784,19.7622l-0.0011811 0c-18.5457,0 -35.387,-7.56969 -47.5784,-19.7622 -12.1925,-12.1925 -19.7622,-29.0339 -19.7622,-47.5784l0 -243.877c0,-18.5445 7.56969,-35.3859 19.7622,-47.5784 12.1913,-12.1925 29.0327,-19.7622 47.5784,-19.7622z"/>
    <path id="_177023992" class="fil0" d="M1040.21 692.065l0 306.938c1.01693,-0.125197 1.96536,-0.347244 2.84764,-0.660237 7.97008,-2.82874 14.4508,-13.7634 19.4752,-30.078 6.53386,-21.2185 9.45591,-49.4233 9.30237,-81.0768 -0.3,-61.8922 -12.1228,-135.059 -31.6252,-195.123zm-48 326.034l0 -429.833c0.00472441,-7.15867 3.19725,-14.2394 9.29174,-18.965 10.474,-8.12245 25.5508,-6.21733 33.6733,4.2567l-18.965 14.7083 18.9378 -14.6256c49.8213,64.2378 83.9788,205.479 84.5009,313.361 0.175984,36.3544 -3.39331,69.443 -11.3646,95.3257 -9.48072,30.7831 -25.5272,52.7693 -49.2886,61.2024 -14.7437,5.23111 -31.3134,4.79882 -49.7634,-2.4626 -9.85158,-2.98937 -17.0221,-12.1406 -17.0221,-22.9677z"/>
   </g>
   <g>
    <path id="_177023824" class="fil0" d="M800 442.148c20.1449,0 38.387,8.16851 51.5894,21.3709 13.2024,13.2024 21.3709,31.4433 21.3709,51.5894 0,20.1449 -8.16851,38.387 -21.3709,51.5894 -13.2024,13.2024 -31.4445,21.3709 -51.5894,21.3709 -20.1461,0 -38.387,-8.16851 -51.5894,-21.3709 -13.2024,-13.2024 -21.3709,-31.4445 -21.3709,-51.5894 0,-20.1461 8.16851,-38.387 21.3709,-51.5894 13.2024,-13.2024 31.4433,-21.3709 51.5894,-21.3709zm28.9642 43.9961c-7.41024,-7.41024 -17.6528,-11.9953 -28.9642,-11.9953 -11.3126,0 -21.554,4.58504 -28.9642,11.9953 -7.41024,7.41024 -11.9953,17.6516 -11.9953,28.9642 0,11.3114 4.58504,21.554 11.9953,28.9642 7.41024,7.41024 17.6516,11.9953 28.9642,11.9953 11.3114,0 21.554,-4.58504 28.9642,-11.9953 7.41024,-7.41024 11.9953,-17.6528 11.9953,-28.9642 0,-11.3126 -4.58504,-21.554 -11.9953,-28.9642z"/>
    <g>
     <path id="_177024256" class="fil0" d="M812 387.108c0,-6.62717 -5.37284,-12 -12,-12 -6.62717,0 -12,5.37284 -12,12l0 29.9339c0,6.62717 5.37284,12 12,12 6.62717,0 12,-5.37284 12,-12l0 -29.9339z"/>
     <path id="_177023920" class="fil0" d="M812 613.176c0,-6.62717 -5.37284,-12 -12,-12 -6.62717,0 -12,5.37284 -12,12l0 29.9339c0,6.62717 5.37284,12 12,12 6.62717,0 12,-5.37284 12,-12l0 -29.9339z"/>
    </g>
    <g>
     <path id="_177024184" class="fil0" d="M671.999 503.109c-6.62717,0 -12,5.37284 -12,12 0,6.62717 5.37284,12 12,12l29.9339 0c6.62717,0 12,-5.37284 12,-12 0,-6.62717 -5.37284,-12 -12,-12l-29.9339 0z"/>
     <path id="_177024136" class="fil0" d="M898.067 503.109c-6.62717,0 -12,5.37284 -12,12 0,6.62717 5.37284,12 12,12l29.9339 0c6.62717,0 12,-5.37284 12,-12 0,-6.62717 -5.37284,-12 -12,-12l-29.9339 0z"/>
    </g>
    <g>
     <path id="_177023056" class="fil0" d="M717.974 416.114c-4.68544,-4.68544 -12.2823,-4.68544 -16.9677,0 -4.68544,4.68544 -4.68544,12.2823 0,16.9677l21.1666 21.1666c4.68544,4.68544 12.2823,4.68544 16.9677,0 4.68544,-4.68544 4.68544,-12.2823 0,-16.9677l-21.1666 -21.1666z"/>
     <path id="_177023368" class="fil0" d="M877.828 575.969c-4.68544,-4.68544 -12.2823,-4.68544 -16.9677,0 -4.68544,4.68544 -4.68544,12.2823 0,16.9677l21.1666 21.1666c4.68544,4.68544 12.2823,4.68544 16.9677,0 4.68544,-4.68544 4.68544,-12.2823 0,-16.9677l-21.1666 -21.1666z"/>
    </g>
    <g>
     <path id="_177023440" class="fil0" d="M898.994 433.082c4.68544,-4.68544 4.68544,-12.2823 0,-16.9677 -4.68544,-4.68544 -12.2823,-4.68544 -16.9677,0l-21.1666 21.1666c-4.68544,4.68544 -4.68544,12.2823 0,16.9677 4.68544,4.68544 12.2823,4.68544 16.9677,0l21.1666 -21.1666z"/>
     <path id="_177023320" class="fil0" d="M739.14 592.936c4.68544,-4.68544 4.68544,-12.2823 0,-16.9677 -4.68544,-4.68544 -12.2823,-4.68544 -16.9677,0l-21.1666 21.1666c-4.68544,4.68544 -4.68544,12.2823 0,16.9677 4.68544,4.68544 12.2823,4.68544 16.9677,0l21.1666 -21.1666z"/>
    </g>
   </g>
  </g>
 </g>
 <rect class="fil1" width="2048" height="2048"/>
</svg>
