<?xml version="1.0" encoding="UTF-8"?>
<!DOCTYPE svg PUBLIC "-//W3C//DTD SVG 1.1//EN" "http://www.w3.org/Graphics/SVG/1.1/DTD/svg11.dtd">
<!-- Creator: CorelDRAW -->
<svg xmlns="http://www.w3.org/2000/svg" xml:space="preserve" width="2048px" height="2048px" style="shape-rendering:geometricPrecision; text-rendering:geometricPrecision; image-rendering:optimizeQuality; fill-rule:evenodd; clip-rule:evenodd"
viewBox="0 0 2048 2048"
 xmlns:xlink="http://www.w3.org/1999/xlink">
 <defs>
  <style type="text/css">
   <![CDATA[
    .fil1 {fill:none}
    .fil0 {fill:#212121;fill-rule:nonzero}
   ]]>
  </style>
 </defs>
 <g id="Layer_x0020_1">
  <metadata id="CorelCorpID_0Corel-Layer"/>
  <path class="fil0" d="M1316.63 1452.08c-9.11221,15.1181 -4.24252,34.7634 10.8756,43.8756 15.1181,9.11221 34.7634,4.24252 43.8756,-10.8756l64.0004 -106.339 -27.3756 -16.5 27.4181 16.5012c3.17126,-5.27008 4.6441,-11.087 4.58268,-16.8165l0 -469.346c0,-88.7009 -28.2886,-171.278 -76.3158,-239.172 -49.3193,-69.7229 -119.434,-123.767 -201.06,-152.856 -16.637,-5.86772 -34.8827,2.86299 -40.7504,19.5 -5.86772,16.637 2.86299,34.8827 19.5,40.7504 69.2186,24.6673 128.61,70.4032 170.312,129.357 40.4729,57.2174 64.3134,127.087 64.3134,202.421l0 460.846 -59.3752 98.654z"/>
  <path class="fil0" d="M676.625 1485.08c9.11221,15.1181 28.7575,19.9878 43.8756,10.8756 15.1181,-9.11221 19.9878,-28.7575 10.8756,-43.8756l-59.3752 -98.654 0 -460.846c0,-75.3343 23.8406,-145.204 64.3134,-202.421 41.7012,-58.9536 101.093,-104.689 170.312,-129.357 16.637,-5.86772 25.3677,-24.1134 19.5,-40.7504 -5.86772,-16.637 -24.1134,-25.3677 -40.7504,-19.5 -81.626,29.0894 -151.741,83.1331 -201.06,152.856 -48.0272,67.8945 -76.3158,150.471 -76.3158,239.172l0 469.346c-0.0614174,5.72953 1.41142,11.5465 4.58268,16.8165l27.4181 -16.5012 -27.3756 16.5 64.0004 106.339z"/>
  <path class="fil0" d="M863.999 626.454c0,17.6728 14.328,32.0008 32.0008,32.0008 17.6728,0 32.0008,-14.328 32.0008,-32.0008l0 -181.873 191.999 0 0 181.873c0,17.6728 14.328,32.0008 32.0008,32.0008 17.6728,0 32.0008,-14.328 32.0008,-32.0008l0 -213.874c0,-17.6728 -14.328,-32.0008 -32.0008,-32.0008l-256.001 0c-17.6728,0 -32.0008,14.328 -32.0008,32.0008l0 213.874z"/>
  <path class="fil0" d="M822.999 1308.58l402.003 0c6.29174,0 12.0366,-2.59725 16.2189,-6.77953 4.18229,-4.18229 6.77953,-9.92717 6.77953,-16.2189l0 -425c0,-61.5674 -25.2106,-117.562 -65.8241,-158.177 -40.6146,-40.6134 -96.6095,-65.8241 -158.177,-65.8241 -61.5662,0 -117.561,25.2106 -158.175,65.8252 -40.6134,40.6134 -65.8241,96.6083 -65.8241,158.176l0 425c0,6.29174 2.59725,12.0366 6.77953,16.2189 4.18229,4.18229 9.92717,6.77953 16.2189,6.77953zm402.003 64.0016l-402.003 0c-23.9575,0 -45.717,-9.77835 -61.4693,-25.5307 -15.7524,-15.7524 -25.5307,-37.5118 -25.5307,-61.4693l0 -425c0,-79.2331 32.3918,-151.243 84.5753,-203.426 52.1835,-52.1847 124.193,-84.5764 203.425,-84.5764 79.2331,0 151.243,32.3918 203.427,84.5753 52.1835,52.1847 84.5753,124.194 84.5753,203.427l0 425c0,23.9575 -9.77835,45.717 -25.5307,61.4693 -15.7524,15.7524 -37.5118,25.5307 -61.4693,25.5307z"/>
  <g id="_177028120">
   <path id="_177027880" class="fil0" d="M931.523 1340.58c0,-17.6728 -14.328,-32.0008 -32.0008,-32.0008 -17.6728,0 -32.0008,14.328 -32.0008,32.0008l0 128c0,17.6728 14.328,32.0008 32.0008,32.0008 17.6728,0 32.0008,-14.328 32.0008,-32.0008l0 -128z"/>
   <path id="_177028144" class="fil0" d="M1180.48 1340.58c0,-17.6728 -14.328,-32.0008 -32.0008,-32.0008 -17.6728,0 -32.0008,14.328 -32.0008,32.0008l0 128c0,17.6728 14.328,32.0008 32.0008,32.0008 17.6728,0 32.0008,-14.328 32.0008,-32.0008l0 -128z"/>
  </g>
  <path class="fil0" d="M790.001 1436.58l468.002 0c50.0823,0 95.5902,20.4662 128.562,53.4378 32.9717,32.9705 53.4378,78.4796 53.4378,128.562l0 138.001c0,17.6728 -14.328,32.0008 -32.0008,32.0008l-767.999 0c-17.6728,0 -32.0008,-14.328 -32.0008,-32.0008l0 -138.001c0,-50.0823 20.4662,-95.5914 53.4378,-128.562 32.9717,-32.9717 78.4796,-53.4378 128.562,-53.4378zm468.002 64.0016l-468.002 0c-32.4154,0 -61.9099,13.285 -83.3115,34.6866 -21.4016,21.4004 -34.6866,50.8961 -34.6866,83.3115l0 106 703.998 0 0 -106c0,-32.4154 -13.285,-61.9111 -34.6866,-83.3115 -21.4016,-21.4016 -50.8961,-34.6866 -83.3115,-34.6866z"/>
  <path class="fil0" d="M831.999 380.581c-17.6728,0 -32.0008,14.328 -32.0008,32.0008 0,17.6728 14.328,32.0008 32.0008,32.0008l384.003 0c17.6728,0 32.0008,-14.328 32.0008,-32.0008 0,-17.6728 -14.328,-32.0008 -32.0008,-32.0008l-384.003 0z"/>
  <path class="fil0" d="M927.491 428.013c8.90552,15.1866 28.4386,20.2795 43.6252,11.374 15.1866,-8.90552 20.2795,-28.4386 11.374,-43.6252 -2.01969,-3.4441 -3.63662,-7.40079 -4.81772,-11.7508 -1.10315,-4.06536 -1.67126,-8.29961 -1.67126,-12.5917 0,-13.2579 5.37166,-25.2603 14.0551,-33.9437 8.68347,-8.68347 20.6858,-14.0551 33.9437,-14.0551 13.2579,0 25.2603,5.37166 33.9437,14.0551 8.68347,8.68347 14.0551,20.6858 14.0551,33.9437 0,4.59213 -0.561024,8.91497 -1.65236,12.8539 -1.15276,4.16103 -2.87244,8.17914 -5.12363,11.9315 -9.04253,15.1181 -4.11733,34.7079 11.0008,43.7504 15.1181,9.04253 34.7079,4.11733 43.7504,-11.0008 5.2063,-8.67875 9.19016,-17.9965 11.8725,-27.6803 2.7437,-9.90591 4.15394,-19.9488 4.15394,-29.8547 0,-30.9236 -12.5374,-58.9241 -32.8063,-79.1942 -20.2701,-20.2689 -48.2705,-32.8063 -79.1942,-32.8063 -30.9236,0 -58.9241,12.5374 -79.1942,32.8063 -20.2689,20.2701 -32.8063,48.2705 -32.8063,79.1942 0,9.9319 1.3311,19.7988 3.92244,29.3421 2.51221,9.25749 6.39213,18.424 11.5689,27.2516z"/>
  <path class="fil0" d="M1056 1247.33c0,-17.6728 -14.328,-32.0008 -32.0008,-32.0008 -17.6728,0 -32.0008,14.328 -32.0008,32.0008l0 61.2497c0,17.6728 14.328,32.0008 32.0008,32.0008 17.6728,0 32.0008,-14.328 32.0008,-32.0008l0 -61.2497z"/>
  <path class="fil0" d="M973.586 1059.67c2.39764,-14.1059 8.19686,-24.1748 16.65,-30.8268 15.8043,-12.4453 32.5902,-11.0847 49.4859,0.379134 7.75512,5.26182 15.4819,13.0784 22.8118,22.3961 23.7059,30.1264 50.9197,85.8745 55.0016,109.661 4.43268,25.8414 -2.02441,51.0307 -16.0488,70.8627 -14.074,19.9051 -35.7166,34.441 -61.5804,38.8855l0.00708662 0.0437008c-0.683859,0.116929 -1.36654,0.209055 -2.04685,0.282284 -25.1339,3.77008 -49.5331,-2.71063 -68.8512,-16.3689 -19.9051,-14.074 -34.4362,-35.7142 -38.8843,-61.5756l-0.0448819 0.00708662c-0.127559,-0.744095 -0.226772,-1.48701 -0.301181,-2.22756 -3.97677,-27.9626 8.3941,-51.5575 22.2343,-77.9398 8.80276,-16.7799 18.4311,-35.1378 21.5669,-53.5784zm80.9493 112.36c-2.16732,-12.6295 -15.2185,-40.1445 -29.6386,-62.876 -5.02205,11.948 -10.8307,23.0185 -16.3784,33.5941 -8.54764,16.2945 -16.1988,30.8859 -15.5008,39.0189 0.134646,0.681497 0.248032,1.37008 0.337796,2.06575 1.67953,7.93701 6.25749,14.5524 12.411,18.9024 6.21851,4.39607 14.028,6.53859 22.0937,5.48741 0.81378,-0.17126 1.63701,-0.311811 2.47205,-0.420473 7.93938,-1.67835 14.5547,-6.25749 18.9047,-12.411 4.62638,-6.54213 6.75827,-14.8488 5.29843,-23.361z"/>
  <path class="fil0" d="M1024 1541.89c19.5201,0 37.1941,7.91339 49.9878,20.7071 12.7937,12.7949 20.7071,30.4701 20.7071,49.9878 0,19.5201 -7.91339,37.1941 -20.7071,49.9878 -12.7937,12.7937 -30.4677,20.7071 -49.9878,20.7071 -19.5201,0 -37.1941,-7.91339 -49.9878,-20.7071 -12.7937,-12.7937 -20.7071,-30.4677 -20.7071,-49.9878 0,-19.5177 7.91339,-37.1929 20.7071,-49.9878 12.7937,-12.7937 30.4677,-20.7071 49.9878,-20.7071zm27.3626 43.3323c-7.0004,-7.0004 -16.676,-11.3315 -27.3626,-11.3315 -10.6866,0 -20.3622,4.33111 -27.3626,11.3315 -7.0004,7.00158 -11.3315,16.6772 -11.3315,27.3626 0,10.6866 4.33111,20.3622 11.3315,27.3626 7.0004,7.0004 16.676,11.3315 27.3626,11.3315 10.6866,0 20.3622,-4.33111 27.3626,-11.3315 7.0004,-7.0004 11.3315,-16.676 11.3315,-27.3626 0,-10.6854 -4.33111,-20.361 -11.3315,-27.3626z"/>
 </g>
 <rect class="fil1" width="2048" height="2048"/>
</svg>
