<?xml version="1.0" encoding="UTF-8"?>
<!DOCTYPE svg PUBLIC "-//W3C//DTD SVG 1.1//EN" "http://www.w3.org/Graphics/SVG/1.1/DTD/svg11.dtd">
<!-- Creator: CorelDRAW -->
<svg xmlns="http://www.w3.org/2000/svg" xml:space="preserve" width="2048px" height="2048px" style="shape-rendering:geometricPrecision; text-rendering:geometricPrecision; image-rendering:optimizeQuality; fill-rule:evenodd; clip-rule:evenodd"
viewBox="0 0 2048 2048"
 xmlns:xlink="http://www.w3.org/1999/xlink">
 <defs>
  <style type="text/css">
   <![CDATA[
    .fil1 {fill:none}
    .fil0 {fill:#212121;fill-rule:nonzero}
   ]]>
  </style>
 </defs>
 <g id="Layer_x0020_1">
  <metadata id="CorelCorpID_0Corel-Layer"/>
  <g id="_177015880">
   <path id="_475146168" class="fil0" d="M345.428 446.56c123.302,-34.5839 246.121,-44.3528 362.831,-30.6921 119.08,13.9382 231.833,52.2319 332.338,113.405l0.0413386 -0.0673229c10.7658,6.55276 16.2874,18.4465 15.2374,30.2055l-0.0011811 918.711 0.124016 0c0,17.6728 -14.3268,31.9996 -31.9996,31.9996 -7.61575,0 -14.6079,-2.66221 -20.1024,-7.10434 -91.1623,-62.4874 -201.631,-102.021 -313.929,-116.668 -113.401,-14.7898 -228.242,-4.16575 -326.449,33.8646l0.0377953 0.0980316c-16.4799,6.38268 -35.015,-1.80354 -41.3977,-18.2835 -1.54606,-3.99095 -2.23465,-8.10355 -2.16024,-12.1335l0 -912.01c0,-15.4205 10.9087,-28.2933 25.4292,-31.324zm355.582 32.8087c-101.961,-11.9339 -209.069,-4.63111 -317.009,22.976l0 843.421c97.7599,-29.5902 206.808,-36.6768 314.218,-22.6677 102.983,13.4327 204.76,46.2886 293.905,97.304l0.0011811 -845.64c-88.5969,-51.0426 -187.173,-83.2276 -291.115,-95.393z"/>
   <path id="_177021016" class="fil0" d="M1006.87 1633.12c14.9114,9.45709 34.6677,5.03622 44.1248,-9.8752 9.45709,-14.9114 5.03622,-34.6677 -9.8752,-44.1248 -113.532,-72.0945 -251.007,-117.608 -390.409,-134.313 -124.165,-14.8784 -250.251,-6.90709 -362.713,25.474l0 -889.416c7.24371,-1.70433 14.7449,-3.39803 22.4965,-5.07993 15.4583,-3.35433 30.9921,-6.39331 46.5851,-9.11339 17.3965,-3.03662 29.0362,-19.604 25.9996,-37.0004 -3.03662,-17.3965 -19.604,-29.0362 -37.0004,-25.9996 -16.2437,2.83465 -32.6103,6.03898 -49.0843,9.61418 -14.3799,3.12047 -29.8583,6.81615 -46.4304,11.0894 -15.0851,2.58071 -26.5677,15.7193 -26.5677,31.5402l0 957.604c-0.0673229,3.74292 0.523229,7.56142 1.85197,11.2961 5.92323,16.65 24.2256,25.3453 40.8756,19.4221l-0.0188977 -0.0531496c113.287,-40.2898 245.734,-51.5469 376.506,-35.8772 130.218,15.6036 258.293,57.9024 363.659,124.812z"/>
   <path id="_177028840" class="fil0" d="M1664 502.344c-107.94,-27.6071 -215.048,-34.9099 -317.009,-22.976 -103.942,12.1654 -202.518,44.3504 -291.115,95.393l0.0011811 845.64c89.145,-51.0154 190.922,-83.8713 293.905,-97.304 107.411,-14.0091 216.458,-6.92245 314.218,22.6677l0 -843.421zm-324.259 -86.4768c116.711,-13.6606 239.529,-3.89174 362.831,30.6921 14.5205,3.03071 25.4292,15.9036 25.4292,31.324l0 912.01c0.0744095,4.02992 -0.614174,8.14253 -2.16024,12.1335 -6.38268,16.4799 -24.9177,24.6662 -41.3977,18.2835l0.0377953 -0.0980316c-98.2064,-38.0303 -213.047,-48.6544 -326.449,-33.8646 -112.298,14.6469 -222.767,54.1808 -313.929,116.668 -5.49449,4.44213 -12.4866,7.10434 -20.1024,7.10434 -17.6728,0 -31.9996,-14.3268 -31.9996,-31.9996l0.124016 0 -0.0011811 -918.711c-1.05,-11.7591 4.47166,-23.6528 15.2374,-30.2055l0.0413386 0.0673229c100.505,-61.1729 213.258,-99.4666 332.338,-113.405z"/>
   <path id="_177022312" class="fil0" d="M1006.88 1579.11c-14.9114,9.45709 -19.3323,29.2134 -9.8752,44.1248 9.45709,14.9114 29.2134,19.3323 44.1248,9.8752 105.366,-66.9095 233.442,-109.208 363.659,-124.812 130.772,-15.6697 263.219,-4.4126 376.506,35.8772l-0.0188977 0.0531496c16.65,5.92323 34.9524,-2.77205 40.8756,-19.4221 1.32874,-3.73465 1.91929,-7.55316 1.85197,-11.2961l0 -957.604c0,-15.8221 -11.485,-28.9618 -26.5713,-31.5402 -15.8244,-4.08189 -30.5244,-7.60867 -44.1036,-10.5839 -16.0063,-3.50551 -31.5555,-6.60591 -46.6323,-9.29883 -17.3965,-3.1063 -34.0193,8.47796 -37.1256,25.8744 -3.1063,17.3965 8.47796,34.0193 25.8744,37.1256 15.2138,2.71772 30.0154,5.65158 44.3835,8.79804 6.95434,1.52362 13.6795,3.04961 20.1732,4.57678l0 889.413c-112.462,-32.3811 -238.549,-40.3524 -362.713,-25.474 -139.402,16.7043 -276.877,62.2182 -390.409,134.313z"/>
  </g>
 </g>
 <rect class="fil1" width="2048" height="2048"/>
</svg>
