<?xml version="1.0" encoding="UTF-8"?>
<!DOCTYPE svg PUBLIC "-//W3C//DTD SVG 1.1//EN" "http://www.w3.org/Graphics/SVG/1.1/DTD/svg11.dtd">
<!-- Creator: CorelDRAW -->
<svg xmlns="http://www.w3.org/2000/svg" xml:space="preserve" width="2048px" height="2048px" style="shape-rendering:geometricPrecision; text-rendering:geometricPrecision; image-rendering:optimizeQuality; fill-rule:evenodd; clip-rule:evenodd"
viewBox="0 0 2048 2048"
 xmlns:xlink="http://www.w3.org/1999/xlink">
 <defs>
  <style type="text/css">
   <![CDATA[
    .fil1 {fill:none}
    .fil0 {fill:#212121;fill-rule:nonzero}
   ]]>
  </style>
 </defs>
 <g id="Layer_x0020_1">
  <metadata id="CorelCorpID_0Corel-Layer"/>
  <path class="fil0" d="M1290.37 1308.58c-52.3973,34.8673 -92.8619,52.3323 -137.604,56.2335 -43.8118,3.81969 -88.7091,-5.91969 -151.225,-25.389 -34.2012,-10.6524 -68.0197,-32.0362 -109.018,-57.9603 -102.215,-64.6323 -252.825,-159.867 -547.363,-159.867 -19.0536,0 -31.5544,3.63307 -39.0792,9.52087 -7.08662,5.5441 -10.3689,14.5571 -11.0551,24.7689 -3.63662,54.0308 50.589,67.5875 104.599,81.0863 16.8307,4.20591 33.6473,8.40946 51.5363,14.3728 94.754,31.5827 172.472,83.1426 293.254,163.27l8.42953 5.59134c65.3221,43.3264 134.434,85.9253 206.478,119.118 70.663,32.5559 144.388,56.1308 220.465,62.3965 94.0678,7.74804 170.626,-15.2705 272.197,-45.8103 9.15355,-2.75079 18.5067,-5.56536 28.0855,-8.4189 73.5497,-21.9177 126.366,-32.1886 174.366,-41.5229 33.6048,-6.53504 64.7705,-12.5965 98.7249,-21.9354l0 -370.84c-105.736,1.25433 -250.311,-0.106299 -338.933,-46.9394l-10.0217 -5.29961c-98.1922,-51.9473 -123.17,-65.1603 -297.296,-99.9828 -32.2559,-6.45 -54.6615,1.2815 -66.2339,15.0225 -4.20591,4.9937 -7.06536,10.9843 -8.47205,17.4402 -1.42205,6.5315 -1.28858,13.4339 0.507874,20.1732 4.98544,18.6992 22.9323,36.6721 56.1993,44.9882 73.7764,18.4441 148.064,57.1406 190.955,100.031 14.7756,14.7756 26.3528,30.6437 33.6756,47.1402 8.44135,19.0169 10.9807,38.3599 6.21378,57.4229 -3.67914,14.7225 -11.4709,28.5331 -23.9693,41.0315l0.00236221 0.00236221c-1.67835,1.67835 -3.49725,3.12874 -5.41772,4.35591zm-143.104 -7.51772c32.1284,-2.8004 63.3414,-16.5484 105.18,-44.1272 2.85355,-3.25394 4.58268,-6.34134 5.30788,-9.24568 1.16575,-4.663 0.206693,-10.1587 -2.4626,-16.1717 -3.78662,-8.53229 -10.9347,-17.8984 -20.6764,-27.6402 -35.2512,-35.2512 -97.9761,-67.4741 -161.205,-83.2808 -58.8922,-14.7225 -91.9536,-51.3744 -102.449,-90.7394 -4.44567,-16.6795 -4.77756,-33.7595 -1.25669,-49.9229 3.53622,-16.2343 11.0327,-31.6571 22.2201,-44.941 25.4929,-30.2681 69.3827,-48.391 127.486,-36.7713 182.862,36.5693 209.566,50.6965 314.544,106.233l10.0217 5.29961c81.2233,42.9225 231.629,40.7929 331.921,39.3744l5.98583 -0.0838583c1.07717,-0.109843 2.17087,-0.166536 3.27756,-0.166536 17.6728,0 32.0008,14.328 32.0008,32.0008l0 426.33c0.320079,13.9417 -8.5689,26.9729 -22.552,31.2945l-9.44883 -30.574 9.3756 30.4996c-46.9489,14.5087 -85.6453,22.0335 -128.101,30.2894 -46.3335,9.00946 -97.3146,18.9236 -168.116,40.0229 -9.57875,2.85355 -18.9319,5.66811 -28.0855,8.4189 -108.178,32.5264 -189.714,57.0414 -295.699,48.3118 -84.143,-6.93071 -164.941,-32.6622 -241.963,-68.1485 -75.6426,-34.8508 -147.393,-79.0382 -214.98,-123.866l-8.42953 -5.59134c-116.79,-77.4792 -191.938,-127.334 -278.003,-156.02 -13.3878,-4.46221 -30.2067,-8.66694 -47.0363,-12.8728 -79.8757,-19.9642 -160.074,-40.0122 -152.849,-147.337 1.83071,-27.2103 12.3083,-52.5815 35.5559,-70.7705 18.3933,-14.3917 43.924,-23.2713 78.3296,-23.2713 312.72,0 472.753,101.192 581.363,169.869 37.0229,23.4106 67.5638,42.7217 94.0182,50.9611 54.5941,17.002 92.7603,25.5981 126.726,22.637z"/>
  <path class="fil0" d="M421.337 464.588c60.7737,-57.8292 139.252,-85.5497 217.003,-83.6197 77.8005,1.9311 154.84,33.5162 212.671,94.2922 57.8292,60.7737 85.5497,139.252 83.6197,217.003 -1.9252,77.5548 -33.3201,154.35 -93.7194,212.119l0.0519685 0.0519685 -0.0011811 0.0011811 0.00236221 0.00236221 -0.568111 0.553937 -0.011811 0.011811c-0.609449,0.578741 -1.23543,1.12795 -1.87677,1.65m-201.667 -461.934c-61.4268,-1.5248 -123.45,20.3941 -171.502,66.1182 -48.0485,45.7205 -73.017,106.547 -74.5406,167.922 -1.50945,60.7831 19.9417,122.149 64.6949,169.987 0.308268,0.285827 0.614174,0.576378 0.914174,0.876379l0.0106299 0.0106299 0.555119 0.569292 -0.0590552 0.056693 0.0011811 0.0011811 -12.6862 12.0697 -10.4374 9.9319 23.1248 -22.0004c45.7217,48.0485 106.546,73.017 167.921,74.5406 60.7855,1.50945 122.151,-19.9429 169.987,-64.6961 0.285827,-0.309449 0.576378,-0.614174 0.876379,-0.914174l0.00944883 -0.00944883 0.570473 -0.5563 0.056693 0.0590552 3.93544 4.13622 18.0662 18.9874 -22.0004 -23.1248c48.0485,-45.7205 73.0182,-106.546 74.5418,-167.921 1.5248,-61.4268 -20.3941,-123.45 -66.1182,-171.502 -45.7205,-48.0485 -106.546,-73.0182 -167.921,-74.5418zm201.656 461.946c-60.5115,56.6469 -138.191,83.7993 -215.159,81.8883 -77.5548,-1.9252 -154.349,-33.3189 -212.119,-93.7182l-0.0519685 0.0519685 -0.0011811 -0.0011811 -0.00236221 0.00236221c-0.186614,-0.186614 -0.372048,-0.375591 -0.552756,-0.56693l-0.0106299 -0.011811c-0.36378,-0.381496 -0.715749,-0.770079 -1.05591,-1.16575l-0.0413386 -0.046063c-0.19252,-0.22441 -0.381496,-0.45 -0.56693,-0.677953 -56.6481,-60.5138 -83.7993,-138.193 -81.8883,-215.16 1.9311,-77.8005 33.515,-154.84 94.291,-212.672"/>
  <path class="fil0" d="M672.139 735.11l-39.6898 -41.7118c-16.5791,8.64804 -31.4693,12.1299 -44.7343,10.3724 -13.2319,-1.78819 -24.9945,-8.02205 -35.2146,-18.7642 -10.3524,-10.878 -15.6201,-23.2902 -15.8055,-37.2343 -0.15,-13.9784 4.95118,-26.9292 15.2728,-38.9528l-9.38032 -9.85867 14.4142 -13.7162 9.38032 9.85867c11.8016,-8.76733 23.5937,-13.1882 35.5111,-13.1917 11.8807,0.0307087 23.4284,4.2 34.6394,12.5114l-22.0512 27.267c-9.00355,-6.39804 -18.026,-7.91694 -27.1382,-4.55788l37.0382 38.9233c20.0516,-10.8532 36.267,-15.5953 48.5457,-14.1945 12.3142,1.36654 23.5819,7.42323 33.8362,18.1984 11.4189,12 17.4189,25.5921 18.0071,40.7091 0.585827,15.1819 -4.7563,29.8536 -15.9295,44.0481l17.726 18.6284 -14.4142 13.7162 -17.2736 -18.1536c-12.815,9.53977 -26.2406,14.152 -40.2378,13.8036 -13.9654,-0.312992 -28.161,-6.10867 -42.6201,-17.2878l23.3528 -27.5339c6.1004,4.3004 12.4725,6.9815 19.0512,8.04095 6.54567,1.09252 12.4606,0.773623 17.7142,-0.920079zm-99.5009 -104.568c-2.6811,5.07638 -3.60827,10.2992 -2.94567,15.6921 0.729922,5.39528 2.9374,10.0299 6.59292,13.8721 3.33189,3.50079 7.52363,5.79567 12.4772,6.78189 5.02087,0.987402 10.5803,0.361418 16.676,-1.87559l-32.8004 -34.4705zm115.241 92.2453c4.12323,-5.67284 5.9693,-11.8347 5.60197,-18.4819 -0.398032,-6.68032 -2.94213,-12.4866 -7.69607,-17.4827 -4.2378,-4.45394 -9.18662,-7.0004 -14.8784,-7.73859 -5.68937,-0.73819 -12.3685,0.88819 -19.9689,4.8815l36.9414 38.8217z"/>
  <path class="fil0" d="M630.839 488.68c54.1441,0 103.166,21.9496 138.649,57.4323 35.4827,35.4827 57.4323,84.5044 57.4323,138.649 0,54.1441 -21.9496,103.166 -57.4323,138.649 -35.4827,35.4827 -84.5044,57.4323 -138.649,57.4323 -54.1441,0 -103.166,-21.9496 -138.649,-57.4323 -35.4827,-35.4827 -57.4323,-84.5044 -57.4323,-138.649 0,-54.1441 21.9496,-103.166 57.4323,-138.649 35.4827,-35.4827 84.5044,-57.4323 138.649,-57.4323zm121.681 74.4001c-31.1386,-31.1386 -74.1603,-50.4 -121.681,-50.4 -47.5205,0 -90.5422,19.2614 -121.681,50.4 -31.1386,31.1386 -50.4,74.1603 -50.4,121.681 0,47.5205 19.2614,90.5422 50.4,121.681 31.1386,31.1386 74.1603,50.4 121.681,50.4 47.5205,0 90.5422,-19.2614 121.681,-50.4 31.1386,-31.1386 50.4,-74.1603 50.4,-121.681 0,-47.5205 -19.2614,-90.5422 -50.4,-121.681z"/>
 </g>
 <rect class="fil1" width="2048" height="2048"/>
</svg>
