<?xml version="1.0" encoding="UTF-8"?>
<!DOCTYPE svg PUBLIC "-//W3C//DTD SVG 1.1//EN" "http://www.w3.org/Graphics/SVG/1.1/DTD/svg11.dtd">
<!-- Creator: CorelDRAW -->
<svg xmlns="http://www.w3.org/2000/svg" xml:space="preserve" width="2048px" height="2048px" style="shape-rendering:geometricPrecision; text-rendering:geometricPrecision; image-rendering:optimizeQuality; fill-rule:evenodd; clip-rule:evenodd"
viewBox="0 0 2048 2048"
 xmlns:xlink="http://www.w3.org/1999/xlink">
 <defs>
  <style type="text/css">
   <![CDATA[
    .fil1 {fill:none}
    .fil0 {fill:#212121;fill-rule:nonzero}
   ]]>
  </style>
 </defs>
 <g id="Layer_x0020_1">
  <metadata id="CorelCorpID_0Corel-Layer"/>
  <g id="_475147344">
   <path id="_475146936" class="fil0" d="M1310.69 525.342c-7.45512,-15.9473 -26.4284,-22.8307 -42.3756,-15.3756 -15.9473,7.45512 -22.8307,26.4284 -15.3756,42.3756 11.7602,25.0205 21.0272,52.3619 27.3603,81.4914 6.09331,28.0205 9.34253,57.5752 9.34253,88.1741 0,93.6922 -30.5445,178.132 -79.9264,238.91 -47.8996,58.9524 -113.591,95.419 -185.717,95.419 -72.1241,0 -137.816,-36.4666 -185.715,-95.419 -49.3819,-60.7784 -79.9264,-145.218 -79.9264,-238.91 0,-30.5988 3.24922,-60.1536 9.34253,-88.1741 6.33308,-29.1295 15.6,-56.4709 27.3603,-81.4914 7.45512,-15.9473 0.571654,-34.9205 -15.3756,-42.3756 -15.9473,-7.45512 -34.9205,-0.571654 -42.3756,15.3756 -13.9713,29.7248 -24.8504,61.6087 -32.1083,94.9914 -7.07245,32.5264 -10.8449,66.6142 -10.8449,101.674 0,108.626 36.0862,207.354 94.428,279.16 59.8241,73.6288 142.957,119.171 235.216,119.171 92.2595,0 175.393,-45.5422 235.217,-119.171 58.3418,-71.8052 94.428,-170.534 94.428,-279.16 0,-35.0599 -3.77244,-69.1477 -10.8449,-101.674 -7.25788,-33.3827 -18.137,-65.2666 -32.1083,-94.9914z"/>
   <path id="_475146888" class="fil0" d="M947.235 528.841c-5.52284,-16.7067 -23.5441,-25.7729 -40.2508,-20.25 -16.7067,5.52284 -25.7729,23.5441 -20.25,40.2508 25.2921,76.0548 67.3678,131.848 115.748,166.238 36.2398,25.7599 76.1209,39.6874 115.532,41.387 40.3122,1.73858 79.7788,-9.18426 114.186,-33.1677 37.5284,-26.1591 68.7745,-67.7776 87.893,-125.267 5.52284,-16.7067 -3.54331,-34.728 -20.25,-40.2508 -16.7067,-5.52284 -34.728,3.54331 -40.2508,20.25 -14.4071,43.3229 -37.0737,74.0729 -63.893,92.7674 -22.7162,15.8339 -48.6107,23.0516 -74.9351,21.9166 -27.2268,-1.17402 -55.2709,-11.1461 -81.2823,-29.6351 -38.0906,-27.0756 -71.5607,-72.0367 -92.2465,-134.239z"/>
   <path id="_475146864" class="fil0" d="M806.965 255.997l434.068 0c17.0599,0 30.9402,6.60473 41.7461,17.2169 10.3724,10.1858 17.0835,23.798 20.3835,37.9831l49.6075 213.143 -31.1256 7.24961 31.167 -7.25434c4.0063,17.2122 -6.7004,34.415 -23.9126,38.4213 -2.6126,0.608268 -5.2252,0.875198 -7.79056,0.833859l-594.754 0c-17.6728,0 -32.0008,-14.328 -32.0008,-32.0008 0,-3.10984 0.445276,-6.11339 1.27205,-8.95631l49.2095 -211.436c3.30118,-14.1862 10.0122,-27.7961 20.3823,-37.9831 10.8059,-10.6122 24.6898,-17.2169 41.7473,-17.2169zm431.99 64.0016l-429.912 0c-0.746457,1.35118 -1.40906,3.34961 -1.95591,5.69764l-40.4717 173.893 514.769 0 -40.4717 -173.893c-0.54567,-2.34685 -1.20945,-4.34528 -1.95709,-5.69764z"/>
   <path id="_475146816" class="fil0" d="M735.232 722.704c-16.9134,-4.9004 -34.5992,4.83662 -39.4996,21.75 -4.9004,16.9134 4.83662,34.5992 21.75,39.4996 56.7685,16.6169 110.281,11.328 156.639,-11.7177 47.2028,-23.465 86.2276,-65.0623 112.886,-120.315 7.663,-15.8776 1.00276,-34.963 -14.8748,-42.626 -15.8776,-7.663 -34.963,-1.00276 -42.626,14.8748 -20.4473,42.3792 -49.3595,73.7776 -83.6351,90.8162 -32.2949,16.0547 -70.063,19.5957 -110.64,7.71851z"/>
   <path id="_475146792" class="fil0" d="M739.805 1159.95c14.1106,3.30236 26.6811,6.45591 38.2949,9.36733 35.85,8.99056 62.0894,15.5717 106.42,18.848 3.28347,0.242126 16.7362,-41.9055 36.7666,-83.5867 6.64252,-13.8213 13.291,-27.6544 18.0543,-37.1244l-0.0708662 -0.0354331c7.02875,-13.9701 22.904,-20.5536 37.4044,-16.3795 7.52953,1.71142 15.1193,3.02481 22.7504,3.913 7.86024,0.914174 16.0547,1.38543 24.5764,1.38543 8.01851,0 15.4453,-0.370866 22.2898,-1.09016 7.20473,-0.757087 14.5382,-1.93701 21.9697,-3.5126l-0.011811 -0.0543308c14.2831,-3.02953 28.363,3.98386 34.8922,16.2626 5.21693,8.69528 12.1713,20.6374 19.1445,32.6138 25.0347,42.9945 50.1154,86.3044 50.1804,86.2997 39.1831,-3.32244 62.3812,-9.07442 93.1111,-16.6937 11.5701,-2.86772 24.2386,-6.00945 42.9922,-10.213 6.73938,-1.51063 12.9957,-2.48032 18.7843,-2.94331 44.067,-3.52087 82.8851,15.2185 112.951,46.0158 27.776,28.4528 47.9304,67.7646 57.0827,108.6 2.46024,10.9795 4.13386,21.7004 4.95473,31.9748l33.0685 413.857 0.0259843 -0.00236221c1.40669,17.6162 -11.7331,33.0402 -29.3492,34.4469 -0.855119,0.068504 -1.70551,0.101575 -2.54882,0.101575l0 0.0011811 -959.077 0c-17.6728,0 -32.0008,-14.328 -32.0008,-32.0008 0,-1.31693 0.0814961,-2.61614 0.236221,-3.89174l32.961 -412.512c0.911812,-11.4142 2.73544,-22.9122 5.39764,-34.2839 9.40394,-40.1811 29.5748,-78.9367 57.2138,-107.113 29.804,-30.3839 68.1579,-48.854 111.657,-45.378 6.51378,0.519685 13.1445,1.55315 19.8791,3.12756zm22.7941 71.3682c-11.1555,-2.79685 -23.2252,-5.8252 -37.2933,-9.11694 -3.49252,-0.816142 -6.9567,-1.35473 -10.3807,-1.62756 -22.8567,-1.82599 -43.9961,8.88308 -61.1552,26.3764 -19.324,19.7008 -33.5988,47.5323 -40.4634,76.8627 -1.91929,8.20158 -3.2374,16.5154 -3.89764,24.7855l-30.3154 379.402 889.812 0 -30.3154 -379.402c-0.649607,-8.13308 -1.81536,-15.9106 -3.45473,-23.2252 -6.62363,-29.5559 -20.9575,-57.7477 -40.5827,-77.8512 -17.3339,-17.7555 -38.8347,-28.6299 -62.1993,-26.7638 -3.6815,0.294095 -7.03938,0.772442 -10.0347,1.44331 -13.6476,3.05906 -28.1965,6.66615 -41.4922,9.96261 -33.8811,8.40001 -59.4591,14.7425 -103.11,18.4441 -39.9662,3.38977 -75.4501,-57.5445 -110.681,-118.05 -2.7567,-4.73504 -5.51575,-9.47127 -8.4567,-14.4768 -1.91575,0.240945 -3.84567,0.462992 -5.78741,0.667323 -9.98977,1.05118 -19.6016,1.59095 -28.7906,1.59095 -10.5024,0 -21.124,-0.640158 -31.826,-1.88622 -2.14725,-0.250394 -4.28859,-0.52441 -6.4193,-0.822048 -2.41299,4.97008 -4.69134,9.70867 -6.96851,14.4484 -29.5063,61.4008 -59.0056,122.775 -98.7674,119.837 -50.0327,-3.69803 -78.5103,-10.8402 -117.421,-20.5984z"/>
   <path id="_475147104" class="fil0" d="M1211.49 1222.43c0,-13.2543 -10.7457,-24 -24,-24 -13.2543,0 -24,10.7457 -24,24 0,49.4941 -14.8571,95.4083 -40.3323,133.518 -24.5209,36.6803 -58.826,66.2375 -99.1572,84.9249 -40.3311,-18.6874 -74.6363,-48.2445 -99.1572,-84.9249 -25.4752,-38.1095 -40.3323,-84.0237 -40.3323,-133.518 0,-13.2543 -10.7457,-24 -24,-24 -13.2543,0 -24,10.7457 -24,24 0,59.1532 17.8949,114.237 48.5811,160.142 31.1587,46.6087 75.5812,83.6422 127.886,105.732 6.05906,3.12874 13.4043,3.67087 20.198,0.859843l-0.0307087 -0.0732284c53.1189,-21.9921 98.2324,-59.3528 129.763,-106.519 30.6862,-45.9048 48.5811,-100.989 48.5811,-160.142z"/>
  </g>
 </g>
 <rect class="fil1" width="2048" height="2048"/>
</svg>
