<?xml version="1.0" encoding="UTF-8"?>
<!DOCTYPE svg PUBLIC "-//W3C//DTD SVG 1.1//EN" "http://www.w3.org/Graphics/SVG/1.1/DTD/svg11.dtd">
<!-- Creator: CorelDRAW -->
<svg xmlns="http://www.w3.org/2000/svg" xml:space="preserve" width="2048px" height="2048px" style="shape-rendering:geometricPrecision; text-rendering:geometricPrecision; image-rendering:optimizeQuality; fill-rule:evenodd; clip-rule:evenodd"
viewBox="0 0 2048 2048"
 xmlns:xlink="http://www.w3.org/1999/xlink">
 <defs>
  <style type="text/css">
   <![CDATA[
    .fil1 {fill:none}
    .fil0 {fill:#212121;fill-rule:nonzero}
   ]]>
  </style>
 </defs>
 <g id="Layer_x0020_1">
  <metadata id="CorelCorpID_0Corel-Layer"/>
  <path class="fil0" d="M704.264 1090.57c15.8268,3.70394 29.8914,7.2319 42.8929,10.4917l0.444095 0.111024c-32.7402,-35.8323 -61.206,-77.9209 -84.2859,-124.828 -41.9162,-85.1859 -66.2434,-186.362 -66.2434,-294.653 0,-142.676 42.0544,-244.767 111.128,-313.623 78.8764,-78.6296 191.401,-112.068 315.801,-112.068 124.4,0 236.925,33.4382 315.801,112.068 69.0733,68.856 111.128,170.947 111.128,313.623 0,107.681 -23.987,208.221 -65.3563,292.95 -23.1638,47.4426 -51.8268,89.9989 -84.8457,126.193 11.8205,-2.92441 25.0701,-6.15709 43.265,-10.2366l-0.00590552 -0.0271654 0.022441 -0.00472441 -0.0212599 -0.0956694c0.907087,-0.20315 1.81536,-0.36378 2.72008,-0.486615 6.28583,-1.30394 12.2669,-2.16969 17.9469,-2.62323 48.1772,-3.84922 90.6733,16.6949 123.63,50.4532 30.6638,31.4114 52.9229,74.8394 63.0378,119.966 2.71063,12.098 4.5567,23.948 5.46733,35.3433l37.102 464.333 0.0259843 -0.00236221c1.40669,17.6162 -11.7331,33.0402 -29.3492,34.4469 -0.855119,0.068504 -1.70551,0.101575 -2.54882,0.101575l0 0.0011811 -1076.04 0c-17.6728,0 -32.0008,-14.328 -32.0008,-32.0008 0,-1.31693 0.0814961,-2.61614 0.236221,-3.89174l36.9945 -462.988c1.00748,-12.6142 3.02481,-25.3229 5.96457,-37.8886 10.3949,-44.4178 32.667,-87.2327 63.1701,-118.329 32.667,-33.3036 74.6469,-53.5512 122.192,-49.7528 7.11851,0.568111 14.3669,1.69606 21.7252,3.41811zm27.3921 72.4926c-12.5421,-3.14528 -26.1118,-6.54804 -41.8914,-10.2413 -4.11614,-0.962599 -8.19686,-1.59685 -12.2268,-1.91811 -26.902,-2.14843 -51.6685,10.3382 -71.6906,30.7512 -22.1882,22.6193 -38.5642,54.5115 -46.4197,88.0784 -2.19803,9.39568 -3.70866,18.9177 -4.46457,28.3902l-34.3488 429.878 1006.77 0 -34.3488 -429.878c-0.739371,-9.25394 -2.07756,-18.1618 -3.96733,-26.5937 -7.58623,-33.8457 -24.0236,-66.1536 -46.5378,-89.217 -20.224,-20.7166 -45.4016,-33.3957 -72.8776,-31.2012 -3.38268,0.269292 -6.61182,0.698032 -9.66615,1.29213 -0.657875,0.19252 -1.3252,0.366142 -2.00315,0.518504l-6.99922 -31.226 6.8752 31.1256c-15.6177,3.50079 -31.8366,7.52245 -46.6465,11.1933 -37.8201,9.3756 -66.3721,16.4551 -115.073,20.5854 -2.4815,0.210236 -4.95827,0.20315 -7.41615,-0.00590552 -1.24016,-0.105118 -2.53819,-0.282284 -3.89055,-0.52441 -9.25985,-1.25551 -17.8914,-6.53623 -23.1024,-15.1547 -9.14292,-15.124 -4.29449,-34.7977 10.8295,-43.9406l16.5555 27.3851 -16.5 -27.3756c63.5894,-38.4449 117.545,-100.703 155.453,-178.342 37.2544,-76.3005 58.8556,-167.209 58.8556,-264.951 0,-124.172 -34.8638,-211.29 -92.1261,-268.373 -65.6788,-65.4733 -162.419,-93.3166 -270.801,-93.3166 -108.382,0 -205.122,27.8433 -270.801,93.3166 -57.2622,57.0827 -92.1261,144.201 -92.1261,268.373 0,98.4615 21.848,189.9 59.4922,266.404 38.0244,77.2808 91.9973,139.198 155.542,177.379 11.1,5.73189 18.2681,17.7189 17.2288,30.9544 -1.38425,17.6185 -16.7906,30.7784 -34.4091,29.3941l0.00236221 -0.0259843c-53.3386,-4.19174 -84.7312,-12.065 -127.273,-22.7339z"/>
  <path class="fil0" d="M1024 479.999c74.6587,0 142.573,2.29961 195.144,28.415 57.3721,28.4988 92.8572,81.0615 92.8572,179.586 0,94.2095 -33.6414,197.834 -87.4229,275.144 -51.3603,73.8296 -121.65,124.857 -200.579,124.857 -78.9284,0 -149.218,-51.0272 -200.579,-124.857 -53.7815,-77.3103 -87.4229,-180.934 -87.4229,-275.144 0,-98.5241 35.4851,-151.087 92.8572,-179.586 52.5709,-26.1154 120.486,-28.415 195.144,-28.415zm166.895 85.6654c-40.0807,-19.911 -100.169,-21.6638 -166.895,-21.6638 -66.7252,0 -126.814,1.75276 -166.895,21.6638 -35.2819,17.5252 -57.1052,52.9642 -57.1052,122.335 0,81.6249 29.2158,171.503 75.9213,238.643 40.0477,57.567 92.3103,97.356 148.078,97.356 55.7682,0 108.031,-39.789 148.078,-97.356 46.7055,-67.1398 75.9213,-157.018 75.9213,-238.643 0,-69.3709 -21.8232,-104.81 -57.1052,-122.335z"/>
 </g>
 <rect class="fil1" width="2048" height="2048"/>
</svg>
