<?xml version="1.0" encoding="UTF-8"?>
<!DOCTYPE svg PUBLIC "-//W3C//DTD SVG 1.1//EN" "http://www.w3.org/Graphics/SVG/1.1/DTD/svg11.dtd">
<!-- Creator: CorelDRAW -->
<svg xmlns="http://www.w3.org/2000/svg" xml:space="preserve" width="2048px" height="2048px" style="shape-rendering:geometricPrecision; text-rendering:geometricPrecision; image-rendering:optimizeQuality; fill-rule:evenodd; clip-rule:evenodd"
viewBox="0 0 2048 2048"
 xmlns:xlink="http://www.w3.org/1999/xlink">
 <defs>
  <style type="text/css">
   <![CDATA[
    .fil1 {fill:none}
    .fil0 {fill:#212121;fill-rule:nonzero}
   ]]>
  </style>
 </defs>
 <g id="Layer_x0020_1">
  <metadata id="CorelCorpID_0Corel-Layer"/>
  <path class="fil0" d="M564.58 1186.53c-1.31102,17.6043 11.8961,32.9398 29.5004,34.2508 17.6043,1.31102 32.9398,-11.8961 34.2508,-29.5004l8.3126 -111.288 0.0354331 0.00236221c0.964961,-12.9284 -5.89252,-24.6366 -16.5721,-30.476l-90.1784 -61.0583 55.3949 -100.702 0.0496063 0.0271654c5.81811,-10.5768 5.02559,-23.0079 -0.99567,-32.5406l-54.45 -98.9812 92.7024 -62.7674 0.0779528 0.114567c10.3205,-6.98741 15.2669,-18.9449 13.8118,-30.5185l-8.04686 -107.725 108.155 -15.5303 -4.5 -31.6252 4.54843 31.6748c12.4559,-1.78819 22.2,-10.5272 25.8709,-21.7276l38.6363 -101.313 106.577 31.8095 -0.0129921 0.0437008c11.7,3.49134 23.8252,-0.0283465 31.8709,-8.12127l84.3816 -75.8422 85.7233 77.0481 21.3756 -23.7496 -21.391 23.8004c9.06969,8.15079 21.515,10.1634 32.2394,6.31063l104.868 -31.3004 39.1807 102.741 29.8748 -11.3752 -29.8996 11.4024c4.54134,11.9091 15.424,19.5343 27.3343,20.5004l106.22 15.2528 -8.16969 109.364 -0.0354331 -0.00236221c-0.964961,12.9284 5.89252,24.6366 16.5721,30.476l90.1784 61.0583 -55.3949 100.702 -0.0496063 -0.0271654c-5.81811,10.5768 -5.02559,23.0079 0.99567,32.5406l54.45 98.9812 -92.7024 62.7674 -0.0779528 -0.114567c-10.3205,6.98741 -15.2669,18.9437 -13.8118,30.5185l7.89095 105.647c1.31102,17.6043 16.6465,30.8114 34.2508,29.5004 17.6043,-1.31102 30.8114,-16.6465 29.5004,-34.2508l-6.64371 -88.9501 98.98 -67.017 0.0248032 -0.0129921c15.4843,-8.51812 21.1323,-27.978 12.6142,-43.4622l-0.0496063 0.0271654 -60.9248 -110.751 60.0248 -109.119c9.15237,-14.5394 5.18386,-33.8244 -9.14883,-43.5284l-0.0779528 0.114567 -101.444 -68.6847 8.91024 -119.283c2.10591,-17.2311 -9.94961,-33.0662 -27.2162,-35.5441l-4.54843 31.6748 4.5 -31.6252 -119.078 -17.0988 -42.5433 -111.559c-5.39764,-16.389 -22.9004,-25.6028 -39.541,-20.6362l0.0129921 0.0437008 -117.846 35.1733 -92.4579 -83.1012c-11.9386,-12.0036 -31.3264,-12.6591 -44.0611,-1.21417l21.391 23.8004 -21.3756 -23.7496 -93.7536 84.2658 -116.249 -34.6973c-16.3417,-5.82756 -34.4244,2.45079 -40.6359,18.7417l29.8996 11.4024 -29.8748 -11.3752 -43.0571 112.906 -117.284 16.8414c-17.4614,1.47756 -30.5126,16.7504 -29.2051,34.2662l0.0354331 -0.00236221 9.02127 120.771 -98.98 67.017 -0.0248032 0.0129921c-15.4843,8.51812 -21.1323,27.978 -12.6142,43.4622l0.0496063 -0.0271654 60.9248 110.751 -60.0248 109.119c-9.15237,14.5394 -5.18386,33.8244 9.14883,43.5284l0.0779528 -0.114567 101.444 68.6847 -6.94253 92.9516z"/>
  <path class="fil0" d="M902.822 954.361c0,19.2827 -9.9945,36.3886 -30.0461,51.2504 -19.989,14.9268 -42.8599,22.3583 -68.4863,22.3583 -21.3969,0 -38.1166,-5.44489 -50.2252,-16.2721 -12.0449,-10.8272 -18.0662,-25.8827 -18.0662,-45.2941 0,-18.1299 2.24055,-33.9532 6.72756,-47.4697 5.12481,-15.3118 15.1169,-34.0193 30.0461,-56.1213l11.5949 7.87914c-9.7382,14.6079 -16.6571,27.2918 -20.8217,38.0551 -4.09961,10.7622 -6.15,21.4606 -6.15,32.0953 0,11.4047 4.16457,20.1815 12.6213,26.3953 8.45552,6.21378 20.3717,9.28938 35.7473,9.28938 22.0382,0 39.913,-4.22835 53.6859,-12.7488 13.774,-8.52048 20.6917,-19.6677 20.6917,-33.4418 0,-2.37047 0,-4.22835 0,-5.63741 0,-1.34646 0,-2.43425 0,-3.13937 0,-4.93229 -0.447638,-10.2496 -1.21536,-16.1445 -0.832678,-5.89371 -2.94685,-18.0662 -6.34252,-36.4524 -5.38111,-29.661 -10.7646,-59.3233 -16.1445,-89.1131l-9.35434 -6.79134c0,-12.2362 5.76615,-31.0075 17.2335,-56.3115l8.64922 4.16339c-0.512599,1.72914 -0.705119,3.71575 -0.705119,6.02126 0,4.99843 2.56418,9.03426 7.68898,12.1736 7.62284,4.22717 14.798,8.32796 21.5894,12.1725 -1.41024,10.761 -2.75551,18.5138 -4.16575,23.126 -1.3441,4.61339 -4.22599,11.5311 -8.64686,20.8217l-5.63859 -2.24292c0,1.85788 1.7941,12.5563 5.38229,31.9677 3.58583,19.4764 6.59882,36.2611 9.09568,50.4189 3.52441,20.2441 5.25473,32.6091 5.25473,36.9662l0 42.026zm134.407 -89.3056c0,3.71457 -0.577559,7.23898 -1.73032,10.3772 -1.08898,3.20315 -3.20315,7.36772 -6.15,12.4937 -7.4315,-16.6571 -15.5681,-30.2386 -24.4087,-40.8744 -8.90552,-10.6347 -19.4114,-19.1551 -31.5201,-25.5614 0,5.38111 -0.641339,9.29056 -1.92166,11.7236 -1.21654,2.43543 -3.01181,3.65197 -5.25237,3.65197 -3.71693,0 -10.6347,-3.52323 -20.6291,-10.6984 -10.7634,-7.62402 -18.515,-14.9268 -23.2547,-21.9106 -3.39567,-4.93229 -5.95867,-11.9799 -7.62402,-21.2043 -1.66654,-9.28938 -2.56299,-16.8484 -2.56299,-22.7433 0,-9.0319 2.43307,-13.5165 7.1752,-13.5165 7.36654,0 18.3862,4.35591 32.9918,13.0689 14.6717,8.64922 28.4457,19.0914 41.3221,31.2638 29.0221,26.7142 43.565,51.3792 43.565,73.93zm73.5449 94.0453l-13.7091 0c-7.88032,0 -15.3118,-6.47008 -22.2945,-19.3477 -7.55906,-13.7728 -11.276,-29.5323 -11.276,-47.2796 -11.0197,32.8666 -26.3941,55.4811 -46.1906,67.7162 -19.1551,11.9162 -48.4323,17.811 -87.8316,17.811l-21.7819 -0.32126 0 -12.0437c9.03308,-3.13937 17.9374,-6.21378 26.7792,-9.28938 8.77678,-3.07441 15.3756,-5.70237 19.7953,-7.9441 25.4977,-12.9413 42.7949,-22.2945 51.763,-28.187 16.0181,-10.3795 27.613,-21.2705 34.7233,-32.674 8.3941,-13.3902 12.6225,-29.7248 12.6225,-49.1363 0,-11.661 -0.962599,-22.9996 -2.75551,-33.9555 -1.7941,-11.0197 -3.65079,-21.9732 -5.50985,-32.8642 0,-8.52048 7.24016,-25.8177 21.7819,-51.828 6.47008,21.3969 10.6347,49.3937 12.365,83.9245 1.0252,24.4075 2.0504,48.8174 3.20315,73.1611 1.98543,20.8217 6.85394,31.1988 14.6067,31.1988l13.7091 0 0 51.0591zm201.226 0l-214.36 0 0 -51.0591 133.447 0c-15.1181,-15.6319 -29.1484,-26.9067 -42.0272,-33.8256 -11.4024,-6.08623 -22.5484,-9.16064 -33.4418,-9.16064 -3.26575,0 -6.21378,0.127559 -8.90316,0.447638 -2.69173,0.320079 -6.59882,1.02638 -11.7236,2.17795 6.85394,-15.7595 14.5417,-27.4193 22.9984,-34.9146 8.45552,-7.49528 18.065,-11.276 28.8295,-11.276 8.19922,0 16.1445,1.9878 23.8311,6.02245 7.62402,3.97205 16.2083,10.4421 25.689,19.3477 7.49528,6.98268 18.1299,17.9374 31.9051,32.8004 9.35316,10.5083 16.5295,17.3622 21.4618,20.5004 4.99607,3.13937 12.3638,5.76615 22.2933,7.88032l0 51.0591z"/>
  <path class="fil0" d="M444.163 1184.42c206.449,-42.5055 406.685,-64.6312 600.305,-65.067 194.816,-0.43937 382.677,21.0673 563.157,65.8371l-7.6252 31.0004 7.70434 -31.0595c14.7815,3.66614 24.5882,17.061 24.2965,31.6713l0 319.389c0,17.6728 -14.328,32.0008 -32.0008,32.0008 -3.41339,0 -6.69922,-0.536221 -9.78426,-1.52599 -193.42,-47.2878 -384.134,-67.9689 -572.581,-66.4796 -189.402,1.49646 -376.816,25.3748 -562.635,67.1304l-7.0004 -31.1256 7.01575 31.2213c-17.2429,3.87402 -34.363,-6.9626 -38.237,-24.2055 -0.564567,-2.51457 -0.814961,-5.02678 -0.779528,-7.49528l0 -319.522c0,-16.3748 12.3,-29.8748 28.1646,-31.7705zm600.305 -1.31575c-181.872,0.409843 -370.153,20.504 -564.468,59.1426l0 254.322c177.207,-37.415 356.123,-58.7032 537.134,-60.1335 181.644,-1.4374 365.152,17.1118 550.865,59.3859l0 -254.519c-168.195,-39.5752 -342.821,-58.604 -523.531,-58.1977z"/>
  <path class="fil0" d="M572.726 1523.86c0,-17.6728 -14.328,-32.0008 -32.0008,-32.0008 -17.6728,0 -32.0008,14.328 -32.0008,32.0008l0 129.717c-32.6351,4.71969 -65.5123,10.0784 -98.6233,16.0488 -24.2374,4.37126 -48.2989,9.01772 -72.189,13.9311l41.289 -133.123 0.0874016 0.0271654c2.57008,-8.2878 1.60158,-16.8284 -2.04803,-23.9953l-41.2252 -96.6946c11.2984,-2.20158 22.5957,-4.3441 33.8894,-6.42638 24.0862,-4.44095 47.9504,-8.57363 71.5879,-12.3921 17.3965,-2.76024 29.2607,-19.1032 26.5004,-36.4996 -2.76024,-17.3965 -19.1032,-29.2607 -36.4996,-26.5004 -24.404,3.94252 -48.7678,8.15788 -73.0879,12.6425 -23.4827,4.32874 -47.1355,8.94922 -70.9441,13.8496 -2.93977,0.354331 -5.87953,1.12205 -8.74016,2.34213 -16.2567,6.93071 -23.8169,25.7303 -16.8862,41.987l0.0708662 -0.0295276 52.8662 123.998 -53.2548 171.704c-2.29134,5.77441 -2.9315,12.2752 -1.46693,18.7937 3.87402,17.2429 20.9941,28.0795 38.237,24.2055l-7.01575 -31.2213 7.0004 31.1256c41.3776,-9.29764 82.4138,-17.641 123.08,-24.9744 39.8622,-7.18819 80.269,-13.5685 121.247,-19.0961 16.8012,-0.970867 30.1264,-14.902 30.1264,-31.9453l0 -157.474z"/>
  <path class="fil0" d="M1539.27 1523.86c0,-17.6728 -14.328,-32.0008 -32.0008,-32.0008 -17.6728,0 -32.0008,14.328 -32.0008,32.0008l0 157.474c0,17.0433 13.3252,30.9744 30.1264,31.9453 40.9784,5.52756 81.3851,11.9079 121.247,19.0961 40.6666,7.33347 81.7028,15.6768 123.08,24.9744l7.0004 -31.1256 -7.01575 31.2213c17.2429,3.87402 34.363,-6.9626 38.237,-24.2055 1.46457,-6.51851 0.82441,-13.0193 -1.46693,-18.7937l-53.2548 -171.704 52.8662 -123.998 0.0708662 0.0295276c6.93071,-16.2567 -0.629528,-35.0563 -16.8862,-41.987 -2.86063,-1.22008 -5.8004,-1.9878 -8.74016,-2.34213 -23.8087,-4.9004 -47.4615,-9.52087 -70.9441,-13.8496 -24.3201,-4.48465 -48.6839,-8.70001 -73.0879,-12.6425 -17.3965,-2.76024 -33.7394,9.10394 -36.4996,26.5004 -2.76024,17.3965 9.10394,33.7394 26.5004,36.4996 23.6374,3.81851 47.5016,7.95119 71.5879,12.3921 11.2937,2.08229 22.591,4.22481 33.8894,6.42638l-41.2252 96.6946c-3.64961,7.16693 -4.61811,15.7075 -2.04803,23.9953l0.0874016 -0.0271654 41.289 133.123c-23.8902,-4.91339 -47.9516,-9.55985 -72.189,-13.9311 -33.111,-5.97048 -65.9882,-11.3291 -98.6233,-16.0488l0 -129.717z"/>
  <path class="fil0" d="M752.814 1183.06c9.42284,9.26694 24.5764,9.14174 33.8433,-0.281103 9.26694,-9.42284 9.14174,-24.5764 -0.281103,-33.8433 -31.8484,-31.291 -57.5752,-68.9186 -75.1808,-110.888 -16.898,-40.2803 -26.237,-84.5398 -26.237,-131.009 0,-93.6261 37.9488,-178.388 99.3013,-239.74 61.3524,-61.3524 146.114,-99.3013 239.74,-99.3013 93.6261,0 178.388,37.9488 239.74,99.3013 61.3524,61.3524 99.3013,146.114 99.3013,239.74 0,45.7111 -8.96103,89.1698 -25.2059,128.72 -16.9299,41.2146 -41.7815,78.3922 -72.6615,109.644 -9.26694,9.42284 -9.14174,24.5764 0.281103,33.8433 9.42284,9.26694 24.5764,9.14174 33.8433,-0.281103 35.1414,-35.5654 63.4548,-77.954 82.7883,-125.02 18.6614,-45.4323 28.9547,-95.0481 28.9547,-146.907 0,-106.877 -43.3229,-203.638 -113.363,-273.678 -70.0406,-70.0406 -166.801,-113.363 -273.678,-113.363 -106.877,0 -203.638,43.3229 -273.678,113.363 -70.0406,70.0406 -113.363,166.801 -113.363,273.678 0,53.002 10.6736,103.537 29.9858,149.571 20.0126,47.7059 49.3973,90.6154 85.8698,126.45z"/>
  <path class="fil0" d="M597.701 1281.63l40.1528 -5.64331 6.39095 45.4784 43.9052 -6.17008 -6.39095 -45.4784 40.3335 -5.66811 18.2646 129.958 -40.3335 5.6693 -7.38662 -52.5591 -43.9052 6.17008 7.38662 52.5591 -40.1528 5.64331 -18.2646 -129.959zm293.561 78.0048l-46.0866 3.22205 -4.82953 22.0547 -41.3315 2.89016 40.0418 -134.356 44.1059 -3.08386 58.3819 127.474 -42.339 2.95984 -7.94292 -21.1606zm-10.4539 -27.7252l-17.7685 -46.0489 -11.0965 48.0674 28.865 -2.01851zm117.194 -84.7111l40.5721 -0.708662 1.72559 98.8926 63.2705 -1.10433 0.564567 32.3233 -103.843 1.81299 -2.29016 -131.216zm252.31 118.076l-46.0241 -4.02638 -8.2193 21.0272 -41.276 -3.61063 60.5682 -126.438 44.0445 3.85276 37.7221 135.038 -42.28 -3.69922 -4.53544 -22.1433zm-5.98819 -29.0185l-10.3465 -48.2622 -18.4784 45.7394 28.8248 2.52284zm134.335 -69.854l39.9614 7.04646 -17.1756 97.4056 62.3186 10.9878 -5.6126 31.8378 -102.281 -18.0354 22.7894 -129.242z"/>
 </g>
 <rect class="fil1" width="2048" height="2048"/>
</svg>
