<?xml version="1.0" encoding="UTF-8"?>
<!DOCTYPE svg PUBLIC "-//W3C//DTD SVG 1.1//EN" "http://www.w3.org/Graphics/SVG/1.1/DTD/svg11.dtd">
<!-- Creator: CorelDRAW -->
<svg xmlns="http://www.w3.org/2000/svg" xml:space="preserve" width="2048px" height="2048px" style="shape-rendering:geometricPrecision; text-rendering:geometricPrecision; image-rendering:optimizeQuality; fill-rule:evenodd; clip-rule:evenodd"
viewBox="0 0 2048 2048"
 xmlns:xlink="http://www.w3.org/1999/xlink">
 <defs>
  <style type="text/css">
   <![CDATA[
    .fil1 {fill:none}
    .fil0 {fill:#212121;fill-rule:nonzero}
   ]]>
  </style>
 </defs>
 <g id="Layer_x0020_1">
  <metadata id="CorelCorpID_0Corel-Layer"/>
  <path class="fil0" d="M1713.99 1181.3c6.00591,-16.5685 -2.55591,-34.8697 -19.1244,-40.8756 -16.5685,-6.00591 -34.8697,2.55591 -40.8756,19.1244l-65.2548 179.521c-204.963,22.2095 -423.64,-33.6886 -642.315,-89.589 -213.474,-54.5717 -426.951,-109.137 -633.986,-93.8316l54.88 -150.98c6.00591,-16.5685 -2.55591,-34.8697 -19.1244,-40.8756 -16.5685,-6.00591 -34.8697,2.55591 -40.8756,19.1244l-71.4213 196.485c-2.38465,5.26772 -3.37441,11.2429 -2.55591,17.3965 2.3315,17.5181 18.4252,29.8299 35.9433,27.4984l-0.0141732 -0.106299c210.445,-27.9874 435.926,29.6504 661.402,87.2906 230.266,58.8638 460.536,117.716 682.72,88.8804 12.5599,-0.537402 24.1559,-8.49568 28.7173,-21.0437l-30.0744 -10.9323 30 10.8756 71.9575 -197.961z"/>
  <path class="fil0" d="M307.312 982.92c-6.00591,16.5685 2.55591,34.8697 19.1244,40.8756 16.5685,6.00591 34.8697,-2.55591 40.8756,-19.1244l69.013 -189.859c204.962,-22.2083 423.638,33.6886 642.312,89.589 213.475,54.5717 426.952,109.139 633.988,93.8316l-58.6382 161.319c-6.00591,16.5685 2.55591,34.8697 19.1244,40.8756 16.5685,6.00591 34.8697,-2.55591 40.8756,-19.1244l75.1784 -206.823c2.38465,-5.26772 3.37441,-11.2429 2.55591,-17.3965 -2.3315,-17.5181 -18.4252,-29.8299 -35.9433,-27.4984l0.0141732 0.106299c-210.445,27.9886 -435.926,-29.6504 -661.404,-87.2906 -230.266,-58.8638 -460.536,-117.715 -682.718,-88.8804 -12.5599,0.537402 -24.1559,8.49568 -28.7173,21.0437l30.0744 10.9323 -30 -10.8756 -75.7158 208.299z"/>
  <path class="fil0" d="M496.039 893.623l-64.4658 177.349c179.351,7.06536 357.811,52.6867 528.508,96.3284l6.9189 1.76929 -3.9378 15.4996 3.9378 -15.437 0.00944883 0.00236221 0.0165354 -0.0661418c0.483071,0.124016 0.955513,0.269292 1.41614,0.433465l21.8965 5.6067c170.336,43.6559 361.392,92.6162 538.681,85.154l64.4646 -177.349c-179.348,-7.06536 -357.807,-52.6867 -528.505,-96.3284l-6.9189 -1.76929c-93.7347,-23.9551 27.6614,7.02993 -23.3587,-6.04371 -170.333,-43.6548 -361.381,-92.6103 -538.663,-85.1493zm-101.984 187.153l75.1961 -206.868c1.78347,-6.43347 7.50827,-11.3114 14.5429,-11.6976l0.878741 15.9756 -0.875198 -15.9378c184.924,-10.1646 382.768,40.539 558.78,85.6501 35.3575,9.06024 -85.8556,-21.9933 23.3587,5.91851l6.9189 1.76929c175.812,44.9492 359.931,92.0198 542.148,96.1016 2.13543,-0.135827 4.33111,0.157087 6.47008,0.934253 8.30434,3.01772 12.5882,12.1984 9.57048,20.5028l-0.0413386 -0.0153543 -75.1949 206.868c-1.78465,6.43347 -7.50709,11.3114 -14.5429,11.6976l-0.878741 -15.9756 0.875198 15.9378c-184.931,10.1658 -382.781,-40.5426 -558.798,-85.6548l-21.9272 -5.61496c-0.478347,-0.0767717 -0.959056,-0.174803 -1.4374,-0.297638l0.00236221 -0.00708662 -6.89528 -1.76339c-175.813,-44.9492 -359.933,-92.0198 -542.151,-96.1016 -2.13543,0.135827 -4.33111,-0.157087 -6.47008,-0.934253 -8.30434,-3.01772 -12.5882,-12.1984 -9.57048,-20.5028l0.0413386 0.0153543z"/>
  <path class="fil0" d="M1632 1360c-8.83583,0 -16.0004,7.16457 -16.0004,16.0004 0,8.83583 7.16457,16.0004 16.0004,16.0004l64.0004 0c8.83583,0 16.0004,-7.16457 16.0004,-16.0004 0,-8.83583 -7.16457,-16.0004 -16.0004,-16.0004l-64.0004 0z"/>
  <path class="fil0" d="M1642.42 1315.2c-8.83583,0 -16.0004,7.16457 -16.0004,16.0004 0,8.83583 7.16457,16.0004 16.0004,16.0004l64.0004 0c8.83583,0 16.0004,-7.16457 16.0004,-16.0004 0,-8.83583 -7.16457,-16.0004 -16.0004,-16.0004l-64.0004 0z"/>
  <path class="fil0" d="M1660.88 1270.41c-8.83583,0 -16.0004,7.16457 -16.0004,16.0004 0,8.83583 7.16457,16.0004 16.0004,16.0004l64.0004 0c8.83583,0 16.0004,-7.16457 16.0004,-16.0004 0,-8.83583 -7.16457,-16.0004 -16.0004,-16.0004l-64.0004 0z"/>
  <path class="fil0" d="M1674.94 1225.62c-8.83583,0 -16.0004,7.16457 -16.0004,16.0004 0,8.83583 7.16457,16.0004 16.0004,16.0004l64.0004 0c8.83583,0 16.0004,-7.16457 16.0004,-16.0004 0,-8.83583 -7.16457,-16.0004 -16.0004,-16.0004l-64.0004 0z"/>
  <path class="fil0" d="M1691.61 1180.83c-8.83583,0 -16.0004,7.16457 -16.0004,16.0004 0,8.83583 7.16457,16.0004 16.0004,16.0004l64.0004 0c8.83583,0 16.0004,-7.16457 16.0004,-16.0004 0,-8.83583 -7.16457,-16.0004 -16.0004,-16.0004l-64.0004 0z"/>
  <path class="fil0" d="M1696 1136.04c-8.83583,0 -16.0004,7.16457 -16.0004,16.0004 0,8.83583 7.16457,16.0004 16.0004,16.0004l64.0004 0c8.83583,0 16.0004,-7.16457 16.0004,-16.0004 0,-8.83583 -7.16457,-16.0004 -16.0004,-16.0004l-64.0004 0z"/>
  <path class="fil0" d="M1717.13 1091.24c-8.83583,0 -16.0004,7.16457 -16.0004,16.0004 0,8.83583 7.16457,16.0004 16.0004,16.0004l64.0004 0c8.83583,0 16.0004,-7.16457 16.0004,-16.0004 0,-8.83583 -7.16457,-16.0004 -16.0004,-16.0004l-64.0004 0z"/>
  <path class="fil0" d="M1731.71 1046.45c-8.83583,0 -16.0004,7.16457 -16.0004,16.0004 0,8.83583 7.16457,16.0004 16.0004,16.0004l64.0004 0c8.83583,0 16.0004,-7.16457 16.0004,-16.0004 0,-8.83583 -7.16457,-16.0004 -16.0004,-16.0004l-64.0004 0z"/>
  <path class="fil0" d="M1747.34 1001.66c-8.83583,0 -16.0004,7.16457 -16.0004,16.0004 0,8.83583 7.16457,16.0004 16.0004,16.0004l64.0004 0c8.83583,0 16.0004,-7.16457 16.0004,-16.0004 0,-8.83583 -7.16457,-16.0004 -16.0004,-16.0004l-64.0004 0z"/>
  <path class="fil0" d="M1757.76 956.867c-8.83583,0 -16.0004,7.16457 -16.0004,16.0004 0,8.83583 7.16457,16.0004 16.0004,16.0004l64.0004 0c8.83583,0 16.0004,-7.16457 16.0004,-16.0004 0,-8.83583 -7.16457,-16.0004 -16.0004,-16.0004l-64.0004 0z"/>
  <path class="fil0" d="M201.469 1171.97c-8.83583,0 -16.0004,7.16457 -16.0004,16.0004 0,8.83583 7.16457,16.0004 16.0004,16.0004l64.0004 0c8.83583,0 16.0004,-7.16457 16.0004,-16.0004 0,-8.83583 -7.16457,-16.0004 -16.0004,-16.0004l-64.0004 0z"/>
  <path class="fil0" d="M211.886 1127.17c-8.83583,0 -16.0004,7.16457 -16.0004,16.0004 0,8.83583 7.16457,16.0004 16.0004,16.0004l64.0004 0c8.83583,0 16.0004,-7.16457 16.0004,-16.0004 0,-8.83583 -7.16457,-16.0004 -16.0004,-16.0004l-64.0004 0z"/>
  <path class="fil0" d="M230.345 1082.38c-8.83583,0 -16.0004,7.16457 -16.0004,16.0004 0,8.83583 7.16457,16.0004 16.0004,16.0004l64.0004 0c8.83583,0 16.0004,-7.16457 16.0004,-16.0004 0,-8.83583 -7.16457,-16.0004 -16.0004,-16.0004l-64.0004 0z"/>
  <path class="fil0" d="M238.94 1037.59c-8.83583,0 -16.0004,7.16457 -16.0004,16.0004 0,8.83583 7.16457,16.0004 16.0004,16.0004l64.0004 0c8.83583,0 16.0004,-7.16457 16.0004,-16.0004 0,-8.83583 -7.16457,-16.0004 -16.0004,-16.0004l-64.0004 0z"/>
  <path class="fil0" d="M253.135 992.796c-8.83583,0 -16.0004,7.16457 -16.0004,16.0004 0,8.83583 7.16457,16.0004 16.0004,16.0004l64.0004 0c8.83583,0 16.0004,-7.16457 16.0004,-16.0004 0,-8.83583 -7.16457,-16.0004 -16.0004,-16.0004l-64.0004 0z"/>
  <path class="fil0" d="M276.475 948.42c-8.83583,0 -16.0004,7.16457 -16.0004,16.0004 0,8.83583 7.16457,16.0004 16.0004,16.0004l64.0004 0c8.83583,0 16.0004,-7.16457 16.0004,-16.0004 0,-8.83583 -7.16457,-16.0004 -16.0004,-16.0004l-64.0004 0z"/>
  <path class="fil0" d="M286.598 903.212c-8.83583,0 -16.0004,7.16457 -16.0004,16.0004 0,8.83583 7.16457,16.0004 16.0004,16.0004l64.0004 0c8.83583,0 16.0004,-7.16457 16.0004,-16.0004 0,-8.83583 -7.16457,-16.0004 -16.0004,-16.0004l-64.0004 0z"/>
  <path class="fil0" d="M301.181 858.42c-8.83583,0 -16.0004,7.16457 -16.0004,16.0004 0,8.83583 7.16457,16.0004 16.0004,16.0004l64.0004 0c8.83583,0 16.0004,-7.16457 16.0004,-16.0004 0,-8.83583 -7.16457,-16.0004 -16.0004,-16.0004l-64.0004 0z"/>
  <path class="fil0" d="M316.807 813.628c-8.83583,0 -16.0004,7.16457 -16.0004,16.0004 0,8.83583 7.16457,16.0004 16.0004,16.0004l64.0004 0c8.83583,0 16.0004,-7.16457 16.0004,-16.0004 0,-8.83583 -7.16457,-16.0004 -16.0004,-16.0004l-64.0004 0z"/>
  <path class="fil0" d="M337.641 768.836c-8.83583,0 -16.0004,7.16457 -16.0004,16.0004 0,8.83583 7.16457,16.0004 16.0004,16.0004l64.0004 0c8.83583,0 16.0004,-7.16457 16.0004,-16.0004 0,-8.83583 -7.16457,-16.0004 -16.0004,-16.0004l-64.0004 0z"/>
 </g>
 <rect class="fil1" width="2048" height="2048"/>
</svg>
