<?xml version="1.0" encoding="UTF-8"?>
<!DOCTYPE svg PUBLIC "-//W3C//DTD SVG 1.1//EN" "http://www.w3.org/Graphics/SVG/1.1/DTD/svg11.dtd">
<!-- Creator: CorelDRAW -->
<svg xmlns="http://www.w3.org/2000/svg" xml:space="preserve" width="2048px" height="2048px" style="shape-rendering:geometricPrecision; text-rendering:geometricPrecision; image-rendering:optimizeQuality; fill-rule:evenodd; clip-rule:evenodd"
viewBox="0 0 2048 2048"
 xmlns:xlink="http://www.w3.org/1999/xlink">
 <defs>
  <style type="text/css">
   <![CDATA[
    .fil1 {fill:none}
    .fil0 {fill:#212121;fill-rule:nonzero}
   ]]>
  </style>
 </defs>
 <g id="Layer_x0020_1">
  <metadata id="CorelCorpID_0Corel-Layer"/>
  <g id="_475151664">
   <path id="_475152456" class="fil0" d="M1024 610.961c163.001,0 311.328,10.5354 419.367,27.5658 122.836,19.3618 198.814,53.1733 198.814,96.8387 0,43.6642 -75.978,77.4768 -198.813,96.8398 -108.039,17.0303 -256.367,27.5658 -419.368,27.5658 -163.002,0 -311.329,-10.5354 -419.368,-27.5658 -122.835,-19.363 -198.813,-53.1756 -198.813,-96.8398 0,-43.6654 75.978,-77.4768 198.814,-96.8387 108.039,-17.0303 256.367,-27.5658 419.367,-27.5658zm409.616 90.5658c-104.113,-16.4114 -248.88,-26.5642 -409.616,-26.5642 -160.736,0 -305.503,10.1528 -409.616,26.5642 -89.3186,14.0788 -144.563,26.4721 -144.563,33.8386 0,7.36654 55.2449,19.7599 144.562,33.8398 104.114,16.4114 248.881,26.5642 409.617,26.5642 160.736,0 305.503,-10.1528 409.617,-26.5642 89.3174,-14.0799 144.562,-26.4732 144.562,-33.8398 0,-7.36654 -55.2449,-19.7599 -144.563,-33.8386z"/>
   <path id="_475152408" class="fil0" d="M1792 1312.63c0,-17.6728 -14.328,-32.0008 -32.0008,-32.0008 -17.6728,0 -32.0008,14.328 -32.0008,32.0008 0,6.70158 -71.6327,19.05 -187.445,33.5894 -131.956,16.5673 -314.569,26.8146 -516.554,26.8146 -201.985,0 -384.598,-10.2473 -516.554,-26.8146 -115.812,-14.5394 -187.445,-26.8878 -187.445,-33.5894 0,-17.6728 -14.328,-32.0008 -32.0008,-32.0008 -17.6728,0 -32.0008,14.328 -32.0008,32.0008 0,44.3292 93.1288,78.1867 243.696,97.0902 134.421,16.8768 319.812,27.3154 524.305,27.3154 204.493,0 389.883,-10.4386 524.305,-27.3154 150.567,-18.9036 243.696,-52.7611 243.696,-97.0902z"/>
   <path id="_475152672" class="fil0" d="M1744 1190.27c0,-8.83583 -7.16457,-16.0004 -16.0004,-16.0004 -8.83583,0 -16.0004,7.16457 -16.0004,16.0004 0,15 -73.4245,31.7197 -192.132,46.6241 -126.783,15.9165 -302.091,25.7622 -495.868,25.7622 -193.778,0 -369.085,-9.84568 -495.868,-25.7622 -118.708,-14.9043 -192.132,-31.624 -192.132,-46.6241 0,-8.83583 -7.16457,-16.0004 -16.0004,-16.0004 -8.83583,0 -16.0004,7.16457 -16.0004,16.0004 0,33.8138 84.1725,61.2886 220.259,78.3745 128.015,16.0713 304.712,26.0126 499.743,26.0126 195.031,0 371.727,-9.94135 499.743,-26.0126 136.087,-17.0858 220.259,-44.5607 220.259,-78.3745z"/>
   <path id="_475151856" class="fil0" d="M288.52 1341.33c17.2075,0 31.2425,-13.5839 31.9689,-30.613l-1.36417 5.86182 -30.6047 -7.12796 0 -32.1225c17.6728,0 32.0008,14.328 32.0008,32.0008 0,0.465355 -0.011811,0.928347 -0.0318898,1.3878l121.302 -521.185c2.14725,-9.23032 5.26772,-17.9398 9.37205,-25.526 3.38504,-6.25512 7.44922,-11.7071 12.1831,-15.9319 13.1847,-11.7354 14.3599,-31.9406 2.62441,-45.1252 -11.7354,-13.1847 -31.9406,-14.3599 -45.1252,-2.62441 -10.4244,9.30237 -19.0512,20.7118 -25.9335,33.4311 -6.89528,12.7465 -12.0047,26.8028 -15.3721,41.2772l-122.269 525.341c-0.826772,2.84292 -1.27205,5.84646 -1.27205,8.95631 0,17.6728 14.328,32.0008 32.0008,32.0008l0.520867 0zm1338.64 -640.871c-13.1162,-11.7354 -33.2646,-10.6169 -45,2.49921 -11.7354,13.1162 -10.6169,33.2646 2.49921,45 4.63937,4.14213 8.70709,9.64489 12.176,16.0559 4.10197,7.58268 7.22127,16.2921 9.36851,25.5177l121.303 521.191c0.726379,16.9347 14.6126,30.4583 31.6925,30.6036 -14.2358,-0.343701 -26.9929,-10.2319 -30.3709,-24.7429l0.0401575 -0.00944883 -1.36181 -5.85119c-0.0200788,-0.461811 -0.0318898,-0.927166 -0.0318898,-1.3937 0,-17.6728 14.328,-32.0008 32.0008,-32.0008l0 32.1213 -30.6059 7.12914 -0.0011811 -0.00472441 30.6071 -7.12441 0 31.8803 -0.276378 -0.00354331c2.64921,0.0649607 5.34922,-0.201969 8.0504,-0.830316 17.2122,-4.0063 27.9189,-21.2091 23.9126,-38.4213l-31.167 7.25434 31.1256 -7.24961 -122.666 -527.047c-3.36733,-14.4697 -8.47323,-28.5248 -15.3685,-41.2689 -6.79489,-12.5599 -15.4134,-23.9173 -25.9264,-33.3048z"/>
  </g>
 </g>
 <rect class="fil1" width="2048" height="2048"/>
</svg>
