<?xml version="1.0" encoding="UTF-8"?>
<!DOCTYPE svg PUBLIC "-//W3C//DTD SVG 1.1//EN" "http://www.w3.org/Graphics/SVG/1.1/DTD/svg11.dtd">
<!-- Creator: CorelDRAW -->
<svg xmlns="http://www.w3.org/2000/svg" xml:space="preserve" width="2048px" height="2048px" style="shape-rendering:geometricPrecision; text-rendering:geometricPrecision; image-rendering:optimizeQuality; fill-rule:evenodd; clip-rule:evenodd"
viewBox="0 0 2048 2048"
 xmlns:xlink="http://www.w3.org/1999/xlink">
 <defs>
  <style type="text/css">
   <![CDATA[
    .fil1 {fill:none}
    .fil0 {fill:#212121;fill-rule:nonzero}
   ]]>
  </style>
 </defs>
 <g id="Layer_x0020_1">
  <metadata id="CorelCorpID_0Corel-Layer"/>
  <g id="_475152264">
   <g>
    <path id="_475153704" class="fil0" d="M581.013 526.902c80.6115,-22.5862 160.915,-28.9571 237.234,-20.0256 77.9788,9.12638 151.823,34.2095 217.65,74.2737l0.0307087 -0.0496063c8.07048,4.91103 12.2102,13.8248 11.4284,22.6394l-0.0011811 597.851 0.0933072 0c0,13.2543 -10.7457,24 -24,24 -5.713,0 -10.9583,-1.99725 -15.0791,-5.33032 -58.8934,-40.3134 -130.249,-65.8252 -202.797,-75.2882 -73.3229,-9.56339 -147.546,-2.70591 -210.984,21.8599l0.0283465 0.0732284c-12.3591,4.78701 -26.2607,-1.35236 -31.0477,-13.7114 -1.15984,-2.99292 -1.67599,-6.07678 -1.62047,-9.09922l0 -593.702c0,-11.5618 8.17796,-21.215 19.0642,-23.491zm231.796 27.5988c-65.2548,-7.63701 -133.776,-3.10394 -202.86,14.2725l0 542.415c63.0249,-18.3732 132.94,-22.6358 201.81,-13.6536 65.6315,8.55946 130.525,29.1709 187.782,61.0713l0.0011811 -543.311c-56.8926,-32.4886 -120.106,-52.9949 -186.734,-60.7937z"/>
    <path id="_475153848" class="fil0" d="M1010.61 1305.17c11.1827,7.09253 26.0008,3.77599 33.0933,-7.4067 7.09253,-11.1827 3.77599,-26.0008 -7.4067,-33.0933 -74.3174,-47.1933 -164.284,-76.9831 -255.497,-87.9131 -79.754,-9.55631 -160.743,-4.69489 -233.345,15.5457l0 -572.359c3.9189,-0.907087 7.96772,-1.81536 12.1429,-2.72126 10.2721,-2.22874 20.315,-4.2 30.1158,-5.90906 13.0476,-2.2252 21.8197,-14.6091 19.5945,-27.6567 -2.2252,-13.0476 -14.6091,-21.8197 -27.6567,-19.5945 -10.9287,1.9063 -21.6591,4.00276 -32.178,6.28465 -9.22442,2.00197 -19.2567,4.39843 -30.1004,7.19292 -11.3091,1.93819 -19.9181,11.7898 -19.9181,23.6528l0 623.362c-0.0531496,2.81457 0.389764,5.68701 1.38898,8.49686 4.44331,12.4866 18.1701,19.0087 30.6567,14.5654l-0.0141732 -0.0401575c73.2886,-26.0646 159.015,-33.3402 243.689,-23.1945 84.3225,10.1043 167.241,37.4835 235.435,80.7886z"/>
    <path id="_475153536" class="fil0" d="M1436.95 568.773c-69.0839,-17.3764 -137.606,-21.9095 -202.86,-14.2725 -66.6272,7.79882 -129.841,28.3051 -186.734,60.7937l0.0011811 543.311c57.2575,-31.9004 122.151,-52.5119 187.782,-61.0713 68.8701,-8.98229 138.786,-4.71969 201.81,13.6536l0 -542.415zm-208.298 -61.8969c76.3194,-8.9315 156.623,-2.56063 237.234,20.0256 10.8862,2.27599 19.0642,11.9291 19.0642,23.491l0 593.702c0.0555119,3.02244 -0.46063,6.1063 -1.62047,9.09922 -4.78701,12.3591 -18.6886,18.4984 -31.0477,13.7114l0.0283465 -0.0732284c-63.4382,-24.5658 -137.661,-31.4233 -210.984,-21.8599 -72.5481,9.463 -143.903,34.9748 -202.797,75.2882 -4.12087,3.33307 -9.36615,5.33032 -15.0791,5.33032 -13.2543,0 -24,-10.7457 -24,-24l0.0933072 0 -0.0011811 -597.851c-0.78189,-8.81457 3.35788,-17.7284 11.4284,-22.6394l0.0307087 0.0496063c65.8276,-40.0642 139.671,-65.1473 217.65,-74.2737z"/>
    <path id="_475153560" class="fil0" d="M1010.61 1264.67c-11.1827,7.09253 -14.4992,21.9106 -7.4067,33.0933 7.09253,11.1827 21.9106,14.4992 33.0933,7.4067 68.1945,-43.3052 151.113,-70.6843 235.435,-80.7886 84.6733,-10.1457 170.4,-2.87008 243.689,23.1945l-0.0141732 0.0401575c12.4866,4.44331 26.2134,-2.07874 30.6567,-14.5654 0.999213,-2.80984 1.44213,-5.68229 1.38898,-8.49686l0 -623.362c0,-11.8618 -8.60788,-21.7134 -19.9169,-23.6528 -10.363,-2.67047 -19.8957,-4.95945 -28.5945,-6.86457 -10.5012,-2.29961 -20.661,-4.32638 -30.4701,-6.07796 -13.0476,-2.32914 -25.5154,6.35906 -27.8445,19.4067 -2.32914,13.0476 6.35906,25.5154 19.4067,27.8445 9.91064,1.76929 19.5106,3.67087 28.7835,5.70237 3.6567,0.800788 7.20237,1.59921 10.6358,2.3941l0 572.358c-72.6012,-20.2406 -153.591,-25.102 -233.345,-15.5457 -91.2131,10.9299 -181.18,40.7197 -255.497,87.9131z"/>
   </g>
   <path id="_475153368" class="fil0" d="M432.838 1250.93c7.92048,10.5626 22.9063,12.7028 33.4689,4.78229 10.5626,-7.92048 12.7028,-22.9063 4.78229,-33.4689l-47.3965 -63.1359 26.061 -239.184c0.73819,-6.77481 4.2189,-12.6626 9.22914,-16.689 5.00315,-4.01929 11.5406,-6.14174 18.3969,-5.39528 6.77481,0.73819 12.6638,4.2189 16.689,9.22914 4.01929,5.00315 6.14174,11.5417 5.39528,18.398 -1.39725,13.1504 8.13071,24.9461 21.2811,26.3433 13.1504,1.39725 24.9461,-8.13071 26.3433,-21.2811 2.16732,-19.9075 -4.00985,-38.902 -15.7063,-53.4603 -11.6929,-14.5524 -28.95,-24.6756 -48.9402,-26.8536 -19.9075,-2.16732 -38.9008,4.00985 -53.4591,15.7063 -14.5524,11.6929 -24.6756,28.9488 -26.8536,48.9402l-20.5063 188.206 -30.2067 -40.2366c-19.8071,-26.3835 -46.4918,-33.5953 -70.8497,-28.4516 -10.1492,2.1437 -19.7788,6.51851 -28.1847,12.5953 -8.40946,6.0756 -15.6248,13.7953 -20.9528,22.6252 -13.4941,22.3583 -15.9354,51.717 2.96103,80.0646 43.115,64.6784 62.7733,118.857 79.5497,165.092 19.2874,53.1591 35.0717,96.6603 76.1528,136.243 43.1989,41.628 87.5989,70.878 133.716,84.6142 47.752,14.224 96.6213,11.9102 147.011,-10.2791 123.066,-54.1973 127.331,-123.919 133.595,-226.324 1.23898,-20.2677 2.56654,-41.9611 5.07756,-65.0067 1.39725,-13.1504 -8.13071,-24.9461 -21.2811,-26.3433 -13.1504,-1.39725 -24.9461,8.13071 -26.3433,21.2811 -2.62795,24.1217 -3.99331,46.4197 -5.26654,67.2556 -5.19685,84.9733 -8.73662,142.827 -105.095,185.262 -39.3059,17.3091 -77.1922,19.1847 -114.011,8.21694 -38.452,-11.4532 -76.4469,-36.7807 -114.216,-73.1764 -33.0626,-31.8567 -47.139,-70.6501 -64.3394,-118.056 -17.7036,-48.7914 -38.4496,-105.965 -84.6119,-175.217 -7.09843,-10.6488 -6.49725,-21.1536 -1.83662,-28.8756 2.06811,-3.42756 4.76339,-6.34843 7.82835,-8.563 3.06378,-2.21457 6.48426,-3.79134 9.99804,-4.53307 7.45158,-1.57323 15.965,1.09488 22.8473,10.2626l119.673 159.412zm-10.0476 -83.543l-47.6244 -5.06221c-1.39725,13.1504 8.13071,24.9461 21.2811,26.3433 13.1504,1.39725 24.9461,-8.13071 26.3433,-21.2811z"/>
   <path id="_475153512" class="fil0" d="M1576.91 1222.76c-7.92048,10.5626 -5.78032,25.5484 4.78229,33.4689 10.5626,7.92048 25.5484,5.78032 33.4689,-4.78229l119.673 -159.412c6.88229,-9.16772 15.3957,-11.8358 22.8473,-10.2626 3.51378,0.741733 6.93426,2.31851 9.99804,4.53307 3.06496,2.21457 5.76024,5.13544 7.82835,8.563 4.66063,7.72205 5.26182,18.2268 -1.83662,28.8756 -46.1622,69.2516 -66.9083,126.425 -84.6119,175.217 -17.2004,47.4059 -31.2768,86.1993 -64.3394,118.056 -37.7693,36.3957 -75.7642,61.7233 -114.216,73.1764 -36.8185,10.9677 -74.7048,9.09213 -114.011,-8.21694 -96.3579,-42.4347 -99.8977,-100.289 -105.095,-185.262 -1.27323,-20.8358 -2.63858,-43.1339 -5.26654,-67.2556 -1.39725,-13.1504 -13.1929,-22.6784 -26.3433,-21.2811 -13.1504,1.39725 -22.6784,13.1929 -21.2811,26.3433 2.51103,23.0457 3.83859,44.739 5.07756,65.0067 6.26339,102.405 10.5284,172.127 133.595,226.324 50.3894,22.1894 99.2587,24.5032 147.011,10.2791 46.1174,-13.7362 90.5174,-42.9863 133.716,-84.6142 41.0811,-39.5823 56.8654,-83.0835 76.1528,-136.243 16.7764,-46.2355 36.4347,-100.414 79.5497,-165.092 18.8965,-28.3477 16.4551,-57.7063 2.96103,-80.0646 -5.32796,-8.82993 -12.5433,-16.5496 -20.9528,-22.6252 -8.40591,-6.07678 -18.0354,-10.4516 -28.1847,-12.5953 -24.3579,-5.1437 -51.0426,2.06811 -70.8497,28.4516l-30.2067 40.2366 -20.5063 -188.206c-2.17795,-19.9914 -12.3012,-37.2473 -26.8536,-48.9402 -14.5583,-11.6965 -33.5516,-17.8736 -53.4591,-15.7063 -19.9902,2.17795 -37.2473,12.3012 -48.9402,26.8536 -11.6965,14.5583 -17.8736,33.5528 -15.7063,53.4603 1.39725,13.1504 13.1929,22.6784 26.3433,21.2811 13.1504,-1.39725 22.6784,-13.1929 21.2811,-26.3433 -0.746457,-6.8563 1.37599,-13.3949 5.39528,-18.398 4.0252,-5.01024 9.91418,-8.49095 16.689,-9.22914 6.8563,-0.746457 13.3937,1.37599 18.3969,5.39528 5.01024,4.02638 8.49095,9.91418 9.22914,16.689l26.061 239.184 -47.3965 63.1359zm95.9233 -59.9186l-47.6244 5.06221c1.39725,13.1504 13.1929,22.6784 26.3433,21.2811 13.1504,-1.39725 22.6784,-13.1929 21.2811,-26.3433z"/>
   <g>
    <path id="_475153296" class="fil0" d="M1396.02 683.432c8.7319,1.31102 16.8768,-4.70552 18.1878,-13.4374 1.31102,-8.7319 -4.70552,-16.8768 -13.4374,-18.1878 -25.7776,-3.87874 -102.842,-9.43465 -179.274,1.21654 -47.3977,6.60473 -94.8615,19.4847 -130.747,42.887 -7.38662,4.79764 -9.48544,14.6752 -4.6878,22.0618 4.79764,7.38662 14.6752,9.48544 22.0618,4.6878 31.428,-20.4957 74.3788,-31.9677 117.748,-38.0114 72.7099,-10.1327 145.751,-4.88859 170.149,-1.21654z"/>
    <path id="_475153272" class="fil0" d="M1396.02 764.595c8.7319,1.31102 16.8768,-4.70552 18.1878,-13.4374 1.31102,-8.7319 -4.70552,-16.8768 -13.4374,-18.1878 -25.7776,-3.87874 -102.842,-9.43465 -179.274,1.21654 -47.3977,6.60473 -94.8615,19.4847 -130.747,42.887 -7.38662,4.79764 -9.48544,14.6752 -4.6878,22.0618 4.79764,7.38662 14.6752,9.48544 22.0618,4.6878 31.428,-20.4957 74.3788,-31.9677 117.748,-38.0114 72.7099,-10.1327 145.751,-4.88859 170.149,-1.21654z"/>
    <path id="_475153128" class="fil0" d="M1396.02 845.759c8.7319,1.31102 16.8768,-4.70552 18.1878,-13.4374 1.31102,-8.7319 -4.70552,-16.8768 -13.4374,-18.1878 -25.7776,-3.87874 -102.842,-9.43465 -179.274,1.21654 -47.3977,6.60473 -94.8615,19.4847 -130.747,42.887 -7.38662,4.79764 -9.48544,14.6752 -4.6878,22.0618 4.79764,7.38662 14.6752,9.48544 22.0618,4.6878 31.428,-20.4957 74.3788,-31.9677 117.748,-38.0114 72.7099,-10.1327 145.751,-4.88859 170.149,-1.21654z"/>
    <path id="_475152984" class="fil0" d="M1396.02 926.922c8.7319,1.31102 16.8768,-4.70552 18.1878,-13.4374 1.31102,-8.7319 -4.70552,-16.8768 -13.4374,-18.1878 -25.7776,-3.87874 -102.842,-9.43465 -179.274,1.21654 -47.3977,6.60473 -94.8615,19.4847 -130.747,42.887 -7.38662,4.79764 -9.48544,14.6752 -4.6878,22.0618 4.79764,7.38662 14.6752,9.48544 22.0618,4.6878 31.428,-20.4957 74.3788,-31.9677 117.748,-38.0114 72.7099,-10.1327 145.751,-4.88859 170.149,-1.21654z"/>
    <path id="_475153056" class="fil0" d="M1396.02 1008.08c8.7319,1.31102 16.8768,-4.70552 18.1878,-13.4374 1.31102,-8.7319 -4.70552,-16.8768 -13.4374,-18.1878 -25.7776,-3.87874 -102.842,-9.43465 -179.274,1.21654 -47.3977,6.60473 -94.8615,19.4847 -130.747,42.887 -7.38662,4.79764 -9.48544,14.6752 -4.6878,22.0618 4.79764,7.38662 14.6752,9.48544 22.0618,4.6878 31.428,-20.4957 74.3788,-31.9677 117.748,-38.0114 72.7099,-10.1327 145.751,-4.88859 170.149,-1.21654z"/>
   </g>
   <g>
    <path id="_475153152" class="fil0" d="M658.117 651.807c-8.7319,1.31102 -14.7484,9.45591 -13.4374,18.1878 1.31102,8.7319 9.45591,14.7484 18.1878,13.4374 24.3981,-3.67205 97.4387,-8.91615 170.149,1.21654 43.3689,6.04371 86.3198,17.5158 117.748,38.0114 7.38662,4.79764 17.2642,2.69882 22.0618,-4.6878 4.79764,-7.38662 2.69882,-17.2642 -4.6878,-22.0618 -35.8855,-23.4024 -83.3493,-36.2823 -130.747,-42.887 -76.4316,-10.6512 -153.496,-5.09528 -179.274,-1.21654z"/>
    <path id="_475153248" class="fil0" d="M658.117 732.97c-8.7319,1.31102 -14.7484,9.45591 -13.4374,18.1878 1.31102,8.7319 9.45591,14.7484 18.1878,13.4374 24.3981,-3.67205 97.4387,-8.91615 170.149,1.21654 43.3689,6.04371 86.3198,17.5158 117.748,38.0114 7.38662,4.79764 17.2642,2.69882 22.0618,-4.6878 4.79764,-7.38662 2.69882,-17.2642 -4.6878,-22.0618 -35.8855,-23.4024 -83.3493,-36.2823 -130.747,-42.887 -76.4316,-10.6512 -153.496,-5.09528 -179.274,-1.21654z"/>
    <path id="_475153200" class="fil0" d="M658.117 814.133c-8.7319,1.31102 -14.7484,9.45591 -13.4374,18.1878 1.31102,8.7319 9.45591,14.7484 18.1878,13.4374 24.3981,-3.67205 97.4387,-8.91615 170.149,1.21654 43.3689,6.04371 86.3198,17.5158 117.748,38.0114 7.38662,4.79764 17.2642,2.69882 22.0618,-4.6878 4.79764,-7.38662 2.69882,-17.2642 -4.6878,-22.0618 -35.8855,-23.4024 -83.3493,-36.2823 -130.747,-42.887 -76.4316,-10.6512 -153.496,-5.09528 -179.274,-1.21654z"/>
    <path id="_475152600" class="fil0" d="M658.117 895.296c-8.7319,1.31102 -14.7484,9.45591 -13.4374,18.1878 1.31102,8.7319 9.45591,14.7484 18.1878,13.4374 24.3981,-3.67205 97.4387,-8.91615 170.149,1.21654 43.3689,6.04371 86.3198,17.5158 117.748,38.0114 7.38662,4.79764 17.2642,2.69882 22.0618,-4.6878 4.79764,-7.38662 2.69882,-17.2642 -4.6878,-22.0618 -35.8855,-23.4024 -83.3493,-36.2823 -130.747,-42.887 -76.4316,-10.6512 -153.496,-5.09528 -179.274,-1.21654z"/>
    <path id="_475152360" class="fil0" d="M658.117 976.459c-8.7319,1.31102 -14.7484,9.45591 -13.4374,18.1878 1.31102,8.7319 9.45591,14.7484 18.1878,13.4374 24.3981,-3.67205 97.4387,-8.91615 170.149,1.21654 43.3689,6.04371 86.3198,17.5158 117.748,38.0114 7.38662,4.79764 17.2642,2.69882 22.0618,-4.6878 4.79764,-7.38662 2.69882,-17.2642 -4.6878,-22.0618 -35.8855,-23.4024 -83.3493,-36.2823 -130.747,-42.887 -76.4316,-10.6512 -153.496,-5.09528 -179.274,-1.21654z"/>
   </g>
  </g>
 </g>
 <rect class="fil1" width="2048" height="2048"/>
</svg>
