<?xml version="1.0" encoding="UTF-8"?>
<!DOCTYPE svg PUBLIC "-//W3C//DTD SVG 1.1//EN" "http://www.w3.org/Graphics/SVG/1.1/DTD/svg11.dtd">
<!-- Creator: CorelDRAW -->
<svg xmlns="http://www.w3.org/2000/svg" xml:space="preserve" width="2048px" height="2048px" style="shape-rendering:geometricPrecision; text-rendering:geometricPrecision; image-rendering:optimizeQuality; fill-rule:evenodd; clip-rule:evenodd"
viewBox="0 0 2048 2048"
 xmlns:xlink="http://www.w3.org/1999/xlink">
 <defs>
  <style type="text/css">
   <![CDATA[
    .fil1 {fill:none}
    .fil0 {fill:#212121;fill-rule:nonzero}
   ]]>
  </style>
 </defs>
 <g id="Layer_x0020_1">
  <metadata id="CorelCorpID_0Corel-Layer"/>
  <g id="_475153608">
   <path id="_475154496" class="fil0" d="M1222.9 487.95c0,17.6728 14.328,32.0008 32.0008,32.0008 17.6728,0 32.0008,-14.328 32.0008,-32.0008l0 -159.999 31.9984 0 0 159.999c0,17.6728 14.328,32.0008 32.0008,32.0008 17.6728,0 32.0008,-14.328 32.0008,-32.0008l0 -192c0,-17.6728 -14.328,-32.0008 -32.0008,-32.0008l-96.0001 0c-17.6728,0 -32.0008,14.328 -32.0008,32.0008l0 192zm192.001 76.0418c0,-17.6728 -14.328,-32.0008 -32.0008,-32.0008 -17.6728,0 -32.0008,14.328 -32.0008,32.0008l0 275.959c0,17.6728 14.328,32.0008 32.0008,32.0008 17.6728,0 32.0008,-14.328 32.0008,-32.0008l0 -275.959zm-224.001 275.959c0,17.6728 14.328,32.0008 32.0008,32.0008 17.6728,0 32.0008,-14.328 32.0008,-32.0008l0 -275.959c0,-17.6728 -14.328,-32.0008 -32.0008,-32.0008 -17.6728,0 -32.0008,14.328 -32.0008,32.0008l0 275.959z"/>
   <path id="_475154448" class="fil0" d="M1184.66 263.952c-17.6728,0 -32.0008,14.328 -32.0008,32.0008 0,17.6728 14.328,32.0008 32.0008,32.0008l236.479 0c17.6728,0 32.0008,-14.328 32.0008,-32.0008 0,-17.6728 -14.328,-32.0008 -32.0008,-32.0008l-236.479 0z"/>
   <path id="_475154736" class="fil0" d="M1094.9 1720.05c-17.6728,0 -32.0008,14.328 -32.0008,32.0008 0,17.6728 14.328,32.0008 32.0008,32.0008l416.001 0c17.6728,0 32.0008,-14.328 32.0008,-32.0008 0,-17.6728 -14.328,-32.0008 -32.0008,-32.0008l-416.001 0z"/>
   <path id="_475154928" class="fil0" d="M1132.92 455.95l339.957 0c19.2898,0 36.8044,7.86851 49.4776,20.5441 12.6756,12.6732 20.5441,30.1878 20.5441,49.4776 0,19.2886 -7.86733,36.8032 -20.5441,49.4776 -12.6732,12.6756 -30.1878,20.5441 -49.4776,20.5441l-339.957 0c-19.2886,0 -36.8032,-7.86733 -49.4776,-20.5441 -12.6768,-12.6744 -20.5441,-30.189 -20.5441,-49.4776 0,-19.2898 7.86851,-36.8044 20.5441,-49.4776 12.6744,-12.6768 30.189,-20.5441 49.4776,-20.5441zm339.957 64.0016l-339.957 0c-1.62284,0 -3.12166,0.687402 -4.22717,1.79291 -1.10551,1.10551 -1.79291,2.60551 -1.79291,4.22717 0,1.62284 0.687402,3.12166 1.79291,4.22717 1.10551,1.10551 2.60433,1.79291 4.22717,1.79291l339.957 0c1.62165,0 3.12166,-0.687402 4.22717,-1.79291 1.10551,-1.10551 1.79291,-2.60433 1.79291,-4.22717 0,-1.62165 -0.687402,-3.12166 -1.79291,-4.22717 -1.10551,-1.10551 -2.60551,-1.79291 -4.22717,-1.79291z"/>
   <path id="_475154784" class="fil0" d="M1422.41 911.457c0,-19.9252 -28.1421,-34.2969 -64.1599,-41.9457 -17.1886,-3.64843 -36.1406,-5.47559 -55.3453,-5.47559 -19.2036,0 -38.1555,1.82599 -55.3441,5.47559 -36.0189,7.64882 -64.1611,22.0205 -64.1611,41.9457 0,41.4898 0.959056,69.0119 1.71024,90.5847 1.49055,42.7949 2.2878,65.7048 -5.57008,88.4198 -9.38623,27.1276 -26.8394,43.4445 -64.3878,78.5516l-21.75 -23.25 21.8551 23.3752c-0.520867,0.487796 -1.05591,0.951969 -1.60039,1.39725 -9.73938,9.10631 -20.85,19.5106 -32.4047,30.6047 -29.8252,28.6394 -54.1973,66.965 -71.2713,109.55 -17.4106,43.4233 -27.0744,91.0973 -27.0744,137.356 0,83.6658 32.3516,149.467 85.1068,195.03 58.2071,50.2701 141.669,76.9725 234.893,76.9725 93.2245,0 176.685,-26.7024 234.892,-76.9725 52.7552,-45.5622 85.1068,-111.364 85.1068,-195.03 0,-47.4815 -10.1728,-96.241 -28.4469,-140.467 -17.9114,-43.3453 -43.513,-82.2131 -74.8146,-111.031 -5.25945,-4.84252 -10.226,-9.39686 -14.9067,-13.689 -48.3508,-44.3422 -69.28,-63.5363 -79.5591,-94.4965 -7.68426,-23.1402 -6.69331,-45.8469 -4.95,-85.8768 0.957875,-22.0004 2.18268,-50.0906 2.18268,-91.0288zm-50.9103 -104.445c64.5095,13.6996 114.912,48.1264 114.912,104.445 0,37.9394 -1.36536,69.254 -2.43307,93.7784 -1.42559,32.7177 -2.23465,51.2788 1.69961,63.1264 4.94174,14.8866 22.2732,30.7807 62.3079,67.4965 4.68071,4.29213 9.64725,8.84646 14.9067,13.689 38.1721,35.1437 69.1501,81.9544 90.5658,133.781 21.4866,52.0004 33.4477,109.182 33.4477,164.718 0,103.654 -40.8095,185.805 -107.359,243.28 -70.1197,60.5575 -168.38,92.7237 -276.642,92.7237 -108.261,0 -206.523,-32.1662 -276.643,-92.7237 -66.5493,-57.4748 -107.359,-139.626 -107.359,-243.28 0,-54.1418 11.3587,-110.062 31.8248,-161.106 20.3327,-50.713 49.8154,-96.7926 86.2713,-131.799 13.2874,-12.7583 23.8701,-22.6713 33.039,-31.2449 0.483071,-0.514961 0.983859,-1.01929 1.50709,-1.50827l0.0496063 0.0519685 0.0555119 -0.0519685 0.0625985 0.0673229c29.5937,-27.6685 43.3524,-40.5402 47.5748,-52.7433 3.95788,-11.4413 3.29882,-30.3508 2.06929,-65.6693 -0.861024,-24.7323 -1.96063,-56.2808 -1.96063,-92.5855 0,-56.3174 50.4024,-90.7453 114.913,-104.445 21.9047,-4.65 45.3792,-6.97796 68.5938,-6.97796 23.2169,0 46.6902,2.32795 68.5949,6.97796z"/>
   <path id="_475154664" class="fil0" d="M978.529 904.174c-8.76733,-15.2563 -28.2437,-20.5169 -43.5,-11.7496 -15.2563,8.76733 -20.5169,28.2437 -11.7496,43.5l128.994 223.426c8.76733,15.2563 28.2437,20.5169 43.5,11.7496 15.2563,-8.76733 20.5169,-28.2437 11.7496,-43.5l-128.994 -223.426z"/>
   <path id="_475154520" class="fil0" d="M900.188 903.775c-15.2563,8.83583 -20.4603,28.3689 -11.6244,43.6252 8.83583,15.2563 28.3689,20.4603 43.6252,11.6244l58.8508 -33.978c15.2563,-8.83583 20.4603,-28.3689 11.6244,-43.6252 -8.83583,-15.2563 -28.3689,-20.4603 -43.6252,-11.6244l-58.8508 33.978z"/>
   <path id="_475154592" class="fil0" d="M925.601 934.153c9.37087,9.37087 24.5669,9.37087 33.9378,0 9.37087,-9.37087 9.37087,-24.5669 0,-33.9378 -20.8288,-20.8288 -42.0945,-44.9162 -64.65,-70.4634 -94.0442,-106.52 -208.878,-236.587 -336.923,-207.917 -32.7378,7.32993 -60.9201,24.4181 -78.3886,53.1201 -14.9185,24.515 -21.515,56.7556 -15.6295,97.5851 12.0295,83.4414 79.219,173.105 148.368,265.386 55.5272,74.1001 112.381,149.973 139.388,221.719 15.8362,42.0709 25.5874,84.391 27.8977,121.667 2.0811,33.5811 -1.75394,62.328 -12.5445,81.8292 -21.3709,38.6209 -60.339,32.8276 -101.692,9.94489 -59.3941,-32.8654 -123.667,-98.8111 -161.18,-137.299 -8.00906,-8.21812 -15.0815,-15.4748 -16.3134,-16.7067 -9.37087,-9.37087 -24.5669,-9.37087 -33.9378,0 -9.37087,9.37087 -9.37087,24.5669 0,33.9378 7.963,7.963 11.7295,11.8264 15.9378,16.1445 39.2374,40.2567 106.467,109.234 172.432,145.736 64.7835,35.8488 127.557,41.8004 166.567,-28.6961 15.4488,-27.9201 21.1536,-65.5914 18.5445,-107.705 -2.60669,-42.0508 -13.4055,-89.2583 -30.8977,-135.729 -29.3162,-77.8831 -88.3229,-156.626 -145.95,-233.53 -65.3658,-87.2316 -128.88,-171.99 -139.181,-243.45 -4.17402,-28.9571 -0.259843,-50.5701 9.06733,-65.8961 10.1469,-16.6725 27.404,-26.7992 47.8264,-31.3713 100.589,-22.5225 205.159,95.9186 290.796,192.917 24.0142,27.1984 46.6536,52.8426 66.5256,72.7146z"/>
   <path id="_475154640" class="fil0" d="M422.172 1263.23c-6.65079,-6.65079 -17.4354,-6.65079 -24.0862,0 -6.65079,6.65079 -6.65079,17.4343 0,24.0851l114.191 135.357c12.4949,12.4949 32.7555,12.4949 45.2504,0 12.4949,-12.4949 12.4949,-32.7555 0,-45.2504l-135.356 -114.191z"/>
  </g>
 </g>
 <rect class="fil1" width="2048" height="2048"/>
</svg>
