<?xml version="1.0" encoding="UTF-8"?>
<!DOCTYPE svg PUBLIC "-//W3C//DTD SVG 1.1//EN" "http://www.w3.org/Graphics/SVG/1.1/DTD/svg11.dtd">
<!-- Creator: CorelDRAW -->
<svg xmlns="http://www.w3.org/2000/svg" xml:space="preserve" width="2048px" height="2048px" style="shape-rendering:geometricPrecision; text-rendering:geometricPrecision; image-rendering:optimizeQuality; fill-rule:evenodd; clip-rule:evenodd"
viewBox="0 0 2048 2048"
 xmlns:xlink="http://www.w3.org/1999/xlink">
 <defs>
  <style type="text/css">
   <![CDATA[
    .fil1 {fill:none}
    .fil0 {fill:#212121;fill-rule:nonzero}
   ]]>
  </style>
 </defs>
 <g id="Layer_x0020_1">
  <metadata id="CorelCorpID_0Corel-Layer"/>
  <g id="_475155288">
   <path id="_475155744" class="fil0" d="M1350.69 953.577l-109.628 20.2666 0.0141732 0.0755906c-0.832678,0.153543 -1.66299,0.263386 -2.48858,0.328347 -35.752,5.8063 -58.9264,12.8114 -75.3225,25.0606 -16.1764,12.0862 -27.5622,31.0016 -40.0252,60.8363 -22.0453,52.7752 -33.8528,146.822 -32.4213,240.378 1.30158,85.0217 13.5484,168.545 39.0048,218.48l50.3433 98.7946 0.0153543 -0.00826772c6.01772,11.8099 1.32284,26.263 -10.487,32.2807 -4.20237,2.14134 -8.74016,2.92559 -13.1126,2.51575l-116.5 -0.390945 0 -23.9067 -0.080315 24c-9.66142,-0.0318898 -17.9693,-5.76969 -21.7465,-14.0114 -34.0925,-61.6241 -38.1083,-160.037 -42.4252,-266.087 -3.05315,-75.0119 -6.27048,-154.009 -20.4047,-223.484 -3.7689,-18.5221 -6.16536,-32.9091 -8.21339,-45.2055 -6.22205,-37.3654 -8.40946,-50.4957 -32.563,-58.9347 -8.3882,-2.93268 -23.0197,-3.23386 -42.026,-3.62244 -48.267,-0.988583 -120.81,-2.48386 -222.667,-47.0989 -2.91614,26.1036 -6.62835,49.9973 -12.502,71.8241 -8.91615,33.1276 -22.7162,61.78 -45.7323,86.3764 -36.4571,38.9611 -62.5016,54.6485 -81.0709,65.8323 -12.1772,7.33465 -19.6536,11.837 -22.7268,20.9835 -8.03268,23.9067 -6.32481,79.3312 -1.90512,222.782l0.164173 5.33741 0.0401575 -0.00354331c8.44016,98.4757 22.6524,110.906 48.8859,133.847 5.05512,4.41969 10.4587,9.14528 15.5788,13.95l0.0401575 -0.0425197c9.66615,9.06851 10.1492,24.2587 1.08071,33.9248 -5.45788,5.81811 -13.1339,8.3067 -20.4874,7.39134l-110.191 -6.53032 1.40669 -23.9067 -1.41969 23.9575c-11.6787,-0.690945 -20.9079,-9.62717 -22.3748,-20.8122l-28.6205 -146.933c-6.93071,-25.9382 -15.052,-52.1918 -23.087,-78.1619 -8.01615,-25.9169 -15.9543,-51.5717 -22.2957,-75.1453 -28.5496,-106.199 5.12363,-152.974 39.678,-200.974 21.6673,-30.0992 43.7622,-60.7937 43.7256,-112.019 -0.0129921,-17.3622 -4.23898,-40.2886 -8.89371,-65.5335 -20.7118,-112.351 -48.9307,-265.436 178.945,-339.578 38.1473,-12.4099 55.7682,-53.0752 71.9552,-90.4324 15.3591,-35.4508 29.713,-68.5654 59.5949,-85.5225 31.6914,-31.891 72.7099,-45.1772 115.577,-42.2634 44.0953,2.99646 89.9717,23.4012 128.773,58.4044 16.9925,15.3354 35.7981,44.2583 53.9575,72.1855 17.5394,26.9764 34.3784,52.8709 40.8118,55.865 64.1457,29.8524 89.9068,68.98 112.498,103.295 21.8858,33.241 39.9685,60.7063 104.187,60.7063 40.4918,0 62.615,-0.84567 74.602,-8.02323 10.976,-6.57048 18.4559,-22.7799 30.2351,-53.8193 6.99922,-18.437 11.3693,-36.8811 15.5587,-54.5741l23.3433 5.4378 -23.354 -5.53111c0.0531496,-0.226772 0.109843,-0.452363 0.170079,-0.675591 9.1193,-38.4992 17.6421,-73.8827 49.7103,-108.692 27.6484,-30.0189 63.5918,-38.4839 105.586,-34.5992 37.6477,3.48189 79.3158,16.9228 124.065,32.9185 7.84134,2.80276 18.437,5.07756 29.4898,7.4504 36.5823,7.85552 76.9973,16.5331 87.8965,51.9685l0.0921261 -0.0283465c0.780709,2.54882 1.11614,5.12717 1.05,7.65355 -0.111024,20.1012 -5.55355,37.8744 -14.6398,51.4241 -5.8063,8.65631 -13.0996,15.6284 -21.5126,20.5134 -8.92205,5.18032 -18.874,7.9878 -29.4532,7.9878 -12.6272,0 -25.9453,-4.02048 -39.1122,-12.8516 -8.52284,-5.71654 -21.2906,-6.18426 -35.5099,-3.53977 -21.6177,4.02284 -45.2764,15.137 -64.8875,27.4453 -4.66536,2.92559 -6.88229,12.2374 -9.58111,23.5784 -3.33662,14.0197 -7.12678,29.9445 -17.1236,47.7863 -4.25433,7.59449 -7.17756,12.8799 -10.1622,18.2764 -44.0622,79.656 -94.1989,170.288 -188.79,190.382l0.00826772 0.0413386c-0.849213,0.180709 -1.69725,0.311811 -2.54055,0.399213zm-118.125 -26.8193l109.439 -20.2311c0.414567,-0.111024 0.831497,-0.212599 1.25551,-0.302362l0.0141732 0.0673229 0.00826772 -0.0011811 -0.00590552 -0.0271654c73.193,-15.5445 117.658,-95.9268 156.736,-166.571 3.91772,-7.08308 7.82245,-14.1413 10.3488,-18.652 6.64489,-11.8595 9.62599,-24.3851 12.2504,-35.4107 5.18032,-21.7701 9.43583,-39.6402 30.7677,-53.0162 23.9776,-15.0496 53.5843,-28.7646 81.7631,-34.0075 25.6736,-4.7752 50.5855,-2.67992 70.7587,10.8508 4.71615,3.16299 8.92796,4.60276 12.4878,4.60276 2.01969,0 3.86103,-0.501969 5.45315,-1.42559 2.10118,-1.22008 4.05709,-3.15945 5.76142,-5.7 3.4063,-5.07874 5.63977,-12.1524 6.23386,-20.7319 -6.04607,-7.17166 -29.4508,-12.1973 -50.8193,-16.7858 -12.9213,-2.77323 -25.3063,-5.43308 -35.6764,-9.13938 -41.941,-14.9917 -80.4827,-27.5433 -112.254,-30.4807 -27.4229,-2.53701 -50.1189,2.14606 -66.0213,19.4126 -23.5193,25.5295 -30.6473,55.1197 -38.2796,87.3379 -0.0448819,0.218504 -0.0921261,0.435827 -0.144095,0.654331l-0.0106299 -0.00236221 0 0.00236221 -0.0212599 -0.00472441c-4.513,19.0547 -9.22205,38.9162 -17.4106,60.4855 -15.7583,41.5217 -27.1205,64.0182 -50.4863,78.006 -22.3547,13.3843 -50.0882,14.961 -99.1642,14.961 -89.8359,0 -114.398,-37.304 -144.125,-82.4552 -19.0051,-28.8673 -40.676,-61.7823 -92.8111,-86.0457 -18.6685,-8.68701 -39.2492,-40.3347 -60.6851,-73.3028 -16.3914,-25.2083 -33.3673,-51.3178 -45.8953,-62.6233 -30.8103,-27.7937 -66.3827,-43.9382 -99.8977,-46.2154 -29.7544,-2.02205 -58.0028,7.13977 -79.3772,29.1756 -2.06929,2.50394 -4.68189,4.62638 -7.7752,6.17008l-10.7197 -21.4725 10.6878 21.4689c-17.0752,8.52402 -28.578,35.0693 -40.9252,63.5682 -20.3339,46.9276 -42.4677,98.0103 -101.017,117.057 -188.029,61.1764 -164.192,190.49 -146.697,285.391 5.04567,27.3709 9.62835,52.2272 9.64489,74.1579 0.0472441,66.6461 -26.5961,103.66 -52.7256,139.957 -27.7925,38.6067 -54.8752,76.2296 -32.178,160.661 6.61182,24.5776 14.1354,48.8941 21.7335,73.4587 8.1756,26.4284 16.4398,53.1378 23.439,79.252 0.348425,1.0252 0.634252,2.08347 0.846851,3.17599l-23.5571 4.58859 23.5311 -4.5 25.4563 130.688 29.4496 1.74567c-16.3736,-22.8839 -26.8795,-56.6185 -33.4642,-132.75 -0.0826772,-0.696851 -0.137008,-1.40197 -0.159449,-2.11654l23.9882 -0.737008 -23.9067 0.656693 -0.204331 -6.64607c-4.60748,-149.558 -6.38859,-207.34 4.34292,-239.282 8.74135,-26.0138 21.9059,-33.9425 43.3512,-46.8591 16.4433,-9.90355 39.5067,-23.7957 70.9465,-57.3945 16.8851,-18.0449 27.2858,-40.089 34.2945,-66.1276 7.43977,-27.6473 11.1154,-59.4532 14.3457,-95.4142 -0.0141732,-3.62244 0.79252,-7.30158 2.51575,-10.7658 5.90315,-11.8665 20.3103,-16.702 32.1768,-10.7988l-10.689 21.4878 10.6878 -21.4689c109.052,54.2481 184.678,55.7989 233.384,56.7969 23.3882,0.477166 41.3965,0.849213 56.8394,6.24922 51.0012,17.8205 54.3993,38.2122 64.063,96.2457 2.11536,12.7004 4.59213,27.5634 7.8378,43.5189 14.915,73.3146 18.2126,154.284 21.3425,231.17 3.81024,93.58 7.36772,180.853 31.1835,234.117l64.8048 0.217323 -32.5595 -63.8941c-28.8378,-56.5689 -42.6626,-147.905 -44.067,-239.669 -1.52244,-99.541 11.5854,-200.91 35.9835,-259.316 15.861,-37.9689 31.4599,-62.8701 55.5898,-80.8985 23.2795,-17.3906 52.6937,-26.7591 96.4253,-33.861 0.444095,-0.10748 0.891733,-0.205512 1.34646,-0.28937l0.0129921 0.0708662 0.201969 -0.0330709z"/>
   <path id="_475155696" class="fil0" d="M415.077 760.197c8.18623,1.19646 15.7961,-4.46929 16.9925,-12.6555 1.19646,-8.18623 -4.46929,-15.7961 -12.6555,-16.9925 -84.339,-12.4335 -113.245,28.4551 -122.519,91.3737 -4.50237,30.5492 -3.81733,66.4725 -3.1063,103.691 1.14803,60.2067 2.36575,123.98 -19.265,168.68 -3.59174,7.44213 -0.470079,16.389 6.97205,19.9807 7.44213,3.59174 16.389,0.470079 19.9807,-6.97205 24.6969,-51.0355 23.4095,-118.482 22.1941,-182.157 -0.683859,-35.7685 -1.34173,-70.2934 2.87244,-98.8867 6.70512,-45.4855 27.5941,-75.0461 88.5343,-66.0626z"/>
  </g>
 </g>
 <rect class="fil1" width="2048" height="2048"/>
</svg>
