<?xml version="1.0" encoding="UTF-8"?>
<!DOCTYPE svg PUBLIC "-//W3C//DTD SVG 1.1//EN" "http://www.w3.org/Graphics/SVG/1.1/DTD/svg11.dtd">
<!-- Creator: CorelDRAW -->
<svg xmlns="http://www.w3.org/2000/svg" xml:space="preserve" width="2048px" height="2048px" style="shape-rendering:geometricPrecision; text-rendering:geometricPrecision; image-rendering:optimizeQuality; fill-rule:evenodd; clip-rule:evenodd"
viewBox="0 0 2048 2048"
 xmlns:xlink="http://www.w3.org/1999/xlink">
 <defs>
  <style type="text/css">
   <![CDATA[
    .fil1 {fill:none}
    .fil0 {fill:#212121;fill-rule:nonzero}
   ]]>
  </style>
 </defs>
 <g id="Layer_x0020_1">
  <metadata id="CorelCorpID_0Corel-Layer"/>
  <g id="_475156008">
   <path id="_475155864" class="fil0" d="M1024 255.998c212.073,0 404.074,85.9631 543.056,224.946 138.983,138.982 224.946,330.983 224.946,543.056 0,212.073 -85.9631,404.074 -224.946,543.056 -138.982,138.983 -330.983,224.946 -543.056,224.946 -212.073,0 -404.074,-85.9631 -543.056,-224.946 -138.983,-138.982 -224.946,-330.983 -224.946,-543.056 0,-212.073 85.9631,-404.074 224.946,-543.056 138.982,-138.983 330.983,-224.946 543.056,-224.946zm497.806 270.196c-127.396,-127.397 -303.398,-206.195 -497.806,-206.195 -194.407,0 -370.409,78.7973 -497.806,206.195 -127.397,127.396 -206.195,303.398 -206.195,497.806 0,194.407 78.7973,370.409 206.195,497.806 127.396,127.397 303.398,206.195 497.806,206.195 194.407,0 370.409,-78.7973 497.806,-206.195 127.397,-127.396 206.195,-303.398 206.195,-497.806 0,-194.407 -78.7973,-370.409 -206.195,-497.806z"/>
   <path id="_475155960" class="fil0" d="M534.624 489.374c-12.4949,-12.4949 -32.7555,-12.4949 -45.2504,0 -12.4949,12.4949 -12.4949,32.7555 0,45.2504l1024 1024c12.4949,12.4949 32.7555,12.4949 45.2504,0 12.4949,-12.4949 12.4949,-32.7555 0,-45.2504l-1024 -1024z"/>
  </g>
  <g id="_475155888">
   <path id="_475155936" class="fil0" d="M1200 930.287l-12.5717 0c-8.45198,0 -16.161,3.48189 -21.7677,9.08859 -5.6067,5.6067 -9.08859,13.3158 -9.08859,21.7666l0 508.572 187.428 0 0 -508.572c0,-8.45079 -3.48189,-16.1599 -9.08859,-21.7666 -5.6067,-5.6067 -13.3158,-9.08859 -21.7677,-9.08859l-12.5717 0c-17.6728,0 -32.0008,-14.328 -32.0008,-32.0008l0 -320 -36.5705 0 0 320c0,17.6728 -14.328,32.0008 -32.0008,32.0008zm-32.0008 -61.9926l0 -322.009c0,-17.6728 14.328,-32.0008 32.0008,-32.0008l100.572 0c17.6728,0 32.0008,14.328 32.0008,32.0008l0 322.009c18.3543,3.84803 34.7882,13.0299 47.589,25.8307 17.1768,17.1744 27.8398,40.8981 27.8398,67.017l0 540.573c0,17.6728 -14.328,32.0008 -32.0008,32.0008l-251.43 0c-17.6728,0 -32.0008,-14.328 -32.0008,-32.0008l0 -540.573c0,-26.1189 10.663,-49.8426 27.8398,-67.017 12.8008,-12.8008 29.2347,-21.9827 47.589,-25.8307z"/>
   <path id="_475156152" class="fil0" d="M671.999 991.999l301.714 0c17.6728,0 32.0008,14.328 32.0008,32.0008 0,1.30394 -0.0791339,2.59134 -0.231496,3.85394l-37.6063 476.361 -31.8756 -2.5004 31.9004 2.51811c-1.32402,16.7728 -15.3555,29.5004 -31.9004,29.4827l-0.056693 0 -226.231 0c-17.2536,0 -31.317,-13.6571 -31.9748,-30.75l-37.6134 -476.45 -0.0259843 0.00236221c-1.39016,-17.6173 11.765,-33.0284 29.3823,-34.4185 0.844489,-0.0661418 1.68543,-0.100394 2.51811,-0.100394zm267.115 64.0016l-232.516 0 32.661 413.713 167.195 0 32.6599 -413.713z"/>
  </g>
 </g>
 <rect class="fil1" width="2048" height="2048"/>
</svg>
