<?xml version="1.0" encoding="UTF-8"?>
<!DOCTYPE svg PUBLIC "-//W3C//DTD SVG 1.1//EN" "http://www.w3.org/Graphics/SVG/1.1/DTD/svg11.dtd">
<!-- Creator: CorelDRAW -->
<svg xmlns="http://www.w3.org/2000/svg" xml:space="preserve" width="2048px" height="2048px" style="shape-rendering:geometricPrecision; text-rendering:geometricPrecision; image-rendering:optimizeQuality; fill-rule:evenodd; clip-rule:evenodd"
viewBox="0 0 2048 2048"
 xmlns:xlink="http://www.w3.org/1999/xlink">
 <defs>
  <style type="text/css">
   <![CDATA[
    .fil1 {fill:none}
    .fil0 {fill:#212121;fill-rule:nonzero}
   ]]>
  </style>
 </defs>
 <g id="Layer_x0020_1">
  <metadata id="CorelCorpID_0Corel-Layer"/>
  <g id="_475157040">
   <path id="_475157784" class="fil0" d="M1024 255.998c212.073,0 404.074,85.9631 543.056,224.946 138.983,138.982 224.946,330.983 224.946,543.056 0,212.073 -85.9631,404.074 -224.946,543.056 -138.982,138.983 -330.983,224.946 -543.056,224.946 -212.073,0 -404.074,-85.9631 -543.056,-224.946 -138.983,-138.982 -224.946,-330.983 -224.946,-543.056 0,-212.073 85.9631,-404.074 224.946,-543.056 138.982,-138.983 330.983,-224.946 543.056,-224.946zm497.806 270.196c-127.396,-127.397 -303.398,-206.195 -497.806,-206.195 -194.407,0 -370.409,78.7973 -497.806,206.195 -127.397,127.396 -206.195,303.398 -206.195,497.806 0,194.407 78.7973,370.409 206.195,497.806 127.396,127.397 303.398,206.195 497.806,206.195 194.407,0 370.409,-78.7973 497.806,-206.195 127.397,-127.396 206.195,-303.398 206.195,-497.806 0,-194.407 -78.7973,-370.409 -206.195,-497.806z"/>
   <path id="_475157328" class="fil0" d="M534.624 489.374c-12.4949,-12.4949 -32.7555,-12.4949 -45.2504,0 -12.4949,12.4949 -12.4949,32.7555 0,45.2504l1024 1024c12.4949,12.4949 32.7555,12.4949 45.2504,0 12.4949,-12.4949 12.4949,-32.7555 0,-45.2504l-1024 -1024z"/>
  </g>
  <path class="fil0" d="M1592 668.625c0,-13.2543 -10.7457,-24 -24,-24 -13.2543,0 -24,10.7457 -24,24l0 148.152c0,13.9205 -5.713,26.5937 -14.915,35.7957 -9.20198,9.20198 -21.8764,14.915 -35.7969,14.915l-22.4988 0c-13.9205,0 -26.5949,-5.713 -35.7969,-14.915 -9.20198,-9.20079 -14.915,-21.8752 -14.915,-35.7957l0 -148.152c0,-13.2543 -10.7457,-24 -24,-24 -13.2543,0 -24,10.7457 -24,24l0 148.152c0,27.1713 11.0988,51.8563 28.9772,69.7335 17.8784,17.8784 42.5634,28.9772 69.7347,28.9772l22.4988 0c27.1713,0 51.8563,-11.0988 69.7347,-28.9772 17.8784,-17.8784 28.9772,-42.5622 28.9772,-69.7335l0 -148.152z"/>
  <path class="fil0" d="M1506.04 630.063c0,-13.2543 -10.7457,-24 -24,-24 -13.2543,0 -24,10.7457 -24,24l0 489.025c0,13.2543 10.7457,24 24,24 13.2543,0 24,-10.7457 24,-24l0 -489.025z"/>
  <path class="fil0" d="M1482.04 1095.09l0.0011811 0c17.4012,0 33.2032,7.10197 44.6422,18.541 11.439,11.439 18.541,27.2421 18.541,44.6422l0 220.482c0,17.4012 -7.10197,33.2044 -18.541,44.6433 -11.439,11.439 -27.241,18.541 -44.6422,18.541l-0.0011811 0c-17.4012,0 -33.2032,-7.10197 -44.6422,-18.541 -11.439,-11.439 -18.541,-27.2421 -18.541,-44.6433l0 -220.482c0,-17.4 7.10197,-33.2032 18.541,-44.6422 11.439,-11.439 27.2421,-18.541 44.6422,-18.541zm0.0011811 48l-0.0011811 0c-4.14922,0 -7.94174,1.71614 -10.7043,4.47874 -2.7626,2.7626 -4.47874,6.55512 -4.47874,10.7043l0 220.482c0,4.1504 1.71614,7.94292 4.47874,10.7055 2.7626,2.7626 6.55394,4.47874 10.7043,4.47874l0.0011811 0c4.1504,0 7.94174,-1.71614 10.7043,-4.47874 2.7626,-2.7626 4.47874,-6.55512 4.47874,-10.7055l0 -220.482c0,-4.14922 -1.71614,-7.94174 -4.47874,-10.7043 -2.7626,-2.7626 -6.55394,-4.47874 -10.7043,-4.47874z"/>
  <path class="fil0" d="M575.183 1004.06c0,-13.2543 -10.7457,-24 -24,-24 -13.2543,0 -24,10.7457 -24,24l0 115.029c0,13.2543 10.7457,24 24,24 13.2543,0 24,-10.7457 24,-24l0 -115.029z"/>
  <path class="fil0" d="M551.184 1143.09l-0.00236221 0c-4.14922,0 -7.94174,1.71614 -10.7032,4.47874 -2.7626,2.7626 -4.47874,6.55512 -4.47874,10.7043l0 220.482c0,4.1504 1.71614,7.94292 4.47874,10.7055 2.76142,2.7626 6.55394,4.47874 10.7032,4.47874l0.00236221 0c4.1504,0 7.94174,-1.71614 10.7043,-4.47874 2.7626,-2.7626 4.47874,-6.55512 4.47874,-10.7055l0 -220.482c0,-4.14922 -1.71614,-7.94174 -4.47874,-10.7043 -2.7626,-2.7626 -6.55512,-4.47874 -10.7043,-4.47874zm-0.00236221 -48l0.00236221 0c17.4,0 33.2032,7.10197 44.6422,18.541 11.439,11.439 18.541,27.2421 18.541,44.6422l0 220.482c0,17.4012 -7.10197,33.2044 -18.541,44.6433 -11.439,11.439 -27.241,18.541 -44.6422,18.541l-0.00236221 0c-17.4,0 -33.2032,-7.10079 -44.641,-18.541 -11.439,-11.439 -18.541,-27.2421 -18.541,-44.6433l0 -220.482c0,-17.4 7.10197,-33.2032 18.541,-44.6422 11.4378,-11.4402 27.241,-18.541 44.641,-18.541z"/>
  <path class="fil0" d="M575.181 739.116l0 259.331c6.2315,-2.57953 11.4673,-11.8122 15.6851,-25.5095 5.83819,-18.9579 8.44843,-44.224 8.31142,-72.6166 -0.246851,-50.8689 -9.12284,-110.17 -23.9965,-161.205zm-48 279.549l0 -388.602c0.00472441,-7.15867 3.19725,-14.2394 9.29174,-18.965 10.474,-8.12245 25.5508,-6.21733 33.6733,4.2567l-18.965 14.7083 18.9378 -14.6256c45.3248,58.4398 76.3973,186.751 76.8721,284.697 0.159449,33.0922 -3.09921,63.2434 -10.3736,86.8654 -8.78387,28.5236 -23.7508,48.9319 -45.9898,56.8241 -13.7965,4.89449 -29.2477,4.52481 -46.4008,-2.18386 -9.86221,-2.98229 -17.0457,-12.1394 -17.0457,-22.9748z"/>
  <path class="fil0" d="M1024 679.999c94.9902,0 180.992,38.5051 243.243,100.758 62.2524,62.2512 100.758,148.253 100.758,243.243 0,94.9902 -38.5051,180.992 -100.758,243.243 -62.2512,62.2524 -148.253,100.758 -243.243,100.758 -94.9902,0 -180.992,-38.5051 -243.243,-100.758 -62.2524,-62.2512 -100.758,-148.253 -100.758,-243.243 0,-94.9902 38.5051,-180.992 100.758,-243.243 62.2512,-62.2524 148.253,-100.758 243.243,-100.758zm209.306 134.695c-53.563,-53.5642 -127.566,-86.6953 -209.306,-86.6953 -81.7394,0 -155.743,33.1311 -209.306,86.6953 -53.5642,53.563 -86.6953,127.566 -86.6953,209.306 0,81.7394 33.1311,155.743 86.6953,209.306 53.563,53.5642 127.566,86.6953 209.306,86.6953 81.7394,0 155.743,-33.1311 209.306,-86.6953 53.5642,-53.563 86.6953,-127.566 86.6953,-209.306 0,-81.7394 -33.1311,-155.743 -86.6953,-209.306z"/>
  <path class="fil0" d="M1024 751.999c75.1075,0 143.111,30.4465 192.332,79.669 49.2225,49.2213 79.669,117.224 79.669,192.332 0,75.1075 -30.4465,143.111 -79.669,192.332 -49.2213,49.2225 -117.224,79.669 -192.332,79.669 -75.1075,0 -143.111,-30.4465 -192.332,-79.669 -49.2225,-49.2213 -79.669,-117.224 -79.669,-192.332 0,-75.1075 30.4465,-143.111 79.669,-192.332 49.2213,-49.2225 117.224,-79.669 192.332,-79.669zm169.707 102.294c-43.4292,-43.4303 -103.432,-70.2934 -169.707,-70.2934 -66.2752,0 -126.278,26.863 -169.707,70.2934 -43.4303,43.4292 -70.2934,103.432 -70.2934,169.707 0,66.2752 26.863,126.278 70.2934,169.707 43.4292,43.4303 103.432,70.2934 169.707,70.2934 66.2752,0 126.278,-26.863 169.707,-70.2934 43.4303,-43.4292 70.2934,-103.432 70.2934,-169.707 0,-66.2752 -26.863,-126.278 -70.2934,-169.707z"/>
 </g>
 <rect class="fil1" width="2048" height="2048"/>
</svg>
