<?xml version="1.0" encoding="UTF-8"?>
<!DOCTYPE svg PUBLIC "-//W3C//DTD SVG 1.1//EN" "http://www.w3.org/Graphics/SVG/1.1/DTD/svg11.dtd">
<!-- Creator: CorelDRAW -->
<svg xmlns="http://www.w3.org/2000/svg" xml:space="preserve" width="2048px" height="2048px" style="shape-rendering:geometricPrecision; text-rendering:geometricPrecision; image-rendering:optimizeQuality; fill-rule:evenodd; clip-rule:evenodd"
viewBox="0 0 2048 2048"
 xmlns:xlink="http://www.w3.org/1999/xlink">
 <defs>
  <style type="text/css">
   <![CDATA[
    .fil1 {fill:none}
    .fil0 {fill:#212121;fill-rule:nonzero}
   ]]>
  </style>
 </defs>
 <g id="Layer_x0020_1">
  <metadata id="CorelCorpID_0Corel-Layer"/>
  <path class="fil0" d="M1541.38 544.623c1.65591,17.5347 17.2158,30.4063 34.7504,28.7504 17.5347,-1.65591 30.4063,-17.2158 28.7504,-34.7504 -3.29055,-33.6449 -10.3276,-60.5339 -32.9445,-83.4827 -20.7236,-21.0272 -52.8874,-35.7048 -105.932,-45.3107l-0.751182 -0.179528 0.0141732 -0.0814961c-0.360236,-0.0649607 -0.719292,-0.120473 -1.07835,-0.172441l-842.092 -201.196 0.0318898 -0.131102c-17.1886,-4.1067 -34.454,6.49961 -38.5607,23.6882 -0.648426,2.71299 -0.929528,5.42717 -0.876379,8.09174l0 1075.28c0,15.613 11.1827,28.6146 25.976,31.4327l951.204 252.316c17.0516,4.48701 34.513,-5.69882 39,-22.7504 4.48701,-17.0516 -5.69882,-34.513 -22.7504,-39l-929.428 -246.54 0 -1010.98 802.634 191.769c1.49055,0.504331 3.0378,0.904725 4.63465,1.19173l5.65276 -31.4965 -5.62559 31.3748c39.2327,7.04056 61.0075,15.8433 72.4465,27.45 9.64607,9.7878 13.0016,24.8599 14.9445,44.7331z"/>
  <path class="fil0" d="M1462.7 1539.18c0,8.83583 7.16457,16.0004 16.0004,16.0004 8.83583,0 16.0004,-7.16457 16.0004,-16.0004l0 -1093.55c0,-8.83583 -7.16457,-16.0004 -16.0004,-16.0004 -8.83583,0 -16.0004,7.16457 -16.0004,16.0004l0 1093.55z"/>
  <path class="fil0" d="M1519.1 1840.81l-1000.4 0c-17.6728,0 -32.0008,-14.328 -32.0008,-32.0008l0 -224.001c0,-17.6728 14.328,-32.0008 32.0008,-32.0008l1000.87 0c7.9878,0 15.2917,2.92796 20.8984,7.76694 16.6725,12.75 30.6284,30.2138 41.2382,50.2618 14.7532,27.8776 23.237,61.5166 23.465,94.4717 0.238583,34.1977 -8.43544,68.0611 -28.1563,94.9855 -10.8508,14.8134 -24.913,27.4087 -42.5115,36.7347l0.034252 0.0649607c-4.92993,2.60906 -10.2331,3.79843 -15.4429,3.71693zm-968.398 -64.0016l960.187 0c5.78386,-3.98859 10.6406,-8.81694 14.6303,-14.2654 11.1567,-15.2315 16.0536,-35.6563 15.9059,-56.9847 -0.155906,-22.5709 -6.01772,-45.7087 -16.213,-64.9725 -4.87914,-9.21969 -10.6795,-17.3433 -17.2087,-23.7768l-957.302 0 0 159.999z"/>
  <path class="fil0" d="M613.934 637.625c17.6728,0 32.0008,-14.328 32.0008,-32.0008 0,-17.6728 -14.328,-32.0008 -32.0008,-32.0008l-95.2371 0c-17.6728,0 -32.0008,14.328 -32.0008,32.0008l0 979.182c0,17.6728 14.328,32.0008 32.0008,32.0008l985.241 0c17.6728,0 32.0008,-14.328 32.0008,-32.0008 0,-17.6728 -14.328,-32.0008 -32.0008,-32.0008l-953.24 0 0 -915.18 63.2363 0z"/>
  <path class="fil0" d="M474.697 1776.8c-17.6728,0 -32.0008,14.328 -32.0008,32.0008 0,17.6728 14.328,32.0008 32.0008,32.0008l128.001 0c17.6728,0 32.0008,-14.328 32.0008,-32.0008 0,-17.6728 -14.328,-32.0008 -32.0008,-32.0008l-128.001 0z"/>
  <path class="fil0" d="M1605.3 541.623c0,-17.6728 -14.328,-32.0008 -32.0008,-32.0008 -17.6728,0 -32.0008,14.328 -32.0008,32.0008l0 1152c0,17.6728 14.328,32.0008 32.0008,32.0008 17.6728,0 32.0008,-14.328 32.0008,-32.0008l0 -1152z"/>
  <path class="fil0" d="M1311.42 791.168l-47.1615 -12.7217 4.12441 -15.437 -4.16693 15.4476c-7.78229,-2.09882 -12.6662,-9.59056 -11.7177,-17.3658 5.65985,-104.459 -30.6614,-124.657 -85.1505,-154.935 -33.7548,-18.7559 -73.6843,-40.9441 -115.66,-84.4524 -42.6083,20.5016 -82.5461,21.1524 -116.406,21.7016 -49.9618,0.810237 -83.2123,1.35118 -77.5961,103.655l0.0377953 -0.00236221c0.484252,8.82284 -6.2752,16.3689 -15.098,16.8532 -2.06221,0.113386 -4.05355,-0.170079 -5.90197,-0.78189l-38.0138 -10.252 0 522.961 512.71 138.289 0 -522.959zm-26.5406 -40.2579l45.8481 12.3662c7.24961,1.52362 12.6933,7.95591 12.6933,15.6579l0 555.789c0.0236221,1.46221 -0.152362,2.95276 -0.552756,4.43622 -2.30079,8.53111 -11.0835,13.5815 -19.6146,11.2807l0.00590552 -0.0200788 -543.856 -146.691c-7.24961,-1.52362 -12.6945,-7.95591 -12.6945,-15.6579l0 -555.791c-0.0236221,-1.46221 0.152362,-2.95276 0.552756,-4.43622 2.30079,-8.53111 11.0835,-13.5815 19.6146,-11.2807l-0.00590552 0.0200788 38.1969 10.3028c-1.28032,-113.534 43.8237,-114.289 109.714,-115.357 32.8725,-0.532678 72.1229,-1.1752 111.776,-23.1366 6.43701,-4.05118 15.0484,-3.03307 20.3445,2.78977l-0.0200788 0.0188977c41.6303,45.7737 82.1032,68.2642 115.967,87.0804 62.8619,34.9299 105.438,58.6087 102.031,172.628z"/>
  <path class="fil0" d="M915.536 890.198l35.7981 10.6417 -2.25 7.65591 2.27953 -7.6689c3.52323,1.04646 5.78504,4.30866 5.72126,7.813l0 148.586c0,4.41851 -3.58229,8.00079 -8.00079,8.00079 -1.00394,0 -1.96417,-0.185433 -2.85,-0.523229l-35.7981 -10.6417 2.25 -7.65591 -2.27953 7.6689c-3.52323,-1.04646 -5.78504,-4.30866 -5.72126,-7.813l0 -148.586c0,-4.41851 3.58229,-8.00079 8.00079,-8.00079 1.00394,0 1.96417,0.185433 2.85,0.523229zm25.5473 24.2445l-20.3965 -6.06378 0 132.08 20.3965 6.06378 0 -132.08z"/>
  <path class="fil0" d="M923.831 871.416l14.1095 4.1941 0 -29.3858 -14.1095 -4.1941 0 29.3858zm19.8366 22.5461l-29.5406 -8.78032c-3.6,-0.780709 -6.29764,-3.98504 -6.29764,-7.8189l0 -45.8941c-0.0141732,-0.799607 0.0921261,-1.61457 0.33189,-2.42126 1.25787,-4.23426 5.71418,-6.64725 9.94843,-5.38937l-0.00590552 0.0200788 29.5406 8.78032c3.6,0.780709 6.29764,3.98504 6.29764,7.8189l0 45.8941c0.0141732,0.799607 -0.0921261,1.61457 -0.33189,2.42126 -1.25787,4.23426 -5.71418,6.64725 -9.94843,5.38937l0.00590552 -0.0200788z"/>
  <path class="fil0" d="M909.373 888.366l44.2819 13.1634 1.25315 -4.22481 -46.7882 -13.9099 1.25315 4.97126zm47.387 30.7359l-55.7363 -16.5685c-2.86654,-0.63189 -5.27953,-2.82047 -6.04489,-5.85945l7.75749 -1.95591 -7.7504 1.93701 -5.68111 -22.5248c-0.458268,-1.46575 -0.500788,-3.07914 -0.0307087,-4.66181 1.25787,-4.23426 5.71418,-6.64725 9.94843,-5.38937l-0.00590552 0.0200788 67.3323 20.0162c0.185433,0.0401575 0.369685,0.0885827 0.553937,0.142913 4.23544,1.25669 6.65079,5.71063 5.3941,9.94607l-0.0200788 -0.00590552 -5.6315 18.978c-0.0413386,0.185433 -0.0874016,0.370866 -0.142913,0.5563 -1.25787,4.23426 -5.71418,6.64725 -9.94843,5.38937l0.00590552 -0.0200788z"/>
  <path class="fil0" d="M913.797 822.397l35.2595 10.4811 1.06417 -4.28032 -37.3878 -11.1142 1.06417 4.91339zm38.7166 28.1587l-47.2406 -14.0433c-2.96339,-0.649607 -5.42481,-2.96457 -6.10867,-6.12284l7.8189 -1.6937 -7.813 1.6878 -4.84607 -22.3666c-0.361418,-1.37008 -0.362599,-2.85236 0.0696851,-4.30985 1.25787,-4.23426 5.71418,-6.64725 9.94843,-5.38937l-0.00590552 0.0200788 57.1016 16.9736 0.198425 0.0472441c4.2874,1.06536 6.89882,5.40591 5.83347,9.69331l-0.0177165 -0.00472441 -4.78583 19.2496c-0.0519685,0.296457 -0.122835,0.594095 -0.210236,0.889371 -1.25787,4.23426 -5.71418,6.64725 -9.94843,5.38937l0.00590552 -0.0200788z"/>
  <path class="fil0" d="M1205.06 1067.28l-247.977 -73.7174 0 57.7146 247.977 73.7174 0 -57.7146zm-253.705 -92.0694l263.408 78.3036c3.6,0.780709 6.29764,3.98504 6.29764,7.8189l0 74.2229c0.0141732,0.799607 -0.0921261,1.61457 -0.33189,2.42126 -1.25787,4.23426 -5.71418,6.64725 -9.94843,5.38937l0.00590552 -0.0200788 -263.408 -78.3036c-3.6,-0.780709 -6.29764,-3.98504 -6.29764,-7.8189l0 -74.2229c-0.0141732,-0.799607 0.0921261,-1.61457 0.33189,-2.42126 1.25787,-4.23426 5.71418,-6.64725 9.94843,-5.38937l-0.00590552 0.0200788z"/>
  <path class="fil0" d="M1089.04 852.491c0.379134,-4.40079 -2.88071,-8.27717 -7.2815,-8.65631 -4.40079,-0.379134 -8.27717,2.88071 -8.65631,7.2815 -0.807875,9.19607 -15.4524,14.2358 -31.4114,19.7256 -10.4161,3.58229 -21.3059,7.32993 -30.7819,13.0299 -24.2185,14.5665 -36.913,38.9292 -3.99213,93.6639 2.26063,3.77953 7.15867,5.01142 10.9382,2.75079 3.77953,-2.26063 5.01142,-7.15867 2.75079,-10.9382 -26.2229,-43.5992 -18.2362,-61.7268 -1.50945,-71.7875 7.90631,-4.75512 18.065,-8.25119 27.7819,-11.5937 21.091,-7.25552 40.4433,-13.9146 42.1618,-33.476z"/>
  <path class="fil0" d="M1089.04 851.147c-0.362599,-4.40079 -4.22481,-7.67481 -8.6256,-7.31221 -4.40079,0.362599 -7.67481,4.22481 -7.31221,8.6256 1.51772,18.1772 19.5898,35.1402 39.287,53.6268 31.089,29.178 66.8623,62.7567 30.1796,101.936 -3.00236,3.20906 -2.83465,8.24764 0.37441,11.25 3.20906,3.00236 8.24764,2.83465 11.25,-0.37441 47.5748,-50.8134 5.60552,-90.2056 -30.867,-124.436 -17.354,-16.2874 -33.2776,-31.2331 -34.2862,-43.3158z"/>
  <path class="fil0" d="M910.863 775.019c-2.2441,-4.54843 -4.0441,-9.46064 -5.28898,-14.5736 -1.2378,-5.08229 -1.90748,-10.2567 -1.90748,-15.3626 0,-9.64961 2.30315,-18.1228 6.2941,-24.8303 4.40315,-7.40434 10.8272,-12.6614 18.5268,-15.0921l-0.00472441 -0.0129921c2.99292,-0.94252 6.12638,-0.034252 8.16615,2.0811 6.42166,5.9504 11.8181,13.663 15.5847,22.226l0.011811 -0.00472441 0.00236221 0.00472441 0.00944883 -0.00472441c0.0590552,0.135827 0.115748,0.272835 0.166536,0.409843 3.60236,8.33977 5.67874,17.4992 5.67874,26.6481 0,5.27008 -0.692127,10.2012 -1.9689,14.6917 -1.35709,4.76575 -3.40866,9.05198 -6.02481,12.7347l0.0188977 0.0129921c-2.15788,3.03544 -6.04607,4.1126 -9.37087,2.84292l-24.8433 -7.38544 2.25 -7.65591 -2.27953 7.6689c-2.32441,-0.690945 -4.10079,-2.34567 -5.02087,-4.39843zm10.2118 -18.3248c0.694489,2.85355 1.64882,5.68229 2.82756,8.43544l15.8256 4.70552c0.386221,-0.95315 0.729922,-1.95827 1.02992,-3.01063 0.870473,-3.0626 1.34291,-6.52087 1.34291,-10.3169 0,-6.93544 -1.58268,-13.9051 -4.32874,-20.2725l-0.162992 -0.348425 7.32402 -3.21851 -7.31221 3.1878c-2.18386,-4.97126 -5.07166,-9.55276 -8.46379,-13.4398 -2.12244,1.46102 -3.96851,3.47835 -5.44607,5.96221 -2.56299,4.30866 -4.04292,9.99568 -4.04292,16.7043 0,3.9567 0.493701,7.86379 1.40669,11.6114z"/>
  <path class="fil0" d="M932.622 767.718c0.42874,0.0956694 0.844489,0.22441 1.2437,0.38504 6.31654,2.07874 11.9504,6.54686 15.9933,12.1488 4.15512,5.75552 6.73347,12.8244 6.73347,19.8106l0 20.2925c0,4.41851 -3.58229,8.00079 -8.00079,8.00079 -1.00394,0 -1.96536,-0.185433 -2.85118,-0.523229l-34.8107 -10.3488 2.25 -7.65591 -2.27953 7.6689c-3.52323,-1.04646 -5.78504,-4.30866 -5.72126,-7.813l0 -20.1473c0,-2.65158 0.375591,-5.17914 1.07126,-7.52127l-0.0106299 -0.00354331c0.068504,-0.229134 0.146457,-0.452363 0.232677,-0.669686 1.41378,-4.27559 3.91654,-7.79764 7.20001,-10.3193 3.51614,-2.70118 7.8319,-4.19764 12.574,-4.19764 2.04095,0 4.17992,0.28937 6.3756,0.892914zm4.29922 21.8457c-2.12244,-2.94095 -4.90867,-5.2441 -7.88386,-6.2504 -0.145276,-0.0354331 -0.290551,-0.0732284 -0.435827,-0.115748l2.28307 -7.66772 -2.28189 7.65591c-0.816142,-0.243307 -1.60866,-0.359055 -2.3563,-0.359055 -1.15748,0 -2.14725,0.315355 -2.88662,0.883465 -0.714567,0.548032 -1.29449,1.38662 -1.6748,2.46024l-0.109843 0.407481 -7.66772 -2.28307 7.65591 2.28189c-0.248032,0.836221 -0.382677,1.82835 -0.382677,2.95984l0 14.3445 19.4103 5.77087 0 -9.58938c0,-3.60945 -1.40669,-7.363 -3.66969,-10.4988z"/>
  <path class="fil0" d="M1004.88 964.952l157.464 46.8095 -2.25 7.65591 2.27953 -7.6689c2.45433,0.728741 4.29685,2.53465 5.16733,4.74685l13.9358 29.5819 -7.2189 3.4063 7.2378 -3.40985c1.88268,3.99685 0.168898,8.76497 -3.82796,10.6476 -2.03622,0.959056 -4.27087,0.983859 -6.22441,0.250394l-185.811 -55.2367 2.25 -7.65591 -2.27953 7.6689c-4.23426,-1.25787 -6.64725,-5.71418 -5.38937,-9.94843 0.269292,-0.905906 0.68504,-1.72914 1.21299,-2.44961l13.9335 -21.2906 6.68741 4.37481 -6.69449 -4.38071c2.0941,-3.20079 6.09331,-4.40552 9.52796,-3.10158zm149.514 61.0961l-148.912 -44.2678 -5.04449 7.7067 159 47.2654 -5.04331 -10.7043z"/>
  <path class="fil0" d="M1055.63 1047.42c3.79252,1.12677 7.1563,3.5941 9.5256,6.66733 2.44134,3.16654 3.95079,7.08898 3.95079,11.0114 0,1.46811 -0.214961,2.89016 -0.617717,4.24134l-0.00826772 -0.00236221 -0.0011811 0.00236221 0.0200788 0.00590552c-0.0862205,0.287008 -0.186614,0.56693 -0.3,0.836221 -0.934253,2.53937 -2.5311,4.62756 -4.60985,6.13347 -2.27008,1.64291 -5.01969,2.54882 -8.00434,2.54882l0 -0.0318898c-1.47756,-0.00236221 -2.97874,-0.211417 -4.45512,-0.649607 -3.79252,-1.12677 -7.15867,-3.5941 -9.5256,-6.66615 -2.44016,-3.16536 -3.95079,-7.0878 -3.95079,-11.0114 0,-1.46575 0.214961,-2.89016 0.617717,-4.24252l0.00826772 0.00236221 0.0011811 -0.00236221 -0.0200788 -0.00590552c0.0862205,-0.287008 0.186614,-0.56693 0.3,-0.836221 0.934253,-2.53937 2.5311,-4.62756 4.60985,-6.13347 2.27008,-1.64291 5.01733,-2.54882 8.00434,-2.54882l0 0.0318898c1.47638,0.00236221 2.97874,0.211417 4.45512,0.649607z"/>
  <path class="fil0" d="M1083.32 1028.61c3.79252,1.12677 7.15867,3.5941 9.5256,6.66615 2.44134,3.16654 3.95079,7.08898 3.95079,11.0114 0,1.46811 -0.214961,2.89016 -0.617717,4.24134l-0.00826772 -0.00236221 -0.0011811 0.00236221 0.0200788 0.00590552c-0.0862205,0.287008 -0.186614,0.56693 -0.3,0.836221 -0.934253,2.53937 -2.5311,4.62756 -4.60985,6.13347 -2.27008,1.64291 -5.01615,2.54882 -8.00434,2.54882l0 -0.0318898c-1.4752,-0.00236221 -2.97874,-0.211417 -4.45512,-0.649607 -3.79252,-1.12677 -7.1563,-3.5941 -9.5256,-6.66615 -2.44016,-3.16536 -3.95079,-7.0878 -3.95079,-11.0114 0,-1.46693 0.214961,-2.88898 0.617717,-4.24134l0.00826772 0.00236221 0.0011811 -0.00236221 -0.0200788 -0.00590552c0.0862205,-0.287008 0.186614,-0.56693 0.3,-0.836221 0.934253,-2.53937 2.5311,-4.62756 4.60985,-6.13347 2.27008,-1.64291 5.02087,-2.54882 8.00434,-2.54882l0 0.0318898c1.47874,0.00236221 2.97874,0.211417 4.45512,0.649607z"/>
  <path class="fil0" d="M1111.02 1063.88c3.7937,1.12795 7.15867,3.59528 9.52442,6.66733 2.44016,3.16418 3.95079,7.08662 3.95079,11.0102 0,1.46693 -0.214961,2.89134 -0.617717,4.24252l-0.00826772 -0.00236221 -0.0011811 0.00236221 0.0200788 0.00590552c-0.0862205,0.288189 -0.186614,0.568111 -0.301181,0.838583 -0.936615,2.54055 -2.53229,4.6252 -4.60866,6.13111 -2.27008,1.64291 -5.01733,2.54882 -8.00316,2.54882 -1.40906,0 -2.90315,-0.220866 -4.45512,-0.681497 -3.79252,-1.12677 -7.15867,-3.5941 -9.5256,-6.66615 -2.44016,-3.16536 -3.95079,-7.0878 -3.95079,-11.0114 0,-1.46575 0.214961,-2.89016 0.617717,-4.24252l0.00826772 0.00236221 0.0011811 -0.00236221 -0.0200788 -0.00590552c0.0862205,-0.287008 0.186614,-0.56693 0.3,-0.836221 0.934253,-2.53937 2.5311,-4.62756 4.60985,-6.13347 2.27008,-1.64291 5.01733,-2.54882 8.00434,-2.54882l0 0.0318898c1.47638,0.00236221 2.97874,0.211417 4.45512,0.649607z"/>
  <path class="fil0" d="M1073.08 852.123c0,4.41851 3.58229,8.00079 8.00079,8.00079 4.41851,0 8.00079,-3.58229 8.00079,-8.00079l0 -27.2386c0,-4.41851 -3.58229,-8.00079 -8.00079,-8.00079 -4.41851,0 -8.00079,3.58229 -8.00079,8.00079l0 27.2386z"/>
  <path class="fil0" d="M1078.58 813.283c0.38504,-0.101575 0.755906,-0.229134 1.11142,-0.381496 0.114567,0.741733 0.509056,1.54843 1.08425,2.29488 0.760631,0.987402 1.72677,1.74685 2.71063,2.03858l0.00944883 0.00236221 -0.0165354 0.0212599 -0.204331 0.696851c-0.109843,0.0874016 -0.212599,0.16063 -0.282284,0.199606l-0.0732284 -0.0413386c0.170079,-0.3 0.357874,-0.585827 0.559843,-0.855119l-0.204331 0.696851c0.223229,-0.178347 0.479528,-0.411024 0.571654,-0.533859l-0.0248032 -0.0744095c-0.0106299,0.00354331 -0.0980316,-0.0413386 -0.325985,-0.109843 2.3752,-3.14882 6.77599,-4.12323 10.2992,-2.12362 3.8315,2.17441 5.17441,7.0441 3,10.8756 -1.8189,3.21378 -4.61221,5.44134 -7.97245,6.54686 -3.00118,0.988583 -6.40276,1.0311 -9.83623,0.0106299 -4.30512,-1.27913 -8.1319,-4.09134 -10.8366,-7.59922 -2.77559,-3.6 -4.4941,-8.04922 -4.4941,-12.4831 0,-3.40276 1.00394,-6.52087 2.81457,-9.0756 1.91811,-2.70709 4.67244,-4.65118 8.04686,-5.54292 4.2626,-1.12087 8.62914,1.42441 9.75001,5.68701 1.01929,3.87756 -0.99567,7.84016 -4.57559,9.36851 -0.0236221,-0.148819 -0.034252,-0.294095 -0.034252,-0.437008l-0.0165354 0c0.0106299,-0.00708662 0.0165354,-0.00826772 0.0165354,0l-0.0165354 0c-0.0614174,0.0425197 -0.274016,0.320079 -0.17126,0.174803l-0.056693 -0.0401575c0.0755906,-0.0354331 0.106299,-0.0307087 0.056693,0.0401575l-0.056693 -0.0401575c-0.199606,0.0921261 -0.708662,0.46063 -0.850394,0.617717l0.0177165 0.0661418zm5.24174 4.06418c0.0755906,-0.0248032 0.0732284,0.00944883 0.0248032,0.0744095l-0.0248032 -0.0744095z"/>
 </g>
 <rect class="fil1" width="2048" height="2048"/>
</svg>
