<?xml version="1.0" encoding="UTF-8"?>
<!DOCTYPE svg PUBLIC "-//W3C//DTD SVG 1.1//EN" "http://www.w3.org/Graphics/SVG/1.1/DTD/svg11.dtd">
<!-- Creator: CorelDRAW -->
<svg xmlns="http://www.w3.org/2000/svg" xml:space="preserve" width="2048px" height="2048px" style="shape-rendering:geometricPrecision; text-rendering:geometricPrecision; image-rendering:optimizeQuality; fill-rule:evenodd; clip-rule:evenodd"
viewBox="0 0 2048 2048"
 xmlns:xlink="http://www.w3.org/1999/xlink">
 <defs>
  <style type="text/css">
   <![CDATA[
    .fil1 {fill:none}
    .fil0 {fill:#212121;fill-rule:nonzero}
   ]]>
  </style>
 </defs>
 <g id="Layer_x0020_1">
  <metadata id="CorelCorpID_0Corel-Layer"/>
  <g id="_475160112">
   <path id="_475166568" class="fil0" d="M920.245 634.13l62.5453 0 29.8973 -29.8973 11.3126 -11.3126 11.3126 11.3126 29.8973 29.8973 62.5453 0 16.0004 0 0 16.0004 0 268.034 0 16.0004 -16.0004 0 -60.7784 0 -6.62481 0 -4.6878 -4.6878 -31.6642 -31.6642 -31.6642 31.6642 -4.6878 4.6878 -6.62481 0 -60.7784 0 -16.0004 0 0 -16.0004 0 -268.034 0 -16.0004 16.0004 0zm69.1701 32.0008l-53.1697 0 0 236.033 38.1532 0 38.289 -38.289 11.3126 -11.3126 11.3126 11.3126 38.289 38.289 38.1532 0 0 -236.033 -53.1697 0 -6.62481 0 -4.6878 -4.6878 -23.2725 -23.2725 -23.2725 23.2725 -4.6878 4.6878 -6.62481 0zm154.341 459.544l0 268.035 0 16.0004 -16.0004 0 -62.5453 0 -29.8973 29.8973 -11.3126 11.3126 -11.3126 -11.3126 -29.8973 -29.8973 -62.5453 0 -16.0004 0 0 -16.0004 0 -268.035 0 -16.0004 16.0004 0 60.7784 0 6.62481 0 4.6878 4.6878 31.6642 31.6642 31.6642 -31.6642 4.6878 -4.6878 6.62481 0 60.7784 0 16.0004 0 0 16.0004zm-32.0008 252.034l0 -236.034 -38.1532 0 -38.289 38.289 -11.3126 11.3126 -11.3126 -11.3126 -38.289 -38.289 -38.1532 0 0 236.034 53.1697 0 6.62481 0 4.6878 4.6878 23.2725 23.2725 23.2725 -23.2725 4.6878 -4.6878 6.62481 0 53.1697 0z"/>
   <path id="_475166424" class="fil0" d="M636.211 1125.67l0 -62.5453 -29.8973 -29.8973 -11.3126 -11.3126 11.3126 -11.3126 29.8973 -29.8973 0 -62.5453 0 -16.0004 16.0004 0 268.034 0 16.0004 0 0 16.0004 0 60.7784 0 6.62481 -4.6878 4.6878 -31.6642 31.6642 31.6642 31.6642 4.6878 4.6878 0 6.62481 0 60.7784 0 16.0004 -16.0004 0 -268.034 0 -16.0004 0 0 -16.0004zm32.0008 -69.1701l0 53.1697 236.033 0 0 -38.1532 -38.289 -38.289 -11.3126 -11.3126 11.3126 -11.3126 38.289 -38.289 0 -38.1532 -236.033 0 0 53.1697 0 6.62481 -4.6878 4.6878 -23.2725 23.2725 23.2725 23.2725 4.6878 4.6878 0 6.62481zm459.544 -154.341l268.035 0 16.0004 0 0 16.0004 0 62.5453 29.8973 29.8973 11.3126 11.3126 -11.3126 11.3126 -29.8973 29.8973 0 62.5453 0 16.0004 -16.0004 0 -268.035 0 -16.0004 0 0 -16.0004 0 -60.7784 0 -6.62481 4.6878 -4.6878 31.6642 -31.6642 -31.6642 -31.6642 -4.6878 -4.6878 0 -6.62481 0 -60.7784 0 -16.0004 16.0004 0zm252.034 32.0008l-236.034 0 0 38.1532 38.289 38.289 11.3126 11.3126 -11.3126 11.3126 -38.289 38.289 0 38.1532 236.034 0 0 -53.1697 0 -6.62481 4.6878 -4.6878 23.2725 -23.2725 -23.2725 -23.2725 -4.6878 -4.6878 0 -6.62481 0 -53.1697z"/>
   <path id="_475166376" class="fil0" d="M676.427 821.077l44.2217 -44.2217 0 -42.287 0 -16.0004 16.0004 0 42.287 0 44.2217 -44.2217 11.3126 -11.3114 11.3126 11.3114 189.529 189.528 11.3126 11.3126 -11.3126 11.3126 -42.9768 42.9768 -4.6878 4.6878 -6.62481 0 -44.778 0 0 44.778 0 6.62481 -4.6878 4.6878 -42.9768 42.9768 -11.3126 11.3126 -11.3126 -11.3126 -189.528 -189.529 -11.3114 -11.3126 11.3114 -11.3126zm71.5347 -26.2843l-37.5969 37.5969 166.903 166.904 26.9764 -26.9764 0 -54.1536 0 -16.0004 16.0004 0 54.1536 0 26.9764 -26.9764 -166.904 -166.903 -37.5969 37.5969 -4.6878 4.6878 -6.62481 0 -32.9114 0 0 32.9114 0 6.62481 -4.6878 4.6878zm434.083 215.814l189.529 189.529 11.3126 11.3126 -11.3126 11.3126 -44.2229 44.2229 0 42.2859 0 16.0004 -16.0004 0 -42.2859 0 -44.2229 44.2229 -11.3126 11.3126 -11.3126 -11.3126 -189.529 -189.529 -11.3126 -11.3126 11.3126 -11.3126 42.9768 -42.9768 4.6878 -4.6878 6.62481 0 44.778 0 0 -44.778 0 -6.62481 4.6878 -4.6878 42.9768 -42.9768 11.3126 -11.3126 11.3126 11.3126zm155.591 200.842l-166.904 -166.904 -26.9764 26.9764 0 54.1536 0 16.0004 -16.0004 0 -54.1536 0 -26.9764 26.9764 166.904 166.904 37.5981 -37.5981 4.6878 -4.6878 6.62481 0 32.9103 0 0 -32.9103 0 -6.62481 4.6878 -4.6878 37.5981 -37.5981z"/>
   <path id="_475166544" class="fil0" d="M1337.63 832.39l-37.5969 -37.5969 -4.6878 -4.6878 0 -6.62481 0 -32.9114 -32.9114 0 -6.62481 0 -4.6878 -4.6878 -37.5969 -37.5969 -166.904 166.903 26.9764 26.9764 54.1536 0 16.0004 0 0 16.0004 0 54.1536 26.9764 26.9764 166.903 -166.904zm-10.2839 -55.5343l44.2217 44.2217 11.3114 11.3126 -11.3114 11.3126 -189.528 189.529 -11.3126 11.3126 -11.3126 -11.3126 -42.9768 -42.9768 -4.6878 -4.6878 0 -6.62481 0 -44.778 -44.778 0 -6.62481 0 -4.6878 -4.6878 -42.9768 -42.9768 -11.3126 -11.3126 11.3126 -11.3126 189.529 -189.528 11.3126 -11.3114 11.3126 11.3114 44.2217 44.2217 42.287 0 16.0004 0 0 16.0004 0 42.287zm-450.083 267.689l-166.904 166.904 37.5981 37.5981 4.6878 4.6878 0 6.62481 0 32.9103 32.9103 0 6.62481 0 4.6878 4.6878 37.5981 37.5981 166.904 -166.904 -26.9764 -26.9764 -54.1536 0 -16.0004 0 0 -16.0004 0 -54.1536 -26.9764 -26.9764zm-200.842 155.591l189.529 -189.529 11.3126 -11.3126 11.3126 11.3126 42.9768 42.9768 4.6878 4.6878 0 6.62481 0 44.778 44.778 0 6.62481 0 4.6878 4.6878 42.9768 42.9768 11.3126 11.3126 -11.3126 11.3126 -189.529 189.529 -11.3126 11.3126 -11.3126 -11.3126 -44.2229 -44.2229 -42.2859 0 -16.0004 0 0 -16.0004 0 -42.2859 -44.2229 -44.2229 -11.3126 -11.3126 11.3126 -11.3126z"/>
   <path id="_475166256" class="fil0" d="M449.456 349.917l1149.09 0 32.0008 0 0 32.0008 0 1280 0 32.0008 -32.0008 0 -1149.09 0 -32.0008 0 0 -32.0008 0 -1280 0 -32.0008 32.0008 0zm1117.09 64.0016l-1085.09 0 0 1216 1085.09 0 0 -1216z"/>
   <path id="_475166448" class="fil0" d="M464 1501.92c-8.83583,0 -16.0004,7.16457 -16.0004,16.0004 0,8.83583 7.16457,16.0004 16.0004,16.0004l1120 0c8.83583,0 16.0004,-7.16457 16.0004,-16.0004 0,-8.83583 -7.16457,-16.0004 -16.0004,-16.0004l-1120 0z"/>
   <path id="_475165800" class="fil0" d="M464 509.917c-8.83583,0 -16.0004,7.16457 -16.0004,16.0004 0,8.83583 7.16457,16.0004 16.0004,16.0004l1120 0c8.83583,0 16.0004,-7.16457 16.0004,-16.0004 0,-8.83583 -7.16457,-16.0004 -16.0004,-16.0004l-1120 0z"/>
   <path id="_475165728" class="fil0" d="M473.417 1572.95l58.3748 -59.4225 11.3752 -11.5795 11.3752 11.5795 58.3748 59.4225 10.9913 11.1874 -10.9913 11.1874 -58.3748 59.4213 -11.3752 11.5784 -11.3752 -11.5784 -58.3748 -59.4213 -10.9902 -11.1874 10.9902 -11.1874zm69.7501 -25.4681l-36.0095 36.6555 36.0095 36.6544 36.0095 -36.6544 -36.0095 -36.6555z"/>
   <path id="_475165224" class="fil0" d="M610.798 1572.95l58.3748 -59.4225 11.3764 -11.5795 11.374 11.5795 58.3737 59.4225 10.9902 11.1874 -10.9902 11.1874 -58.3737 59.4213 -11.374 11.5784 -11.3764 -11.5784 -58.3748 -59.4213 -10.9902 -11.1874 10.9902 -11.1874zm69.7501 -25.4681l-36.0095 36.6555 36.0095 36.6544 36.0083 -36.6544 -36.0083 -36.6555z"/>
   <path id="_475165704" class="fil0" d="M748.179 1572.95l58.3737 -59.4225 11.3752 -11.5795 11.3752 11.5795 58.3748 59.4225 10.9913 11.1874 -10.9913 11.1874 -58.3748 59.4213 -11.3752 11.5784 -11.3752 -11.5784 -58.3737 -59.4213 -10.989 -11.1874 10.989 -11.1874zm69.7489 -25.4681l-36.0083 36.6555 36.0083 36.6544 36.0095 -36.6544 -36.0095 -36.6555z"/>
   <path id="_475165680" class="fil0" d="M885.559 1572.95l58.3748 -59.4225 11.3752 -11.5795 11.3752 11.5795 58.3748 59.4225 10.9902 11.1874 -10.9902 11.1874 -58.3748 59.4213 -11.3752 11.5784 -11.3752 -11.5784 -58.3748 -59.4213 -10.9902 -11.1874 10.9902 -11.1874zm69.7501 -25.4681l-36.0095 36.6555 36.0095 36.6544 36.0095 -36.6544 -36.0095 -36.6555z"/>
   <path id="_475165176" class="fil0" d="M1022.94 1572.95l58.3748 -59.4225 11.3752 -11.5795 11.3752 11.5795 58.3748 59.4225 10.9902 11.1874 -10.9902 11.1874 -58.3748 59.4213 -11.3752 11.5784 -11.3752 -11.5784 -58.3748 -59.4213 -10.9902 -11.1874 10.9902 -11.1874zm69.7501 -25.4681l-36.0095 36.6555 36.0095 36.6544 36.0095 -36.6544 -36.0095 -36.6555z"/>
   <path id="_475165152" class="fil0" d="M1160.32 1572.95l58.3748 -59.4225 11.3752 -11.5795 11.3752 11.5795 58.3748 59.4225 10.9902 11.1874 -10.9902 11.1874 -58.3748 59.4213 -11.3752 11.5784 -11.3752 -11.5784 -58.3748 -59.4213 -10.9913 -11.1874 10.9913 -11.1874zm69.7501 -25.4681l-36.0095 36.6555 36.0095 36.6544 36.0095 -36.6544 -36.0095 -36.6555z"/>
   <path id="_475165656" class="fil0" d="M1297.7 1572.95l58.3748 -59.4225 11.3752 -11.5795 11.3752 11.5795 58.3748 59.4225 10.9902 11.1874 -10.9902 11.1874 -58.3748 59.4213 -11.3752 11.5784 -11.3752 -11.5784 -58.3748 -59.4213 -10.9913 -11.1874 10.9913 -11.1874zm69.7501 -25.4681l-36.0095 36.6555 36.0095 36.6544 36.0095 -36.6544 -36.0095 -36.6555z"/>
   <path id="_475165248" class="fil0" d="M1435.08 1572.95l58.3748 -59.4225 11.3752 -11.5795 11.3752 11.5795 58.3737 59.4225 10.989 11.1874 -10.989 11.1874 -58.3737 59.4213 -11.3752 11.5784 -11.3752 -11.5784 -58.3748 -59.4213 -10.9913 -11.1874 10.9913 -11.1874zm69.7501 -25.4681l-36.0095 36.6555 36.0095 36.6544 36.0083 -36.6544 -36.0083 -36.6555z"/>
   <path id="_475165512" class="fil0" d="M473.417 447.512l58.3748 -59.4225 11.3752 -11.5784 11.3752 11.5784 58.3748 59.4225 10.9913 11.1886 -10.9913 11.1862 -58.3748 59.4213 -11.3752 11.5795 -11.3752 -11.5795 -58.3748 -59.4213 -10.9902 -11.1862 10.9902 -11.1886zm69.7501 -25.4681l-36.0095 36.6555 36.0095 36.6544 36.0095 -36.6544 -36.0095 -36.6555z"/>
   <path id="_475164648" class="fil0" d="M610.798 447.512l58.3748 -59.4225 11.3764 -11.5784 11.374 11.5784 58.3737 59.4225 10.9902 11.1886 -10.9902 11.1862 -58.3737 59.4213 -11.374 11.5795 -11.3764 -11.5795 -58.3748 -59.4213 -10.9902 -11.1862 10.9902 -11.1886zm69.7501 -25.4681l-36.0095 36.6555 36.0095 36.6544 36.0083 -36.6544 -36.0083 -36.6555z"/>
   <path id="_475164456" class="fil0" d="M748.179 447.512l58.3737 -59.4225 11.3752 -11.5784 11.3752 11.5784 58.3748 59.4225 10.9913 11.1886 -10.9913 11.1862 -58.3748 59.4213 -11.3752 11.5795 -11.3752 -11.5795 -58.3737 -59.4213 -10.989 -11.1862 10.989 -11.1886zm69.7489 -25.4681l-36.0083 36.6555 36.0083 36.6544 36.0095 -36.6544 -36.0095 -36.6555z"/>
   <path id="_475164408" class="fil0" d="M885.559 447.512l58.3748 -59.4225 11.3752 -11.5784 11.3752 11.5784 58.3748 59.4225 10.9902 11.1886 -10.9902 11.1862 -58.3748 59.4213 -11.3752 11.5795 -11.3752 -11.5795 -58.3748 -59.4213 -10.9902 -11.1862 10.9902 -11.1886zm69.7501 -25.4681l-36.0095 36.6555 36.0095 36.6544 36.0095 -36.6544 -36.0095 -36.6555z"/>
   <path id="_475164624" class="fil0" d="M1022.94 447.512l58.3748 -59.4225 11.3752 -11.5784 11.3752 11.5784 58.3748 59.4225 10.9902 11.1886 -10.9902 11.1862 -58.3748 59.4213 -11.3752 11.5795 -11.3752 -11.5795 -58.3748 -59.4213 -10.9902 -11.1862 10.9902 -11.1886zm69.7501 -25.4681l-36.0095 36.6555 36.0095 36.6544 36.0095 -36.6544 -36.0095 -36.6555z"/>
   <path id="_475164552" class="fil0" d="M1160.32 447.512l58.3748 -59.4225 11.3752 -11.5784 11.3752 11.5784 58.3748 59.4225 10.9902 11.1886 -10.9902 11.1862 -58.3748 59.4213 -11.3752 11.5795 -11.3752 -11.5795 -58.3748 -59.4213 -10.9913 -11.1862 10.9913 -11.1886zm69.7501 -25.4681l-36.0095 36.6555 36.0095 36.6544 36.0095 -36.6544 -36.0095 -36.6555z"/>
   <path id="_475164312" class="fil0" d="M1297.7 447.512l58.3748 -59.4225 11.3752 -11.5784 11.3752 11.5784 58.3748 59.4225 10.9902 11.1886 -10.9902 11.1862 -58.3748 59.4213 -11.3752 11.5795 -11.3752 -11.5795 -58.3748 -59.4213 -10.9913 -11.1862 10.9913 -11.1886zm69.7501 -25.4681l-36.0095 36.6555 36.0095 36.6544 36.0095 -36.6544 -36.0095 -36.6555z"/>
   <path id="_475164720" class="fil0" d="M1435.08 447.512l58.3748 -59.4225 11.3752 -11.5784 11.3752 11.5784 58.3737 59.4225 10.989 11.1886 -10.989 11.1862 -58.3737 59.4213 -11.3752 11.5795 -11.3752 -11.5795 -58.3748 -59.4213 -10.9913 -11.1862 10.9913 -11.1886zm69.7501 -25.4681l-36.0095 36.6555 36.0095 36.6544 36.0083 -36.6544 -36.0083 -36.6555z"/>
   <polygon id="_475164960" class="fil0" points="477.641,1679.21 477.641,1741.71 445.64,1741.71 445.64,1679.21 "/>
   <polygon id="_475164888" class="fil0" points="429.544,1735.4 450.264,1714.31 461.639,1702.73 473.014,1714.31 493.735,1735.4 504.727,1746.59 493.735,1757.78 473.014,1778.87 461.639,1790.45 450.264,1778.87 429.544,1757.78 418.555,1746.59 "/>
   <polygon id="_475164936" class="fil0" points="564.158,1679.21 564.158,1741.71 532.157,1741.71 532.157,1679.21 "/>
   <polygon id="_475164768" class="fil0" points="516.061,1735.4 536.781,1714.31 548.156,1702.73 559.531,1714.31 580.252,1735.4 591.244,1746.59 580.252,1757.78 559.531,1778.87 548.156,1790.45 536.781,1778.87 516.061,1757.78 505.072,1746.59 "/>
   <polygon id="_475164144" class="fil0" points="650.675,1679.21 650.675,1741.71 618.674,1741.71 618.674,1679.21 "/>
   <polygon id="_475163808" class="fil0" points="602.578,1735.4 623.298,1714.31 634.673,1702.73 646.048,1714.31 666.769,1735.4 677.761,1746.59 666.769,1757.78 646.048,1778.87 634.673,1790.45 623.298,1778.87 602.578,1757.78 591.589,1746.59 "/>
   <polygon id="_475163736" class="fil0" points="737.192,1679.21 737.192,1741.71 705.191,1741.71 705.191,1679.21 "/>
   <polygon id="_475163712" class="fil0" points="689.095,1735.4 709.815,1714.31 721.19,1702.73 732.565,1714.31 753.286,1735.4 764.278,1746.59 753.286,1757.78 732.565,1778.87 721.19,1790.45 709.815,1778.87 689.095,1757.78 678.106,1746.59 "/>
   <polygon id="_475163568" class="fil0" points="823.709,1679.21 823.709,1741.71 791.708,1741.71 791.708,1679.21 "/>
   <polygon id="_475163544" class="fil0" points="775.612,1735.4 796.332,1714.31 807.707,1702.73 819.082,1714.31 839.803,1735.4 850.795,1746.59 839.803,1757.78 819.082,1778.87 807.707,1790.45 796.332,1778.87 775.612,1757.78 764.623,1746.59 "/>
   <polygon id="_475163688" class="fil0" points="910.226,1679.21 910.226,1741.71 878.225,1741.71 878.225,1679.21 "/>
   <polygon id="_475164120" class="fil0" points="862.129,1735.4 882.849,1714.31 894.224,1702.73 905.599,1714.31 926.32,1735.4 937.312,1746.59 926.32,1757.78 905.599,1778.87 894.224,1790.45 882.849,1778.87 862.129,1757.78 851.14,1746.59 "/>
   <polygon id="_475164072" class="fil0" points="996.742,1679.21 996.742,1741.71 964.742,1741.71 964.742,1679.21 "/>
   <polygon id="_475164216" class="fil0" points="948.646,1735.4 969.366,1714.31 980.741,1702.73 992.116,1714.31 1012.84,1735.4 1023.83,1746.59 1012.84,1757.78 992.116,1778.87 980.741,1790.45 969.366,1778.87 948.646,1757.78 937.657,1746.59 "/>
   <polygon id="_475163424" class="fil0" points="1083.26,1679.21 1083.26,1741.71 1051.26,1741.71 1051.26,1679.21 "/>
   <polygon id="_475163280" class="fil0" points="1035.16,1735.4 1055.88,1714.31 1067.26,1702.73 1078.63,1714.31 1099.35,1735.4 1110.34,1746.59 1099.35,1757.78 1078.63,1778.87 1067.26,1790.45 1055.88,1778.87 1035.16,1757.78 1024.17,1746.59 "/>
   <polygon id="_475162752" class="fil0" points="1169.78,1679.21 1169.78,1741.71 1137.78,1741.71 1137.78,1679.21 "/>
   <polygon id="_475162968" class="fil0" points="1121.68,1735.4 1142.4,1714.31 1153.77,1702.73 1165.15,1714.31 1185.87,1735.4 1196.86,1746.59 1185.87,1757.78 1165.15,1778.87 1153.77,1790.45 1142.4,1778.87 1121.68,1757.78 1110.69,1746.59 "/>
   <polygon id="_475163304" class="fil0" points="1256.29,1679.21 1256.29,1741.71 1224.29,1741.71 1224.29,1679.21 "/>
   <polygon id="_475163088" class="fil0" points="1208.2,1735.4 1228.92,1714.31 1240.29,1702.73 1251.67,1714.31 1272.39,1735.4 1283.38,1746.59 1272.39,1757.78 1251.67,1778.87 1240.29,1790.45 1228.92,1778.87 1208.2,1757.78 1197.21,1746.59 "/>
   <polygon id="_475162920" class="fil0" points="1342.81,1679.21 1342.81,1741.71 1310.81,1741.71 1310.81,1679.21 "/>
   <polygon id="_475163496" class="fil0" points="1294.71,1735.4 1315.43,1714.31 1326.81,1702.73 1338.18,1714.31 1358.91,1735.4 1369.9,1746.59 1358.91,1757.78 1338.18,1778.87 1326.81,1790.45 1315.43,1778.87 1294.71,1757.78 1283.72,1746.59 "/>
   <polygon id="_475163112" class="fil0" points="1429.33,1679.21 1429.33,1741.71 1397.33,1741.71 1397.33,1679.21 "/>
   <polygon id="_475163352" class="fil0" points="1381.23,1735.4 1401.95,1714.31 1413.32,1702.73 1424.7,1714.31 1445.42,1735.4 1456.41,1746.59 1445.42,1757.78 1424.7,1778.87 1413.32,1790.45 1401.95,1778.87 1381.23,1757.78 1370.24,1746.59 "/>
   <polygon id="_475162992" class="fil0" points="1515.84,1679.21 1515.84,1741.71 1483.84,1741.71 1483.84,1679.21 "/>
   <polygon id="_475162512" class="fil0" points="1467.75,1735.4 1488.47,1714.31 1499.84,1702.73 1511.22,1714.31 1531.94,1735.4 1542.93,1746.59 1531.94,1757.78 1511.22,1778.87 1499.84,1790.45 1488.47,1778.87 1467.75,1757.78 1456.76,1746.59 "/>
   <polygon id="_475162416" class="fil0" points="1602.36,1679.21 1602.36,1741.71 1570.36,1741.71 1570.36,1679.21 "/>
   <polygon id="_475162032" class="fil0" points="1554.27,1735.4 1574.99,1714.31 1586.36,1702.73 1597.74,1714.31 1618.46,1735.4 1629.45,1746.59 1618.46,1757.78 1597.74,1778.87 1586.36,1790.45 1574.99,1778.87 1554.27,1757.78 1543.28,1746.59 "/>
   <polygon id="_475162440" class="fil0" points="445.64,368.792 445.64,306.292 477.641,306.292 477.641,368.792 "/>
   <polygon id="_475162368" class="fil0" points="450.264,333.692 429.544,312.6 418.555,301.413 429.544,290.225 450.264,269.133 461.639,257.555 473.014,269.133 493.735,290.225 504.727,301.413 493.735,312.6 473.014,333.692 461.639,345.272 "/>
   <polygon id="_475162536" class="fil0" points="532.157,368.792 532.157,306.292 564.158,306.292 564.158,368.792 "/>
   <polygon id="_475161648" class="fil0" points="536.781,333.692 516.061,312.6 505.072,301.413 516.061,290.225 536.781,269.133 548.156,257.555 559.531,269.133 580.252,290.225 591.244,301.413 580.252,312.6 559.531,333.692 548.156,345.272 "/>
   <polygon id="_475161504" class="fil0" points="618.674,368.792 618.674,306.292 650.675,306.292 650.675,368.792 "/>
   <polygon id="_475161480" class="fil0" points="623.298,333.692 602.578,312.6 591.589,301.413 602.578,290.225 623.298,269.133 634.673,257.555 646.048,269.133 666.769,290.225 677.761,301.413 666.769,312.6 646.048,333.692 634.673,345.272 "/>
   <polygon id="_475161864" class="fil0" points="705.191,368.792 705.191,306.292 737.192,306.292 737.192,368.792 "/>
   <polygon id="_475161816" class="fil0" points="709.815,333.692 689.095,312.6 678.106,301.413 689.095,290.225 709.815,269.133 721.19,257.555 732.565,269.133 753.286,290.225 764.278,301.413 753.286,312.6 732.565,333.692 721.19,345.272 "/>
   <polygon id="_475161264" class="fil0" points="791.708,368.792 791.708,306.292 823.709,306.292 823.709,368.792 "/>
   <polygon id="_475161384" class="fil0" points="796.332,333.692 775.612,312.6 764.623,301.413 775.612,290.225 796.332,269.133 807.707,257.555 819.082,269.133 839.803,290.225 850.795,301.413 839.803,312.6 819.082,333.692 807.707,345.272 "/>
   <polygon id="_475161216" class="fil0" points="878.225,368.792 878.225,306.292 910.226,306.292 910.226,368.792 "/>
   <polygon id="_475161432" class="fil0" points="882.849,333.692 862.129,312.6 851.14,301.413 862.129,290.225 882.849,269.133 894.224,257.555 905.599,269.133 926.32,290.225 937.312,301.413 926.32,312.6 905.599,333.692 894.224,345.272 "/>
   <polygon id="_475161336" class="fil0" points="964.742,368.792 964.742,306.292 996.742,306.292 996.742,368.792 "/>
   <polygon id="_475161912" class="fil0" points="969.366,333.692 948.646,312.6 937.657,301.413 948.646,290.225 969.366,269.133 980.741,257.555 992.116,269.133 1012.84,290.225 1023.83,301.413 1012.84,312.6 992.116,333.692 980.741,345.272 "/>
   <polygon id="_475160544" class="fil0" points="1051.26,368.792 1051.26,306.292 1083.26,306.292 1083.26,368.792 "/>
   <polygon id="_475160520" class="fil0" points="1055.88,333.692 1035.16,312.6 1024.17,301.413 1035.16,290.225 1055.88,269.133 1067.26,257.555 1078.63,269.133 1099.35,290.225 1110.34,301.413 1099.35,312.6 1078.63,333.692 1067.26,345.272 "/>
   <polygon id="_475160952" class="fil0" points="1137.78,368.792 1137.78,306.292 1169.78,306.292 1169.78,368.792 "/>
   <polygon id="_475160832" class="fil0" points="1142.4,333.692 1121.68,312.6 1110.69,301.413 1121.68,290.225 1142.4,269.133 1153.77,257.555 1165.15,269.133 1185.87,290.225 1196.86,301.413 1185.87,312.6 1165.15,333.692 1153.77,345.272 "/>
   <polygon id="_475160904" class="fil0" points="1224.29,368.792 1224.29,306.292 1256.29,306.292 1256.29,368.792 "/>
   <polygon id="_475160448" class="fil0" points="1228.92,333.692 1208.2,312.6 1197.21,301.413 1208.2,290.225 1228.92,269.133 1240.29,257.555 1251.67,269.133 1272.39,290.225 1283.38,301.413 1272.39,312.6 1251.67,333.692 1240.29,345.272 "/>
   <polygon id="_475160856" class="fil0" points="1310.81,368.792 1310.81,306.292 1342.81,306.292 1342.81,368.792 "/>
   <polygon id="_475161072" class="fil0" points="1315.43,333.692 1294.71,312.6 1283.72,301.413 1294.71,290.225 1315.43,269.133 1326.81,257.555 1338.18,269.133 1358.91,290.225 1369.9,301.413 1358.91,312.6 1338.18,333.692 1326.81,345.272 "/>
   <polygon id="_475160592" class="fil0" points="1397.33,368.792 1397.33,306.292 1429.33,306.292 1429.33,368.792 "/>
   <polygon id="_475160880" class="fil0" points="1401.95,333.692 1381.23,312.6 1370.24,301.413 1381.23,290.225 1401.95,269.133 1413.32,257.555 1424.7,269.133 1445.42,290.225 1456.41,301.413 1445.42,312.6 1424.7,333.692 1413.32,345.272 "/>
   <polygon id="_475160136" class="fil0" points="1483.84,368.792 1483.84,306.292 1515.84,306.292 1515.84,368.792 "/>
   <polygon id="_475159752" class="fil0" points="1488.47,333.692 1467.75,312.6 1456.76,301.413 1467.75,290.225 1488.47,269.133 1499.84,257.555 1511.22,269.133 1531.94,290.225 1542.93,301.413 1531.94,312.6 1511.22,333.692 1499.84,345.272 "/>
   <polygon id="_475160304" class="fil0" points="1570.36,368.792 1570.36,306.292 1602.36,306.292 1602.36,368.792 "/>
   <polygon id="_475159848" class="fil0" points="1574.99,333.692 1554.27,312.6 1543.28,301.413 1554.27,290.225 1574.99,269.133 1586.36,257.555 1597.74,269.133 1618.46,290.225 1629.45,301.413 1618.46,312.6 1597.74,333.692 1586.36,345.272 "/>
   <path id="_475159824" class="fil0" d="M545.621 677.628l13.865 -13.865 4.68898 -4.6878 6.62363 0 26.3988 0 0 -26.4 0 -6.62481 4.6878 -4.6878 13.8638 -13.8638 -70.128 0 0 70.1292zm31.8024 13.448l-63.4276 57.2079 -0.375591 -172.786c59.7934,0 119.587,0 179.38,0l-63.802 63.802 0 35.7756 0 16.0004 -16.0004 0 -35.7744 0z"/>
   <path id="_475159944" class="fil0" d="M1472.38 691.077l-35.7744 0 -16.0004 0 0 -16.0004 0 -35.7756 -36.489 -36.489 -27.313 -27.313 38.6256 0 124.754 0 16.0004 0 0 16.0004 -0.296457 157.567 -63.5067 -57.9898zm17.9374 -27.313l13.865 13.865 0 -70.1292 -70.128 0 13.8638 13.8638 4.6878 4.6878 0 6.62481 0 26.4 26.3988 0 6.62363 0 4.68898 4.6878z"/>
   <path id="_475160280" class="fil0" d="M577.424 1354.8l35.7744 0 16.0004 0 0 16.0004 0 35.7756 36.489 36.489 27.313 27.313c-59.7934,0 -119.587,0 -179.38,0l0.37441 -178.566 63.4288 62.9882zm-17.9374 27.313l-13.865 -13.865 0 70.1292 70.128 0 -13.8638 -13.8638 -4.6878 -4.6878 0 -6.62481 0 -26.4 -26.3988 0 -6.62363 0 -4.68898 -4.6878z"/>
   <path id="_475160256" class="fil0" d="M1504.18 1368.25l-13.865 13.865 -4.68898 4.6878 -6.62363 0 -26.3988 0 0 26.4 0 6.62481 -4.6878 4.6878 -13.8638 13.8638 70.128 0 0 -70.1292zm-31.8024 -13.448l63.7406 -58.6134 0.0625985 158.191 0 16.0004 -16.0004 0 -124.754 0 -38.6256 0 27.313 -27.313 36.489 -36.489 0 -35.7756 0 -16.0004 16.0004 0 35.7744 0z"/>
  </g>
 </g>
 <rect class="fil1" width="2048" height="2048"/>
</svg>
