<?xml version="1.0" encoding="UTF-8"?>
<!DOCTYPE svg PUBLIC "-//W3C//DTD SVG 1.1//EN" "http://www.w3.org/Graphics/SVG/1.1/DTD/svg11.dtd">
<!-- Creator: CorelDRAW -->
<svg xmlns="http://www.w3.org/2000/svg" xml:space="preserve" width="2048px" height="2048px" style="shape-rendering:geometricPrecision; text-rendering:geometricPrecision; image-rendering:optimizeQuality; fill-rule:evenodd; clip-rule:evenodd"
viewBox="0 0 2048 2048"
 xmlns:xlink="http://www.w3.org/1999/xlink">
 <defs>
  <style type="text/css">
   <![CDATA[
    .fil1 {fill:none}
    .fil0 {fill:#212121;fill-rule:nonzero}
   ]]>
  </style>
 </defs>
 <g id="Layer_x0020_1">
  <metadata id="CorelCorpID_0Corel-Layer"/>
  <path class="fil0" d="M283.022 510.265c134.171,-34.2815 267.723,-43.9571 394.571,-30.4016 129.624,13.8532 252.406,51.9402 361.901,112.793l0.0519685 -0.0921261c11.4177,6.34489 17.4331,18.6437 16.3299,30.8658l-0.0011811 918.687 0.124016 0c0,17.6728 -14.3268,31.9996 -31.9996,31.9996 -7.11497,0 -13.6854,-2.32323 -18.9992,-6.2504 -100.369,-62.8571 -222.166,-102.64 -346.077,-117.397 -125.164,-14.9055 -251.903,-4.20237 -360.273,34.1138l0.0188977 0.0531496c-16.6618,5.89134 -34.9477,-2.83937 -40.839,-19.5012 -1.31929,-3.73111 -1.90276,-7.54489 -1.83071,-11.2819l0 -911.974c0,-15.9791 11.7142,-29.224 27.0236,-31.6146zm387.82 33.0992c-112.904,-12.065 -231.458,-4.61693 -350.842,23.4425l0 843.994c107.531,-30.4902 227.899,-37.9465 346.422,-23.8323 114.249,13.6051 227.206,47.3126 325.701,99.7926l0.0011811 -847.208c-97.7139,-51.4701 -206.511,-83.9245 -321.283,-96.1891z"/>
  <path class="fil0" d="M1728 566.807c-119.384,-28.0595 -237.938,-35.5075 -350.842,-23.4425 -114.771,12.2646 -223.569,44.7189 -321.283,96.1891l0.0011811 847.208c98.4946,-52.48 211.452,-86.1875 325.701,-99.7926 118.524,-14.1142 238.891,-6.65788 346.422,23.8323l0 -843.994zm-357.593 -86.9434c126.848,-13.5555 260.4,-3.87992 394.571,30.4016 15.3095,2.39055 27.0236,15.6354 27.0236,31.6146l0 911.974c0.0720473,3.73701 -0.511418,7.55079 -1.83071,11.2819 -5.89134,16.6618 -24.1772,25.3925 -40.839,19.5012l0.0188977 -0.0531496c-108.37,-38.3162 -235.109,-49.0193 -360.273,-34.1138 -123.912,14.7567 -245.708,54.5398 -346.077,117.397 -5.31378,3.92717 -11.8843,6.2504 -18.9992,6.2504 -17.6728,0 -31.9996,-14.3268 -31.9996,-31.9996l0.124016 0 -0.0011811 -918.687c-1.10315,-12.2221 4.91221,-24.5209 16.3299,-30.8658l0.0519685 0.0921261c109.494,-60.8528 232.277,-98.9398 361.901,-112.793z"/>
  <path class="fil0" d="M1358.28 951.057l22.1457 -81.5918 11.5784 -42.6567 11.5784 42.6567 22.089 81.3827 81.4264 21.8173 42.5918 11.413 -42.5445 11.6965 -81.4158 22.3831 -22.1469 81.593 -11.5784 42.6544 -11.5784 -42.6544 -22.0902 -81.3816 -81.4264 -21.8185 -42.5918 -11.4118 42.5445 -11.6976 81.4182 -22.3843zm33.724 -32.654l-12.3484 45.4949 -1.7811 6.56103 -6.6567 1.82953 -45.5315 12.5185 45.5162 12.1961 6.68032 1.79055 1.80473 6.64725 12.3165 45.3733 12.3496 -45.4973 1.77992 -6.55985 6.65788 -1.83071 45.5268 -12.5173 -45.5138 -12.1949 -6.6815 -1.78937 -1.80354 -6.64843 -12.3154 -45.3733z"/>
  <path class="fil0" d="M1392 700.608c78.4229,0 149.424,31.7894 200.817,83.1827 51.3933,51.3933 83.1827,122.394 83.1827,200.817 0,78.4217 -31.7894,149.425 -83.1827,200.818 -51.3933,51.3933 -122.394,83.1827 -200.817,83.1827 -78.4217,0 -149.425,-31.7894 -200.818,-83.1827 -51.3933,-51.3933 -83.1827,-122.394 -83.1827,-200.818 0,-78.4229 31.7894,-149.424 83.1827,-200.817 51.3933,-51.3933 122.397,-83.1827 200.818,-83.1827zm183.849 100.15c-47.0492,-47.0492 -112.05,-76.1505 -183.849,-76.1505 -71.7993,0 -136.801,29.1012 -183.851,76.1505 -47.0492,47.0492 -76.1505,112.05 -76.1505,183.849 0,71.7993 29.1012,136.801 76.1505,183.851 47.0492,47.0492 112.051,76.1505 183.851,76.1505 71.7993,0 136.8,-29.1012 183.849,-76.1505 47.0492,-47.0492 76.1505,-112.051 76.1505,-183.851 0,-71.7993 -29.1012,-136.8 -76.1505,-183.849z"/>
  <g id="_475167792">
   <polygon id="_475167864" class="fil0" points="1374.23,798.608 1374.23,754.609 1382.88,754.609 1400.89,783.989 1400.89,754.609 1409.14,754.609 1409.14,798.608 1400.22,798.608 1382.49,769.914 1382.49,798.608 "/>
   <path id="_475167648" class="fil0" d="M1375.2 1200.02l8.35631 -0.822048c0.496063,2.81221 1.51536,4.87087 3.05906,6.1878 1.53543,1.30748 3.60473,1.97126 6.21851,1.97126 2.7626,0 4.85197,-0.584646 6.24686,-1.76339 1.40669,-1.16811 2.10945,-2.53347 2.10945,-4.09843 0,-1.00984 -0.296457,-1.86142 -0.890552,-2.56418 -0.584646,-0.713386 -1.61457,-1.32638 -3.08977,-1.84134 -1.00039,-0.356693 -3.29646,-0.970867 -6.87166,-1.86142 -4.60394,-1.13858 -7.8319,-2.54528 -9.68268,-4.20827 -2.61378,-2.3374 -3.92126,-5.18859 -3.92126,-8.55355 0,-2.16969 0.614174,-4.18819 1.84134,-6.08032 1.22835,-1.8815 3.00118,-3.31654 5.30788,-4.3063 2.31732,-0.980316 5.09882,-1.4752 8.36694,-1.4752 5.34567,0 9.35552,1.16811 12.0591,3.50433 2.69292,2.34685 4.10906,5.46496 4.24725,9.37678l-8.58426 0.375591c-0.366142,-2.1874 -1.15866,-3.76181 -2.36575,-4.7126 -1.20827,-0.960237 -3.02008,-1.43622 -5.43662,-1.43622 -2.49449,0 -4.45512,0.505512 -5.86063,1.53543 -0.910631,0.65315 -1.36654,1.53425 -1.36654,2.63386 0,1.00984 0.425197,1.87087 1.27677,2.58425 1.07953,0.910631 3.71339,1.86142 7.89095,2.84173 4.17874,0.989765 7.26733,2.00906 9.26812,3.05906 1.99961,1.05945 3.56457,2.49449 4.70197,4.32638 1.12913,1.83189 1.6937,4.08898 1.6937,6.77245 0,2.43543 -0.673229,4.72205 -2.02914,6.84095 -1.35709,2.12953 -3.26811,3.71339 -5.74252,4.74331 -2.47559,1.03937 -5.56418,1.55315 -9.25867,1.55315 -5.3752,0 -9.50434,-1.23662 -12.3862,-3.72166 -2.88071,-2.48504 -4.60394,-6.10867 -5.15788,-10.8614z"/>
  </g>
  <g id="_475166616">
   <polygon id="_475167144" class="fil0" points="1178.83,1006.61 1168.33,962.61 1177.41,962.61 1184.05,992.83 1192.09,962.61 1202.66,962.61 1210.37,993.342 1217.12,962.61 1226.06,962.61 1215.38,1006.61 1205.95,1006.61 1197.2,973.713 1188.46,1006.61 "/>
   <polygon id="_475167312" class="fil0" points="1580.76,1006.61 1580.76,962.61 1614.8,962.61 1614.8,970.057 1590.03,970.057 1590.03,979.809 1613.08,979.809 1613.08,987.216 1590.03,987.216 1590.03,999.191 1615.67,999.191 1615.67,1006.61 "/>
  </g>
  <path class="fil0" d="M486.028 609.799c14.1969,0 27.0508,5.75552 36.3567,15.0614 9.30355,9.30355 15.0614,22.1587 15.0614,36.3555 0,12.0827 -19.5886,60.1406 -31.9075,90.3662 -3.86811,9.49135 -7.02048,17.2217 -8.30788,20.6362l-11.2028 -4.2189 11.2276 4.23544c-2.33858,6.20079 -9.26221,9.33072 -15.463,6.99213 -3.62362,-1.36654 -6.19607,-4.29803 -7.24489,-7.73623 -1.42913,-3.71339 -4.41969,-11.0504 -8.03741,-19.9288 -12.3189,-30.2268 -31.8992,-78.2705 -31.8992,-90.3461 0,-14.1969 5.75552,-27.052 15.0614,-36.3555 9.30355,-9.30591 22.1587,-15.0614 36.3555,-15.0614zm19.389 32.0292c-4.96063,-4.96063 -11.8158,-8.02914 -19.389,-8.02914 -7.57323,0 -14.4284,3.06969 -19.3878,8.02914 -4.95945,4.95945 -8.02914,11.8146 -8.02914,19.3878 0,6.89292 15.8362,46.2638 27.417,74.7166 11.5795,-28.4516 27.4181,-67.8213 27.4181,-74.7166 0,-7.57205 -3.06969,-14.4284 -8.02914,-19.3878z"/>
  <path class="fil0" d="M824.583 948c14.1969,0 27.0508,5.75552 36.3567,15.0614 9.30355,9.30355 15.0614,22.1587 15.0614,36.3555 0,12.0827 -19.5886,60.1406 -31.9075,90.3662 -3.86811,9.49135 -7.02048,17.2217 -8.30788,20.6362l-11.2028 -4.2189 11.2276 4.23544c-2.33858,6.20079 -9.26221,9.33072 -15.463,6.99213 -3.62362,-1.36654 -6.19607,-4.29803 -7.24489,-7.73623 -1.42913,-3.71339 -4.41969,-11.0504 -8.03741,-19.9288 -12.3189,-30.2268 -31.8992,-78.2705 -31.8992,-90.3461 0,-14.1969 5.75552,-27.052 15.0614,-36.3555 9.30355,-9.30591 22.1587,-15.0614 36.3555,-15.0614zm19.389 32.0292c-4.96063,-4.96063 -11.8158,-8.02914 -19.389,-8.02914 -7.57323,0 -14.4284,3.06969 -19.3878,8.02914 -4.95945,4.95945 -8.02914,11.8146 -8.02914,19.3878 0,6.89292 15.8362,46.2638 27.417,74.7166 11.5795,-28.4516 27.4181,-67.8213 27.4181,-74.7166 0,-7.57205 -3.06969,-14.4284 -8.02914,-19.3878z"/>
  <path class="fil0" d="M551.417 993.799c14.1969,0 27.0508,5.75552 36.3567,15.0614 9.30355,9.30355 15.0614,22.1587 15.0614,36.3555 0,12.0827 -19.5886,60.1406 -31.9075,90.3662 -3.86811,9.49135 -7.02048,17.2217 -8.30788,20.6362l-11.2028 -4.2189 11.2276 4.23544c-2.33858,6.20079 -9.26221,9.33072 -15.463,6.99213 -3.62362,-1.36654 -6.19607,-4.29803 -7.24489,-7.73623 -1.42913,-3.71339 -4.41969,-11.0504 -8.03741,-19.9288 -12.3189,-30.2268 -31.8992,-78.2705 -31.8992,-90.3461 0,-14.1945 5.75552,-27.052 15.0614,-36.3555 9.30355,-9.30591 22.1587,-15.0614 36.3555,-15.0614zm19.389 32.0292c-4.96063,-4.96063 -11.8158,-8.02914 -19.389,-8.02914 -7.57323,0 -14.4284,3.06969 -19.3878,8.02914 -4.95945,4.95945 -8.02914,11.8158 -8.02914,19.3878 0,6.89292 15.8362,46.2638 27.417,74.7166 11.5795,-28.4516 27.4181,-67.8213 27.4181,-74.7166 0,-7.57205 -3.06969,-14.4284 -8.02914,-19.3878z"/>
  <path class="fil0" d="M387.875 784.499c-8.55946,-2.14016 -17.2347,3.06496 -19.3748,11.6244 -2.14016,8.55946 3.06496,17.2347 11.6244,19.3748l512 128c8.55946,2.14016 17.2347,-3.06496 19.3748,-11.6244 2.14016,-8.55946 -3.06496,-17.2347 -11.6244,-19.3748l-512 -128z"/>
  <path class="fil0" d="M783.938 703.312c-0.379134,-8.80158 -7.82363,-15.6295 -16.6252,-15.2504 -8.80158,0.379134 -15.6295,7.82363 -15.2504,16.6252 7.92048,181.298 -62.3292,311.96 -122.392,423.678 -27.7075,51.5363 -53.3115,99.1572 -68.8583,146.698 -2.72599,8.38701 1.86378,17.3988 10.2508,20.1248 8.38701,2.72599 17.3988,-1.86378 20.1248,-10.2508 14.6587,-44.8241 39.6083,-91.2284 66.6071,-141.447 61.9689,-115.264 134.447,-250.074 126.143,-440.178z"/>
  <path class="fil0" d="M412.438 1232.44c-8.59371,1.96654 -13.9665,10.5307 -12,19.1244 1.96654,8.59371 10.5307,13.9665 19.1244,12l468.204 -107.924c8.59371,-1.96654 13.9665,-10.5307 12,-19.1244 -1.96654,-8.59371 -10.5307,-13.9665 -19.1244,-12l-468.204 107.924z"/>
  <path class="fil0" d="M390.688 881.499c-8.00788,-3.69331 -17.4945,-0.194882 -21.1878,7.813 -3.69331,8.00788 -0.194882,17.4945 7.813,21.1878 64.0819,29.5701 51.5327,74.7886 34.6477,135.623 -15.6449,56.3717 -34.4894,124.273 -11.335,206.19 2.3811,8.49095 11.1957,13.4433 19.6866,11.0622 8.49095,-2.3811 13.4433,-11.1957 11.0622,-19.6866 -20.7567,-73.4339 -3.22205,-136.613 11.335,-189.066 21.0461,-75.8256 36.6886,-132.188 -52.0217,-173.123z"/>
 </g>
 <rect class="fil1" width="2048" height="2048"/>
</svg>
