<?xml version="1.0" encoding="UTF-8"?>
<!DOCTYPE svg PUBLIC "-//W3C//DTD SVG 1.1//EN" "http://www.w3.org/Graphics/SVG/1.1/DTD/svg11.dtd">
<!-- Creator: CorelDRAW -->
<svg xmlns="http://www.w3.org/2000/svg" xml:space="preserve" width="2048px" height="2048px" style="shape-rendering:geometricPrecision; text-rendering:geometricPrecision; image-rendering:optimizeQuality; fill-rule:evenodd; clip-rule:evenodd"
viewBox="0 0 2048 2048"
 xmlns:xlink="http://www.w3.org/1999/xlink">
 <defs>
  <style type="text/css">
   <![CDATA[
    .fil1 {fill:none}
    .fil0 {fill:#212121;fill-rule:nonzero}
   ]]>
  </style>
 </defs>
 <g id="Layer_x0020_1">
  <metadata id="CorelCorpID_0Corel-Layer"/>
  <path class="fil0" d="M697.014 1089.69c4.5626,0 10.213,0.37441 15.8386,0.744095 7.19056,0.474804 13.5272,1.38898 13.9276,1.16811 0.218504,-0.120473 -10.3559,-17.8169 -50.6481,-90.6568 -25.3063,-45.7512 -45.3366,-96.8776 -58.9099,-151.834 -13.0807,-52.9583 -20.1508,-109.239 -20.1508,-167.425 0,-142.676 42.0544,-244.767 111.128,-313.623 78.8764,-78.6296 191.401,-112.068 315.801,-112.068 124.4,0 236.925,33.4382 315.801,112.068 69.0733,68.856 111.128,170.947 111.128,313.623 0,67.2697 -9.37324,131.777 -26.5016,191.387 -17.8347,62.067 -44.1922,118.95 -77.2394,168.245 -29.9953,44.7414 -56.25,47.5725 -49.278,52.2461 1.93937,1.30039 7.7126,-1.8626 20.3079,-2.59488 9.43702,-0.548032 19.8898,-1.15748 29.8264,-1.2626 5.79922,-1.15276 11.3339,-1.9311 16.6099,-2.35158 48.1772,-3.84922 90.6733,16.6949 123.63,50.4532 30.6638,31.4114 52.9229,74.8394 63.0378,119.966 2.71063,12.098 4.5567,23.948 5.46733,35.3433l37.102 464.333 0.0259843 -0.00236221c1.40669,17.6162 -11.7331,33.0402 -29.3492,34.4469 -0.855119,0.068504 -1.70551,0.101575 -2.54882,0.101575l0 0.0011811 -1076.04 0c-17.6728,0 -32.0008,-14.328 -32.0008,-32.0008 0,-1.31693 0.0814961,-2.61614 0.236221,-3.89174l36.9945 -462.988c4.50591,-56.4024 28.2071,-107.889 65.1922,-144.874 36.0874,-36.0874 84.7182,-58.4292 140.61,-58.428l0 -0.125197zm11.8394 64.4953c-3.73229,-0.245669 -7.47402,-0.493701 -11.8394,-0.493701l0 -0.125197c-37.6996,0 -70.6985,15.2658 -95.3599,39.9272 -26.4414,26.4414 -43.415,63.6166 -46.6914,104.624l-34.3488 429.878 1006.77 0 -34.3488 -429.878c-0.739371,-9.25394 -2.07756,-18.1618 -3.96733,-26.5937 -7.58623,-33.8457 -24.0236,-66.1536 -46.5378,-89.217 -20.224,-20.7166 -45.4016,-33.3957 -72.8776,-31.2012 -3.35551,0.26811 -6.55867,0.690945 -9.59174,1.27677 -2.87835,0.850394 -5.92323,1.30866 -9.07678,1.30866 -11.5973,0 -20.9244,0.544489 -29.2677,1.02874 -24.561,1.42795 -43.3796,2.5252 -59.3079,-8.15552 -30.6177,-20.5264 -25.2177,-55.7304 31.7764,-140.746 29.2418,-43.6181 52.6949,-94.4068 68.7402,-150.245 15.5114,-53.9835 24,-112.583 24,-173.888 0,-124.172 -34.8638,-211.29 -92.1261,-268.373 -65.6788,-65.4733 -162.419,-93.3166 -270.801,-93.3166 -108.382,0 -205.122,27.8433 -270.801,93.3166 -57.2622,57.0827 -92.1261,144.201 -92.1261,268.373 0,53.3398 6.36851,104.474 18.15,152.175 12.1795,49.3146 30.1701,95.2229 52.9099,136.334 65.0044,117.515 57.3248,159.749 25.3984,177.409 -15.8256,8.75198 -32.1898,7.67008 -48.678,6.58229zm651.21 -1.80236c-0.701575,0.135827 -1.3937,0.279921 -2.07638,0.433465"/>
  <path class="fil0" d="M1368.82 659.755l-60.4524 77.9091c-33.2575,42.8599 -81.3414,68.1154 -135.962,75.293 -48.5622,6.38032 -102.341,-1.7374 -154.989,-24.7169 -55.9559,24.3106 -112.435,31.4067 -162.362,22.878 -56.941,-9.72402 -105.353,-39.5114 -135.627,-87.1678l-43.578 -68.5949 -0.0236221 0.0141732c-9.47599,-14.9173 -5.06575,-34.6937 9.85158,-44.1697 0.638977,-0.4063 1.28976,-0.785434 1.94528,-1.14095 80.9351,-53.6634 209.156,-80.5005 336.373,-80.5005 128.617,0 258.267,27.4264 339.035,82.2768l-17.8748 26.3752 17.9776 -26.4732c14.6197,9.92835 18.424,29.8311 8.49568,44.4508 -0.864568,1.27205 -1.80473,2.46024 -2.80984,3.56693zm-110.952 38.9091l39.8705 -51.3839c-70.5142,-35.8099 -171.737,-53.7201 -273.742,-53.7201 -103.386,0 -205.967,18.398 -276.587,55.1847l26.0185 40.9559c20.1685,31.7492 53.1638,51.7205 92.3776,58.4174 41.0126,7.00512 88.7705,-0.262205 136.569,-23.3232 8.7319,-4.6004 19.4646,-5.11536 29.0067,-0.445276l-0.0590552 0.120473c45.5882,22.311 91.9867,30.6036 132.833,25.2366 38.1142,-5.00788 71.2855,-22.1386 93.7135,-51.0426z"/>
  <path class="fil0" d="M1480.52 1163.12c5.79804,-16.637 -2.98819,-34.8272 -19.6252,-40.6252 -16.637,-5.79804 -34.8272,2.98819 -40.6252,19.6252 -27.4807,78.8906 -81.1016,145.215 -150.395,191.916 -69.6508,46.9418 -155.118,73.9583 -245.875,73.9583 -90.4666,0 -175.642,-26.7803 -245.112,-73.3607 -69.0567,-46.3028 -122.666,-112.185 -150.477,-190.706 -5.86772,-16.637 -24.1134,-25.3677 -40.7504,-19.5 -16.637,5.86772 -25.3677,24.1134 -19.5,40.7504 32.504,91.7705 94.9253,168.612 175.228,222.456 79.8886,53.5654 177.417,84.3615 280.611,84.3615 103.709,0 201.613,-31.0347 281.625,-84.9591 80.3682,-54.1654 142.714,-131.532 174.895,-223.917z"/>
 </g>
 <rect class="fil1" width="2048" height="2048"/>
</svg>
