<?xml version="1.0" encoding="UTF-8"?>
<!DOCTYPE svg PUBLIC "-//W3C//DTD SVG 1.1//EN" "http://www.w3.org/Graphics/SVG/1.1/DTD/svg11.dtd">
<!-- Creator: CorelDRAW -->
<svg xmlns="http://www.w3.org/2000/svg" xml:space="preserve" width="2048px" height="2048px" style="shape-rendering:geometricPrecision; text-rendering:geometricPrecision; image-rendering:optimizeQuality; fill-rule:evenodd; clip-rule:evenodd"
viewBox="0 0 2048 2048"
 xmlns:xlink="http://www.w3.org/1999/xlink">
 <defs>
  <style type="text/css">
   <![CDATA[
    .fil1 {fill:none}
    .fil0 {fill:#212121;fill-rule:nonzero}
   ]]>
  </style>
 </defs>
 <g id="Layer_x0020_1">
  <metadata id="CorelCorpID_0Corel-Layer"/>
  <path class="fil0" d="M1153.6 670.167l218.134 327.201c0.571654,0.857481 1.0937,1.7315 1.57205,2.62087 34.4918,53.8052 55.2993,117.177 54.4359,176.288 -0.920079,63.0284 -25.6524,121.142 -82.9749,159.408l-259.615 225.626 393.763 -28.1256 -0.00354331 -0.046063c3.04843,-0.217323 6.02835,0 8.87835,0.598819 44.8902,7.88386 72.8138,54.3945 81.1418,105.111 2.69764,16.4303 3.45355,33.2776 2.14016,49.1126 -1.38307,16.6784 -5.09528,32.8288 -11.2866,47.0103 -14.7095,33.6981 -41.5323,55.4422 -82.0938,50.9374l3.49961 -31.7504 -3.53268 31.8047c-10.6028,-1.17756 -19.415,-7.41024 -24.3083,-16.0288l-28.6299 -40.4221 -510.577 49.2118 0.0106299 0.108662c-1.99016,0.191339 -3.95551,0.196063 -5.87835,0.0283465 -34.4433,-0.37441 -65.8335,-15.1618 -90.8576,-38.6197 -21.9603,-20.5854 -39.0733,-48.2115 -48.7489,-78.4997 -9.71694,-30.417 -11.9693,-63.7217 -4.16103,-95.5465 8.64804,-35.2429 29.315,-68.3457 65.3481,-93.469l257.074 -263.505 22.8756 22.2496 -22.9051 -22.3465c1.16693,-1.19646 2.40473,-2.28071 3.70158,-3.25512 10.6807,-9.73347 16.7539,-19.3075 18.4051,-28.7244 1.65118,-9.4193 -0.920079,-20.1508 -7.52481,-32.1331l-0.00354331 0.00236221 -0.669686 -1.07362 -0.0236221 0.0129921 -0.240945 -0.437008 -146.642 -234.966 -119.027 153.122 -25.2496 -19.6252 25.265 19.6394c-1.62402,2.08937 -3.45709,3.9189 -5.4437,5.48977 -10.4717,9.07205 -22.0276,16.5 -33.6012,21.691 -13.3913,6.00709 -27.0815,9.03544 -39.7772,8.34922l1.6252 -31.8756 -1.72795 31.9536c-1.2874,-0.0696851 -2.55118,-0.216142 -3.79016,-0.432284l-220.756 -25.0252c-24.3201,-0.27874 -46.4422,-9.98859 -62.7827,-25.6961 -16.9819,-16.3264 -27.7394,-39.1642 -28.2449,-64.6394l-0.11811 0.00236221 -0.00472441 -0.633071 -0.00236221 0 0 -0.00236221 0.0011811 -0.126378 0.00354331 -0.282284 0.0106299 -0.54567 0.00944883 -0.237402 0.0248032 -0.589371 0.0153543 -0.244488 0.0377953 -0.539764 0.0177165 -0.216142c0.399213,-24.1347 10.0878,-46.0748 25.6925,-62.3091 16.3228,-16.9807 39.1595,-27.737 64.6335,-28.2449l-0.00236221 -0.11811 0.635434 -0.00472441 0 -0.00236221 0.00236221 0 0.126378 0.0011811 0.274016 0.00354331 0.5563 0.0106299 0.217323 0.00826772 0.611811 0.0271654 0.205512 0.0129921 0.582284 0.0389764 0.33189 0.0295276 0.451181 0.0425197 0.429922 0.0496063 0.364961 0.0437008 0.359055 0.0496063 0.483071 0.0708662 0.198425 0.0330709 0.594095 0.101575 0.173622 0.0330709 0.609449 0.119291 0.216142 0.0472441 0.115748 0.0259843m780.315 144.657l-0.0826772 0.0555119 -218.134 -327.202 0.0519685 -0.034252c-3.6437,-4.53071 -7.8567,-8.60434 -12.5185,-12.2327 -17.0457,-13.2673 -38.9516,-18.065 -60.5339,-16.7516 -22.5803,1.3748 -44.2087,9.16182 -59.6634,20.8843 -4.41024,3.34488 -8.36339,7.19528 -11.6929,11.4732l-198.082 254.819c-6.63662,9.26694 -18.0248,14.6847 -30.1217,13.128l0.0153543 -0.121654 -197.726 -25.4469c-7.04292,0.61063 -13.3547,3.81378 -17.9977,8.64449 -4.63229,4.8189 -7.57796,11.2488 -7.90985,18.3154 0.0472441,0.608268 0.0779528,1.22362 0.090945,1.84134l0.0011811 0.0519685 -0.0011811 0 0.00826772 0.630709 0 0.00236221 -0.105118 0c0.315355,7.55552 3.60591,14.3504 8.72481,19.2709 4.81536,4.62874 11.2382,7.57205 18.3,7.90749 2.01024,-0.158268 4.06536,-0.12874 6.1441,0.106299l-0.00590552 0.056693 222.064 25.174 0.0318898 0.0011811 0 0.00236221 0.7063 0.080315c2.45788,-0.090945 5.80867,-1.09961 9.71694,-2.85236 5.27244,-2.36575 10.8898,-5.98701 16.4138,-10.6169l144.429 -185.801c2.3752,-3.33425 5.43189,-6.26693 9.12166,-8.57009 14.9929,-9.3567 34.7339,-4.78819 44.0906,10.2047l-27.1477 16.9429 27.1252 -16.8756 170.84 273.74c0.605906,0.8563 1.17638,1.75158 1.70551,2.68229l-27.8185 15.815 27.75 -15.75c14.6303,25.7351 19.9961,50.9965 15.6532,75.7571 -4.17284,23.7862 -17.074,45.6343 -39.0898,65.4544l-0.206693 0.217323 -0.0177165 -0.0177165 -0.696851 0.623623 -256.875 263.3c-1.90748,2.28307 -4.16693,4.33701 -6.763,6.0756l-0.0590552 -0.0874016c-23.3103,15.6118 -36.4807,36.0933 -41.791,57.7347 -4.91339,20.028 -3.38622,41.3351 2.91142,61.0465 6.33898,19.8414 17.4839,37.878 31.7481,51.2493 13.8886,13.0205 30.6154,21.2138 48.1902,21.365l524.894 -50.5926c11.8559,-2.15551 24.4358,2.50748 31.8603,12.9898l-26.1142 18.4961 25.9996 -18.3756 29.1189 41.113c2.45551,-2.27953 4.51418,-5.47678 6.16772,-9.26576 3.19725,-7.32402 5.18977,-16.5638 6.03544,-26.7614 0.915355,-11.0386 0.424016,-22.5673 -1.38898,-33.6118 -4.1126,-25.0453 -13.7102,-47.5347 -27.0591,-51.8386l-482.86 34.4894c-10.2319,1.28386 -20.8949,-2.39055 -28.167,-10.7575 -11.5925,-13.3394 -10.1776,-33.5528 3.16181,-45.1453l20.9917 24.1536 -20.8748 -24.1252 331.392 -288.006c1.60039,-1.62992 3.39803,-3.11339 5.39056,-4.41142l17.4685 26.8122 -17.3752 -26.7496 0.0779528 -0.0507874c38.6327,-25.1669 55.2804,-64.6843 55.9122,-107.943 0.677953,-46.4433 -16.2496,-97.1611 -44.3044,-140.974 -0.415748,-0.544489 -0.818505,-1.10433 -1.20354,-1.68189l0.0826772 -0.0555119 0 -0.0011811zm-164.967 -362.645l0.0011811 -0.0011811m-615.344 217.99l179.508 23.1012 187.729 -241.504c6.39686,-8.21812 14.4142,-15.9343 23.6929,-22.9725 25.2095,-19.1197 59.4567,-31.7587 94.4115,-33.8859 35.9516,-2.18858 73.2532,6.43229 103.536,30.0036 8.97757,6.98741 17.452,15.5303 25.2166,25.7669l-25.3748 19.2496 25.4965 -19.337c0.39567,0.520867 0.770079,1.05118 1.12795,1.58858"/>
  <path class="fil0" d="M896.242 320.001c-30.1559,0 -57.4559,12.2209 -77.2134,31.9796 -19.7587,19.7575 -31.9796,47.0575 -31.9796,77.2134 0,30.1559 12.2209,57.4559 31.9796,77.2134 19.7575,19.7587 47.0575,31.9796 77.2134,31.9796 30.1571,0 57.4571,-12.2209 77.2146,-31.9796 19.7587,-19.7575 31.9796,-47.0575 31.9796,-77.2134 0,-30.1559 -12.2209,-57.4559 -31.9796,-77.2134 -19.7575,-19.7587 -47.0575,-31.9796 -77.2146,-31.9796zm-122.464 -13.2709c31.3429,-31.3441 74.6422,-50.7307 122.464,-50.7307 47.8229,0 91.1221,19.3866 122.465,50.7307 31.3441,31.3429 50.7307,74.6422 50.7307,122.464 0,47.8217 -19.3866,91.1209 -50.7307,122.464 -31.3429,31.3441 -74.6422,50.7307 -122.465,50.7307 -47.8217,0 -91.1209,-19.3866 -122.464,-50.7307 -31.3441,-31.3429 -50.7307,-74.6422 -50.7307,-122.464 0,-47.8217 19.3866,-91.1209 50.7307,-122.464z"/>
 </g>
 <rect class="fil1" width="2048" height="2048"/>
</svg>
