<?xml version="1.0" encoding="UTF-8"?>
<!DOCTYPE svg PUBLIC "-//W3C//DTD SVG 1.1//EN" "http://www.w3.org/Graphics/SVG/1.1/DTD/svg11.dtd">
<!-- Creator: CorelDRAW -->
<svg xmlns="http://www.w3.org/2000/svg" xml:space="preserve" width="2048px" height="2048px" style="shape-rendering:geometricPrecision; text-rendering:geometricPrecision; image-rendering:optimizeQuality; fill-rule:evenodd; clip-rule:evenodd"
viewBox="0 0 2048 2048"
 xmlns:xlink="http://www.w3.org/1999/xlink">
 <defs>
  <style type="text/css">
   <![CDATA[
    .fil1 {fill:none}
    .fil0 {fill:#212121;fill-rule:nonzero}
   ]]>
  </style>
 </defs>
 <g id="Layer_x0020_1">
  <metadata id="CorelCorpID_0Corel-Layer"/>
  <g id="_475168992">
   <path id="_475170360" class="fil0" d="M1653.06 760.755c-207.241,-20.2654 -442.327,-40.4634 -672.166,-45.5162 -229.736,-5.04804 -454.589,5.00433 -641.559,45.267l0.011811 0.0543308c-17.276,3.72048 -34.3004,-7.26851 -38.0209,-24.5445 -0.538583,-2.49921 -0.766536,-4.99252 -0.714567,-7.44095 0.132284,-240.569 67.3855,-350.341 191.974,-390.34 118.021,-37.8922 282.631,-6.84331 490.197,33.1701 86.1095,16.6004 163.148,28.3595 230.855,38.6929 282.092,43.0536 410.156,62.602 476.068,310.994l0.0720473 -0.0188977c4.53071,17.0823 -5.64331,34.6051 -22.7256,39.1359 -4.72559,1.25315 -9.48426,1.37953 -13.9925,0.546851zm-670.916 -109.267c215.753,4.74213 435.079,22.5921 632.065,41.4272 -59.8111,-166.096 -175.901,-183.827 -410.072,-219.567 -67.4859,-10.2992 -144.273,-22.0205 -233.354,-39.1937 -198.727,-38.3091 -356.208,-68.0741 -458.697,-35.1685 -89.5324,28.7445 -140.518,111.403 -146.809,291.11 183.626,-34.7315 398.249,-43.4126 616.867,-38.6079z"/>
   <path id="_475169832" class="fil0" d="M750.727 348.715c-10.0784,14.4272 -6.55276,34.2969 7.87442,44.3752 14.4272,10.0784 34.2969,6.55276 44.3752,-7.87442 19.8543,-28.3666 71.7745,-48.2103 137.317,-58.2721 64.0749,-9.83505 139.108,-9.44883 210.343,1.98662 70.2095,11.2713 136.246,33.0697 183.448,66.1087 35.5796,24.9024 59.9658,56.2276 65.7815,94.115 2.62323,17.465 18.9106,29.4981 36.3756,26.8748 17.465,-2.62323 29.4981,-18.9106 26.8748,-36.3756 -8.72245,-56.8241 -42.9603,-102.168 -92.5312,-136.864 -55.5662,-38.8937 -130.949,-64.1764 -209.949,-76.8591 -77.9764,-12.5185 -159.96,-12.9638 -229.843,-2.23701 -81.8552,12.5669 -149.433,41.2571 -180.066,85.0217z"/>
   <path id="_475169160" class="fil0" d="M1667.82 704.206c-13.1847,-11.7354 -33.3898,-10.5602 -45.1252,2.62441 -11.7354,13.1847 -10.5602,33.3898 2.62441,45.1252 29.5878,26.3173 51.3839,55.7363 65.7473,92.2678 10.5661,26.8725 17.3693,57.8233 20.5571,94.3536 -117.411,-47.7933 -243.062,-97.6229 -370.529,-144.312 -146.074,-53.504 -295.896,-103.525 -441.193,-142.95 -17.0516,-4.6252 -34.6252,5.44843 -39.2504,22.5 -4.6252,17.0516 5.44843,34.6252 22.5,39.2504 143.956,39.0626 291.92,88.4469 435.944,141.2 144.868,53.0634 284.451,108.927 411.975,161.158 4.40906,2.25236 9.40749,3.5126 14.7,3.48662 17.6728,-0.0885827 31.9264,-14.4886 31.8378,-32.1614l-0.124016 0.0011811c-0.341339,-66.9792 -9.15591,-120.6 -26.9185,-165.777 -18.3508,-46.6748 -45.7618,-83.8701 -82.7457,-116.766z"/>
   <path id="_475169040" class="fil0" d="M372.148 746.956c10.4244,-14.2205 7.34528,-34.2012 -6.8752,-44.6256 -14.2205,-10.4244 -34.2012,-7.34528 -44.6256,6.8752 -26.3492,35.9788 -45.8115,76.4044 -58.7292,126.845 -12.4677,48.6804 -18.6567,106.515 -18.9,178.808l-0.124016 0c-0.0578741,17.6728 14.2217,32.0469 31.8945,32.1047 10.4764,0.034252 19.7929,-4.97008 25.6559,-12.7335 137.499,-157.208 348.962,-162.197 535.748,-166.584 138.163,-3.24567 263.782,-6.19843 348.676,-67.0052 14.3587,-10.285 17.6599,-30.2658 7.37481,-44.6244 -10.285,-14.3587 -30.2658,-17.6599 -44.6244,-7.37481 -69.143,49.5248 -185.237,52.2544 -312.926,55.2532 -176.538,4.14567 -373.66,8.80158 -524.687,132.471 2.75906,-31.8118 7.29449,-59.6977 13.663,-84.5646 10.7008,-41.7863 26.765,-75.1949 48.4796,-104.845z"/>
   <path id="_475169112" class="fil0" d="M1582.04 931.15c10.148,-14.4272 6.67796,-34.3524 -7.74922,-44.5004 -14.4272,-10.148 -34.3524,-6.67796 -44.5004,7.74922 -90.0875,127.703 -67.5603,340.429 -47.5477,529.409 14.25,134.565 27.1323,256.242 -3.63189,311.044l-0.0377953 -0.0212599c-8.65631,15.4063 -3.18425,34.917 12.2221,43.5733 2.18386,1.22717 4.45158,2.16969 6.75827,2.84055 58.1245,21.1748 108.92,7.10197 155.995,-5.94567 38.113,-10.5626 72.9319,-20.2134 98.1639,0.0779528l-0.0519685 0.0637796c13.7705,11.0764 33.9154,8.89371 44.9918,-4.87678 4.43504,-5.51339 6.74174,-12.0484 7.03229,-18.6142 8.1815,-78.3249 -22.1185,-181.813 -56.0717,-297.761 -45.9,-156.738 -98.817,-337.446 -65.4662,-492.496 3.65788,-17.2583 -7.36654,-34.2166 -24.6248,-37.8744 -17.2583,-3.65788 -34.2166,7.36654 -37.8744,24.6248 -36.6662,170.462 18.6957,359.517 66.7158,523.496 25.4953,87.0662 48.8067,166.684 53.8193,228.962 -33.5504,-6.51969 -67.5615,2.90079 -103.635,12.8988 -27.8681,7.72323 -57.3721,15.9 -86.8016,13.7717 20.8347,-75.6662 8.94095,-188.033 -4.00276,-310.263 -18.8303,-177.813 -40.0252,-377.967 36.2965,-486.157z"/>
  </g>
 </g>
 <rect class="fil1" width="2048" height="2048"/>
</svg>
