<?xml version="1.0" encoding="UTF-8"?>
<!DOCTYPE svg PUBLIC "-//W3C//DTD SVG 1.1//EN" "http://www.w3.org/Graphics/SVG/1.1/DTD/svg11.dtd">
<!-- Creator: CorelDRAW -->
<svg xmlns="http://www.w3.org/2000/svg" xml:space="preserve" width="2048px" height="2048px" style="shape-rendering:geometricPrecision; text-rendering:geometricPrecision; image-rendering:optimizeQuality; fill-rule:evenodd; clip-rule:evenodd"
viewBox="0 0 2048 2048"
 xmlns:xlink="http://www.w3.org/1999/xlink">
 <defs>
  <style type="text/css">
   <![CDATA[
    .fil1 {fill:none}
    .fil0 {fill:#212121;fill-rule:nonzero}
   ]]>
  </style>
 </defs>
 <g id="Layer_x0020_1">
  <metadata id="CorelCorpID_0Corel-Layer"/>
  <g id="_475170744">
   <path id="_475170720" class="fil0" d="M1051.87 512.131c124.611,0 237.854,37.0465 320.205,96.9379 85.3347,62.0623 138.117,148.673 138.117,245.116 0,94.7268 -50.2571,169.925 -132.152,222.039 -82.8993,52.754 -198.711,81.2575 -326.17,81.2575 -127.459,0 -243.271,-28.5036 -326.17,-81.2575 -81.8953,-52.1138 -132.152,-127.312 -132.152,-222.039 0,-96.443 52.7823,-183.053 138.117,-245.116 82.3512,-59.8914 195.594,-96.9379 320.205,-96.9379zm282.705 148.689c-71.9445,-52.3229 -171.866,-84.6875 -282.705,-84.6875 -110.839,0 -210.761,32.3646 -282.705,84.6875 -68.9611,50.1532 -111.615,118.573 -111.615,193.364 0,70.8178 38.9433,127.909 102.4,168.289 72.4394,46.0973 176.11,71.0056 291.92,71.0056 115.811,0 219.481,-24.9083 291.92,-71.0056 63.4571,-40.3807 102.4,-97.4717 102.4,-168.289 0,-74.791 -42.6544,-143.211 -111.615,-193.364z"/>
   <path id="_475170672" class="fil0" d="M818.394 594.54c6.97205,16.2225 25.7776,23.7225 42,16.7504 16.2225,-6.97205 23.7225,-25.7776 16.7504,-42 -5.30197,-12.3354 -7.70316,-23.7402 -7.70316,-34.2142 0,-19.3453 8.44607,-36.6272 21.9709,-51.391 15.3898,-16.7988 37.4032,-30.7087 61.8638,-41.2229 32.4733,-13.9583 68.3209,-21.3567 98.5938,-21.3567 30.2729,0 66.1205,7.39843 98.5926,21.3555 24.4606,10.5142 46.4752,24.424 61.865,41.224 13.5248,14.7638 21.9721,32.0469 21.9721,51.391 0,10.474 -2.40118,21.8788 -7.70316,34.2142 -6.97205,16.2225 0.527953,35.028 16.7504,42 16.2225,6.97205 35.028,-0.527953 42,-16.7504 8.91733,-20.7461 12.9543,-40.6122 12.9543,-59.4638 0,-36.5988 -14.9835,-68.204 -38.9729,-94.3902 -22.1232,-24.1512 -51.7217,-43.2662 -83.6162,-56.9752 -40.4575,-17.3894 -85.5036,-26.6067 -123.842,-26.6067 -38.3386,0 -83.3859,9.21851 -123.843,26.6079 -31.8945,13.7091 -61.4918,32.824 -83.615,56.9741 -23.9894,26.1874 -38.9717,57.7926 -38.9717,94.3902 0,18.8516 4.03701,38.7177 12.9543,59.4638z"/>
   <path id="_475170816" class="fil0" d="M1431.01 634.203c-17.6043,-0.275197 -32.1,13.7717 -32.3752,31.376 -0.275197,17.6043 13.7717,32.1 31.376,32.3752 0.291733,0.00472441 101.667,2.2063 149.989,-46.1126 5.12835,-5.12835 9.6945,-7.6252 13.4232,-8.07048 1.7752,-0.211417 3.35079,0.0755906 4.60748,0.752363 1.49291,0.804331 2.83583,2.2252 3.87166,4.11496 1.8874,3.4441 2.60906,8.15197 1.61221,13.7067 -8.12008,45.2327 -14.2288,83.9292 -19.4091,116.765 -9.20316,58.3288 -15.3508,97.2709 -24.1866,118.536 -6.26103,15.0673 -23.7319,10.8071 -70.0855,-8.45552 -16.2921,-6.76536 -34.9855,0.957875 -41.7508,17.25 -6.76536,16.2921 0.957875,34.9855 17.25,41.7508 89.9162,37.3654 126.363,39.4689 153.587,-26.0445 11.5311,-27.7512 18.2008,-70.0004 28.1858,-133.285 5.11772,-32.4355 11.1508,-70.6607 19.1587,-115.265 3.74764,-20.8807 0.151181,-40.1776 -8.36103,-55.7091 -6.97323,-12.7252 -17.2524,-22.9465 -29.6221,-29.615 -12.6047,-6.79725 -27.1429,-9.82205 -42.3579,-8.00197 -17.3114,2.07166 -35.1461,10.2933 -51.1737,26.3209 -29.1898,29.1886 -103.527,27.6154 -103.74,27.6118z"/>
   <path id="_475170576" class="fil0" d="M1067.87 320.358c0,-8.83583 -7.16457,-16.0004 -16.0004,-16.0004 -8.83583,0 -16.0004,7.16457 -16.0004,16.0004l0 43.2756c0,8.83583 7.16457,16.0004 16.0004,16.0004 8.83583,0 16.0004,-7.16457 16.0004,-16.0004l0 -43.2756z"/>
   <path id="_475171104" class="fil0" d="M1083.87 288.13c0,-17.6728 -14.328,-32.0008 -32.0008,-32.0008 -17.6728,0 -32.0008,14.328 -32.0008,32.0008l0 9.56694c0,17.6728 14.328,32.0008 32.0008,32.0008 17.6728,0 32.0008,-14.328 32.0008,-32.0008l0 -9.56694z"/>
   <path id="_475170840" class="fil0" d="M626.699 768.253c13.1847,11.6669 33.3331,10.435 45,-2.74961 11.6669,-13.1847 10.435,-33.3331 -2.74961,-45l-138.533 -122.72 0.080315 -0.090945c-8.16851,-7.23662 -19.0063,-9.53623 -28.8603,-7.12205l-94.4824 15.2091 4.99961 31.5 -5.08583 -31.5933c-17.4484,2.80866 -29.3162,19.2307 -26.5075,36.6792 0.968505,6.02008 3.55866,11.3764 7.25197,15.6933l228.203 301.258c10.6311,14.0823 30.6673,16.8815 44.7496,6.2504 14.0823,-10.6311 16.8815,-30.6673 6.2504,-44.7496l-197.326 -260.495 29.7626 -4.79174 127.246 112.722z"/>
   <path id="_475171008" class="fil0" d="M774.543 1143.25c-16.4988,6.14292 -24.8929,24.5008 -18.75,40.9996 6.14292,16.4988 24.5008,24.8929 40.9996,18.75 89.9056,-33.4666 168.461,-47.8193 248.516,-45.3426 80.5442,2.49213 163.715,22.0902 262.264,56.4626 16.637,5.79804 34.8272,-2.98819 40.6252,-19.6252 5.79804,-16.637 -2.98819,-34.8272 -19.6252,-40.6252 -104.471,-36.4382 -193.577,-57.2434 -281.514,-59.9634 -88.428,-2.73544 -174.567,12.8835 -272.516,49.3441z"/>
  </g>
  <g id="_475170000">
   <path id="_475170432" class="fil0" d="M438.703 1366.13c3.69095,10.3039 9.0189,20.0256 15.476,29.3197 14.426,20.7662 34.7103,40.089 55.6217,58.9512l-21.3756 23.7496 21.4335 -23.7614c4.42205,3.98859 7.4693,8.9315 9.11694,14.2335 9.26221,23.8984 12.2374,44.5453 14.8547,62.7201 4.23307,29.4047 6.8504,47.5713 90.0131,47.5713 83.165,0 85.7823,-18.1665 90.0154,-47.5713 2.70236,-18.7677 5.78504,-40.1681 15.7795,-65.067l29.6256 11.8748 -29.6965 -11.9209c2.11654,-5.27363 5.48032,-9.67205 9.61418,-12.9969 20.4508,-18.4925 40.1988,-37.4457 54.3272,-57.7831 6.45591,-9.2941 11.785,-19.0158 15.476,-29.3197l-370.282 0zm-37.024 65.8205c-19.7138,-28.3772 -32.6244,-60.1335 -32.6244,-97.8213 0,-17.6728 14.328,-32.0008 32.0008,-32.0008l445.577 0c17.6728,0 32.0008,14.328 32.0008,32.0008 0,37.689 -12.913,69.4453 -32.6244,97.8213 -16.5886,23.8784 -37.6985,44.726 -59.5737,64.6926 -5.24056,15.3354 -7.40197,30.3366 -9.32599,43.6996 -9.12875,63.4028 -14.7709,102.573 -153.266,102.573 -138.493,0 -144.135,-39.1701 -153.264,-102.573 -1.92402,-13.3618 -4.08544,-28.3642 -9.32599,-43.6996 -21.874,-19.9666 -42.9863,-40.8142 -59.5748,-64.6926z"/>
   <path id="_475170552" class="fil0" d="M318.862 1659.52c-17.6043,-0.689764 -32.4355,13.0217 -33.1252,30.626 -0.689764,17.6043 13.0217,32.4355 30.626,33.1252 17.7874,0.740552 612.004,0.00236221 613.712,0 17.6043,0 31.8756,-14.2713 31.8756,-31.8756 0,-17.6043 -14.2713,-31.8756 -31.8756,-31.8756 -1.70197,0.0011811 -593.497,0.737008 -611.213,0z"/>
   <path id="_475170648" class="fil0" d="M395.138 1404.39c13.2024,-0.309449 23.654,-11.2665 23.3445,-24.4689 -0.309449,-13.2024 -11.2665,-23.654 -24.4689,-23.3445 -7.01575,0.191339 -15.3886,-0.164173 -23.6055,-1.91457 -6.91182,-1.47284 -13.5177,-3.92717 -18.398,-7.91221 -10.9984,-8.98111 -22.304,-13.487 -33.0236,-14.55 -11.4024,-1.13032 -21.8303,1.60748 -30.5882,7.11497 -8.36812,5.263 -14.9752,13.0146 -19.1823,22.2319 -4.6689,10.2201 -6.3815,22.3394 -4.15512,34.7339 12.052,67.1315 28.9713,108.066 48.5398,131.746 23.9528,28.9843 51.1241,34.7492 78.8209,29.452 5.26772,-1.0063 27.5197,-7.30985 48.6756,-13.7362 17.1992,-5.22284 33.8244,-10.5626 40.4481,-13.3158 12.2185,-5.07402 18.0118,-19.0949 12.9378,-31.3134 -5.07402,-12.2185 -19.0949,-18.0118 -31.3134,-12.9378 -5.76733,2.39764 -20.5725,7.14686 -35.9481,11.8158 -19.3465,5.87717 -39.3851,11.5819 -43.8,12.4252 -11.2736,2.15551 -22.5331,-0.427559 -32.8831,-12.952 -14.7307,-17.8264 -27.9933,-51.5681 -38.4154,-109.622 -0.444095,-2.47559 -0.191339,-4.70433 0.592914,-6.42048 0.356693,-0.783071 0.768898,-1.34764 1.18228,-1.60748 0.0259843,-0.0153543 0.157087,-0.0141732 0.401575,0.00944883 1.80709,0.178347 4.30276,1.41969 7.52363,4.05 11.5276,9.41339 25.1421,14.7839 38.6469,17.6634 12.1996,2.59961 24.4547,3.12992 34.6677,2.85236z"/>
   <path id="_475170168" class="fil0" d="M1268.63 1366.13c3.69095,10.3039 9.02009,20.0256 15.4772,29.3197 14.426,20.7662 34.7103,40.089 55.6217,58.9512l-21.3756 23.7496 21.4335 -23.7614c4.42205,3.98859 7.4693,8.9315 9.11694,14.2335 9.26103,23.8996 12.2362,44.5441 14.8524,62.7189 4.23307,29.4047 6.8504,47.5725 90.0154,47.5725 83.1638,0 85.7812,-18.1677 90.0142,-47.5713 2.70118,-18.7677 5.78504,-40.167 15.7784,-65.067l29.6256 11.8748 -29.6977 -11.9197c2.1189,-5.27835 5.48622,-9.67914 9.62481,-13.0063 20.4496,-18.4902 40.1929,-37.4398 54.3189,-57.7748 6.45709,-9.2941 11.7862,-19.0158 15.4772,-29.3197l-370.283 0zm-37.0229 65.8205c-19.7126,-28.376 -32.6256,-60.1323 -32.6256,-97.8213 0,-17.6728 14.328,-32.0008 32.0008,-32.0008l445.578 0c17.6728,0 32.0008,14.328 32.0008,32.0008 0,37.689 -12.913,69.4453 -32.6256,97.8213 -16.5886,23.8784 -37.6996,44.726 -59.5748,64.6926 -5.23937,15.3343 -7.40079,30.3366 -9.32481,43.6996 -9.12875,63.4004 -14.7697,102.573 -153.265,102.573 -138.495,0 -144.137,-39.1725 -153.266,-102.574 -1.92284,-13.3618 -4.08544,-28.3654 -9.32481,-43.6996 -21.874,-19.9666 -42.9863,-40.813 -59.5737,-64.6914z"/>
   <path id="_475170024" class="fil0" d="M1148.79 1659.52c-17.6043,-0.689764 -32.4355,13.0217 -33.1252,30.626 -0.689764,17.6043 13.0217,32.4355 30.626,33.1252 17.7874,0.740552 612.004,0.00236221 613.712,0 17.6043,0 31.8756,-14.2713 31.8756,-31.8756 0,-17.6043 -14.2713,-31.8756 -31.8756,-31.8756 -1.70197,0.0011811 -593.497,0.737008 -611.213,0z"/>
   <path id="_475169736" class="fil0" d="M1225.07 1404.39c13.2024,-0.309449 23.654,-11.2665 23.3445,-24.4689 -0.309449,-13.2024 -11.2665,-23.654 -24.4689,-23.3445 -7.01575,0.191339 -15.3898,-0.164173 -23.6067,-1.91457 -6.91182,-1.47284 -13.5177,-3.92717 -18.398,-7.91221 -10.9984,-8.98111 -22.3028,-13.487 -33.0248,-14.55 -11.4012,-1.13032 -21.8292,1.6063 -30.5882,7.11497 -8.36812,5.263 -14.9728,13.0146 -19.1823,22.2319 -4.66772,10.2224 -6.37914,22.3406 -4.15394,34.7339 12.0543,67.1315 28.9725,108.066 48.541,131.746 23.9516,28.9855 51.1241,34.7492 78.8197,29.452 5.2689,-1.00748 27.5173,-7.30985 48.6733,-13.735 17.1992,-5.22402 33.8256,-10.5638 40.4504,-13.3169 12.2185,-5.07402 18.0118,-19.0949 12.9378,-31.3134 -5.07402,-12.2185 -19.0949,-18.0118 -31.3134,-12.9378 -5.76969,2.39764 -20.5748,7.14686 -35.9504,11.8169 -19.3465,5.87599 -39.3827,11.5807 -43.7977,12.424 -11.2736,2.15551 -22.5331,-0.427559 -32.8819,-12.952 -14.7307,-17.8264 -27.9933,-51.5681 -38.4166,-109.622 -0.444095,-2.47677 -0.191339,-4.70552 0.591733,-6.42048 0.356693,-0.783071 0.767717,-1.34764 1.18228,-1.60748 0.0259843,-0.0153543 0.157087,-0.0141732 0.401575,0.00944883 1.80709,0.178347 4.30276,1.41851 7.52481,4.05 11.5311,9.41457 25.1421,14.7839 38.6469,17.6634 12.2008,2.59961 24.4571,3.12992 34.6689,2.85236z"/>
  </g>
 </g>
 <rect class="fil1" width="2048" height="2048"/>
</svg>
