<?xml version="1.0" encoding="UTF-8"?>
<!DOCTYPE svg PUBLIC "-//W3C//DTD SVG 1.1//EN" "http://www.w3.org/Graphics/SVG/1.1/DTD/svg11.dtd">
<!-- Creator: CorelDRAW -->
<svg xmlns="http://www.w3.org/2000/svg" xml:space="preserve" width="2048px" height="2048px" style="shape-rendering:geometricPrecision; text-rendering:geometricPrecision; image-rendering:optimizeQuality; fill-rule:evenodd; clip-rule:evenodd"
viewBox="0 0 2048 2048"
 xmlns:xlink="http://www.w3.org/1999/xlink">
 <defs>
  <style type="text/css">
   <![CDATA[
    .fil1 {fill:none}
    .fil0 {fill:#212121;fill-rule:nonzero}
   ]]>
  </style>
 </defs>
 <g id="Layer_x0020_1">
  <metadata id="CorelCorpID_0Corel-Layer"/>
  <path class="fil0" d="M519.043 1252.43c178.03,-6.53032 359.731,-84.2493 537.739,-224.238 183.554,-144.351 362.547,-354.238 529.169,-620.149l27 16.8756 -27.1169 -16.9914c9.38387,-14.9752 29.1331,-19.5095 44.1083,-10.1256 12.1276,7.59922 17.4071,21.9969 13.9913,35.152 -47.9481,238.464 -191.642,485.536 -382.421,681.608 -185.731,190.885 -416.737,334.154 -648.381,375.123l0.00472441 0.0236221c-15.2929,2.70236 -29.9681,-5.94095 -35.3894,-19.8862l-86.0776 -171.266c-7.86969,-15.7394 -1.48937,-34.8803 14.25,-42.75 4.22481,-2.11181 8.6941,-3.19607 13.1256,-3.34961l-0.0011811 -0.0259843zm577.239 -173.987c-172.609,135.743 -349.963,216.256 -526.148,234.321l55.0205 109.473c210.282,-43.767 419.916,-176.75 590.606,-352.175 127.684,-131.226 233.228,-285.832 300.729,-444.335 -134.73,186.941 -275.985,339.297 -420.207,452.716zm-576.114 205.863l-1.12441 -31.8496c12.0768,-0.418111 23.8666,6.08504 29.6244,17.5996l-28.5 14.25z"/>
  <path class="fil0" d="M508.809 1190.74c-7.86969,-15.7394 -27.0107,-22.1197 -42.75,-14.25 -15.7394,7.86969 -22.1197,27.0107 -14.25,42.75l177.538 353.235c7.86969,15.7394 27.0107,22.1197 42.75,14.25 15.7394,-7.86969 22.1197,-27.0107 14.25,-42.75l-177.538 -353.235z"/>
  <path class="fil0" d="M284.499 1383.73c-7.86969,-15.7394 -27.0107,-22.1197 -42.75,-14.25 -15.7394,7.86969 -22.1197,27.0107 -14.25,42.75l113.138 225.106c7.86969,15.7394 27.0107,22.1197 42.75,14.25 15.7394,-7.86969 22.1197,-27.0107 14.25,-42.75l-113.138 -225.106z"/>
  <path class="fil0" d="M531.678 1378.16l-199.569 100.304 19.8059 39.4051 199.569 -100.304 -19.8059 -39.4051zm-242.348 86.1426l-14.25 -28.5 253.819 -127.57c0.826772,-0.514961 1.68307,-0.998032 2.57008,-1.44449 15.7902,-7.93583 35.0268,-1.56851 42.9626,14.2217l-28.5921 14.3705 28.5 -14.25 47.0717 93.6556c0.514961,0.826772 0.998032,1.68307 1.44449,2.57008 7.93583,15.7902 1.56851,35.0268 -14.2217,42.9626l-14.3705 -28.5921 14.25 28.5 -253.819 127.57c-0.826772,0.514961 -1.68307,0.998032 -2.57008,1.44449 -15.7902,7.93583 -35.0268,1.56851 -42.9626,-14.2217l28.5921 -14.3705 -28.5 14.25 -47.0717 -93.6556c-0.514961,-0.826772 -0.998032,-1.68307 -1.44449,-2.57008 -7.93583,-15.7902 -1.56851,-35.0268 14.2217,-42.9626l14.3705 28.5921z"/>
  <path class="fil0" d="M1042.25 1249.57c-14.4272,-10.0784 -34.2969,-6.55276 -44.3752,7.87442 -10.0784,14.4272 -6.55276,34.2969 7.87442,44.3752 68.8288,48.1524 140.61,89.1981 213.819,121.28 70.917,31.0772 143.159,53.8276 215.366,66.5918 17.3965,3.03662 33.9638,-8.60316 37.0004,-25.9996 3.03662,-17.3965 -8.60316,-33.9638 -25.9996,-37.0004 -67.389,-11.9126 -134.766,-33.1252 -200.867,-62.0918 -69.469,-30.4441 -137.556,-69.3733 -202.818,-115.03zm484.455 66.6071c17.6043,0.62126 32.3799,-13.1457 33.0012,-30.75 0.62126,-17.6043 -13.1457,-32.3799 -30.75,-33.0012 -59.0977,-2.16614 -118.663,-12.2102 -178.419,-29.7886 -60.8528,-17.9032 -121.75,-43.5685 -182.407,-76.643 -15.4642,-8.42245 -34.8284,-2.71418 -43.2508,12.75 -8.42245,15.4642 -2.71418,34.8284 12.75,43.2508 64.8036,35.3362 129.874,62.7591 194.908,81.8918 64.7008,19.0335 129.521,29.9197 194.167,32.2902zm-521.331 -197.443c14.3587,10.285 34.3394,6.98386 44.6244,-7.37481 10.285,-14.3587 6.98386,-34.3394 -7.37481,-44.6244 -100.299,-71.8241 -199.531,-163.44 -296.42,-273.304 -97.8934,-111.004 -193.042,-239.99 -284.153,-385.394l-27 16.8756 27.1169 -16.9914c-9.38387,-14.9752 -29.1331,-19.5095 -44.1083,-10.1256 -12.0969,7.58032 -17.3788,21.9236 -14.0173,35.0504 27.1276,135.004 84.8623,272.635 164.414,402.162 81.8068,133.199 186.873,258.085 305.537,362.86 13.1847,11.6669 33.3331,10.435 45,-2.74961 11.6669,-13.1847 10.435,-33.3331 -2.74961,-45 -113.863,-100.534 -214.716,-220.432 -293.287,-348.361 -35.2347,-57.3685 -65.9481,-116.304 -91.304,-175.769 54.6248,75.8221 110.222,145.819 166.551,209.693 100.143,113.555 202.973,208.438 307.171,283.053z"/>
  <path class="fil0" d="M1596.19 1219.24c7.86969,-15.7394 1.48937,-34.8803 -14.25,-42.75 -15.7394,-7.86969 -34.8803,-1.48937 -42.75,14.25l-177.538 353.235c-7.86969,15.7394 -1.48937,34.8803 14.25,42.75 15.7394,7.86969 34.8803,1.48937 42.75,-14.25l177.538 -353.235z"/>
  <path class="fil0" d="M1820.5 1412.23c7.86969,-15.7394 1.48937,-34.8803 -14.25,-42.75 -15.7394,-7.86969 -34.8803,-1.48937 -42.75,14.25l-113.139 225.105c-7.86969,15.7394 -1.48937,34.8803 14.25,42.75 15.7394,7.86969 34.8803,1.48937 42.75,-14.25l113.139 -225.105z"/>
  <path class="fil0" d="M1519.1 1308.23l253.819 127.57 -14.25 28.5 14.3705 -28.5921c15.7902,7.93583 22.1575,27.1725 14.2217,42.9626 -0.446457,0.887009 -0.929528,1.74331 -1.44449,2.57008l-47.0717 93.6556 -28.5 -14.25 28.5921 14.3705c-7.93583,15.7902 -27.1725,22.1575 -42.9626,14.2217 -0.887009,-0.446457 -1.74331,-0.929528 -2.57008,-1.44449l-253.819 -127.57 14.25 -28.5 -14.3705 28.5921c-15.7902,-7.93583 -22.1575,-27.1725 -14.2217,-42.9626 0.446457,-0.887009 0.929528,-1.74331 1.44449,-2.57008l47.0717 -93.6556 28.5 14.25 -28.5921 -14.3705c7.93583,-15.7902 27.1725,-22.1575 42.9626,-14.2217 0.887009,0.446457 1.74331,0.929528 2.57008,1.44449zm196.79 170.231l-199.569 -100.304 -19.8059 39.4051 199.569 100.304 19.8059 -39.4051z"/>
 </g>
 <rect class="fil1" width="2048" height="2048"/>
</svg>
