<?xml version="1.0" encoding="UTF-8"?>
<!DOCTYPE svg PUBLIC "-//W3C//DTD SVG 1.1//EN" "http://www.w3.org/Graphics/SVG/1.1/DTD/svg11.dtd">
<!-- Creator: CorelDRAW -->
<svg xmlns="http://www.w3.org/2000/svg" xml:space="preserve" width="2048px" height="2048px" style="shape-rendering:geometricPrecision; text-rendering:geometricPrecision; image-rendering:optimizeQuality; fill-rule:evenodd; clip-rule:evenodd"
viewBox="0 0 2048 2048"
 xmlns:xlink="http://www.w3.org/1999/xlink">
 <defs>
  <style type="text/css">
   <![CDATA[
    .fil1 {fill:none}
    .fil0 {fill:#212121;fill-rule:nonzero}
   ]]>
  </style>
 </defs>
 <g id="Layer_x0020_1">
  <metadata id="CorelCorpID_0Corel-Layer"/>
  <g id="_475173000">
   <path id="_475172928" class="fil0" d="M1310.69 768.281c-7.45512,-15.9473 -26.4284,-22.8307 -42.3756,-15.3756 -15.9473,7.45512 -22.8307,26.4284 -15.3756,42.3756 11.7602,25.0205 21.0272,52.3619 27.3603,81.4914 6.09331,28.0205 9.34253,57.5752 9.34253,88.1741 0,93.6922 -30.5445,178.132 -79.9264,238.91 -47.8996,58.9524 -113.591,95.419 -185.717,95.419 -72.1241,0 -137.816,-36.4666 -185.715,-95.419 -49.3819,-60.7784 -79.9264,-145.218 -79.9264,-238.91 0,-30.5988 3.24922,-60.1536 9.34253,-88.1741 6.33308,-29.1295 15.6,-56.4709 27.3603,-81.4914 7.45512,-15.9473 0.571654,-34.9205 -15.3756,-42.3756 -15.9473,-7.45512 -34.9205,-0.571654 -42.3756,15.3756 -13.9713,29.7248 -24.8504,61.6087 -32.1083,94.9914 -7.07245,32.5264 -10.8449,66.6142 -10.8449,101.674 0,108.626 36.0862,207.354 94.428,279.16 59.8241,73.6288 142.957,119.171 235.216,119.171 92.2595,0 175.393,-45.5422 235.217,-119.171 58.3418,-71.8052 94.428,-170.534 94.428,-279.16 0,-35.0599 -3.77244,-69.1477 -10.8449,-101.674 -7.25788,-33.3827 -18.137,-65.2666 -32.1083,-94.9914z"/>
   <path id="_475173072" class="fil0" d="M947.235 771.78c-5.52284,-16.7067 -23.5441,-25.7729 -40.2508,-20.25 -16.7067,5.52284 -25.7729,23.5441 -20.25,40.2508 25.2921,76.0548 67.3678,131.848 115.748,166.238 36.2398,25.7599 76.1209,39.6874 115.532,41.387 40.3122,1.73858 79.7788,-9.18426 114.186,-33.1677 37.5284,-26.1591 68.7745,-67.7776 87.893,-125.267 5.52284,-16.7067 -3.54331,-34.728 -20.25,-40.2508 -16.7067,-5.52284 -34.728,3.54331 -40.2508,20.25 -14.4071,43.3229 -37.0737,74.0729 -63.893,92.7674 -22.7162,15.8339 -48.6107,23.0516 -74.9351,21.9166 -27.2268,-1.17402 -55.2709,-11.1461 -81.2823,-29.6351 -38.0906,-27.0756 -71.5607,-72.0367 -92.2465,-134.239z"/>
   <path id="_475172856" class="fil0" d="M806.965 255.998l434.068 0c21.7264,0 37.3713,12.8162 47.8713,33.4122 7.53308,14.7732 12.4382,34.7859 14.8831,55.7776l49.5993 425.642 0.0425197 -0.00472441c2.04449,17.5536 -10.5272,33.4441 -28.0807,35.4886 -1.24488,0.145276 -2.4815,0.214961 -3.70394,0.216142l-0.37441 0 -594.916 0c-17.6728,0 -32.0008,-14.328 -32.0008,-32.0008 0,-1.85079 0.158268,-3.66378 0.46063,-5.42953l49.3961 -423.912c2.44606,-20.9953 7.35119,-41.0055 14.8819,-55.7788 10.5,-20.5973 26.1496,-33.411 47.8725,-33.411zm425.705 64.0016l-417.343 0c-3.56339,7.82127 -6.10394,19.4599 -7.61575,32.4378l-45.4548 390.091 523.486 0 -45.4559 -390.091c-1.51063,-12.9744 -4.05118,-24.6154 -7.61693,-32.4378z"/>
   <path id="_475173480" class="fil0" d="M735.232 965.643c-16.9134,-4.9004 -34.5992,4.83662 -39.4996,21.75 -4.9004,16.9134 4.83662,34.5992 21.75,39.4996 56.7674,16.6169 110.281,11.328 156.639,-11.7177 47.2028,-23.465 86.2276,-65.0623 112.886,-120.315 7.663,-15.8776 1.00276,-34.963 -14.8748,-42.626 -15.8776,-7.663 -34.963,-1.00276 -42.626,14.8748 -20.4473,42.3792 -49.3595,73.7776 -83.6351,90.8162 -32.2949,16.0547 -70.063,19.5957 -110.64,7.71851z"/>
   <g>
    <path id="_475173024" class="fil0" d="M1145.05 1305.61c-8.97402,-15.1866 -28.5626,-20.224 -43.7492,-11.25 -15.1866,8.97402 -20.224,28.5626 -11.25,43.7492 14.0965,23.7142 28.0028,45.8374 41.1437,62.3457 18.5906,23.354 38.2134,37.441 59.5595,35.6303 47.2205,-4.00512 74.902,-10.8685 111.569,-19.9583 13.8,-3.42166 28.8992,-7.16457 45.2469,-10.8295l0.0212599 0.0944883c0.719292,-0.16063 1.42677,-0.347244 2.12244,-0.553937 0.80315,-0.148819 1.69606,-0.303544 2.6752,-0.462992 28.6547,-4.6689 53.9882,8.37166 74.1721,30.3508 23.2488,25.3169 39.8929,61.5886 48.1441,98.4036 1.00039,4.46929 1.9311,9.32953 2.78268,14.5595l29.876 183.352 -966.727 0 29.876 -183.352c0.839764,-5.15315 1.97244,-10.7787 3.39095,-16.8402 8.55355,-36.5457 25.1563,-72.3095 48.0225,-97.0383 19.8768,-21.4949 44.7189,-34.2213 72.7465,-29.6551 1.36772,0.222047 3.19488,0.601182 5.48741,1.1374 15.2858,3.57638 28.4209,6.87166 40.5614,9.91536 42.1323,10.5661 72.9697,18.3 127.07,22.298 21.6496,1.60158 40.0548,-13.2461 56.5548,-37.7221 10.8106,-16.037 22.3984,-38.2654 34.2118,-62.2973 7.7315,-15.8091 1.18347,-34.8933 -14.6256,-42.6248 -15.8091,-7.7315 -34.8933,-1.18347 -42.6248,14.6256 -10.3335,21.0201 -20.4768,40.4752 -29.9622,54.5469 -3.79843,5.63504 6.16063,10.1055 0.946064,9.72048 -48.3992,-3.57638 -76.9973,-10.748 -116.069,-20.5477 -12.5988,-3.15827 -26.2335,-6.57875 -41.563,-10.1658 -2.82402,-0.660237 -6.07678,-1.28976 -9.73702,-1.88622 -51.9815,-8.46969 -95.9635,12.8728 -129.747,49.4055 -30.7925,33.3 -52.6961,79.5296 -63.5233,125.789 -1.54252,6.58819 -2.92559,13.637 -4.13977,21.0898l-35.5359 218.082c-0.579922,2.41181 -0.890552,4.92993 -0.890552,7.52008 0,17.6728 14.328,32.0008 32.0008,32.0008l1041.3 0c1.86732,0.0295276 3.763,-0.106299 5.67048,-0.416929 17.4425,-2.84173 29.2796,-19.2874 26.4378,-36.7299l-0.0850394 0.0141732 -35.9244 -220.471c-0.914174,-5.61733 -2.09528,-11.6504 -3.5315,-18.0603 -10.565,-47.1378 -32.4461,-94.2024 -63.3945,-127.903 -34.0146,-37.0406 -78.5599,-58.7138 -131.423,-50.1012 -1.65236,0.269292 -3.49725,0.615355 -5.53937,1.04173 -1.00039,0.127559 -2.00433,0.3 -3.00945,0.525591l7.0004 31.2248 -7.0004 -31.1256c-18.8445,4.22481 -33.3095,7.80945 -46.5178,11.0847 -33.5138,8.30906 -58.8178,14.5819 -101.57,18.2079 -3.38622,0.287008 1.17284,-4.74567 -4.30748,-11.6303 -10.9276,-13.728 -23.3351,-33.5445 -36.1453,-55.0937z"/>
    <path id="_475173048" class="fil0" d="M1225.6 1408.23c0,-13.2543 -10.7457,-24 -24,-24 -13.2543,0 -24,10.7457 -24,24 0,54.1808 -16.2685,104.452 -44.1685,146.186 -27.0213,40.4209 -64.891,72.9402 -109.426,93.3792 -44.5359,-20.439 -82.4068,-52.9595 -109.427,-93.3792 -27.9,-41.7343 -44.1685,-92.0056 -44.1685,-146.186 0,-13.2543 -10.7457,-24 -24,-24 -13.2543,0 -24,10.7457 -24,24 0,63.841 19.3075,123.282 52.4174,172.811 33.6555,50.3457 81.6473,90.3355 138.156,114.164 6.05906,3.12874 13.4043,3.67087 20.198,0.859843l-0.0307087 -0.0732284c57.3213,-23.7319 106.003,-64.0489 140.032,-114.951 33.1099,-49.5284 52.4174,-108.97 52.4174,-172.811z"/>
   </g>
  </g>
  <path class="fil0" d="M1216 335.998c-8.83583,0 -16.0004,7.16457 -16.0004,16.0004 0,8.83583 7.16457,16.0004 16.0004,16.0004 27.639,0 50.3138,-1.09961 68.0894,-1.96063 26.2193,-1.26969 39.8717,-1.93228 44.3989,1.42795 4.49292,3.33425 6.44528,17.3917 10.5118,46.7055 1.8626,13.4256 4.10788,29.5973 7.3193,48.8705l68.9776 413.864c1.44921,8.69764 9.67678,14.5748 18.3744,13.1256 8.69764,-1.44921 14.5748,-9.67678 13.1256,-18.3744l-68.9776 -413.864c-3.18898,-19.1339 -5.37756,-34.904 -7.1941,-47.9965 -5.30788,-38.2654 -7.85552,-56.615 -23.1378,-67.956 -13.6902,-10.161 -31.2225,-9.30946 -64.8981,-7.67835 -16.6394,0.805512 -37.865,1.83543 -66.5894,1.83543z"/>
  <path class="fil0" d="M1436.68 858.97c10.3843,0 19.8331,4.2378 26.7177,11.0953l0.0307087 0.0318898 0.00236221 0.0011811 0.0318898 -0.0318898c0.386221,0.386221 0.748819,0.788977 1.0878,1.20354 6.2126,6.7689 10.0051,15.7524 10.0051,25.5756 0,10.3819 -4.2378,19.8331 -11.0953,26.7177l-0.0318898 0.0307087 -0.0011811 0.00236221 0.0318898 0.0318898c-0.386221,0.386221 -0.788977,0.748819 -1.20354,1.0878 -6.7689,6.2126 -15.7524,10.0051 -25.5756,10.0051 -10.3819,0 -19.8331,-4.2378 -26.7177,-11.0953l-0.0307087 -0.0318898 -0.00236221 -0.0011811 -0.0318898 0.0318898c-0.386221,-0.386221 -0.748819,-0.788977 -1.0878,-1.20354 -6.2126,-6.7689 -10.0051,-15.7547 -10.0051,-25.5756 0,-10.3843 4.2378,-19.8331 11.0953,-26.7177l0.0318898 -0.0307087 0.0011811 -0.00236221 -0.0318898 -0.0318898c0.386221,-0.386221 0.788977,-0.748819 1.20354,-1.0878 6.7689,-6.2126 15.7547,-10.0051 25.5756,-10.0051zm15.4677 22.4079l-11.3126 11.25c-1.02284,-1.02284 -2.49095,-1.65709 -4.15512,-1.65709 -1.44213,0 -2.73662,0.475985 -3.72166,1.2685 -0.141732,0.153543 -0.285827,0.304725 -0.434646,0.453544l-11.3114 -11.315 11.25 11.3126c-1.02284,1.02284 -1.65709,2.49095 -1.65709,4.15512 0,1.44213 0.475985,2.73662 1.2685,3.72166 0.153543,0.141732 0.304725,0.285827 0.453544,0.434646l-11.315 11.3114 11.3126 -11.25c1.02284,1.02284 2.48977,1.65709 4.15512,1.65709 1.44213,0 2.73662,-0.475985 3.72166,-1.2685 0.141732,-0.153543 0.285827,-0.304725 0.434646,-0.453544l11.3114 11.315 -11.25 -11.3126c1.02284,-1.02284 1.65709,-2.48977 1.65709,-4.15512 0,-1.44213 -0.475985,-2.73662 -1.2685,-3.72166 -0.153543,-0.141732 -0.304725,-0.285827 -0.453544,-0.434646l11.315 -11.3114z"/>
  <path class="fil0" d="M1458.09 921.296c-1.8626,-8.62914 -10.3701,-14.113 -18.9992,-12.2504 -8.62914,1.8626 -14.113,10.3701 -12.2504,18.9992l8.75906 40.4681c1.8626,8.62914 10.3701,14.113 18.9992,12.2504 8.62914,-1.8626 14.113,-10.3701 12.2504,-18.9992l-8.75906 -40.4681z"/>
  <path class="fil0" d="M1456.9 902.696c-7.9382,-3.8315 -17.4815,-0.500788 -21.313,7.43741 -3.8315,7.9382 -0.500788,17.4815 7.43741,21.313l37.3016 17.9728c7.9382,3.8315 17.4815,0.500788 21.313,-7.43741 3.8315,-7.9382 0.500788,-17.4815 -7.43741,-21.313l-37.3016 -17.9728z"/>
  <path class="fil0" d="M1441.87 928.168c4.6937,-7.45512 2.45551,-17.3067 -4.99961,-22.0004 -7.45512,-4.6937 -17.3067,-2.45551 -22.0004,4.99961l-22.0465 35.0481c-4.6937,7.45512 -2.45551,17.3067 4.99961,22.0004 7.45512,4.6937 17.3067,2.45551 22.0004,-4.99961l22.0465 -35.0481z"/>
 </g>
 <rect class="fil1" width="2048" height="2048"/>
</svg>
