<?xml version="1.0" encoding="UTF-8"?>
<!DOCTYPE svg PUBLIC "-//W3C//DTD SVG 1.1//EN" "http://www.w3.org/Graphics/SVG/1.1/DTD/svg11.dtd">
<!-- Creator: CorelDRAW -->
<svg xmlns="http://www.w3.org/2000/svg" xml:space="preserve" width="2048px" height="2048px" style="shape-rendering:geometricPrecision; text-rendering:geometricPrecision; image-rendering:optimizeQuality; fill-rule:evenodd; clip-rule:evenodd"
viewBox="0 0 2048 2048"
 xmlns:xlink="http://www.w3.org/1999/xlink">
 <defs>
  <style type="text/css">
   <![CDATA[
    .fil1 {fill:none}
    .fil0 {fill:#212121;fill-rule:nonzero}
   ]]>
  </style>
 </defs>
 <g id="Layer_x0020_1">
  <metadata id="CorelCorpID_0Corel-Layer"/>
  <g id="_475173552">
   <path id="_475141944" class="fil0" d="M515.191 1097.98c-23.3988,51.0189 -30.0851,94.6229 -22.4197,127.534 2.94685,12.652 8.07638,23.5772 15.2185,32.5229 7.0689,8.85355 16.2602,16.0063 27.4087,21.2114 26.6669,12.4547 64.5249,14.4567 112.022,3.39331 105.682,-24.6189 198.849,-87.7276 278.931,-141.97 53.7662,-36.4193 101.999,-69.0898 146.743,-86.1355l-0.011811 -0.0318898c16.5154,-6.29056 35.0055,1.99725 41.2961,18.5126 4.82835,12.678 1.06772,26.5181 -8.41182,35.1118 -69.0378,72.6875 -99.6556,120.162 -88.415,141.448 11.8406,22.4244 71.9788,27.3839 184.345,14.5807 126.934,-14.4614 239.21,-27.3425 327.48,-39.7642 86.8146,-12.2173 150.653,-23.9221 182.845,-36.1654l11.3752 29.8748 -11.3752 -29.9103c14.1685,-5.38819 29.7815,-0.0496063 37.9028,12.0012 1.97717,2.43307 3.64961,4.58504 5.02559,6.46063 42.3012,57.6957 44.5772,129.745 24.8103,196.461 -18.952,63.9697 -58.8367,123.79 -102.507,160.093 -4.14685,3.44646 -7.79528,6.32599 -10.9228,8.62087l0.0425197 0.0578741c-5.70945,4.18701 -12.3473,6.19961 -18.9236,6.19489l0 0.0011811 -381.422 0c-28.8414,0 -35.2843,-18.4264 -39.5811,-38.6197 -113.008,0.585827 -224.74,5.8689 -336.468,11.1508 -121.135,5.72599 -242.273,11.4543 -359.99,11.4543 -1.45866,0 -2.89488,-0.100394 -4.30158,-0.28937 -74.2335,-5.39174 -126.006,-31.363 -159.999,-69.241 -31.3855,-34.9713 -46.6784,-79.141 -49.943,-126.154 -3.10748,-44.739 4.75748,-92.1261 19.8957,-136.133 27.9024,-81.1064 81.9485,-152.743 138.951,-177.475l-0.056693 -0.131102c16.2154,-7.02756 35.0599,0.419292 42.0874,16.6347 4.18229,9.65079 3.2374,20.2311 -1.6311,28.6996zm-84.6709 142.034c-3.85866,-16.5638 -5.31615,-34.637 -4.23544,-53.9859 -11.7047,19.6358 -21.9484,41.7343 -29.9433,64.9737 -12.5669,36.5303 -19.1351,75.2812 -16.6453,111.134 2.3315,33.5811 12.6673,64.4776 33.691,87.9024 23.341,26.0079 60.9745,43.9819 117.026,48.0296 119.937,-0.00708662 238.354,-5.6067 356.765,-11.2039 121.136,-5.72717 242.276,-11.4555 359.998,-11.4555 28.8591,0 35.2925,18.4595 39.5906,38.674l350.087 0c34.6394,-28.8591 66.4595,-76.9973 81.8564,-128.966 13.2473,-44.7107 13.8614,-91.6182 -7.70906,-129.384 -39.3414,11.0587 -98.4473,21.4382 -172.876,31.9122 -90.104,12.6803 -202.376,25.5614 -329.23,40.0146 -141.423,16.1138 -222.365,-0.0779528 -247.844,-48.3319 -12.7063,-24.0626 -10.7681,-53.6103 5.16024,-88.6879l-4.11142 2.78386c-84.8138,57.4489 -183.489,124.287 -300.181,151.471 -61.9441,14.4284 -114.04,10.5449 -153.521,-7.89331 -20.3351,-9.49489 -37.2414,-22.7185 -50.4095,-39.2114 -13.0949,-16.4008 -22.3524,-35.8087 -27.4689,-57.7748z"/>
   <path id="_475141776" class="fil0" d="M455.968 517.889c-23.3988,51.0189 -30.0862,94.6241 -22.4209,127.534 2.94685,12.652 8.07638,23.576 15.2173,32.5217 7.06772,8.85237 16.2602,16.0051 27.4087,21.2114 26.6669,12.4547 64.526,14.4567 112.023,3.39331 105.682,-24.6177 198.852,-87.7276 278.932,-141.971 53.7638,-36.4181 101.998,-69.0886 146.74,-86.1343l-0.011811 -0.0318898c16.5154,-6.29056 35.0055,1.99725 41.2961,18.5126 4.82835,12.678 1.06772,26.5181 -8.41182,35.1118 -69.0378,72.6875 -99.6544,120.163 -88.4138,141.449 11.8406,22.4232 71.9788,27.3815 184.345,14.5795 126.934,-14.4614 239.21,-27.3425 327.48,-39.7642 86.8512,-12.2221 150.705,-23.9197 182.874,-36.1276l-0.0271654 -0.0720473c14.1673,-5.38701 29.7803,-0.0484252 37.9004,12 1.97953,2.43662 3.65315,4.58977 5.02678,6.463 42.3012,57.6945 44.576,129.742 24.8103,196.459 -18.9532,63.9686 -58.8367,123.79 -102.507,160.093 -4.14567,3.44646 -7.79882,6.33071 -10.9287,8.62442l0.0437008 0.0590552c-5.70827,4.18583 -12.3449,6.19843 -18.9201,6.19252l-0.279921 0 -381.141 0c-28.8284,0 -35.2843,-18.4264 -39.5811,-38.6209 -113.007,0.585827 -224.738,5.8689 -336.466,11.1508 -121.135,5.72599 -242.275,11.4555 -359.993,11.4555 -1.45866,0 -2.89488,-0.100394 -4.30158,-0.28937 -74.2359,-5.39174 -126.006,-31.3642 -160.001,-69.2434 -31.3831,-34.9725 -46.6772,-79.141 -49.9406,-126.154 -3.1063,-44.7402 4.75748,-92.1261 19.8969,-136.134 27.9024,-81.1052 81.9485,-152.739 138.951,-177.471l-0.056693 -0.131102c16.2154,-7.02756 35.0599,0.419292 42.0874,16.6347 4.18229,9.65079 3.2374,20.2311 -1.6311,28.6996zm-84.6721 142.034c-3.85866,-16.5638 -5.31615,-34.6359 -4.23544,-53.9847 -11.7047,19.6358 -21.9473,41.7307 -29.9421,64.9689 -12.5681,36.5315 -19.1351,75.2812 -16.6465,111.135 2.3315,33.5823 12.6662,64.4764 33.6886,87.9024 23.3421,26.0103 60.9733,43.9843 117.027,48.0319 119.939,-0.00708662 238.356,-5.60788 356.769,-11.2051 121.136,-5.72717 242.275,-11.4555 359.994,-11.4555 28.8626,0 35.2949,18.4606 39.5929,38.6752l350.085 0c34.6406,-28.8591 66.4607,-76.9997 81.8575,-128.967 13.2496,-44.7213 13.8614,-91.6406 -7.72678,-129.41 -39.3532,11.0823 -98.4497,21.4677 -172.858,31.9382 -90.104,12.6803 -202.376,25.5614 -329.23,40.0146 -141.422,16.1126 -222.365,-0.0791339 -247.844,-48.3307 -12.7063,-24.0638 -10.7681,-53.6126 5.16024,-88.6902l-4.11024 2.78386c-84.8127,57.4489 -183.49,124.29 -300.182,151.472 -61.943,14.4284 -114.041,10.5461 -153.522,-7.89331 -20.3351,-9.49725 -37.2414,-22.7185 -50.4095,-39.2114 -13.0937,-16.4008 -22.3512,-35.8087 -27.4677,-57.7737z"/>
  </g>
 </g>
 <rect class="fil1" width="2048" height="2048"/>
</svg>
