<?xml version="1.0" encoding="UTF-8"?>
<!DOCTYPE svg PUBLIC "-//W3C//DTD SVG 1.1//EN" "http://www.w3.org/Graphics/SVG/1.1/DTD/svg11.dtd">
<!-- Creator: CorelDRAW -->
<svg xmlns="http://www.w3.org/2000/svg" xml:space="preserve" width="2048px" height="2048px" style="shape-rendering:geometricPrecision; text-rendering:geometricPrecision; image-rendering:optimizeQuality; fill-rule:evenodd; clip-rule:evenodd"
viewBox="0 0 2048 2048"
 xmlns:xlink="http://www.w3.org/1999/xlink">
 <defs>
  <style type="text/css">
   <![CDATA[
    .fil1 {fill:none}
    .fil0 {fill:#212121;fill-rule:nonzero}
   ]]>
  </style>
 </defs>
 <g id="Layer_x0020_1">
  <metadata id="CorelCorpID_0Corel-Layer"/>
  <g id="_475141872">
   <path id="_475142640" class="fil0" d="M288 642.727l512.001 0c17.6728,0 32.0008,14.328 32.0008,32.0008l0 1085.27c0,17.6728 -14.328,32.0008 -32.0008,32.0008l-512.001 0c-17.6728,0 -32.0008,-14.328 -32.0008,-32.0008l0 -1085.27c0,-17.6728 14.328,-32.0008 32.0008,-32.0008zm480 64.0016l-448 0 0 1021.27 448 0 0 -1021.27z"/>
   <path id="_475142736" class="fil0" d="M548.996 747.852c37.1044,29.3457 70.7127,68.3434 101.42,115.343 30.6673,46.9347 58.5815,102.021 84.319,163.546l0.0259843 -0.0106299c0.874016,2.08819 1.26969,4.25788 1.24016,6.38623l0 642.095c0,8.83583 -7.16457,16.0004 -16.0004,16.0004l-352.001 0c-8.83583,0 -16.0004,-7.16457 -16.0004,-16.0004l0 -642.309c0,-2.71063 0.67441,-5.26418 1.86496,-7.50237 21.2173,-51.8185 44.4827,-101.943 72.1619,-148.407 28.2378,-47.4048 61.0808,-91.0914 101.017,-129.041l10.9996 11.5618 -11.0209 -11.5984c6.18308,-5.87599 15.8374,-5.83701 21.9732,-0.0637796zm74.6705 132.842c-26.1886,-40.0831 -54.2953,-73.7445 -84.6698,-99.7831 -33.2268,33.4914 -61.18,71.4721 -85.5946,112.458 -26.589,44.6303 -48.9804,92.7414 -69.4016,142.481l0 623.362 320 0 0 -623.163c-24.6166,-58.4811 -51.2233,-110.8 -80.3339,-155.354z"/>
   <path id="_475142304" class="fil0" d="M544 320.557c62.1497,0 118.368,26.6469 159.015,69.7264 40.1516,42.554 64.9867,101.172 64.9867,165.763 0,24.6709 -3.75,48.7512 -10.6902,71.6127 -7.11969,23.4508 -17.648,45.3178 -30.9662,64.943l-26.3752 -17.8748 26.478 17.9693c-6.21969,9.16536 -16.3583,14.0811 -26.6599,14.0315l-311.758 0c-12.1795,0 -22.7705,-6.80552 -28.1776,-16.8213 -12.4677,-18.9248 -22.3689,-39.8646 -29.1638,-62.2477 -6.94016,-22.8614 -10.6902,-46.9418 -10.6902,-71.6127 0,-64.591 24.8351,-123.209 64.9867,-165.763 40.6477,-43.0796 96.8658,-69.7264 159.014,-69.7264zm112.515 113.477c-28.8414,-30.567 -68.6268,-49.4752 -112.515,-49.4752 -43.8874,0 -83.6729,18.9083 -112.514,49.4752 -29.3374,31.0925 -47.4851,74.2217 -47.4851,122.013 0,18.8351 2.69764,36.6721 7.6878,53.1119 3.58347,11.8051 8.32796,23.0457 14.0882,33.5681l276.448 0c5.75906,-10.5224 10.5047,-21.763 14.0882,-33.5681 4.99016,-16.4398 7.6878,-34.2768 7.6878,-53.1119 0,-47.791 -18.1477,-90.9201 -47.4851,-122.013z"/>
   <path id="_475141560" class="fil0" d="M576.002 287.999c0,-17.6728 -14.328,-32.0008 -32.0008,-32.0008 -17.6728,0 -32.0008,14.328 -32.0008,32.0008l0 33.9142c0,17.6728 14.328,32.0008 32.0008,32.0008 17.6728,0 32.0008,-14.328 32.0008,-32.0008l0 -33.9142z"/>
   <path id="_475141320" class="fil0" d="M800.001 928.581c-17.6728,0 -32.0008,14.328 -32.0008,32.0008 0,17.6728 14.328,32.0008 32.0008,32.0008l299.429 0 0 219.354c0,17.6728 14.328,32.0008 32.0008,32.0008l299.426 0 0 189.026c0,17.6728 14.328,32.0008 32.0008,32.0008l265.142 0 0 263.034 -927.999 0c-17.6728,0 -32.0008,14.328 -32.0008,32.0008 0,17.6728 14.328,32.0008 32.0008,32.0008l960 0c17.6728,0 32.0008,-14.328 32.0008,-32.0008l0 -327.036c0,-17.6728 -14.328,-32.0008 -32.0008,-32.0008l-265.142 0 0 -189.026c0,-17.6728 -14.328,-32.0008 -32.0008,-32.0008l-299.426 0 0 -219.354c0,-17.6728 -14.328,-32.0008 -32.0008,-32.0008l-331.429 0z"/>
  </g>
  <path class="fil0" d="M952.334 1342.58l92.4851 92.4839 93.4335 0 16.0004 0 0 16.0004 0 93.4347 92.4827 92.4827 27.313 27.313 -38.6256 0 -294.402 0 -16.0004 0 0 -16.0004 0 -294.402 16.0004 0 11.3126 -11.3126zm74.5477 119.797l-69.8599 -69.8587 0 239.776 239.776 0 -69.8575 -69.8575 -4.6878 -4.6878 0 -6.62481 0 -84.0591 -84.0579 0 -6.62481 0 -4.6878 -4.6878z"/>
 </g>
 <rect class="fil1" width="2048" height="2048"/>
</svg>
