<?xml version="1.0" encoding="UTF-8"?>
<!DOCTYPE svg PUBLIC "-//W3C//DTD SVG 1.1//EN" "http://www.w3.org/Graphics/SVG/1.1/DTD/svg11.dtd">
<!-- Creator: CorelDRAW -->
<svg xmlns="http://www.w3.org/2000/svg" xml:space="preserve" width="2048px" height="2048px" style="shape-rendering:geometricPrecision; text-rendering:geometricPrecision; image-rendering:optimizeQuality; fill-rule:evenodd; clip-rule:evenodd"
viewBox="0 0 2048 2048"
 xmlns:xlink="http://www.w3.org/1999/xlink">
 <defs>
  <style type="text/css">
   <![CDATA[
    .fil1 {fill:none}
    .fil0 {fill:#212121;fill-rule:nonzero}
   ]]>
  </style>
 </defs>
 <g id="Layer_x0020_1">
  <metadata id="CorelCorpID_0Corel-Layer"/>
  <g id="_475142400">
   <g>
    <path id="_475142856" class="fil0" d="M858.09 565.27c33.1288,0 59.2843,17.9492 78.8906,48.0036 14.8854,22.8154 25.8024,53.2052 32.8547,87.6083 6.77717,33.0626 10.1433,69.8564 10.1433,106.98 0,113.321 -31.9961,235.516 -94.6253,276.431l0.056693 0.0874016c-14.8016,9.6567 -34.6299,5.48504 -44.2866,-9.31654 -0.165354,-0.253937 -0.327166,-0.510237 -0.484252,-0.766536 -2.06929,-2.6126 -5.18741,-4.62874 -8.91969,-6.07796 -7.47284,-2.90079 -16.7138,-3.58819 -26.061,-2.39882 -9.56103,1.21772 -18.7772,4.39607 -25.9748,9.18426 -4.39134,2.92087 -7.61693,6.16536 -8.89489,9.45709l-29.7496 -11.5004 29.8311 11.5819c-6.39567,16.4752 -24.9378,24.6449 -41.413,18.2492 -7.98898,-3.10158 -14.0244,-9.05906 -17.3941,-16.252 -28.7705,-51.0213 -56.2583,-106.184 -71.5359,-164.42 -16.1114,-61.4103 -18.4807,-125.381 5.31142,-190.145 17.4012,-47.3681 48.7465,-85.5721 83.4249,-113.297 43.4587,-34.7433 93.4595,-53.4083 128.826,-53.4083zm25.3914 82.754c-7.65945,-11.7402 -16.2284,-18.7524 -25.3914,-18.7524 -22.8638,0 -57.2138,13.6854 -89.0753,39.1571 -26.3374,21.0567 -50.0918,49.9311 -63.176,85.5461 -18.7406,51.013 -16.624,102.353 -3.56103,152.146 10.128,38.6044 26.9091,76.6973 45.9059,113.252 14.4933,-8.77205 31.8567,-14.5606 49.4741,-16.8036 19.3795,-2.46614 39.5244,-0.657875 57.0626,6.15 4.46339,1.73268 8.76615,3.77717 12.8634,6.14174 32.0634,-40.2343 48.3933,-125.223 48.3933,-207 0,-33.6236 -2.86654,-66.0615 -8.64095,-94.2284 -5.49922,-26.8252 -13.4563,-49.6725 -23.8547,-65.6091z"/>
    <path id="_475143312" class="fil0" d="M820.248 1279.18c46.2945,17.2677 78.678,55.8697 89.7627,92.2453 4.49646,14.7508 5.78977,29.5158 3.50433,43.0677 -2.66221,15.7866 -9.90946,29.8855 -22.2425,40.8296 -17.9421,15.9236 -45.6449,23.6055 -84.006,16.6358 -37.8567,14.7697 -65.6823,12.9236 -84.7843,1.06772 -16.7953,-10.4232 -25.7433,-26.7638 -28.2402,-46.2603 -1.90158,-14.85 0.253937,-31.526 5.61733,-48.0744 14.2973,-44.1071 53.9764,-92.445 100.445,-101.815l-0.0259843 -0.12874c7.01812,-1.41142 13.9606,-0.409843 19.9701,2.43189zm28.7634 110.746c-5.50394,-18.0638 -21.1713,-37.3205 -43.9559,-48.0756 -19.7043,8.55237 -36.952,33.2233 -44.4449,56.341 -2.61969,8.08465 -3.79488,15.2835 -3.11811,20.5736 0.0307087,0.243307 -0.34252,0.201969 -0.755906,0.0956694l-0.490158 0.0614174c3.71575,1.92166 13.7457,-0.108662 32.6173,-8.34095 6.69095,-3.6189 14.6882,-4.8815 22.6677,-2.97047l-0.0307087 0.129921c20.9173,5.00315 32.6965,4.11378 37.5213,-0.167717 0.713386,-0.633071 1.20827,-1.89331 1.49291,-3.57992 0.661418,-3.92126 0.114567,-8.75788 -1.50354,-14.0669zm-93.0284 28.8496c0.0838583,0.0519685 0.172441,0.0992127 0.263386,0.146457l0.490158 -0.0614174c-0.675591,-0.173622 -1.45866,-0.523229 -0.753544,-0.0850394z"/>
    <path id="_475143432" class="fil0" d="M836.071 1043.4c0,-17.6728 -14.328,-32.0008 -32.0008,-32.0008 -17.6728,0 -32.0008,14.328 -32.0008,32.0008l0 259.647c0,17.6728 14.328,32.0008 32.0008,32.0008 17.6728,0 32.0008,-14.328 32.0008,-32.0008l0 -259.647z"/>
   </g>
   <g>
    <path id="_475142904" class="fil0" d="M1189.91 629.271c-9.163,0 -17.7319,7.01221 -25.3914,18.7524 -10.3973,15.9378 -18.3555,38.7839 -23.8547,65.6091 -5.77441,28.167 -8.64095,60.606 -8.64095,94.2296 0,81.7772 16.3299,166.766 48.3933,207 4.09725,-2.36457 8.39883,-4.40906 12.8634,-6.14292 17.537,-6.80906 37.6843,-8.61615 57.0615,-6.14882 17.6173,2.24292 34.9819,8.03032 49.4752,16.8024 18.9969,-36.5551 35.778,-74.6469 45.9059,-113.251 13.0642,-49.793 15.1795,-101.134 -3.56103,-152.146 -13.0843,-35.615 -36.8386,-64.4894 -63.1772,-85.5473 -31.8614,-25.4729 -66.2103,-39.1571 -89.0741,-39.1571zm-78.8906 -15.998c19.6063,-30.0544 45.7618,-48.0036 78.8906,-48.0036 35.3658,0 85.3678,18.665 128.825,53.4083 34.6796,27.7276 66.0249,65.9304 83.426,113.299 23.7921,64.7634 21.424,128.734 5.31142,190.145 -15.2776,58.2355 -42.7654,113.398 -71.5359,164.42 -3.36969,7.19292 -9.40513,13.1504 -17.3941,16.252 -16.4752,6.39567 -35.0173,-1.77402 -41.413,-18.2492l29.8311 -11.5819 -29.7496 11.5004c-1.27795,-3.29173 -4.50355,-6.53741 -8.89607,-9.45827 -7.19646,-4.78701 -16.4126,-7.96536 -25.9748,-9.18308 -9.34607,-1.18937 -18.5882,-0.50315 -26.0599,2.39764 -3.73229,1.44921 -6.8504,3.46654 -8.91969,6.07914 -0.157087,0.256299 -0.318898,0.512599 -0.484252,0.766536 -9.6567,14.8016 -29.4851,18.9732 -44.2866,9.31654l0.056693 -0.0874016c-62.6292,-40.9158 -94.6253,-163.11 -94.6253,-276.431 0,-37.1233 3.36614,-73.9182 10.1433,-106.981 7.05237,-34.4044 17.9693,-64.7918 32.8547,-87.6083z"/>
    <path id="_475142880" class="fil0" d="M1242.94 1341.85c-22.7847,10.7551 -38.452,30.0118 -43.9559,48.0756 -1.61811,5.30906 -2.16496,10.1457 -1.50354,14.0669 0.284646,1.68662 0.779528,2.94685 1.49291,3.57992 4.82481,4.2815 16.6039,5.17087 37.5213,0.167717l-0.0307087 -0.129921c7.97953,-1.91103 15.9768,-0.648426 22.6677,2.97047 18.8717,8.23229 28.9016,10.2626 32.6173,8.34095l-0.490158 -0.0614174c-0.413386,0.106299 -0.786615,0.147638 -0.755906,-0.0956694 0.676772,-5.29016 -0.498426,-12.489 -3.11811,-20.5736 -7.49292,-23.1177 -24.7406,-47.7886 -44.4449,-56.341zm-104.955 29.5748c11.0847,-36.3756 43.4681,-74.9776 89.7627,-92.2453 6.00945,-2.84173 12.952,-3.84331 19.9701,-2.43189l-0.0259843 0.12874c46.4681,9.36969 86.1473,57.7075 100.445,101.815 5.36339,16.5484 7.5189,33.2244 5.61733,48.0744 -2.49685,19.4965 -11.4449,35.837 -28.2402,46.2603 -19.102,11.8559 -46.9276,13.702 -84.7843,-1.06772 -38.3611,6.96969 -66.0638,-0.712205 -84.006,-16.6358 -12.3331,-10.9441 -19.5803,-25.0429 -22.2425,-40.8296 -2.28543,-13.552 -0.992127,-28.317 3.50433,-43.0677zm153.764 47.4969c0.090945,-0.0472441 0.179528,-0.0944883 0.263386,-0.146457 0.705119,-0.438189 -0.0779528,-0.0885827 -0.753544,0.0850394l0.490158 0.0614174z"/>
    <path id="_475143384" class="fil0" d="M1275.93 1043.4c0,-17.6728 -14.328,-32.0008 -32.0008,-32.0008 -17.6728,0 -32.0008,14.328 -32.0008,32.0008l0 259.647c0,17.6728 14.328,32.0008 32.0008,32.0008 17.6728,0 32.0008,-14.328 32.0008,-32.0008l0 -259.647z"/>
   </g>
  </g>
  <path class="fil0" d="M1024 255.998c212.073,0 404.074,85.9631 543.056,224.946 138.983,138.982 224.946,330.983 224.946,543.056 0,212.073 -85.9631,404.074 -224.946,543.056 -138.982,138.983 -330.983,224.946 -543.056,224.946 -212.073,0 -404.074,-85.9631 -543.056,-224.946 -138.983,-138.982 -224.946,-330.983 -224.946,-543.056 0,-212.073 85.9631,-404.074 224.946,-543.056 138.982,-138.983 330.983,-224.946 543.056,-224.946zm497.806 270.196c-127.396,-127.397 -303.398,-206.195 -497.806,-206.195 -194.407,0 -370.409,78.7973 -497.806,206.195 -127.397,127.396 -206.195,303.398 -206.195,497.806 0,194.407 78.7973,370.409 206.195,497.806 127.396,127.397 303.398,206.195 497.806,206.195 194.407,0 370.409,-78.7973 497.806,-206.195 127.397,-127.396 206.195,-303.398 206.195,-497.806 0,-194.407 -78.7973,-370.409 -206.195,-497.806z"/>
 </g>
 <rect class="fil1" width="2048" height="2048"/>
</svg>
