<?xml version="1.0" encoding="UTF-8"?>
<!DOCTYPE svg PUBLIC "-//W3C//DTD SVG 1.1//EN" "http://www.w3.org/Graphics/SVG/1.1/DTD/svg11.dtd">
<!-- Creator: CorelDRAW -->
<svg xmlns="http://www.w3.org/2000/svg" xml:space="preserve" width="2048px" height="2048px" style="shape-rendering:geometricPrecision; text-rendering:geometricPrecision; image-rendering:optimizeQuality; fill-rule:evenodd; clip-rule:evenodd"
viewBox="0 0 2048 2048"
 xmlns:xlink="http://www.w3.org/1999/xlink">
 <defs>
  <style type="text/css">
   <![CDATA[
    .fil1 {fill:none}
    .fil0 {fill:#212121;fill-rule:nonzero}
   ]]>
  </style>
 </defs>
 <g id="Layer_x0020_1">
  <metadata id="CorelCorpID_0Corel-Layer"/>
  <g id="_475143816">
   <path id="_178229688" class="fil0" d="M556.791 333.516l928.001 0 32.0008 0 0 32.0008 0 1312 0 32.0008 -32.0008 0 -928.001 0 -32.0008 0 0 -32.0008 0 -1312 0 -32.0008 32.0008 0zm896 64.0016l-863.999 0 0 1248 863.999 0 0 -1248z"/>
   <g>
    <path id="_178228584" class="fil0" d="M1327.57 873.683l-54.0308 -0.266929 0.0625985 -15.9378 -0.0791339 15.9992c-8.83583,-0.0437008 -15.9638,-7.24253 -15.9201,-16.0784 0.00354331,-0.616536 0.0425197,-1.22599 0.113386,-1.82362 6.73583,-125.12 -35.5902,-137.446 -99.1087,-155.923 -40.2,-11.6941 -87.7477,-25.5272 -137.908,-64.2225 -50.2288,38.2536 -97.7127,51.6 -137.857,62.8808 -63.6119,17.876 -105.947,29.7721 -98.9316,155.785l0.0389764 -0.00236221c0.490158,8.82284 -6.26339,16.3748 -15.0862,16.865 -0.812599,0.0448819 -1.61457,0.0283465 -2.40118,-0.0448819l-52.4575 -0.257481 0 627.14 613.565 3.02717 0 -627.14zm-37.3382 -32.061l52.0111 0.257481c0.437008,-0.0354331 0.879922,-0.0555119 1.32756,-0.0555119 8.83583,0 16.0004,7.16457 16.0004,16.0004l0 659.015 -0.00236221 0 0.0011811 0.0791339c-0.0437008,8.83583 -7.24253,15.9638 -16.0784,15.9201l0 -0.0614174 -644.16 -3.17835c-0.438189,0.0354331 -0.879922,0.0555119 -1.32756,0.0555119 -8.83583,0 -16.0004,-7.16457 -16.0004,-16.0004l0 -659.015 0.00236221 0 -0.0011811 -0.0791339c0.0437008,-8.83583 7.24253,-15.9638 16.0784,-15.9201l0 0.0614174 53.2559 0.262205c-3.67441,-135.813 47.4697,-150.212 122.878,-171.402 39.6697,-11.1473 87.0272,-24.4618 135.404,-64.0016 5.79922,-5.66221 15.0614,-6.12756 21.4181,-0.820867l-10.2532 12.2835 10.2496 -12.2504c48.8469,40.774 96.5398,54.6485 136.446,66.2564 75.3591,21.9201 126.462,36.8126 122.75,172.593z"/>
    <g>
     <path id="_178228632" class="fil0" d="M811.873 1176.87l52.8993 0.0307087 0 7.9689 0.00472441 -7.99961c4.41615,0.00236221 7.99489,3.58465 7.99489,7.99961l0.0011811 0 0 219.082c0,4.41851 -3.58229,8.00079 -8.00079,8.00079 -0.240945,0 -0.479528,-0.0106299 -0.714567,-0.0318898l-52.8993 -0.0307087 0 -7.9689 -0.00472441 7.99961c-4.41615,-0.00236221 -7.99489,-3.58465 -7.99489,-7.99961l-0.0011811 0 0 -219.082c0,-4.41851 3.58229,-8.00079 8.00079,-8.00079 0.240945,0 0.479528,0.0106299 0.714567,0.0318898zm44.8985 15.9638l-37.6122 -0.0212599 0 203.144 37.6122 0.0212599 0 -203.144z"/>
     <path id="_178228368" class="fil0" d="M823.79 1145.58l28.3524 0.0177165 0 -51.8741 -28.3524 -0.0165354 0 51.8729zm36.3485 15.9602l-43.6441 -0.0271654c-0.232677,0.0200788 -0.467717,0.0318898 -0.705119,0.0318898 -4.41851,0 -8.00079,-3.58229 -8.00079,-8.00079l0 -67.8107 0.0011811 0 0 -0.00472441c0.00236221,-4.41733 3.58701,-7.99725 8.00434,-7.99489l0 0.0307087 43.6441 0.0259843c0.232677,-0.0200788 0.467717,-0.0318898 0.705119,-0.0318898 4.41851,0 8.00079,3.58229 8.00079,8.00079l0 67.8119 -0.0011811 0 0 0.00472441c-0.00236221,4.41733 -3.58701,7.99725 -8.00434,7.99489l0 -0.0307087z"/>
     <path id="_178228344" class="fil0" d="M802.589 1176.86l70.754 0.0413386 4.18937 -15.3567 -79.1316 -0.0472441 4.18819 15.3626zm76.8343 15.9827l-82.2095 -0.0484252c-3.79016,0.343701 -7.39489,-2.06575 -8.43072,-5.86418l7.71851 -2.10473 -7.6878 2.0941 -8.34095 -30.5988c-0.325985,-0.872835 -0.504331,-1.81654 -0.504331,-2.80276 0.00236221,-4.41733 3.58701,-7.99725 8.00434,-7.99489l0 0.0307087 99.2682 0.0590552c0.924804,-0.0838583 1.87914,-0.00826772 2.82638,0.250394 4.2626,1.16221 6.77599,5.56063 5.61378,9.82324l-0.0307087 -0.00826772 -8.34331 30.5894c-0.660237,3.75473 -3.94016,6.60827 -7.88386,6.60591l0 -0.0307087z"/>
     <path id="_178229064" class="fil0" d="M809.107 1077.76l57.7217 0.0330709 3.55512 -15.3579 -64.8331 -0.0377953 3.5563 15.3626zm64.0642 15.9744l-69.7146 -0.0401575c-3.91181,0.348425 -7.58268,-2.22992 -8.49331,-6.16418l7.7941 -1.80473 -7.78111 1.7811 -7.11615 -30.7441c-0.226772,-0.741733 -0.348425,-1.52835 -0.348425,-2.34449 0.00236221,-4.41733 3.58701,-7.99725 8.00434,-7.99489l0 0.0307087 84.189 0.0496063c0.822048,-0.0732284 1.67244,-0.0212599 2.52047,0.174803 4.30394,0.99567 6.98504,5.29489 5.98937,9.59883l-0.0177165 -0.00354331 -7.12441 30.7736c-0.614174,3.81024 -3.9189,6.72048 -7.90158,6.71812l0 -0.0307087z"/>
     <path id="_178228920" class="fil0" d="M1245.62 1302.6l-372.842 -0.219685 0 93.6024 372.842 0.218504 0 -93.6013zm-380.838 -16.1622l388.134 0.229134c0.232677,-0.0200788 0.467717,-0.0318898 0.705119,-0.0318898 4.41851,0 8.00079,3.58229 8.00079,8.00079l0 109.539 -0.0011811 0 0 0.00472441c-0.00236221,4.41733 -3.58701,7.99725 -8.00434,7.99489l0 -0.0307087 -388.134 -0.227953c-0.232677,0.0200788 -0.467717,0.0318898 -0.705119,0.0318898 -4.41851,0 -8.00079,-3.58229 -8.00079,-8.00079l0 -109.54 0.0011811 0 0 -0.00472441c0.00236221,-4.41733 3.58701,-7.99725 8.00434,-7.99489l0 0.0307087z"/>
     <path id="_178228872" class="fil0" d="M1067.16 1044.33c0.362599,-4.40079 -2.91142,-8.263 -7.31221,-8.6256 -4.40079,-0.362599 -8.263,2.91142 -8.6256,7.31221 -1.52244,17.7957 -24.9721,32.8217 -50.5288,49.1965 -9.43583,6.04607 -19.1421,12.2646 -28.4067,19.0465 -42.4075,31.0453 -73.1611,71.3067 -18.6815,145.723 2.60551,3.55512 7.60158,4.3252 11.1567,1.71969 3.55512,-2.60551 4.3252,-7.60158 1.71969,-11.1567 -46.3122,-63.2599 -20.4768,-97.2615 15.2421,-123.41 8.80867,-6.44764 18.3331,-12.5504 27.5941,-18.4843 29.0197,-18.5929 55.6453,-35.654 57.8422,-61.3217z"/>
     <path id="_178228416" class="fil0" d="M1067.16 1043.02c-0.362599,-4.40079 -4.22481,-7.67481 -8.6256,-7.31221 -4.40079,0.362599 -7.67481,4.22481 -7.31221,8.6256 2.19803,25.6666 28.8236,42.7571 57.8434,61.3843 9.23268,5.9256 18.7288,12.0213 27.5197,18.463 35.7567,26.1992 61.6595,60.2374 15.3165,123.486 -2.60551,3.55512 -1.83543,8.55119 1.71969,11.1567 3.55512,2.60551 8.55119,1.83543 11.1567,-1.71969 54.5138,-74.4001 23.6906,-114.698 -18.7559,-145.799 -9.23741,-6.7689 -18.9201,-12.9839 -28.3323,-19.0252 -25.5567,-16.4043 -49.0063,-31.4575 -50.53,-49.2591z"/>
     <path id="_178228824" class="fil0" d="M811.977 1000.33c-3.26221,-5.69292 -5.8441,-11.9705 -7.59686,-18.6484l7.71851 -2.0315 -7.73741 2.03268c-0.0578741,-0.222047 -0.106299,-0.446457 -0.145276,-0.668504 -1.66063,-6.54095 -2.55827,-13.435 -2.55827,-20.5087 0,-13.311 3.10748,-25.7988 8.48741,-36.4394 5.65748,-11.1874 13.8567,-20.3528 23.6551,-26.3492l-0.0106299 -0.0165354c2.8441,-1.73977 6.34607,-1.49055 8.88426,0.355512 9.55985,6.01063 17.5618,15.0496 23.1118,26.0315 5.38111,10.6488 8.48859,23.1414 8.48859,36.4512 0,7.3252 -0.954331,14.4449 -2.72244,21.1748 -1.82008,6.9319 -4.53189,13.4256 -7.97127,19.2851l-6.8752 -4.03111 6.89882 4.05118c-1.61929,2.75788 -4.63819,4.18701 -7.6252,3.91772l-36.7512 -0.0200788 0 -7.9689 -0.00472441 7.99961c-3.2067,-0.0011811 -5.97166,-1.89095 -7.24607,-4.61693zm7.84134 -22.7079c1.05709,4.02402 2.46732,7.82953 4.18111,11.3587l27.9378 0.0153543c1.71378,-3.52559 3.12284,-7.32756 4.17756,-11.3457 1.40079,-5.33386 2.15788,-11.0835 2.15788,-17.1118 0,-10.787 -2.46732,-20.811 -6.73819,-29.263 -3.47126,-6.8693 -8.11772,-12.6957 -13.5721,-17.0268 -5.45197,4.32402 -10.0961,10.1433 -13.5662,17.0055 -4.26969,8.44489 -6.73701,18.4642 -6.73701,29.2512 0,5.81339 0.701575,11.3622 1.99843,16.5213m0.178347 0.590552l-0.0177165 0.00472441"/>
     <path id="_178229040" class="fil0" d="M837.966 988.991c9.38268,0.00590552 17.9067,3.84095 24.0768,10.0158 6.17245,6.17717 10.0051,14.6929 10.0051,24.0508l0 32.1933c0,4.41851 -3.58229,8.00079 -8.00079,8.00079 -0.240945,0 -0.479528,-0.0106299 -0.714567,-0.0318898l-51.4477 -0.0307087 0 -7.9689 -0.00472441 7.99961c-4.41615,-0.00236221 -7.99489,-3.58465 -7.99489,-7.99961l-0.0011811 0 0 -32.1933 0 -0.0153543 0.0318898 0c0.00354331,-9.37678 3.8374,-17.8937 10.0039,-24.0579 6.15,-6.14764 14.6587,-9.96379 24.0307,-9.96261l0 -0.0318898 0.0153543 0 0 0.0318898zm12.7642 21.2669c-3.28229,-3.28465 -7.80355,-5.32678 -12.7642,-5.32914l0 0.0318898 -0.0153543 0 0 -0.0318898c-4.95709,0 -9.48426,2.04449 -12.7795,5.33741 -3.27756,3.2752 -5.31496,7.79056 -5.31733,12.7453l0.0318898 0 0 0.0153543 0 24.2292 36.1607 0.0212599 0 -24.2197c0,-4.98544 -2.03622,-9.51733 -5.31615,-12.7996z"/>
     <path id="_178228104" class="fil0" d="M943.511 1247.93l232.087 0.137008 0 7.9689 0.00472441 -7.99961c3.26575,0.0011811 6.07323,1.96299 7.31457,4.7693l20.5347 37.4977 0.0248032 -0.0141732c2.12126,3.8752 0.700394,8.7378 -3.17481,10.8591 -1.44567,0.791339 -3.02717,1.09016 -4.55433,0.951969l-273.819 -0.16063 0 -7.9689 -0.00472441 7.99961c-4.41733,-0.00236221 -7.99725,-3.58701 -7.99489,-8.00434 0.0011811,-1.56024 0.45,-3.01654 1.22362,-4.24725l20.6351 -37.6571 -0.011811 -0.00708662c1.57559,-2.87717 4.66418,-4.39961 7.73505,-4.12441zm227.361 16.0725l-223.342 -0.132284 -12.1323 22.1398 247.605 0.144095 -12.1311 -22.1516z"/>
     <path id="_178228248" class="fil0" d="M1018.39 1347.23c5.37284,0.00354331 10.2177,2.16496 13.7032,5.6504 3.50788,3.50788 5.67756,8.35512 5.67756,13.7032l0 0.00826772 -0.0318898 0c-0.00354331,5.34922 -2.17323,10.1929 -5.67638,13.6937 -3.5067,3.50315 -8.33977,5.67166 -13.6642,5.67166l-0.00826772 0 0 -0.0318898c-5.37284,-0.0011811 -10.2165,-2.1626 -13.7032,-5.64922l-0.0011811 0.0011811c-0.191339,-0.191339 -0.370866,-0.389764 -0.538583,-0.595276 -3.18898,-3.45591 -5.1378,-8.06221 -5.1378,-13.1102l0 -0.0106299 0.0318898 0c0.00354331,-5.33859 2.16614,-10.1764 5.66103,-13.676l-0.0153543 -0.0153543 0.00236221 -0.0011811 -0.0011811 -0.0011811 0.125197 -0.121654c3.47362,-3.41103 8.26418,-5.51693 13.5662,-5.51575l0 -0.0318898 0.0106299 0 0 0.0318898zm2.39055 16.963c-0.63189,-0.63189 -1.4811,-1.0252 -2.39055,-1.0252l0 0.0318898 -0.0106299 0 0 -0.0318898c-0.890552,0 -1.72087,0.373229 -2.34331,0.979135l-0.0377953 0.0377953 -5.65512 -5.65867 5.62559 5.6563c-0.61063,0.609449 -0.989765,1.45276 -0.989765,2.37874l0.0318898 0 0 0.0106299c0,0.831497 0.288189,1.59095 0.766536,2.17677l0.223229 0.21378 -0.0011811 0.0011811c0.630709,0.630709 1.4811,1.02402 2.39055,1.02402l0 -0.0318898 0.00826772 0c0.95315,0 1.80709,-0.376772 2.41299,-0.982678 0.61063,-0.609449 0.989765,-1.45512 0.989765,-2.3811l-0.0318898 0 0 -0.00826772c0,-0.934253 -0.379134,-1.7811 -0.988583,-2.39055zm-15.9673 -11.4473c3.13229,-3 8.10709,-2.95748 11.1886,0.125197"/>
     <path id="_178227792" class="fil0" d="M1059.19 1307.42c5.37284,0.00590552 10.2189,2.16614 13.7043,5.65158 3.50788,3.50788 5.67756,8.35512 5.67756,13.7032l0 0.00708662 -0.0318898 0c-0.0011811,5.3504 -2.17323,10.1941 -5.67638,13.6949 -3.48898,3.48544 -8.32323,5.64095 -13.6665,5.63977l0 0.0318898 -0.00708662 0 0 -0.0318898c-5.3504,-0.00354331 -10.1965,-2.17441 -13.702,-5.68111 -3.50551,-3.5067 -5.67756,-8.34213 -5.67756,-13.6713l0 -0.00826772 0.0318898 0c0.00354331,-5.34922 2.17323,-10.1941 5.67638,-13.6949 3.50551,-3.50315 8.33859,-5.67284 13.663,-5.67284l0.00826772 0 0 0.0318898zm2.39173 16.9642c-0.63189,-0.63189 -1.48228,-1.02638 -2.39173,-1.02638l0 0.0318898 -0.00826772 0c-0.950788,0 -1.80473,0.377953 -2.41181,0.983859 -0.61063,0.609449 -0.989765,1.45394 -0.989765,2.38229l0.0318898 0 0 0.00826772c0,0.95315 0.379134,1.80945 0.988583,2.42008 0.611811,0.612993 1.45984,0.994489 2.38937,0.994489l0 -0.0318898 0.00708662 0 0 0.0318898c0.930709,0 1.78819,-0.388583 2.41536,-1.01457 0.61063,-0.609449 0.989765,-1.45512 0.989765,-2.38229l-0.0318898 0 0 -0.00708662c0,-0.934253 -0.379134,-1.7811 -0.988583,-2.39055z"/>
     <path id="_178227624" class="fil0" d="M1100 1347.28c5.35158,0.0011811 10.1976,2.17677 13.7008,5.68111 3.50788,3.51024 5.67756,8.34804 5.67756,13.6748l0 0.00472441 -0.0318898 0c-0.0011811,5.3693 -2.16024,10.213 -5.64449,13.6973l0.0011811 0.0011811c-0.191339,0.191339 -0.389764,0.370866 -0.595276,0.538583 -3.45355,3.18544 -8.05631,5.13307 -13.1032,5.13307l-0.00472441 0 0 -0.0318898c-5.35158,-0.0011811 -10.1988,-2.17441 -13.7043,-5.68111 -3.50551,-3.50906 -5.67756,-8.34568 -5.67756,-13.6748l0 -0.00472441 0.0318898 0c0.0011811,-5.34804 2.17205,-10.1941 5.67638,-13.6973 3.50788,-3.50315 8.34331,-5.67284 13.6689,-5.67284l0.00472441 0 0 0.0318898zm2.38819 16.9323c-0.612993,-0.612993 -1.45984,-0.994489 -2.38819,-0.994489l0 0.0318898 -0.00472441 0c-0.955513,0 -1.81063,0.377953 -2.41772,0.983859 -0.61063,0.609449 -0.989765,1.4563 -0.989765,2.38465l0.0318898 0 0 0.00472441c0,0.955513 0.379134,1.81299 0.988583,2.42362 0.611811,0.612993 1.46102,0.994489 2.39173,0.994489l0 -0.0318898 0.00472441 0c0.832678,0 1.58977,-0.288189 2.17323,-0.765355l0.210236 -0.219685 0.0011811 0.0011811c0.628347,-0.628347 1.01929,-1.47638 1.01929,-2.38465l-0.0318898 0 0 -0.00472441c0,-0.955513 -0.379134,-1.81299 -0.988583,-2.42362z"/>
     <path id="_178227984" class="fil0" d="M1051.21 1044.14c0,4.41851 3.58229,8.00079 8.00079,8.00079 4.41851,0 8.00079,-3.58229 8.00079,-8.00079l0 -40.1197c0,-4.41851 -3.58229,-8.00079 -8.00079,-8.00079 -4.41851,0 -8.00079,3.58229 -8.00079,8.00079l0 40.1197z"/>
     <path id="_178228200" class="fil0" d="M1056.44 984.512c3.84803,-2.15669 5.2193,-7.02638 3.0626,-10.8744 -2.15669,-3.84803 -7.02638,-5.2193 -10.8744,-3.0626 -3.46299,1.94055 -6.28111,4.76575 -8.24174,8.11064 -1.96772,3.36024 -3.06024,7.20119 -3.06024,11.1591 0,6.08032 2.47559,11.6008 6.47717,15.6036 3.99803,4.0004 9.52914,6.47835 15.6343,6.48308 4.24961,0.00354331 8.29016,-1.19528 11.7118,-3.33425l-4.2189 -6.78189 4.2189 6.75001 0.00236221 -0.0011811 0.0212599 0.034252c0.294095,-0.184252 0.570473,-0.383859 0.832678,-0.597638 3.08504,-2.13425 5.63504,-5.04095 7.32048,-8.51812 1.91575,-3.96969 0.250394,-8.74135 -3.71929,-10.6571 -3.96969,-1.91575 -8.74135,-0.250394 -10.6571,3.71929 -0.437008,0.902363 -1.06536,1.65945 -1.81063,2.2252 -0.152362,0.0814961 -0.302362,0.168898 -0.451181,0.262205l0.00708662 0.011811c-0.981497,0.608268 -2.10709,0.949607 -3.25748,0.949607 -1.68307,-0.0011811 -3.21378,-0.688583 -4.32166,-1.79646 -1.10433,-1.10433 -1.78819,-2.64331 -1.78819,-4.35237 0,-1.14331 0.28937,-2.20866 0.809056,-3.09685 0.530315,-0.904725 1.31811,-1.68425 2.30315,-2.23583zm11.2099 9.33544c1.89685,0.172441 3.71575,1.01811 5.07638,2.44961l-5.07638 -2.44961z"/>
    </g>
   </g>
   <g>
    <path id="_178227696" class="fil0" d="M563.478 274.48c0,-8.83583 -7.16457,-16.0004 -16.0004,-16.0004 -8.83583,0 -16.0004,7.16457 -16.0004,16.0004l0 91.0371c0,8.83583 7.16457,16.0004 16.0004,16.0004 8.83583,0 16.0004,-7.16457 16.0004,-16.0004l0 -91.0371z"/>
    <path id="_178227840" class="fil0" d="M619.539 274.48c0,-8.83583 -7.16457,-16.0004 -16.0004,-16.0004 -8.83583,0 -16.0004,7.16457 -16.0004,16.0004l0 91.0371c0,8.83583 7.16457,16.0004 16.0004,16.0004 8.83583,0 16.0004,-7.16457 16.0004,-16.0004l0 -91.0371z"/>
    <path id="_178228128" class="fil0" d="M675.601 274.48c0,-8.83583 -7.16457,-16.0004 -16.0004,-16.0004 -8.83583,0 -16.0004,7.16457 -16.0004,16.0004l0 91.0371c0,8.83583 7.16457,16.0004 16.0004,16.0004 8.83583,0 16.0004,-7.16457 16.0004,-16.0004l0 -91.0371z"/>
    <path id="_475164576" class="fil0" d="M731.662 274.48c0,-8.83583 -7.16457,-16.0004 -16.0004,-16.0004 -8.83583,0 -16.0004,7.16457 -16.0004,16.0004l0 91.0371c0,8.83583 7.16457,16.0004 16.0004,16.0004 8.83583,0 16.0004,-7.16457 16.0004,-16.0004l0 -91.0371z"/>
    <path id="_475159368" class="fil0" d="M787.724 274.48c0,-8.83583 -7.16457,-16.0004 -16.0004,-16.0004 -8.83583,0 -16.0004,7.16457 -16.0004,16.0004l0 91.0371c0,8.83583 7.16457,16.0004 16.0004,16.0004 8.83583,0 16.0004,-7.16457 16.0004,-16.0004l0 -91.0371z"/>
    <path id="_475142688" class="fil0" d="M843.785 274.48c0,-8.83583 -7.16457,-16.0004 -16.0004,-16.0004 -8.83583,0 -16.0004,7.16457 -16.0004,16.0004l0 91.0371c0,8.83583 7.16457,16.0004 16.0004,16.0004 8.83583,0 16.0004,-7.16457 16.0004,-16.0004l0 -91.0371z"/>
    <path id="_475168320" class="fil0" d="M899.846 274.48c0,-8.83583 -7.16457,-16.0004 -16.0004,-16.0004 -8.83583,0 -16.0004,7.16457 -16.0004,16.0004l0 91.0371c0,8.83583 7.16457,16.0004 16.0004,16.0004 8.83583,0 16.0004,-7.16457 16.0004,-16.0004l0 -91.0371z"/>
    <path id="_475162824" class="fil0" d="M955.908 274.48c0,-8.83583 -7.16457,-16.0004 -16.0004,-16.0004 -8.83583,0 -16.0004,7.16457 -16.0004,16.0004l0 91.0371c0,8.83583 7.16457,16.0004 16.0004,16.0004 8.83583,0 16.0004,-7.16457 16.0004,-16.0004l0 -91.0371z"/>
    <path id="_475158552" class="fil0" d="M1011.97 274.48c0,-8.83583 -7.16457,-16.0004 -16.0004,-16.0004 -8.83583,0 -16.0004,7.16457 -16.0004,16.0004l0 91.0371c0,8.83583 7.16457,16.0004 16.0004,16.0004 8.83583,0 16.0004,-7.16457 16.0004,-16.0004l0 -91.0371z"/>
    <path id="_475153632" class="fil0" d="M1068.03 274.48c0,-8.83583 -7.16457,-16.0004 -16.0004,-16.0004 -8.83583,0 -16.0004,7.16457 -16.0004,16.0004l0 91.0371c0,8.83583 7.16457,16.0004 16.0004,16.0004 8.83583,0 16.0004,-7.16457 16.0004,-16.0004l0 -91.0371z"/>
    <path id="_475147992" class="fil0" d="M1236.21 274.48c0,-8.83583 -7.16457,-16.0004 -16.0004,-16.0004 -8.83583,0 -16.0004,7.16457 -16.0004,16.0004l0 91.0371c0,8.83583 7.16457,16.0004 16.0004,16.0004 8.83583,0 16.0004,-7.16457 16.0004,-16.0004l0 -91.0371z"/>
    <path id="_475145808" class="fil0" d="M1124.09 274.48c0,-8.83583 -7.16457,-16.0004 -16.0004,-16.0004 -8.83583,0 -16.0004,7.16457 -16.0004,16.0004l0 91.0371c0,8.83583 7.16457,16.0004 16.0004,16.0004 8.83583,0 16.0004,-7.16457 16.0004,-16.0004l0 -91.0371z"/>
    <path id="_475145496" class="fil0" d="M1180.15 274.48c0,-8.83583 -7.16457,-16.0004 -16.0004,-16.0004 -8.83583,0 -16.0004,7.16457 -16.0004,16.0004l0 91.0371c0,8.83583 7.16457,16.0004 16.0004,16.0004 8.83583,0 16.0004,-7.16457 16.0004,-16.0004l0 -91.0371z"/>
    <path id="_475145472" class="fil0" d="M1292.28 274.48c0,-8.83583 -7.16457,-16.0004 -16.0004,-16.0004 -8.83583,0 -16.0004,7.16457 -16.0004,16.0004l0 91.0371c0,8.83583 7.16457,16.0004 16.0004,16.0004 8.83583,0 16.0004,-7.16457 16.0004,-16.0004l0 -91.0371z"/>
    <path id="_475145640" class="fil0" d="M1348.34 274.48c0,-8.83583 -7.16457,-16.0004 -16.0004,-16.0004 -8.83583,0 -16.0004,7.16457 -16.0004,16.0004l0 91.0371c0,8.83583 7.16457,16.0004 16.0004,16.0004 8.83583,0 16.0004,-7.16457 16.0004,-16.0004l0 -91.0371z"/>
    <path id="_475145544" class="fil0" d="M1404.4 274.48c0,-8.83583 -7.16457,-16.0004 -16.0004,-16.0004 -8.83583,0 -16.0004,7.16457 -16.0004,16.0004l0 91.0371c0,8.83583 7.16457,16.0004 16.0004,16.0004 8.83583,0 16.0004,-7.16457 16.0004,-16.0004l0 -91.0371z"/>
    <path id="_475145136" class="fil0" d="M1460.46 274.48c0,-8.83583 -7.16457,-16.0004 -16.0004,-16.0004 -8.83583,0 -16.0004,7.16457 -16.0004,16.0004l0 91.0371c0,8.83583 7.16457,16.0004 16.0004,16.0004 8.83583,0 16.0004,-7.16457 16.0004,-16.0004l0 -91.0371z"/>
    <path id="_475145184" class="fil0" d="M1516.52 274.48c0,-8.83583 -7.16457,-16.0004 -16.0004,-16.0004 -8.83583,0 -16.0004,7.16457 -16.0004,16.0004l0 91.0371c0,8.83583 7.16457,16.0004 16.0004,16.0004 8.83583,0 16.0004,-7.16457 16.0004,-16.0004l0 -91.0371z"/>
   </g>
   <g>
    <path id="_475145088" class="fil0" d="M563.478 1682.48c0,-8.83583 -7.16457,-16.0004 -16.0004,-16.0004 -8.83583,0 -16.0004,7.16457 -16.0004,16.0004l0 91.0371c0,8.83583 7.16457,16.0004 16.0004,16.0004 8.83583,0 16.0004,-7.16457 16.0004,-16.0004l0 -91.0371z"/>
    <path id="_475145712" class="fil0" d="M619.539 1682.48c0,-8.83583 -7.16457,-16.0004 -16.0004,-16.0004 -8.83583,0 -16.0004,7.16457 -16.0004,16.0004l0 91.0371c0,8.83583 7.16457,16.0004 16.0004,16.0004 8.83583,0 16.0004,-7.16457 16.0004,-16.0004l0 -91.0371z"/>
    <path id="_475145112" class="fil0" d="M675.601 1682.48c0,-8.83583 -7.16457,-16.0004 -16.0004,-16.0004 -8.83583,0 -16.0004,7.16457 -16.0004,16.0004l0 91.0371c0,8.83583 7.16457,16.0004 16.0004,16.0004 8.83583,0 16.0004,-7.16457 16.0004,-16.0004l0 -91.0371z"/>
    <path id="_475144992" class="fil0" d="M731.662 1682.48c0,-8.83583 -7.16457,-16.0004 -16.0004,-16.0004 -8.83583,0 -16.0004,7.16457 -16.0004,16.0004l0 91.0371c0,8.83583 7.16457,16.0004 16.0004,16.0004 8.83583,0 16.0004,-7.16457 16.0004,-16.0004l0 -91.0371z"/>
    <path id="_475144632" class="fil0" d="M787.724 1682.48c0,-8.83583 -7.16457,-16.0004 -16.0004,-16.0004 -8.83583,0 -16.0004,7.16457 -16.0004,16.0004l0 91.0371c0,8.83583 7.16457,16.0004 16.0004,16.0004 8.83583,0 16.0004,-7.16457 16.0004,-16.0004l0 -91.0371z"/>
    <path id="_475144560" class="fil0" d="M843.785 1682.48c0,-8.83583 -7.16457,-16.0004 -16.0004,-16.0004 -8.83583,0 -16.0004,7.16457 -16.0004,16.0004l0 91.0371c0,8.83583 7.16457,16.0004 16.0004,16.0004 8.83583,0 16.0004,-7.16457 16.0004,-16.0004l0 -91.0371z"/>
    <path id="_475144920" class="fil0" d="M899.846 1682.48c0,-8.83583 -7.16457,-16.0004 -16.0004,-16.0004 -8.83583,0 -16.0004,7.16457 -16.0004,16.0004l0 91.0371c0,8.83583 7.16457,16.0004 16.0004,16.0004 8.83583,0 16.0004,-7.16457 16.0004,-16.0004l0 -91.0371z"/>
    <path id="_475144872" class="fil0" d="M955.908 1682.48c0,-8.83583 -7.16457,-16.0004 -16.0004,-16.0004 -8.83583,0 -16.0004,7.16457 -16.0004,16.0004l0 91.0371c0,8.83583 7.16457,16.0004 16.0004,16.0004 8.83583,0 16.0004,-7.16457 16.0004,-16.0004l0 -91.0371z"/>
    <path id="_475144848" class="fil0" d="M1011.97 1682.48c0,-8.83583 -7.16457,-16.0004 -16.0004,-16.0004 -8.83583,0 -16.0004,7.16457 -16.0004,16.0004l0 91.0371c0,8.83583 7.16457,16.0004 16.0004,16.0004 8.83583,0 16.0004,-7.16457 16.0004,-16.0004l0 -91.0371z"/>
    <path id="_475145016" class="fil0" d="M1068.03 1682.48c0,-8.83583 -7.16457,-16.0004 -16.0004,-16.0004 -8.83583,0 -16.0004,7.16457 -16.0004,16.0004l0 91.0371c0,8.83583 7.16457,16.0004 16.0004,16.0004 8.83583,0 16.0004,-7.16457 16.0004,-16.0004l0 -91.0371z"/>
    <path id="_475144680" class="fil0" d="M1236.21 1682.48c0,-8.83583 -7.16457,-16.0004 -16.0004,-16.0004 -8.83583,0 -16.0004,7.16457 -16.0004,16.0004l0 91.0371c0,8.83583 7.16457,16.0004 16.0004,16.0004 8.83583,0 16.0004,-7.16457 16.0004,-16.0004l0 -91.0371z"/>
    <path id="_475144800" class="fil0" d="M1124.09 1682.48c0,-8.83583 -7.16457,-16.0004 -16.0004,-16.0004 -8.83583,0 -16.0004,7.16457 -16.0004,16.0004l0 91.0371c0,8.83583 7.16457,16.0004 16.0004,16.0004 8.83583,0 16.0004,-7.16457 16.0004,-16.0004l0 -91.0371z"/>
    <path id="_475144752" class="fil0" d="M1180.15 1682.48c0,-8.83583 -7.16457,-16.0004 -16.0004,-16.0004 -8.83583,0 -16.0004,7.16457 -16.0004,16.0004l0 91.0371c0,8.83583 7.16457,16.0004 16.0004,16.0004 8.83583,0 16.0004,-7.16457 16.0004,-16.0004l0 -91.0371z"/>
    <path id="_475143960" class="fil0" d="M1292.28 1682.48c0,-8.83583 -7.16457,-16.0004 -16.0004,-16.0004 -8.83583,0 -16.0004,7.16457 -16.0004,16.0004l0 91.0371c0,8.83583 7.16457,16.0004 16.0004,16.0004 8.83583,0 16.0004,-7.16457 16.0004,-16.0004l0 -91.0371z"/>
    <path id="_475144248" class="fil0" d="M1348.34 1682.48c0,-8.83583 -7.16457,-16.0004 -16.0004,-16.0004 -8.83583,0 -16.0004,7.16457 -16.0004,16.0004l0 91.0371c0,8.83583 7.16457,16.0004 16.0004,16.0004 8.83583,0 16.0004,-7.16457 16.0004,-16.0004l0 -91.0371z"/>
    <path id="_475143936" class="fil0" d="M1404.4 1682.48c0,-8.83583 -7.16457,-16.0004 -16.0004,-16.0004 -8.83583,0 -16.0004,7.16457 -16.0004,16.0004l0 91.0371c0,8.83583 7.16457,16.0004 16.0004,16.0004 8.83583,0 16.0004,-7.16457 16.0004,-16.0004l0 -91.0371z"/>
    <path id="_475144200" class="fil0" d="M1460.46 1682.48c0,-8.83583 -7.16457,-16.0004 -16.0004,-16.0004 -8.83583,0 -16.0004,7.16457 -16.0004,16.0004l0 91.0371c0,8.83583 7.16457,16.0004 16.0004,16.0004 8.83583,0 16.0004,-7.16457 16.0004,-16.0004l0 -91.0371z"/>
    <path id="_475144080" class="fil0" d="M1516.52 1682.48c0,-8.83583 -7.16457,-16.0004 -16.0004,-16.0004 -8.83583,0 -16.0004,7.16457 -16.0004,16.0004l0 91.0371c0,8.83583 7.16457,16.0004 16.0004,16.0004 8.83583,0 16.0004,-7.16457 16.0004,-16.0004l0 -91.0371z"/>
   </g>
   <g>
    <path id="_475143720" class="fil0" d="M668.791 614.892l36.0603 -36.0603 4.6878 -4.6878 6.62481 0 49.2544 0 0 -49.2544 0 -6.62481 4.6878 -4.6878 36.0591 -36.0591 -137.374 0 0 137.374zm53.9977 -8.74725l-58.6855 58.6855 -11.3126 -11.3126 -16.0004 0 0 -192 0 -16.0004 16.0004 0 192 0 38.6256 0 -27.313 27.313 -58.6843 58.6843 0 58.63 0 16.0004 -16.0004 0 -58.63 0z"/>
    <path id="_475144056" class="fil0" d="M1377.48 664.83l-58.6855 -58.6855 -58.63 0 -16.0004 0 0 -16.0004 0 -58.63 -58.6843 -58.6843 -27.313 -27.313 38.6256 0 192 0 16.0004 0 0 16.0004 0 192 -16.0004 0 -11.3126 11.3126zm-40.7481 -85.9985l36.0603 36.0603 0 -137.374 -137.374 0 36.0591 36.0591 4.6878 4.6878 0 6.62481 0 49.2544 49.2544 0 6.62481 0 4.6878 4.6878z"/>
   </g>
  </g>
 </g>
 <rect class="fil1" width="2048" height="2048"/>
</svg>
