<?xml version="1.0" encoding="UTF-8"?>
<!DOCTYPE svg PUBLIC "-//W3C//DTD SVG 1.1//EN" "http://www.w3.org/Graphics/SVG/1.1/DTD/svg11.dtd">
<!-- Creator: CorelDRAW -->
<svg xmlns="http://www.w3.org/2000/svg" xml:space="preserve" width="2048px" height="2048px" style="shape-rendering:geometricPrecision; text-rendering:geometricPrecision; image-rendering:optimizeQuality; fill-rule:evenodd; clip-rule:evenodd"
viewBox="0 0 2048 2048"
 xmlns:xlink="http://www.w3.org/1999/xlink">
 <defs>
  <style type="text/css">
   <![CDATA[
    .fil1 {fill:none}
    .fil0 {fill:#212121;fill-rule:nonzero}
   ]]>
  </style>
 </defs>
 <g id="Layer_x0020_1">
  <metadata id="CorelCorpID_0Corel-Layer"/>
  <g id="_178229664">
   <path id="_178235160" class="fil0" d="M1048 1532.44c0,-13.2543 -10.7457,-24 -24,-24 -13.2543,0 -24,10.7457 -24,24l0 258.39c0,13.2543 10.7457,24 24,24 13.2543,0 24,-10.7457 24,-24l0 -258.39z"/>
   <path id="_178230960" class="fil0" d="M695.984 1161.53l220.767 107.03c39.6638,19.2295 67.8627,52.9583 81.3402,91.8036 13.4551,38.7803 12.2055,82.6619 -6.99922,122.274l-10.4622 21.5811 -21.5067 -10.4256 -220.767 -107.032c-39.6614,-19.2284 -67.8615,-52.9559 -81.339,-91.8024 -13.4563,-38.7827 -12.2067,-82.6619 6.99804,-122.274l10.4634 -21.5823 21.5055 10.4268zm199.954 150.155l-196.931 -95.4745c-5.10591,21.2646 -3.73937,43.1953 3.19725,63.1867 9.4252,27.1654 29.1744,50.7674 56.9658,64.2402l196.931 95.4757c5.10591,-21.2658 3.73937,-43.1965 -3.19607,-63.1867 -9.4252,-27.1654 -29.1733,-50.7674 -56.967,-64.2414z"/>
   <path id="_178230048" class="fil0" d="M1348.99 1216.21l-196.931 95.4745c-27.7937,13.474 -47.5418,37.076 -56.967,64.2414 -6.93544,19.9902 -8.30197,41.9209 -3.19607,63.1867l196.931 -95.4757c27.7914,-13.4728 47.5406,-37.0748 56.9658,-64.2402 6.93662,-19.9914 8.30316,-41.9221 3.19725,-63.1867zm-217.745 52.35l220.767 -107.03 21.5055 -10.4268 10.4634 21.5823c19.2047,39.6118 20.4543,83.491 6.99804,122.274 -13.4776,38.8465 -41.6776,72.5741 -81.339,91.8024l-220.767 107.032 -21.5067 10.4256 -10.4622 -21.5811c-19.2047,-39.6118 -20.4543,-83.4934 -6.99922,-122.274 13.4776,-38.8453 41.6764,-72.5741 81.3402,-91.8036z"/>
   <path id="_178229928" class="fil0" d="M729.826 942.54l198.691 96.3284 0.00236221 0.0011811c36.2882,17.5925 62.0894,48.4559 74.4225,83.9989 12.3106,35.4792 11.1673,75.6249 -6.40158,111.862l-0.186614 0.281103 -0.0011811 0.00236221 -10.5768 21.1547 -21.2055 -10.2803 -198.691 -96.3284c-36.2882,-17.5925 -62.0906,-48.4548 -74.4237,-84.0001 -12.3106,-35.4803 -11.1662,-75.626 6.40158,-111.865l10.4634 -21.5811 21.5055 10.4256zm177.878 139.453l-174.521 -84.6107c-3.69567,17.7709 -2.31969,35.9587 3.45945,52.6158 8.28072,23.8654 25.6323,44.5996 50.0504,56.4378l174.522 84.6107c3.69803,-17.7709 2.32087,-35.9587 -3.45945,-52.6158 -8.28072,-23.8642 -25.6311,-44.5985 -50.0493,-56.4367l-0.00236221 -0.0011811z"/>
   <path id="_178230408" class="fil0" d="M1314.82 997.383l-174.521 84.6107 -0.00236221 0.0011811c-24.4181,11.8382 -41.7685,32.5725 -50.0493,56.4367 -5.78032,16.6571 -7.15749,34.8449 -3.45945,52.6158l174.522 -84.6107c24.4181,-11.8382 41.7697,-32.5725 50.0504,-56.4378 5.77914,-16.6571 7.15512,-34.8449 3.45945,-52.6158zm-195.334 41.4863l198.691 -96.3284 21.5055 -10.4256 10.4634 21.5811c17.5677,36.2386 18.7122,76.3843 6.40158,111.865 -12.3331,35.5453 -38.1355,66.4075 -74.4237,84.0001l-198.691 96.3284 -21.2055 10.2803 -10.5768 -21.1547 -0.0011811 -0.00236221 -0.186614 -0.281103c-17.5689,-36.2374 -18.7122,-76.3831 -6.40158,-111.862 12.3331,-35.5429 38.1343,-66.4064 74.4225,-83.9989l0.00236221 -0.0011811z"/>
   <path id="_178230000" class="fil0" d="M760.284 739.547l178.821 86.6953c33.254,16.1209 56.8985,44.4048 68.2004,76.9796 11.2795,32.511 10.2331,69.2941 -5.86418,102.497l-10.4622 21.5811 -21.5067 -10.4256 -178.821 -86.6953c-33.254,-16.1221 -56.8997,-44.4048 -68.2016,-76.9796 -11.2795,-32.511 -10.2319,-69.2941 5.86536,-102.497l10.4634 -21.5811 21.5055 10.4256zm158.008 129.82l-154.258 -74.7863c-2.49331,14.5949 -1.1315,29.413 3.60236,43.0571 7.24961,20.8937 22.4445,39.0496 43.8284,49.4174l154.257 74.7863c2.49213,-14.5949 1.1315,-29.413 -3.60236,-43.0571 -7.24961,-20.8937 -22.4433,-39.0508 -43.8272,-49.4174z"/>
   <path id="_178230312" class="fil0" d="M1283.96 794.58l-154.258 74.7863c-21.3839,10.3665 -36.5776,28.5236 -43.8272,49.4174 -4.73386,13.6441 -6.09449,28.4622 -3.60236,43.0571l154.257 -74.7863c21.3839,-10.3677 36.5788,-28.5236 43.8284,-49.4174 4.73386,-13.6441 6.09567,-28.4622 3.60236,-43.0571zm-175.071 31.6618l178.821 -86.6953 21.5055 -10.4256 10.4634 21.5811c16.0973,33.2032 17.1449,69.9863 5.86536,102.497 -11.302,32.5748 -34.9477,60.8575 -68.2016,76.9796l-178.821 86.6953 -21.5067 10.4256 -10.4622 -21.5811c-16.0973,-33.2032 -17.1437,-69.9863 -5.86418,-102.497 11.302,-32.5748 34.9465,-60.8587 68.2004,-76.9796z"/>
   <path id="_178229088" class="fil0" d="M760.321 549.466l0.0011811 -0.0011811 12.0331 -12.0319 15.3425 7.43859 160.939 78.026c30.5209,14.7957 52.2237,40.7575 62.5985,70.6583 10.3524,29.837 9.39213,63.5953 -5.38111,94.0666l-4.59331 6.56221 -0.0011811 0.0011811 -12.0319 12.0331 -15.3437 -7.43977 -160.939 -78.026c-30.5209,-14.7957 -52.2237,-40.7575 -62.5985,-70.6583 -10.3524,-29.8382 -9.39213,-63.5953 5.38111,-94.0666l4.59331 -6.56221zm167.503 116.556l-135.905 -65.889c-1.48583,11.7012 -0.173622,23.4815 3.61418,34.3996 6.32126,18.2197 19.5744,34.0548 38.2252,43.0961l135.905 65.889c1.48701,-11.7012 0.174803,-23.4815 -3.61418,-34.3996 -6.32126,-18.2197 -19.5732,-34.0548 -38.2252,-43.0961z"/>
   <path id="_178229760" class="fil0" d="M1287.68 549.465l0.0011811 0.0011811 4.59331 6.56221c14.7732,30.4713 15.7335,64.2284 5.38111,94.0666 -10.3748,29.9008 -32.0776,55.8626 -62.5985,70.6583l-160.939 78.026 -15.3437 7.43977 -12.0319 -12.0331 -0.0011811 -0.0011811 -4.59331 -6.56221c-14.7732,-30.4713 -15.7335,-64.2296 -5.38111,-94.0666 10.3748,-29.9008 32.0776,-55.8626 62.5985,-70.6583l160.939 -78.026 15.3425 -7.43859 12.0331 12.0319zm-31.5969 50.6681l-135.905 65.889c-18.652,9.04135 -31.904,24.8764 -38.2252,43.0961 -3.78898,10.9181 -5.10119,22.6984 -3.61418,34.3996l135.905 -65.889c18.6508,-9.04135 31.904,-24.8764 38.2252,-43.0961 3.7878,-10.9181 5.1,-22.6984 3.61418,-34.3996z"/>
   <path id="_178229472" class="fil0" d="M1041.92 332.325c23.2914,14.3728 42.8398,38.1827 56.2926,67.9359 12.7642,28.2319 20.224,62.093 20.224,98.3209 0,37.4422 -7.39134,67.0808 -20.4662,91.0158 -13.435,24.5941 -32.4331,42.4866 -55.3335,56.113l0.022441 0.0366142c-8.31969,4.94646 -18.4169,4.28268 -25.8969,-0.870473 -21.9543,-13.2945 -41.4307,-30.6756 -55.7067,-54.4359 -14.4331,-24.0236 -23.1638,-53.9457 -23.1638,-91.8591 0,-36.228 7.45985,-70.089 20.224,-98.3209 13.7421,-30.3969 33.8445,-54.5894 57.8044,-68.8548l-0.022441 -0.0366142c8.36575,-4.97363 18.5303,-4.27677 26.0221,0.955513zm12.6059 87.6225c-7.063,-15.6213 -16.0677,-28.6701 -26.3622,-38.1532 -10.2945,9.48308 -19.2992,22.5307 -26.361,38.1532 -10.0417,22.2106 -15.9106,49.2662 -15.9106,78.6343 0,28.6571 6.11575,50.4685 16.226,67.2969 7.35709,12.2445 17.0492,22.1929 28.1717,30.4559 10.4528,-8.03623 19.1776,-17.7071 25.6807,-29.6126 9.24095,-16.9181 14.4662,-39.0118 14.4662,-68.1402 0,-29.3681 -5.8689,-56.4237 -15.9106,-78.6343z"/>
   <path id="_178229424" class="fil0" d="M1044.16 257.165c0,-8.83583 -7.16457,-16.0004 -16.0004,-16.0004 -8.83583,0 -16.0004,7.16457 -16.0004,16.0004l0 74.5654c0,8.83583 7.16457,16.0004 16.0004,16.0004 8.83583,0 16.0004,-7.16457 16.0004,-16.0004l0 -74.5654z"/>
  </g>
 </g>
 <rect class="fil1" width="2048" height="2048"/>
</svg>
