<?xml version="1.0" encoding="UTF-8"?>
<!DOCTYPE svg PUBLIC "-//W3C//DTD SVG 1.1//EN" "http://www.w3.org/Graphics/SVG/1.1/DTD/svg11.dtd">
<!-- Creator: CorelDRAW -->
<svg xmlns="http://www.w3.org/2000/svg" xml:space="preserve" width="2048px" height="2048px" style="shape-rendering:geometricPrecision; text-rendering:geometricPrecision; image-rendering:optimizeQuality; fill-rule:evenodd; clip-rule:evenodd"
viewBox="0 0 2048 2048"
 xmlns:xlink="http://www.w3.org/1999/xlink">
 <defs>
  <style type="text/css">
   <![CDATA[
    .fil1 {fill:none}
    .fil0 {fill:#212121;fill-rule:nonzero}
   ]]>
  </style>
 </defs>
 <g id="Layer_x0020_1">
  <metadata id="CorelCorpID_0Corel-Layer"/>
  <path class="fil0" d="M1621.1 1092.74c-13.3228,11.5973 -14.7225,31.8024 -3.1252,45.1252 11.5973,13.3228 31.8024,14.7225 45.1252,3.1252 47.7496,-41.5973 79.6359,-99.6107 92.9422,-161.467 9.12284,-42.4122 9.52678,-86.7579 0.329528,-128.939 -9.34843,-42.8788 -28.5248,-83.5619 -58.428,-117.889 -36.3201,-41.6929 -88.1552,-73.754 -157.005,-88.5851l0.011811 -0.0543308c-1.83425,-0.394488 -3.66614,-0.622441 -5.47914,-0.694489l-982.872 -126.336 -187.519 -40.3441 0.011811 -0.0543308c-17.2772,-3.71693 -34.2981,7.2756 -38.015,24.5528 -0.132284,0.615355 -0.244488,1.22953 -0.340158,1.8437l-69.965 325.212 -0.0543308 -0.011811c-3.71575,17.2772 7.27678,34.2981 24.554,38.0138 0.614174,0.132284 1.22717,0.243307 1.84016,0.338977l175.133 37.6784 0.438189 0.133465 -0.00354331 0.0177165 0.180709 0.0366142 613.933 186.599c16.8437,5.10827 34.6418,-4.40552 39.75,-21.2492 5.10827,-16.8437 -4.40552,-34.6418 -21.2492,-39.75l-613.826 -186.567c-1.69606,-0.687402 -3.47481,-1.23898 -5.32559,-1.63701l-6.73111 31.2839 6.62481 -31.2496 -146.086 -31.4292 56.9221 -264.585 154.958 33.339c1.45866,0.403937 2.96221,0.712205 4.50709,0.910631l4.07953 -31.7386 -4.0004 31.6252 984.98 126.607 0.0944883 0.0212599 0.00236221 -0.00944883 0.522048 0.0673229c53.9032,11.6776 94.0123,36.254 121.678,68.0138 22.5603,25.8981 37.0642,56.7579 44.1792,89.3894 7.26615,33.326 6.92245,68.4745 -0.329528,102.189 -10.4728,48.6851 -35.3327,94.1387 -72.443,126.467z"/>
  <path class="fil0" d="M1348.19 880.857c95.4355,0 181.841,38.6859 244.384,101.231 62.5453,62.5453 101.231,148.951 101.231,244.387 0,95.4355 -38.6859,181.839 -101.231,244.384 -62.543,62.5453 -148.949,101.231 -244.384,101.231 -95.4355,0 -181.84,-38.6859 -244.386,-101.231 -62.5453,-62.543 -101.231,-148.949 -101.231,-244.384 0,-95.4355 38.6859,-181.841 101.231,-244.387 62.5453,-62.5453 148.95,-101.231 244.386,-101.231zm199.134 146.482c-50.9587,-50.9587 -121.364,-82.48 -199.134,-82.48 -77.7697,0 -148.175,31.5201 -199.135,82.48 -50.9599,50.9599 -82.48,121.367 -82.48,199.136 0,77.7697 31.5213,148.175 82.48,199.134 50.9599,50.9599 121.365,82.48 199.135,82.48 77.7697,0 148.175,-31.5213 199.134,-82.48 50.9599,-50.9599 82.48,-121.364 82.48,-199.134 0,-77.7697 -31.5201,-148.176 -82.48,-199.136z"/>
  <path class="fil0" d="M1348.19 1127.36c27.365,0 52.1433,11.0953 70.0808,29.0327 17.9362,17.9374 29.0315,42.7158 29.0315,70.0819 0,27.365 -11.0965,52.1457 -29.0315,70.0808 -17.9374,17.9374 -42.7158,29.0327 -70.0808,29.0327 -27.365,0 -52.1445,-11.0953 -70.0819,-29.0327 -17.9374,-17.9374 -29.0327,-42.7158 -29.0327,-70.0808 0,-27.365 11.0953,-52.1445 29.0327,-70.0819 17.9374,-17.9374 42.717,-29.0327 70.0819,-29.0327zm24.8303 74.2831c-6.35197,-6.35197 -15.1311,-10.2815 -24.8303,-10.2815 -9.69922,0 -18.4795,3.92953 -24.8315,10.2815 -6.35197,6.35197 -10.2815,15.1323 -10.2815,24.8315 0,9.69922 3.92953,18.4784 10.2815,24.8303 6.35197,6.35197 15.1323,10.2815 24.8315,10.2815 9.69922,0 18.4784,-3.92953 24.8303,-10.2815 6.35079,-6.35079 10.2803,-15.1311 10.2803,-24.8303 0,-9.7004 -3.92953,-18.4807 -10.2803,-24.8315z"/>
  <path class="fil0" d="M1379.32 927.999c0,-17.6728 -14.328,-32.0008 -32.0008,-32.0008 -17.6728,0 -32.0008,14.328 -32.0008,32.0008l0 222.775c0,17.6728 14.328,32.0008 32.0008,32.0008 17.6728,0 32.0008,-14.328 32.0008,-32.0008l0 -222.775z"/>
  <path class="fil0" d="M1616.5 1102.86c15.1181,-9.11221 19.9878,-28.7575 10.8756,-43.8756 -9.11221,-15.1181 -28.7575,-19.9878 -43.8756,-10.8756l-187.514 113.003c-15.1181,9.11221 -19.9878,28.7575 -10.8756,43.8756 9.11221,15.1181 28.7575,19.9878 43.8756,10.8756l187.514 -113.003z"/>
  <path class="fil0" d="M1585.13 1389.7c15.6012,8.21457 34.9099,2.22638 43.1244,-13.3748 8.21457,-15.6012 2.22638,-34.9099 -13.3748,-43.1244l-187.11 -98.8595c-15.6012,-8.21457 -34.9099,-2.22638 -43.1244,13.3748 -8.21457,15.6012 -2.22638,34.9099 13.3748,43.1244l187.11 98.8595z"/>
  <path class="fil0" d="M1329.06 1530.25c0.896457,17.6043 15.8965,31.1469 33.5008,30.2504 17.6043,-0.896457 31.1469,-15.8965 30.2504,-33.5008l-11.3799 -222.422c-0.896457,-17.6043 -15.8965,-31.1469 -33.5008,-30.2504 -17.6043,0.896457 -31.1469,15.8965 -30.2504,33.5008l11.3799 222.422z"/>
  <path class="fil0" d="M1084.05 1366.4c-14.5665,9.94017 -18.3154,29.8087 -8.3752,44.3752 9.94017,14.5665 29.8087,18.3154 44.3752,8.3752l180.861 -123.376c14.5665,-9.94017 18.3154,-29.8087 8.3752,-44.3752 -9.94017,-14.5665 -29.8087,-18.3154 -44.3752,-8.3752l-180.861 123.376z"/>
  <path class="fil0" d="M1102.13 1078.51c-16.0158,-7.31693 -34.9323,-0.265748 -42.2492,15.75 -7.31693,16.0158 -0.265748,34.9323 15.75,42.2492l192.378 88.1788c16.0158,7.31693 34.9323,0.265748 42.2492,-15.75 7.31693,-16.0158 0.265748,-34.9323 -15.75,-42.2492l-192.378 -88.1788z"/>
  <path class="fil0" d="M1676.37 520.478c31.9252,0 60.8351,12.9461 81.7595,33.8705 20.9256,20.9256 33.8705,49.8355 33.8705,81.7619 0,31.9252 -12.9449,60.8339 -33.8705,81.7595 -20.9244,20.9244 -49.8343,33.8705 -81.7595,33.8705 -31.9264,0 -60.8363,-12.9449 -81.7619,-33.8705 -20.9244,-20.9244 -33.8705,-49.8343 -33.8705,-81.7595 0,-31.9264 12.9449,-60.8351 33.8705,-81.7619 20.9256,-20.9256 49.8355,-33.8705 81.7619,-33.8705zm36.5091 79.1209c-9.34016,-9.34016 -22.2496,-15.1193 -36.5091,-15.1193 -14.2606,0 -27.1713,5.77914 -36.5114,15.1193 -9.33898,9.34016 -15.1193,22.2508 -15.1193,36.5114 0,14.2595 5.77914,27.1689 15.1193,36.5091 9.34016,9.34016 22.2508,15.1193 36.5114,15.1193 14.2595,0 27.1689,-5.77914 36.5091,-15.1193 9.34016,-9.34016 15.1193,-22.2496 15.1193,-36.5091 0,-14.2606 -5.77914,-27.1713 -15.1193,-36.5114z"/>
 </g>
 <rect class="fil1" width="2048" height="2048"/>
</svg>
