<?xml version="1.0" encoding="UTF-8"?>
<!DOCTYPE svg PUBLIC "-//W3C//DTD SVG 1.1//EN" "http://www.w3.org/Graphics/SVG/1.1/DTD/svg11.dtd">
<!-- Creator: CorelDRAW -->
<svg xmlns="http://www.w3.org/2000/svg" xml:space="preserve" width="2048px" height="2048px" style="shape-rendering:geometricPrecision; text-rendering:geometricPrecision; image-rendering:optimizeQuality; fill-rule:evenodd; clip-rule:evenodd"
viewBox="0 0 2048 2048"
 xmlns:xlink="http://www.w3.org/1999/xlink">
 <defs>
  <style type="text/css">
   <![CDATA[
    .fil1 {fill:none}
    .fil0 {fill:#212121;fill-rule:nonzero}
   ]]>
  </style>
 </defs>
 <g id="Layer_x0020_1">
  <metadata id="CorelCorpID_0Corel-Layer"/>
  <g id="_178236096">
   <path id="_178237128" class="fil0" d="M593.948 815.999l860.103 0c10.9323,0 20.5831,5.48504 26.3551,13.8496l176.34 216.764 0.0779528 -0.0637796c11.152,13.7091 9.08032,33.8658 -4.62874,45.0178 -5.93977,4.83189 -13.0902,7.17875 -20.1945,7.1752l0 0.00236221 -1216 0c-17.6728,0 -32.0008,-14.328 -32.0008,-32.0008 0,-8.57009 3.36851,-16.3524 8.85473,-22.0973l176.345 -216.771 24.75 20.1248 -24.8232 -20.1945c6.32008,-7.7693 15.5315,-11.798 24.8232,-11.8039l0 -0.00236221zm845.014 64.0016l-829.926 0 -125.883 154.742 1081.69 0 -125.883 -154.742z"/>
   <path id="_178236816" class="fil0" d="M416 1036.58l1216 0c17.6728,0 32.0008,14.328 32.0008,32.0008l0 546.858c0,17.6728 -14.328,32.0008 -32.0008,32.0008l-1216 0c-17.6728,0 -32.0008,-14.328 -32.0008,-32.0008l0 -546.858c0,-17.6728 14.328,-32.0008 32.0008,-32.0008zm1184 64.0016l-1152 0 0 482.856 1152 0 0 -482.856z"/>
   <path id="_178237104" class="fil0" d="M364.89 1712l1318.22 0 -64.2756 -64.5556 -1189.67 0 -64.2756 64.5556zm1395.11 64.0016l-1472 0 0 -0.00236221c-8.16615,0 -16.3347,-3.10394 -22.578,-9.32127 -12.5232,-12.4689 -12.5681,-32.7319 -0.0992127,-45.2552l0.0649607 0.0649607 126.295 -126.847c5.8689,-6.85394 14.5854,-11.198 24.3154,-11.198l1216 0 0 0.00236221c8.21339,0 16.4256,3.14055 22.6772,9.42048l-22.6772 22.578 22.6252 -22.5 126.273 126.823c6.79843,5.8689 11.1012,14.5488 11.1012,24.2339 0,17.6728 -14.328,32.0008 -32.0008,32.0008z"/>
   <path id="_178237032" class="fil0" d="M848 941.371c-8.83583,0 -16.0004,7.16457 -16.0004,16.0004 0,8.83583 7.16457,16.0004 16.0004,16.0004l352.001 0c8.83583,0 16.0004,-7.16457 16.0004,-16.0004 0,-8.83583 -7.16457,-16.0004 -16.0004,-16.0004l-352.001 0z"/>
   <path id="_178236384" class="fil0" d="M682.993 1361.11l28.2189 8.93505c-4.33347,15.7559 -11.5228,27.4465 -21.6012,35.1048 -10.0441,7.62638 -22.8425,11.4555 -38.3292,11.4555 -19.148,0 -34.904,-6.5504 -47.2323,-19.6181 -12.3284,-13.1008 -18.5091,-31.0063 -18.5091,-53.6823 0,-24.0189 6.21378,-42.6626 18.6106,-55.9654 12.3957,-13.2697 28.6878,-19.9205 48.9107,-19.9205 17.6362,0 31.9807,5.2063 42.9992,15.6543 6.58465,6.14764 11.4898,15.0154 14.7815,26.5713l-28.8567 6.88701c-1.67953,-7.49174 -5.24056,-13.4032 -10.6831,-17.7366 -5.40827,-4.33347 -11.9917,-6.48426 -19.7185,-6.48426 -10.6831,0 -19.3831,3.83032 -26.0351,11.5228 -6.65079,7.65945 -9.97678,20.0882 -9.97678,37.2886 0,18.241 3.25866,31.2414 9.84213,38.9681 6.55158,7.75985 15.0839,11.6232 25.565,11.6232 7.75985,0 14.4118,-2.45315 19.9878,-7.39134 5.57599,-4.90394 9.57402,-12.6638 12.026,-23.2122zm53.3126 53.0433l0 -144.282 29.1591 0 0 56.7721 57.0745 0 0 -56.7721 29.126 0 0 144.282 -29.126 0 0 -63.0875 -57.0745 0 0 63.0875 -29.1591 0zm275.599 0l-31.7126 0 -12.5965 -32.7874 -57.6804 0 -11.8913 32.7874 -30.9059 0 56.2016 -144.282 30.8044 0 57.7808 144.282zm-53.6481 -57.0745l-19.8874 -53.5477 -19.4847 53.5477 39.3721 0zm69.1678 57.0745l0 -144.282 61.3418 0c15.4181,0 26.6055,1.30984 33.5929,3.89646 6.98741,2.58662 12.5965,7.18938 16.7965,13.8071 4.19882,6.65079 6.28111,14.2099 6.28111,22.7421 0,10.8177 -3.19134,19.787 -9.53977,26.8418 -6.34961,7.02048 -15.8894,11.4886 -28.5544,13.3028 6.31536,3.69449 11.5228,7.7256 15.6213,12.1264 4.09843,4.40079 9.60709,12.1949 16.5614,23.4142l17.6362 28.1516 -34.8366 0 -21.0626 -31.4091c-7.49174,-11.2205 -12.5976,-18.2752 -15.352,-21.1973 -2.75433,-2.92323 -5.67756,-4.90512 -8.76733,-6.01418 -3.09095,-1.0748 -7.96182,-1.61221 -14.6811,-1.61221l-5.87835 0 0 60.2327 -29.1591 0zm29.1591 -83.2772l21.5327 0c13.9748,0 22.7091,-0.571654 26.2028,-1.74685 3.46063,-1.17638 6.18189,-3.22559 8.16379,-6.11457 1.94764,-2.88898 2.9563,-6.48308 2.9563,-10.8165 0,-4.87087 -1.31102,-8.76733 -3.89764,-11.7579 -2.58662,-2.98937 -6.24804,-4.87087 -10.9843,-5.67638 -2.35158,-0.302362 -9.44056,-0.47126 -21.2646,-0.47126l-22.7091 0 0 36.5835zm115.426 83.2772l0 -144.282 29.126 0 0 144.282 -29.126 0zm89.3575 0l0 -119.861 -42.7973 0 0 -24.4217 114.653 0 0 24.4217 -42.6969 0 0 119.861 -29.1591 0zm128.529 0l0 -60.7359 -52.8426 -83.5465 34.1646 0 33.9626 57.0745 33.2563 -57.0745 33.5599 0 -53.0433 83.7473 0 60.5351 -29.0575 0z"/>
   <path id="_178236336" class="fil0" d="M992 271.999c61.852,0 117.854,25.0736 158.389,65.6115 40.5378,40.5355 65.6115,96.5375 65.6115,158.389 0,61.8508 -25.0736,117.852 -65.6115,158.389 -40.5355,40.5378 -96.5375,65.6115 -158.389,65.6115 -61.852,0 -117.854,-25.0736 -158.389,-65.6115 -40.5378,-40.5378 -65.6115,-96.5387 -65.6115,-158.389 0,-61.852 25.0736,-117.854 65.6115,-158.389 40.5355,-40.5378 96.5375,-65.6115 158.389,-65.6115zm113.139 110.862c-28.9512,-28.9512 -68.9528,-46.8603 -113.139,-46.8603 -44.1863,0 -84.1879,17.9091 -113.139,46.8603 -28.9512,28.9512 -46.8603,68.9528 -46.8603,113.139 0,44.1851 17.9079,84.1867 46.8603,113.139 28.9512,28.9512 68.9528,46.8603 113.139,46.8603 44.1863,0 84.1879,-17.9091 113.139,-46.8603 28.9524,-28.9524 46.8603,-68.954 46.8603,-113.139 0,-44.1863 -17.9091,-84.1879 -46.8603,-113.139z"/>
   <path id="_178236240" class="fil0" d="M992 363.388c36.6177,0 69.7713,14.8453 93.769,38.8429 23.9977,23.9977 38.8429,57.1512 38.8429,93.769 0,36.6154 -14.8453,69.7713 -38.8429,93.769 -23.9977,23.9977 -57.1512,38.8429 -93.769,38.8429 -36.6177,0 -69.7713,-14.8453 -93.769,-38.8429 -23.9977,-23.9977 -38.8429,-57.1536 -38.8429,-93.769 0,-36.6177 14.8453,-69.7713 38.8429,-93.769 23.9977,-23.9977 57.1512,-38.8429 93.769,-38.8429zm71.1438 61.4682c-18.2055,-18.2055 -43.3595,-29.4673 -71.1438,-29.4673 -27.7843,0 -52.9382,11.2618 -71.1438,29.4673 -18.2055,18.2055 -29.4673,43.3595 -29.4673,71.1438 0,27.7831 11.2618,52.9382 29.4673,71.1438 18.2055,18.2055 43.3595,29.4673 71.1438,29.4673 27.7843,0 52.9382,-11.2618 71.1438,-29.4673 18.2055,-18.2055 29.4673,-43.3607 29.4673,-71.1438 0,-27.7843 -11.2618,-52.9382 -29.4673,-71.1438z"/>
   <path id="_178236120" class="fil0" d="M964.618 528.727l22.4126 -32.3268c-8.08229,-9.8941 -12.4713,-19.3748 -13.1327,-28.4929 -0.635434,-9.10158 1.90748,-17.8335 7.67835,-26.1579 5.84528,-8.4319 13.4209,-13.6736 22.7244,-15.7276 9.33072,-2.0374 18.7016,-0.416929 28.1752,4.82481l5.29607 -7.64056 11.1721 7.74449 -5.29725 7.64056c7.50001,6.68268 12.091,13.9606 13.7421,21.9319 1.6252,7.95355 0.433465,16.2555 -3.57402,24.9071l-21.2965 -10.9795c3.03425,-6.90709 2.8004,-13.1539 -0.707481,-18.7854l-20.915 30.1677c10.0382,11.9126 15.4547,22.1055 16.2177,30.5138 0.790158,8.42835 -1.70079,16.8047 -7.49174,25.1563 -6.44764,9.30119 -14.7095,15.1984 -24.7418,17.6835 -10.0772,2.49331 -20.6327,0.949607 -31.676,-4.56024l-10.0099 14.439 -11.1709 -7.74449 9.75355 -14.0705c-8.15552,-7.25316 -13.1008,-15.5965 -14.8051,-25.0099 -1.72441,-9.38741 0.188977,-19.6866 5.66693,-30.9071l21.6532 11.8122c-2.03268,4.67599 -2.94331,9.31182 -2.74134,13.8591 0.174803,4.52953 1.20591,8.44371 3.06733,11.7224zm56.1863 -81.0449c-3.7689,-1.09016 -7.39016,-0.986221 -10.9063,0.20315 -3.50906,1.23425 -6.30473,3.35315 -8.3693,6.33071 -1.8815,2.71418 -2.83701,5.83583 -2.80984,9.28583 0.034252,3.49607 1.22244,7.12914 3.56339,10.8969l18.5221 -26.7166zm-45.763 89.8701c4.36654,1.9748 8.74371,2.35748 13.1398,1.19173 4.41496,-1.19173 7.94764,-3.69803 10.6323,-7.57087 2.39292,-3.45118 3.41103,-7.11497 3.11693,-11.0244 -0.292914,-3.90827 -2.30551,-8.15197 -6.03071,-12.685l-20.8583 30.0886z"/>
  </g>
 </g>
 <rect class="fil1" width="2048" height="2048"/>
</svg>
