<?xml version="1.0" encoding="UTF-8"?>
<!DOCTYPE svg PUBLIC "-//W3C//DTD SVG 1.1//EN" "http://www.w3.org/Graphics/SVG/1.1/DTD/svg11.dtd">
<!-- Creator: CorelDRAW -->
<svg xmlns="http://www.w3.org/2000/svg" xml:space="preserve" width="2048px" height="2048px" style="shape-rendering:geometricPrecision; text-rendering:geometricPrecision; image-rendering:optimizeQuality; fill-rule:evenodd; clip-rule:evenodd"
viewBox="0 0 2048 2048"
 xmlns:xlink="http://www.w3.org/1999/xlink">
 <defs>
  <style type="text/css">
   <![CDATA[
    .fil1 {fill:none}
    .fil0 {fill:#212121;fill-rule:nonzero}
   ]]>
  </style>
 </defs>
 <g id="Layer_x0020_1">
  <metadata id="CorelCorpID_0Corel-Layer"/>
  <path class="fil0" d="M1128.22 917.764c-2.07047,17.5347 10.4658,33.4299 28.0004,35.5004 17.5347,2.07047 33.4299,-10.4658 35.5004,-28.0004 2.23937,-18.7937 3.50197,-29.2902 3.86811,-32.1803 1.18228,-9.32953 2.67638,-20.7402 4.44922,-34.0524 13.3217,-99.9698 -34.9099,-168.02 -105.304,-204.001 -36.9815,-18.9024 -80.1119,-28.4799 -123.178,-28.7185 -42.9508,-0.237402 -86.2442,8.83111 -123.69,27.2138 -72.2032,35.4461 -122.758,103.787 -110.856,205.005 16.5697,140.921 25.1268,236.412 25.2603,317.962 0.132284,81.1064 -8.02323,150.183 -24.8658,238.616l-0.0791339 -0.0153543c-3.30709,17.361 8.08583,34.1162 25.4469,37.4233l0.583465 0.103937c57.1122,14.4567 120.705,20.5453 189.454,19.9654 68.719,-0.578741 142.667,-7.82363 220.479,-20.0043l-4.87559 -31.5 4.94882 31.6158c17.4602,-2.73307 29.4,-19.1043 26.6669,-36.5646 -0.0484252,-0.305906 -0.101575,-0.61063 -0.157087,-0.914174 -11.4756,-76.4386 -18.9331,-138.527 -22.1055,-197.954 -3.18898,-59.7319 -2.16142,-118.043 3.31772,-187.074 1.38071,-17.6043 -11.7709,-32.9953 -29.3752,-34.376 -17.6043,-1.38071 -32.9953,11.7709 -34.376,29.3752 -5.65985,71.3162 -6.68741,132.201 -3.31772,195.325 2.90551,54.4134 9.00001,109.564 18.1429,173.73 -63.3815,8.90079 -123.633,14.1165 -179.849,14.5902 -52.7363,0.444095 -101.868,-3.28701 -146.628,-12.078 13.7823,-78.2221 20.4662,-143.874 20.341,-220.264 -0.13937,-85.5981 -8.7815,-182.932 -25.5106,-325.212 -8.18032,-69.5776 26.2028,-116.376 75.3544,-140.505 28.5095,-13.9961 61.9335,-20.8973 95.4402,-20.713 33.391,0.185433 66.4725,7.42796 94.428,21.7169 47.5937,24.3272 80.1627,70.6465 71.054,139.001 -1.3441,10.0866 -2.81929,21.45 -4.44922,34.3028 -2.44606,19.2933 -3.84803,30.4028 -4.11851,32.6811z"/>
  <path class="fil0" d="M1100.89 389.581c4.60748,9.53032 8.23111,19.6914 10.7256,30.3425 2.5441,10.8673 3.89292,22.0807 3.89292,33.4819 0,40.5095 -16.4232,77.1886 -42.9744,103.74 -26.5512,26.55 -63.2315,42.9733 -103.74,42.9733 -40.5095,0 -77.1875,-16.4232 -103.739,-42.9744 -26.5488,-26.5488 -42.9733,-63.2292 -42.9733,-103.739 0,-11.4024 1.34764,-22.6193 3.89292,-33.4855 2.61969,-11.1874 6.48426,-21.8303 11.4272,-31.7705l-0.0212599 -0.0106299c5.67993,-11.4189 17.2642,-17.954 29.2217,-17.7484l204.956 0c13.1173,0 24.391,7.89449 29.3315,19.1906zm-51.5256 44.8418l-0.00708662 -0.0307087 -161.125 0 -0.00590552 0.0271654c-1.40079,5.97993 -2.14252,12.3354 -2.14252,18.9862 0,22.8437 9.25867,43.5248 24.2221,58.4882 14.9658,14.9658 35.6445,24.2232 58.4882,24.2232 22.8437,0 43.5237,-9.25749 58.4894,-24.2221 14.9658,-14.9658 24.2232,-35.6457 24.2232,-58.4894 0,-6.64961 -0.742914,-13.0016 -2.14252,-18.9827z"/>
  <path class="fil0" d="M841.941 266.958l253.699 0c17.6728,0 32.0008,14.328 32.0008,32.0008l0 103.433c0,17.6728 -14.328,32.0008 -32.0008,32.0008l-253.699 0c-17.6728,0 -32.0008,-14.328 -32.0008,-32.0008l0 -103.433c0,-17.6728 14.328,-32.0008 32.0008,-32.0008zm221.698 64.0016l-189.697 0 0 39.4311 189.697 0 0 -39.4311z"/>
  <path class="fil0" d="M1067.4 1437.09l0 192.425 76.6654 81.4146c18.8504,20.0197 17.2335,38.0233 -0.0283465,54.2717 -20.8181,19.6028 -91.8272,15.9225 -141.545,13.3441 -13.4858,-0.698032 -25.0406,-1.29803 -33.7016,-1.29803 -27.1512,0 -51.8126,-11.0847 -69.6674,-28.9418 -17.8571,-17.8547 -28.9418,-42.5162 -28.9418,-69.6674l0 -238.811c0,-17.6728 14.328,-32.0008 32.0008,-32.0008 1.30866,0 2.59725,0.0814961 3.86575,0.233858 19.8,0.832678 39.9544,0.996851 60.43,0.54567 20.5358,-0.451181 42.7335,-1.62992 66.4453,-3.4689l-0.00236221 -0.0366142c17.6197,-1.36772 33.0142,11.8063 34.3819,29.426 0.0673229,0.859843 0.0980316,1.71378 0.0968505,2.56299zm-64.0016 205.008l0 -171.023c-11.7579,0.588189 -23.6457,1.01811 -35.6705,1.28268 -11.3705,0.250394 -22.5555,0.329528 -33.5445,0.230315l0 206.051c0,9.48308 3.90355,18.1311 10.1906,24.4169 6.28583,6.28701 14.9339,10.1906 24.4169,10.1906 7.07953,0 20.8642,0.714567 36.952,1.54843 17.7815,0.922442 39.0768,2.02677 56.9528,2.85591l-49.037 -52.0748c-6.30945,-5.84528 -10.2602,-14.1992 -10.2602,-23.478z"/>
  <path class="fil0" d="M992.874 817.248c0,-4.42087 -1.79055,-8.42245 -4.68426,-11.3162 -2.89252,-2.89252 -6.8941,-4.68307 -11.315,-4.68307 -4.42087,0 -8.42363,1.79055 -11.3162,4.68307 -2.89252,2.89252 -4.68307,6.89528 -4.68307,11.3162l0 224c0,4.42087 1.79055,8.42363 4.68307,11.3162 2.89252,2.89252 6.89528,4.68307 11.3162,4.68307 1.54016,0 2.76614,-0.111024 3.68622,-0.320079 1.05945,-0.239764 2.14961,-0.635434 3.24449,-1.16221l13.8756 28.7504 -13.8874 -28.8295c1.75158,-0.844489 3.54213,-1.51299 5.35276,-2.01614l249.291 -93.4843c4.11969,-1.53307 7.23071,-4.59449 8.92442,-8.29961 1.69961,-3.71693 1.98425,-8.07993 0.45,-12.2008 -1.53307,-4.11969 -4.59449,-7.23071 -8.29961,-8.92442 -3.71693,-1.69961 -8.08111,-1.98425 -12.2008,-0.45l-191.243 71.7166 0.0425197 0.113386c-16.5473,6.20434 -34.9937,-2.17914 -41.1981,-18.7264 -1.46457,-3.90591 -2.11536,-7.91694 -2.03858,-11.8476l0 -154.318zm40.5662 -56.5666c14.4791,14.4791 23.4355,34.4799 23.4355,56.5666l0 108.882 148.186 -55.5697c20.628,-7.6819 42.4111,-6.27638 60.9497,2.2004 18.5516,8.48268 33.8705,24.0473 41.55,44.6741 7.6819,20.6268 6.27756,42.4099 -2.2004,60.9497 -8.48268,18.5516 -24.0473,33.8705 -44.6741,41.55l-250.073 93.7772c-5.01969,2.33504 -10.3913,4.18111 -16.0524,5.46615 -5.95276,1.35354 -11.8819,2.07047 -17.687,2.07047 -22.0866,0 -42.0874,-8.95749 -56.5666,-23.4343 -14.4768,-14.4791 -23.4343,-34.4799 -23.4343,-56.5666l0 -224c0,-22.0866 8.95749,-42.0874 23.4343,-56.5666 14.4791,-14.4768 34.4799,-23.4343 56.5666,-23.4343 22.0866,0 42.0886,8.95749 56.5654,23.4343z"/>
 </g>
 <rect class="fil1" width="2048" height="2048"/>
</svg>
