<?xml version="1.0" encoding="UTF-8"?>
<!DOCTYPE svg PUBLIC "-//W3C//DTD SVG 1.1//EN" "http://www.w3.org/Graphics/SVG/1.1/DTD/svg11.dtd">
<!-- Creator: CorelDRAW -->
<svg xmlns="http://www.w3.org/2000/svg" xml:space="preserve" width="2048px" height="2048px" style="shape-rendering:geometricPrecision; text-rendering:geometricPrecision; image-rendering:optimizeQuality; fill-rule:evenodd; clip-rule:evenodd"
viewBox="0 0 2048 2048"
 xmlns:xlink="http://www.w3.org/1999/xlink">
 <defs>
  <style type="text/css">
   <![CDATA[
    .fil1 {fill:none}
    .fil0 {fill:#212121;fill-rule:nonzero}
   ]]>
  </style>
 </defs>
 <g id="Layer_x0020_1">
  <metadata id="CorelCorpID_0Corel-Layer"/>
  <path class="fil0" d="M1074.49 812.768c-14.9114,9.38859 -19.389,29.0882 -10.0004,43.9996 9.38859,14.9114 29.0882,19.389 43.9996,10.0004 70.0276,-44.0433 101.557,-107.458 103.041,-169.801 0.765355,-32.178 -6.60473,-63.9461 -20.9303,-92.5182 -14.2961,-28.5154 -35.4992,-53.8477 -62.426,-73.2237 -54.443,-39.1748 -131.786,-54.1737 -221.664,-21.6236 -53.8182,19.4917 -213.228,95.6883 -310.792,211.951 -61.0359,72.7347 -98.7662,161.017 -75.9721,261.814 24.4524,108.122 8.21339,188.221 -11.4402,285.158 -3.76418,18.5705 -7.64292,37.6961 -10.2295,51.2752l-0.0791339 -0.0153543c-3.30709,17.361 8.08583,34.1162 25.4469,37.4233l0.583465 0.103937c57.1122,14.4567 120.705,20.5453 189.454,19.9654 68.719,-0.578741 142.667,-7.82363 220.479,-20.0043l-4.87559 -31.5 4.94882 31.6158c17.4602,-2.73307 29.4,-19.1043 26.6669,-36.5646 -0.0507874,-0.328347 -0.108662,-0.654331 -0.170079,-0.977954 -9.69331,-63.7524 -26.6528,-118.5 -42.7819,-170.57 -20.25,-65.3705 -39.1004,-126.239 -38.2796,-194.41 12.0898,-2.96221 26.8016,-6.94961 42.7453,-11.7047 24.704,-7.36536 52.9323,-16.6547 79.5568,-26.8618 16.4988,-6.28229 24.7819,-24.7512 18.4996,-41.25 -6.28229,-16.4988 -24.7512,-24.7819 -41.25,-18.4996 -25.2839,9.69331 -51.8823,18.4524 -75.0568,25.3618 -27.2327,8.12127 -48.8835,13.5709 -57.4382,14.8465 -15.5917,1.02756 -28.4847,13.3606 -29.7579,29.3988l31.9004 2.53229 -31.8756 -2.5004c-7.13032,89.8288 15.4736,162.799 39.9567,241.838 12.6744,40.9158 25.8898,83.5749 35.2359,131.026 -63.0721,8.82875 -123.038,14.0008 -179.004,14.4732 -52.6087,0.442914 -101.629,-3.26929 -146.302,-12.0142 1.46102,-7.32638 2.80158,-13.9476 4.12677,-20.4862 21.1406,-104.273 38.6079,-190.433 11.1921,-311.66 -17.576,-77.7225 13.2839,-147.901 62.7201,-206.812 88.6016,-105.582 234.304,-175.119 283.544,-192.952 67.5792,-24.4748 124.043,-14.4142 162.663,13.3748 18.4512,13.2768 32.9457,30.5646 42.6756,49.9725 9.70158,19.3512 14.6953,40.8189 14.1791,62.5182 -1.00512,42.28 -23.4225,85.9383 -73.2886,117.301z"/>
  <path class="fil0" d="M1433.02 669.35c-7.54371,7.10788 -15.7725,13.4067 -24.5941,18.7335 -9.28702,5.6067 -19.5484,10.311 -30.704,13.9276l0.0307087 0.0933072c-0.912993,0.295276 -1.82835,0.544489 -2.74607,0.754725 -37.6146,11.4106 -76.4564,6.88701 -109.129,-9.80198 -33.4075,-17.0646 -60.3119,-46.8709 -72.7997,-85.3678l-0.0944883 0.0307087c-0.296457,-0.914174 -0.54567,-1.83189 -0.755906,-2.75079 -11.4095,-37.6134 -6.88583,-76.4552 9.80316,-109.127 17.0764,-33.4299 46.9087,-60.3497 85.4446,-72.8268 11.139,-3.60473 22.2012,-5.80985 33.0166,-6.70985 11.2937,-0.938977 22.5543,-0.532678 33.5752,1.11378l-4.6252 31.6252 4.73032 -31.6488c13.3228,1.99016 23.4898,11.928 26.4166,24.2799l62.5134 193.075 0.0933072 -0.0307087c4.17756,12.9012 -0.27874,26.5276 -10.1752,34.6299zm-57.5941 -36.0177l0.126378 -0.0767717 -49.6075 -153.215 -0.201969 0.0165354c-6.43111,0.53504 -12.7311,1.7563 -18.7677,3.70985 -21.7358,7.03701 -38.5642,22.2225 -48.1949,41.0764 -9.30946,18.2256 -11.8795,39.9414 -5.64685,61.0997 0.544489,1.35473 0.996851,2.75551 1.35354,4.1941 7.30749,20.7567 22.1268,36.841 40.3914,46.1705 18.2256,9.31064 39.939,11.8784 61.0985,5.64685 1.34764,-0.542126 2.74134,-0.993308 4.17402,-1.34882 5.27599,-1.86969 10.3866,-4.32166 15.2752,-7.27323z"/>
  <path class="fil0" d="M1471.55 386.838l77.3741 238.966 0.0933072 -0.0307087c5.4437,16.813 -3.77362,34.8579 -20.5866,40.3016 -0.806694,0.261024 -1.61575,0.487796 -2.42717,0.682678l-96.0072 31.0855 0.0307087 0.0933072c-16.813,5.4437 -34.8579,-3.77362 -40.3016,-20.5866 -0.261024,-0.806694 -0.487796,-1.61575 -0.682678,-2.42717l-77.3729 -238.966 -0.0933072 0.0307087c-5.4437,-16.813 3.77362,-34.8579 20.5866,-40.3016 0.806694,-0.261024 1.61575,-0.487796 2.42717,-0.682678l96.006 -31.0855 -0.0307087 -0.0933072c16.813,-5.4437 34.8579,3.77362 40.3016,20.5866 0.261024,0.806694 0.487796,1.61575 0.682678,2.42717zm6.84567 228.268l-58.4965 -180.66 -37.7008 12.2079 58.4953 180.66 37.702 -12.2079z"/>
  <path class="fil0" d="M828.066 1341.78l0 192.425 76.6654 81.4146c18.8492,20.0173 17.2323,38.0256 -0.0283465,54.2717 -20.8181,19.6028 -91.8272,15.9225 -141.545,13.3441 -13.4858,-0.698032 -25.0406,-1.29803 -33.7016,-1.29803 -27.1512,0 -51.8126,-11.0847 -69.6674,-28.9418 -17.8571,-17.8547 -28.9418,-42.5162 -28.9418,-69.6674l0 -238.811c0,-17.6728 14.328,-32.0008 32.0008,-32.0008 1.30866,0 2.59725,0.0814961 3.86575,0.233858 19.8,0.832678 39.9544,0.996851 60.43,0.54567 20.5358,-0.451181 42.7335,-1.62992 66.4453,-3.4689l-0.00236221 -0.0366142c17.6197,-1.36772 33.0142,11.8063 34.3819,29.426 0.0673229,0.859843 0.0980316,1.71378 0.0968505,2.56299zm-64.0016 205.008l0 -171.023c-11.7579,0.588189 -23.6457,1.01811 -35.6705,1.28268 -11.3705,0.250394 -22.5555,0.329528 -33.5445,0.230315l0 206.051c0,9.48308 3.90355,18.1311 10.1906,24.4169 6.28583,6.28701 14.9339,10.1906 24.4169,10.1906 7.07953,0 20.8642,0.714567 36.952,1.54843 17.7815,0.922442 39.0768,2.02677 56.9528,2.85591l-49.037 -52.0748c-6.30945,-5.84528 -10.2602,-14.1992 -10.2602,-23.478z"/>
  <path class="fil0" d="M1066.97 776.696c0.844489,-4.16339 0.0602363,-8.20867 -1.92166,-11.4295 -2.1,-3.41103 -5.56536,-6.0378 -9.88938,-7.06654 -4.363,-1.03701 -8.62914,-0.274016 -11.9953,1.79764 -3.1004,1.90866 -5.55355,4.94646 -6.74646,8.73308l-45.5457 387.044 -31.7504 -3.62481 31.7811 3.73937c-0.168898,1.43622 -0.432284,2.83819 -0.779528,4.20118 -0.844489,4.16339 -0.0602363,8.20867 1.92166,11.4295 2.1,3.41103 5.56536,6.0378 9.88938,7.06654 4.363,1.03701 8.62914,0.274016 11.9953,-1.79764 3.10158,-1.90866 5.55355,-4.94646 6.74646,-8.7319l45.5457 -387.045 31.7504 3.62481 -31.7811 -3.73937c0.168898,-1.43622 0.432284,-2.83819 0.779528,-4.20118zm52.3288 -44.9303c10.4669,17.0008 14.6433,37.7941 10.1811,58.5497l-45.4193 385.98c-0.115748,1.78583 -0.380315,3.58583 -0.807875,5.38465l-0.0129921 -0.00354331c-5.08347,21.3402 -18.3957,38.6422 -35.8099,49.363 -17.4638,10.7528 -38.9292,14.8677 -60.2457,9.79843 -21.3532,-5.07874 -38.6646,-18.3957 -49.3902,-35.817 -10.4669,-17.0008 -14.6433,-37.7941 -10.1811,-58.5497l45.4193 -385.979c0.115748,-1.78583 0.380315,-3.58583 0.807875,-5.38465l0.0129921 0.00354331c5.08347,-21.3402 18.3957,-38.6433 35.8099,-49.3642 17.4673,-10.7528 38.9315,-14.8677 60.2457,-9.79843 21.3532,5.07874 38.6646,18.3957 49.3902,35.817z"/>
 </g>
 <rect class="fil1" width="2048" height="2048"/>
</svg>
