<?xml version="1.0" encoding="UTF-8"?>
<!DOCTYPE svg PUBLIC "-//W3C//DTD SVG 1.1//EN" "http://www.w3.org/Graphics/SVG/1.1/DTD/svg11.dtd">
<!-- Creator: CorelDRAW -->
<svg xmlns="http://www.w3.org/2000/svg" xml:space="preserve" width="2048px" height="2048px" style="shape-rendering:geometricPrecision; text-rendering:geometricPrecision; image-rendering:optimizeQuality; fill-rule:evenodd; clip-rule:evenodd"
viewBox="0 0 2048 2048"
 xmlns:xlink="http://www.w3.org/1999/xlink">
 <defs>
  <style type="text/css">
   <![CDATA[
    .fil1 {fill:none}
    .fil0 {fill:#212121;fill-rule:nonzero}
   ]]>
  </style>
 </defs>
 <g id="Layer_x0020_1">
  <metadata id="CorelCorpID_0Corel-Layer"/>
  <g id="_178238472">
   <path id="_178239264" class="fil0" d="M1164.1 1070.87c-16.0843,-7.24843 -35.002,-0.0850394 -42.2504,15.9992 -7.24843,16.0843 -0.0850394,35.002 15.9992,42.2504 39.7465,18.0118 75.6473,34.4233 103.74,47.439 28.2343,13.0795 48.9851,22.8579 58.7091,27.7205 41.4319,20.7154 77.8819,16.637 107.346,-1.40079 17.7744,-10.8803 32.315,-26.8087 43.3075,-45.2185 10.4528,-17.5063 17.7945,-37.3158 21.6591,-57 8.65158,-44.0445 0.111024,-89.8879 -28.937,-114.464l-20.6256 24.3756 20.6693 -24.4299c-1.03701,-0.87756 -2.11417,-1.67599 -3.22323,-2.4 -247.661,-190.804 -355.688,-239.309 -520.68,-313.376l-8.26536 -3.71103c-40.1847,-18.0449 -85.9406,-19.161 -130.03,-7.34882 -35.7567,9.57993 -70.7327,27.8386 -100.71,52.4859 -30.0673,24.7205 -55.2095,56.0327 -71.2064,91.656 -18.75,41.7567 -24.978,89.1296 -12.1347,138.567l35.2323 176.16 -258.937 -68.9717 0.0188977 -0.0720473c-1.6311,-0.434646 -3.26457,-0.733465 -4.89213,-0.905906 -20.5937,-3.10276 -40.3973,0.790158 -56.641,10.1693 -17.5689,10.1433 -30.724,26.5347 -36.2977,47.439 -4.9441,18.5764 -12.6036,40.3028 -20.002,61.2922 -2.79685,7.93583 -5.54056,15.7134 -10.3441,30.1252l-0.132284 -0.0437008c-0.142913,0.429922 -0.274016,0.859843 -0.398032,1.29213 -8.74016,27.3166 -6.45709,51.8752 2.96693,70.1327 6.20906,12.0284 15.4819,21.3862 26.9858,27.4087 11.3634,5.94804 24.4099,8.33859 38.2902,6.50906 21.5091,-2.83819 45.2587,-16.1894 66.339,-43.1233l0.0933072 0.0732284c0.714567,-0.912993 1.3689,-1.85315 1.9689,-2.81457l25.5862 -33.9827 307.284 93.117 1.10197 0.409843 -0.0165354 0.0531496c0.276378,0.0838583 0.553937,0.161811 0.830316,0.238583 17.8394,6.30945 38.1,7.35001 57.6296,3.45945 17.3445,-3.45473 34.6654,-10.924 49.6193,-22.1469 15.3744,-11.537 28.1126,-27.0343 35.7473,-46.2461 7.45512,-18.7559 9.94607,-40.4752 5.12008,-64.7044l0.00944883 -0.00236221 -0.0921261 -0.435827 -26.0032 -190.156c13.5473,5.80276 28.5355,12.2894 44.5855,19.2862 47.2831,20.6138 102.521,45.0874 156.949,69.4524 16.0843,7.17875 34.9465,-0.0401575 42.1252,-16.1244 7.17875,-16.0843 -0.0401575,-34.9465 -16.1244,-42.1252 -56.1237,-25.1244 -111.7,-49.7587 -157.449,-69.7028 -40.2685,-17.5559 -73.9064,-31.9252 -95.1662,-40.5107 -5.52048,-2.71536 -11.8807,-3.87166 -18.4347,-2.9752 -17.5099,2.3941 -29.7638,18.5315 -27.3697,36.0414l0.090945 -0.011811 33.5587 245.418c0.0874016,1.44095 0.272835,2.89252 0.562205,4.34764l31.3843 -6.25158 -31.3748 6.2504c2.29252,11.5134 1.41614,21.0626 -1.62165,28.7055 -3.01772,7.59449 -8.2878,13.898 -14.7473,18.7453 -6.87993,5.16378 -15.2315,8.67757 -23.8689,10.3973 -8.42835,1.67835 -16.5272,1.55315 -23.054,-0.529134 -1.3878,-0.650788 -2.83583,-1.21181 -4.34528,-1.6689l-0.0377953 0.122835 -326.919 -99.0662c-13.1197,-5.33859 -28.6855,-1.44449 -37.6075,10.4043l25.5638 19.2484 -25.5 -19.1256 -38.9587 51.7418c-0.49252,0.546851 -0.969686,1.11378 -1.43032,1.70197l0.0944883 0.0732284 -0.0165354 0.022441 -0.0011811 -0.0011811c-9.76654,12.4831 -18.1677,18.3284 -24.3555,19.1445 -0.12874,0.0165354 -0.216142,0.0437008 -0.27874,0.0755906 -2.07756,-4.03347 -2.02087,-11.211 1.11614,-21.1134 0.0980316,-0.270473 0.193701,-0.543308 0.284646,-0.817323l-0.0188977 -0.00590552 0.0366142 -0.112205 -0.113386 -0.0366142c1.51654,-4.54843 5.78386,-16.6477 10.1067,-28.9134 7.73741,-21.952 15.7476,-44.6729 21.502,-66.293 0.980316,-3.67677 3.3567,-6.59646 6.54804,-8.43898 3.85158,-2.22284 9.04016,-3.08504 14.9303,-2.24646l304.596 81.1335c5.17796,1.77756 10.8827,2.25118 16.6394,1.09961 17.3291,-3.46536 28.5685,-20.3244 25.1032,-37.6536l-0.00826772 0.0011811 -45.2386 -226.19c-0.159449,-0.900001 -0.357874,-1.80118 -0.598819,-2.70118l-0.0401575 0.0106299c-9.31654,-34.7941 -5.00433,-68.2016 8.2193,-97.6501 11.8158,-26.3103 30.704,-49.6996 53.4567,-68.4071 22.8414,-18.7795 49.4835,-32.6906 76.7103,-39.9851 30.6284,-8.20631 61.526,-7.82835 87.5292,3.84803l8.26536 3.71103c160.754,72.1642 266.002,119.423 507.815,305.73 0.245669,0.222047 0.494882,0.441733 0.750001,0.656693l0.0413386 -0.0484252 0.080315 0.0625985c10.063,8.62087 11.8843,30.3662 7.36064,53.3941 -2.53937,12.9366 -7.1752,25.6394 -13.6606,36.5008 -5.94449,9.9567 -13.3122,18.2681 -21.8067,23.4673 -11.6079,7.1067 -26.9067,8.24528 -45.5953,-1.09843 -13.2354,-6.6189 -34.363,-16.6299 -60.4595,-28.7197 -29.7107,-13.7646 -65.7284,-30.2374 -104.238,-47.6894zm-859.537 168.627l-0.0590552 0.0318898 0.022441 0.011811c0.0708662,0.0377953 0.0814961,0.011811 0.112205,-0.0354331l-0.0755906 -0.00826772zm0 0c-0.101575,-0.0129921 -0.170079,-0.0283465 -0.0590552,0.0318898l0.0590552 -0.0318898z"/>
   <path id="_178239240" class="fil0" d="M1172.81 1041.08c3.4252,-2.7874 5.40119,-6.7252 5.82166,-10.8295 0.37441,-3.65315 -0.484252,-7.42796 -2.64331,-10.6382 -0.664961,-0.744095 -1.28976,-1.50945 -1.87323,-2.29843 -2.69173,-2.7437 -6.19607,-4.33819 -9.83268,-4.71024 -3.65315,-0.37441 -7.42914,0.483071 -10.6394,2.64331 -1.01929,0.910631 -2.08229,1.74567 -3.18307,2.50394l-171.73 139.774c-3.42756,2.78977 -5.40355,6.7252 -5.82402,10.8295 -0.421654,4.1126 0.719292,8.38229 3.52087,11.824 0.816142,1.00276 1.67362,1.84843 2.55118,2.53465 0.973229,0.761812 1.98307,1.38425 3.00355,1.8626l-13.5 28.8756 13.5898 -28.9713c1.17638,0.551575 2.30079,1.16693 3.37677,1.8378l231.417 135.238 -16.1256 27.6248 16.1457 -27.6284c0.483071,0.282284 0.956694,0.576378 1.41969,0.879922 3.43347,1.57441 7.20591,1.82717 10.6843,0.923623 3.44528,-0.895276 6.58701,-2.93268 8.80158,-5.94449 0.504331,-0.968505 1.05709,-1.9063 1.65354,-2.81221 1.57087,-3.42992 1.82362,-7.20237 0.921261,-10.676 -0.895276,-3.44646 -2.93268,-6.58938 -5.94449,-8.80394 -0.761812,-0.396851 -1.50473,-0.82441 -2.22874,-1.27913l-175.545 -102.585 16.1256 -27.6248 -16.1457 27.6284c-15.2587,-8.91615 -20.3988,-28.5154 -11.4827,-43.774 2.46142,-4.21181 5.7378,-7.65001 9.51024,-10.2378l118.155 -96.1666zm69.3225 -4.32874c-2.08465,20.3327 -11.9421,39.8847 -29.0729,53.8288l-84.3768 68.6741 135.856 79.3926c0.285827,0.155906 0.570473,0.316536 0.853938,0.483071l-0.0614174 0.105118c18.9874,11.1673 31.6571,28.9536 36.7843,48.6886 4.84607,18.6461 2.95748,39.052 -6.68977,57.2587 -0.483071,1.08307 -1.02874,2.15079 -1.6441,3.19725l-0.105118 -0.0614174c-11.1614,18.9886 -28.9524,31.6595 -48.6886,36.7878 -18.6449,4.84489 -39.0496,2.95748 -57.2587,-6.68859 -1.06181,-0.474804 -2.10827,-1.00866 -3.13583,-1.60866l0.00708662 -0.011811 -232.245 -135.721 0.0177165 -0.0307087c-4.43977,-2.27953 -8.67875,-4.97717 -12.6461,-8.08111 -4.67363,-3.65551 -8.97875,-7.84253 -12.8008,-12.5362 -13.9299,-17.1154 -19.6075,-38.2488 -17.5217,-58.5745 2.08701,-20.3351 11.9433,-39.8859 29.0752,-53.8288l171.738 -139.781c0.611811,-0.583465 1.25079,-1.14803 1.91811,-1.69134l0.0637796 0.0791339 0.00826772 -0.00708662 17.354 21.3425 2.77205 3.4063 -20.1248 -24.75c17.1165,-13.9288 38.2477,-19.604 58.5733,-17.5205 19.3087,1.98189 37.9087,10.9713 51.6709,26.5358 0.774804,0.773623 1.51772,1.59449 2.22402,2.4626l-0.0779528 0.0637796 0.00944883 0.011811 -22.3358 18.1618 -2.41299 1.96417 24.75 -20.1248c13.9299,17.1142 19.6051,38.2465 17.5217,58.5733z"/>
   <path id="_178238688" class="fil0" d="M1605.52 1340.24c-10.0866,1.13386 -20.3634,1.22835 -30.665,0.20315 -11.1331,-1.11024 -22.1764,-3.45709 -32.9233,-7.13032l10.2496 -30.2504 -0.316536 0.924804 -9.93544 29.3244 -0.0779528 -0.0271654 -0.0200788 0.0578741c-0.722835,-0.246851 -1.43032,-0.518504 -2.12362,-0.811418 -37.2225,-13.3819 -65.804,-40.3973 -82.0383,-73.4965 -16.5366,-33.7146 -20.237,-73.6713 -7.18229,-111.868l30.2504 10.2496 -0.924804 -0.316536 -29.3244 -9.93544 0.0271654 -0.0779528 -0.0578741 -0.0200788c0.249213,-0.728741 0.523229,-1.44331 0.818505,-2.14134 13.3854,-37.2142 40.3973,-65.7898 73.4906,-82.0229 33.7158,-16.5378 73.6713,-20.2394 111.871,-7.18229 10.6784,3.64961 20.8748,8.5819 30.4725,14.5913 10.0724,6.30827 18.9083,13.3583 26.4331,20.9646l0.00236221 -0.0011811c9.34489,9.44765 11.5996,23.2477 6.80197,34.7965l-65.7768 192.435 -30.2504 -10.2496 30.2799 10.35c-4.4067,12.8929 -16.2307,21.1488 -29.0799,21.6343zm-24.4146 -63.2977l0.158268 0.0153543 52.1622 -152.604 -0.0673229 -0.0425197c-5.06693,-3.17244 -10.8165,-5.90197 -17.2205,-8.09056 -21.7477,-7.43386 -44.374,-5.38583 -63.3721,3.93189 -18.502,9.0756 -33.6378,25.0843 -41.2311,45.9697 -0.304725,1.07126 -0.664961,2.13425 -1.08898,3.1878 -6.78189,21.2398 -4.60866,43.2071 4.47402,61.7256 9.07324,18.4996 25.0784,33.6343 45.9603,41.2276 1.08543,0.307087 2.16142,0.673229 3.22796,1.10433 5.76142,1.84488 11.452,3.02244 16.9973,3.5752z"/>
   <path id="_178238520" class="fil0" d="M1806.06 1136.62l-81.3993 238.138 -30.2504 -10.2496 30.2799 10.35c-5.71536,16.7221 -23.9079,25.6453 -40.63,19.9299 -0.618898,-0.211417 -1.22599,-0.442914 -1.82244,-0.687402l-95.9505 -32.7969 10.2496 -30.2504 -10.35 30.2799c-16.7221,-5.71536 -25.6453,-23.9079 -19.9299,-40.63 0.211417,-0.618898 0.442914,-1.22599 0.687402,-1.82244l81.3993 -238.139 30.2504 10.2496 -30.2799 -10.35c5.71536,-16.7221 23.9079,-25.6453 40.63,-19.9299 0.618898,0.211417 1.22599,0.442914 1.82362,0.687402l95.9493 32.7981 -10.2496 30.2504 10.35 -30.2799c16.7221,5.71536 25.6453,23.9079 19.9299,40.63 -0.211417,0.618898 -0.442914,1.22599 -0.687402,1.82244zm-131.542 187.335l61.3961 -179.615 -37.428 -12.7949 -61.3961 179.616 37.428 12.7937z"/>
  </g>
 </g>
 <rect class="fil1" width="2048" height="2048"/>
</svg>
