<?xml version="1.0" encoding="UTF-8"?>
<!DOCTYPE svg PUBLIC "-//W3C//DTD SVG 1.1//EN" "http://www.w3.org/Graphics/SVG/1.1/DTD/svg11.dtd">
<!-- Creator: CorelDRAW -->
<svg xmlns="http://www.w3.org/2000/svg" xml:space="preserve" width="2048px" height="2048px" style="shape-rendering:geometricPrecision; text-rendering:geometricPrecision; image-rendering:optimizeQuality; fill-rule:evenodd; clip-rule:evenodd"
viewBox="0 0 2048 2048"
 xmlns:xlink="http://www.w3.org/1999/xlink">
 <defs>
  <style type="text/css">
   <![CDATA[
    .fil1 {fill:none}
    .fil0 {fill:#212121;fill-rule:nonzero}
   ]]>
  </style>
 </defs>
 <g id="Layer_x0020_1">
  <metadata id="CorelCorpID_0Corel-Layer"/>
  <g id="_178239408">
   <path id="_178240128" class="fil0" d="M1229.64 1566.19c17.6043,0.689764 32.4355,-13.0217 33.1252,-30.626 0.689764,-17.6043 -13.0217,-32.4355 -30.626,-33.1252 -47.8949,-1.96772 -95.2099,-2.44252 -141.9,-2.90788 -112.655,-1.12441 -221.573,-2.21457 -340.863,-26.0658l0.0011811 -0.00826772c-0.590552,-0.11811 -1.1811,-0.218504 -1.77047,-0.302362 -17.7862,-26.5288 -31.9063,-55.4374 -41.9552,-86.0115 -11.4626,-34.8839 -17.6622,-71.7556 -17.9941,-109.559 -0.635434,-72.2481 5.91615,-123.45 12.9685,-178.586 8.12953,-63.5445 16.9016,-132.104 16.9016,-240.45l-0.0472441 0c0.486615,-8.93741 1.43386,-17.4673 2.80394,-25.5933 6.10394,-36.202 20.6232,-60.7205 39.9426,-75.4949 19.1669,-14.6563 43.9642,-20.5323 70.5036,-19.2473 6.12402,0.297638 12.5221,1.01457 19.1315,2.12835 52.552,8.86182 90.2375,30.2717 116.34,59.641 30.6768,34.5142 46.4422,80.98 52.0914,131.684 1.93228,17.5347 17.7154,30.1831 35.25,28.2508 17.5347,-1.93228 30.1831,-17.7154 28.2508,-35.25 -7.02284,-63.0402 -27.4961,-121.791 -67.8426,-167.185 -35.3764,-39.8032 -85.2461,-68.615 -153.589,-80.1402 -8.74253,-1.47402 -17.6398,-2.4437 -26.6315,-2.87953 -41.0292,-1.9878 -80.38,7.87678 -112.253,32.2488 -31.7185,24.2563 -55.141,62.0611 -64.193,115.745 -1.80236,10.6854 -3.02953,22.1929 -3.63071,34.5473l-0.0897638 -0.00472441c-0.0248032,0.519685 -0.0366142,1.03701 -0.0366142,1.55079l-0.0011811 0c0,106.218 -8.38229,171.73 -16.1504,232.449 -7.33229,57.3189 -14.1413,110.549 -13.4693,187.088 0.394488,44.7839 7.6252,88.1257 20.9941,128.809 9.67205,29.4307 22.5414,57.5693 38.3481,83.9611 -59.6611,30.5941 -118.269,92.6871 -152.76,129.234l-0.284646 0.302362c-34.6784,36.8587 -39.2079,79.7327 -26.5193,113.113 4.83544,12.7181 12.2209,24.0945 21.4795,33.3366 9.53387,9.51851 21.0839,16.7953 33.9532,21.0177 30.1855,9.90828 66.1571,3.29173 97.917,-30.4642 11.5807,-12.2705 31.8024,-24.6 51.9284,-36.8705 16.8579,-10.2768 33.6626,-20.5217 48.1453,-32.1803 107.353,15.7536 307.042,13.2567 463.083,11.3067 53.3764,-0.668504 101.6,-1.27087 138.754,-1.05827l-0.0011811 0.124016c1.41496,0.00826772 2.80866,-0.0767717 4.1752,-0.246851 95.0765,-4.10551 149.557,-45.5209 173.524,-98.7391 10.4327,-23.165 14.7673,-48.3815 13.9205,-73.6075 -0.826772,-24.6201 -6.60473,-49.2426 -16.4539,-71.8796 -25.8366,-59.3776 -80.1142,-106.317 -147.765,-106.754l0 -0.00590552 -0.37441 -0.00708662 0 -0.116929c-0.732284,-0.00236221 -1.45866,0.0212599 -2.17795,0.0673229 -25.8331,-0.654331 -80.9564,-4.38307 -141.014,-11.2311 -42.7985,-4.87914 -87.5635,-11.3445 -124.741,-19.389 -30.0319,-6.49843 -46.0004,-25.4173 -53.3138,-51.1737 -9.12757,-32.139 -7.04882,-74.7886 -0.79252,-119.676 2.41536,-17.465 -9.78544,-33.5847 -27.2504,-36 -17.465,-2.41536 -33.5847,9.78544 -36,27.2504 -7.31812,52.5071 -9.39213,103.654 2.54292,145.677 13.7469,48.4099 44.0611,84.0331 101.314,96.4217 39.2563,8.49449 86.2182,15.2858 130.991,20.3906 60.8304,6.93544 118.686,10.7587 146.815,11.4721 1.10906,0.120473 2.23583,0.185433 3.37677,0.190158l0 -0.124016c40.0725,0.155906 73.2756,30.3236 89.8902,68.5087 6.71812,15.4429 10.6536,32.0221 11.2028,48.3804 0.529134,15.7524 -2.09173,31.3063 -8.4189,45.3555 -14.7626,32.7792 -51.3839,58.4032 -117.924,61.2674 -0.38504,-0.0153543 -0.770079,-0.0271654 -1.15748,-0.0295276l0 0.0767717 -1.05354 0.0425197c-37.6996,-0.200788 -85.7162,0.399213 -138.819,1.06299 -159.783,1.99843 -366.066,4.57323 -463.861,-12.3508 -10.5898,-2.82402 -22.3559,-0.132284 -30.7299,8.11418l0.0625985 0.0637796c-11.4839,11.302 -30.3012,22.7752 -49.2,34.2969 -23.7732,14.4945 -47.6587,29.0563 -65.178,47.6209 -12.1028,12.8634 -23.3858,16.1811 -31.6666,13.4634 -3.1689,-1.03937 -6.13583,-2.95276 -8.70355,-5.51693 -2.84292,-2.83819 -5.15788,-6.45119 -6.72993,-10.5862 -4.89449,-12.8752 -2.23583,-30.3827 13.2697,-46.8626l0.284646 -0.302362c38.837,-41.1508 112.755,-119.465 164.535,-126.708 122.1,23.8878 233.275,25.004 348.215,26.1508 45.378,0.452363 91.3654,0.912993 139.902,2.90788zm-492.504 -31.4067l5.96575 -29.9481 -5.99056 29.9528 0.0248032 -0.00472441zm5.96575 -29.9481l2.51575 -12.6272 -3.23977 2.37402 0.724016 10.2532zm-9.51969 30.5528c-9.67914,-3.00355 -17.0776,-10.3228 -20.4614,-19.3595l-8.87363 6.50434c7.01103,9.56221 18.3402,14.0882 29.3351,12.8551zm12.0461 -43.1882l-2.52638 12.6354 1.9063 27.0036c1.32638,-0.707481 2.61732,-1.51654 3.86457,-2.43071 14.2205,-10.4244 17.2996,-30.4051 6.8752,-44.6256l-10.1197 7.41733z"/>
   <path id="_178240536" class="fil0" d="M1016.45 411.766c5.66575,11.7886 10.0984,24.2292 13.1244,37.1481 3.16063,13.4917 4.83426,27.4429 4.83426,41.6587 0,50.38 -20.4236,95.9953 -53.4426,129.014 -33.0189,33.0189 -78.6343,53.4426 -129.014,53.4426 -50.38,0 -95.9942,-20.4236 -129.013,-53.4426 -33.0189,-33.0201 -53.4426,-78.6343 -53.4426,-129.014 0,-14.2146 1.67362,-28.1658 4.83307,-41.6575 3.21733,-13.7362 8.02442,-26.9315 14.2146,-39.378l28.6252 14.1248 -28.6524 -14.25c5.67993,-11.4189 17.2642,-17.9551 29.2205,-17.7508l268.997 0c13.4681,0 24.9945,8.32323 29.7154,20.1047zm-49.1268 51.6473c-0.614174,-2.62205 -1.31221,-5.20748 -2.09173,-7.7504l-226.558 0c-0.779528,2.5441 -1.47874,5.12953 -2.09291,7.75158 -2.01496,8.60552 -3.08268,17.6953 -3.08268,27.1583 0,32.7142 13.2579,62.3292 34.6914,83.7638 21.4335,21.4335 51.0485,34.6914 83.7627,34.6914 32.7142,0 62.3304,-13.2579 83.7638,-34.6914 21.4335,-21.4335 34.6914,-51.0496 34.6914,-83.7638 0,-9.463 -1.06772,-18.5528 -3.08386,-27.1595z"/>
   <path id="_178239288" class="fil0" d="M685.575 255.999l332.749 0c17.6728,0 32.0008,14.328 32.0008,32.0008l0 135.662c0,17.6728 -14.328,32.0008 -32.0008,32.0008l-332.749 0c-17.6728,0 -32.0008,-14.328 -32.0008,-32.0008l0 -135.662c0,-17.6728 14.328,-32.0008 32.0008,-32.0008zm300.748 64.0016l-268.747 0 0 71.6599 268.747 0 0 -71.6599z"/>
   <path id="_178239744" class="fil0" d="M926.294 877.035c-9.95788,-6.80788 -21.6543,-9.33426 -32.7981,-7.87323 -11.9374,1.56496 -23.2807,7.68898 -31.1977,17.9953 -7.98898,10.402 -11.0138,23.0091 -9.44528,34.9736 1.56496,11.9362 7.68898,23.2807 17.9953,31.1965l-19.3748 25.3748 19.4917 -25.3784c1.92756,1.4811 3.64016,3.13937 5.13189,4.93229 63.9189,66.0981 128.926,123.863 195.105,172.63 66.4016,48.9307 133.86,88.7446 202.445,118.755l-12.75 29.25 12.828 -29.3162c2.9811,1.30394 5.66339,3.00945 8.01142,5.02323 10.1091,7.17993 22.0996,9.85985 33.5067,8.36457 11.9374,-1.56496 23.2807,-7.68898 31.1977,-17.9953 7.99016,-10.4032 11.015,-23.0079 9.44646,-34.9725 -1.43268,-10.9287 -6.68977,-21.3614 -15.4772,-29.1201 -74.1851,-32.6469 -146.189,-72.7867 -215.372,-122.594 -69.4997,-50.0351 -135.98,-109.726 -198.744,-181.246zm-41.0492 -71.1237c27.3815,-3.58937 56.0622,2.94449 79.9028,20.3988 2.47677,1.59331 4.77402,3.5563 6.80788,5.88662l-0.0826772 0.0720473c60.2162,69.0154 123.906,126.379 190.415,174.261 65.7674,47.3492 134.482,85.5402 205.465,116.653 3.16299,1.09724 6.20552,2.71181 9.00591,4.8626l-0.0448819 0.0590552c24.2941,18.6898 38.7284,45.463 42.424,73.6394 3.69567,28.1788 -3.32835,57.7323 -21.9473,81.9733 -18.6945,24.3378 -45.4902,38.7969 -73.6961,42.4961 -26.9469,3.53386 -55.1528,-2.7378 -78.769,-19.578 -71.9658,-31.8236 -142.357,-73.4634 -211.273,-124.249 -69.117,-50.9315 -136.879,-111.13 -203.38,-179.907 -23.113,-18.6047 -36.874,-44.687 -40.4693,-72.0981 -3.69567,-28.1776 3.32717,-57.7323 21.9461,-81.9745 18.6945,-24.3378 45.4902,-38.7969 73.6961,-42.4961z"/>
  </g>
 </g>
 <rect class="fil1" width="2048" height="2048"/>
</svg>
