<?xml version="1.0" encoding="UTF-8"?>
<!DOCTYPE svg PUBLIC "-//W3C//DTD SVG 1.1//EN" "http://www.w3.org/Graphics/SVG/1.1/DTD/svg11.dtd">
<!-- Creator: CorelDRAW -->
<svg xmlns="http://www.w3.org/2000/svg" xml:space="preserve" width="2048px" height="2048px" style="shape-rendering:geometricPrecision; text-rendering:geometricPrecision; image-rendering:optimizeQuality; fill-rule:evenodd; clip-rule:evenodd"
viewBox="0 0 2048 2048"
 xmlns:xlink="http://www.w3.org/1999/xlink">
 <defs>
  <style type="text/css">
   <![CDATA[
    .fil1 {fill:none}
    .fil0 {fill:#212121;fill-rule:nonzero}
   ]]>
  </style>
 </defs>
 <g id="Layer_x0020_1">
  <metadata id="CorelCorpID_0Corel-Layer"/>
  <path class="fil0" d="M1229.64 1566.19c17.6043,0.689764 32.4355,-13.0217 33.1252,-30.626 0.689764,-17.6043 -13.0217,-32.4355 -30.626,-33.1252 -47.8949,-1.96772 -95.2099,-2.44252 -141.9,-2.90788 -112.655,-1.12441 -221.573,-2.21457 -340.863,-26.0658l0.0011811 -0.00826772c-0.590552,-0.11811 -1.1811,-0.218504 -1.77047,-0.302362 -17.7862,-26.5288 -31.9063,-55.4374 -41.9552,-86.0115 -11.4626,-34.8839 -17.6622,-71.7556 -17.9941,-109.559 -0.635434,-72.2481 5.91615,-123.45 12.9685,-178.586 8.12953,-63.5445 16.9016,-132.104 16.9016,-240.45l-0.0472441 0c0.486615,-8.93741 1.43386,-17.4673 2.80394,-25.5933 6.10394,-36.202 20.6232,-60.7205 39.9426,-75.4949 25.4776,-19.4823 58.9323,-22.2921 89.6351,-17.1189 52.552,8.86182 90.2375,30.2717 116.34,59.641 30.6768,34.5142 48.8977,113.059 54.5469,163.762 1.93228,17.5347 17.7154,30.1831 35.25,28.2508 17.5347,-1.93228 30.1831,-17.7154 28.2508,-35.25 -1.38543,-10.2921 -5.51575,-52.5496 -7.52008,-62.5725 -10.2756,-51.3721 -29.2571,-98.7072 -62.778,-136.691 -35.3764,-39.8032 -85.2461,-68.615 -153.589,-80.1402 -48.3933,-8.15906 -99.0674,-1.07717 -138.885,29.3693 -31.7185,24.2563 -55.141,62.0611 -64.193,115.745 -3.4252,20.3043 -3.66969,32.8418 -3.82205,51.9307 -0.784253,97.0052 -8.71182,158.969 -16.0866,216.612 -7.33229,57.3189 -14.1413,110.549 -13.4693,187.088 0.394488,44.7839 7.6252,88.1257 20.9941,128.809 9.67205,29.4307 22.5414,57.5693 38.3481,83.9611 -59.6611,30.5941 -118.269,92.6871 -152.76,129.234l-0.284646 0.302362c-34.6784,36.8587 -39.2079,79.7327 -26.5193,113.113 4.83544,12.7181 12.2209,24.0945 21.4795,33.3366 9.53387,9.51851 21.0839,16.7953 33.9532,21.0177 30.1855,9.90828 66.1571,3.29173 97.917,-30.4642 11.5807,-12.2705 31.8024,-24.6 51.9284,-36.8705 16.8579,-10.2768 33.6626,-20.5217 48.1453,-32.1803 107.353,15.7536 307.042,13.2567 463.083,11.3067 53.3764,-0.668504 101.6,-1.27087 138.754,-1.05827l-0.0011811 0.124016c1.41496,0.00826772 2.80866,-0.0767717 4.1752,-0.246851 95.0765,-4.10551 149.557,-45.5209 173.524,-98.7391 10.4327,-23.165 14.7673,-48.3815 13.9205,-73.6075 -0.826772,-24.6201 -6.60473,-49.2426 -16.4539,-71.8796 -22.1882,-50.9918 -64.5402,-98.1119 -119.947,-103.883 -75.58,-7.87205 -191.126,-10.8354 -296.126,-33.554 -30.4961,-6.59882 -46.4941,-22.8248 -53.5642,-45.5363 -8.85709,-28.4504 -6.75237,-67.7304 -0.542126,-112.292 2.41536,-17.465 -9.78544,-33.5847 -27.2504,-36 -17.465,-2.41536 -33.5847,9.78544 -36,27.2504 -7.363,52.8319 -9.41103,100.84 2.79331,140.041 13.9913,44.941 44.2748,76.7481 101.063,89.0363 38.491,8.32796 86.2725,15.6047 134.401,21.1181 50.9433,5.83583 102.276,9.69804 143.402,10.7433 1.11024,0.120473 2.23819,0.186614 3.37914,0.191339l0 -0.124016c40.0725,0.155906 73.2756,30.3236 89.8902,68.5087 6.71812,15.4429 10.6536,32.0221 11.2028,48.3804 0.529134,15.7524 -2.09173,31.3063 -8.4189,45.3555 -14.7626,32.7792 -51.3839,58.4032 -117.924,61.2674 -0.38504,-0.0153543 -0.770079,-0.0271654 -1.15748,-0.0295276l0 0.0767717 -1.05354 0.0425197c-37.6996,-0.200788 -85.7162,0.399213 -138.819,1.06299 -159.783,1.99843 -366.066,4.57323 -463.861,-12.3508 -10.5898,-2.82402 -22.3559,-0.132284 -30.7299,8.11418l0.0625985 0.0637796c-11.4839,11.302 -30.3012,22.7752 -49.2,34.2969 -23.7732,14.4945 -47.6587,29.0563 -65.178,47.6209 -12.1028,12.8634 -23.3858,16.1811 -31.6666,13.4634 -3.1689,-1.03937 -6.13583,-2.95276 -8.70355,-5.51693 -2.84292,-2.83819 -5.15788,-6.45119 -6.72993,-10.5862 -4.89449,-12.8752 -2.23583,-30.3827 13.2697,-46.8626l0.284646 -0.302362c38.837,-41.1508 112.755,-119.465 164.535,-126.708 122.1,23.8878 233.275,25.004 348.215,26.1508 45.378,0.452363 91.3654,0.912993 139.902,2.90788z"/>
  <path class="fil0" d="M1016.45 411.766c5.66575,11.7886 10.0984,24.2292 13.1244,37.1481 3.16063,13.4917 4.83426,27.4429 4.83426,41.6587 0,50.38 -20.4236,95.9953 -53.4426,129.014 -33.0189,33.0189 -78.6343,53.4426 -129.014,53.4426 -50.38,0 -95.9942,-20.4236 -129.013,-53.4426 -33.0189,-33.0201 -53.4426,-78.6343 -53.4426,-129.014 0,-14.2146 1.67362,-28.1658 4.83307,-41.6575 3.21733,-13.7362 8.02442,-26.9315 14.2146,-39.378l28.6252 14.1248 -28.6524 -14.25c5.67993,-11.4189 17.2642,-17.9551 29.2205,-17.7508l268.997 0c13.4681,0 24.9945,8.32323 29.7154,20.1047zm-49.1268 51.6473c-0.614174,-2.62205 -1.31221,-5.20748 -2.09173,-7.7504l-226.558 0c-0.779528,2.5441 -1.47874,5.12953 -2.09291,7.75158 -2.01496,8.60552 -3.08268,17.6953 -3.08268,27.1583 0,32.7142 13.2579,62.3292 34.6914,83.7638 21.4335,21.4335 51.0485,34.6914 83.7627,34.6914 32.7142,0 62.3304,-13.2579 83.7638,-34.6914 21.4335,-21.4335 34.6914,-51.0496 34.6914,-83.7638 0,-9.463 -1.06772,-18.5528 -3.08386,-27.1595z"/>
  <path class="fil0" d="M685.575 255.999l332.749 0c17.6728,0 32.0008,14.328 32.0008,32.0008l0 135.662c0,17.6728 -14.328,32.0008 -32.0008,32.0008l-332.749 0c-17.6728,0 -32.0008,-14.328 -32.0008,-32.0008l0 -135.662c0,-17.6728 14.328,-32.0008 32.0008,-32.0008zm300.748 64.0016l-268.747 0 0 71.6599 268.747 0 0 -71.6599z"/>
  <path class="fil0" d="M927.135 877.621c-10.1362,-7.24961 -22.1811,-9.96142 -33.639,-8.45906 -25.7717,3.3815 -44.0162,27.2362 -40.6441,52.9678 1.56614,11.9362 7.69016,23.2795 17.9953,31.1953l0.11811 -0.00354331c1.95591,1.50354 3.69213,3.18662 5.19922,5.01142 14.576,15.1949 28.102,30.3803 41.9103,45.8811 55.4847,62.2914 115.877,130.09 176.98,130.071 93.0284,-0.0283465 179.84,-103.962 260.68,-159.882l0.490158 -0.419292 -0.0200788 -0.0283465 0.227953 -0.152362c8.30316,-7.2815 11.6551,-14.8406 11.4236,-21.6449 -0.151181,-4.44331 -1.84606,-9.12875 -4.68662,-13.6063 -3.26929,-5.15315 -7.87087,-9.68741 -13.3429,-13.1185 -10.2933,-6.45591 -23.5795,-8.97875 -36.8327,-4.43622 -50.2288,28.8898 -155.88,124.002 -194.43,119.504l-0.0838583 0.034252c-2.8689,-0.334252 -5.60315,-1.04173 -8.16497,-2.06339 -35.817,-11.8819 -80.1745,-56.8796 -134.537,-112.026 -15.4087,-15.6295 -31.6784,-32.1366 -48.6437,-48.8244zm-41.8902 -71.7095c27.3886,-3.59174 56.0752,2.94449 79.9205,20.4095 1.79882,1.15984 3.50788,2.51929 5.09528,4.07717l-0.0425197 0.0850394c17.8984,17.5701 34.9441,34.8638 51.0615,51.2126 46.3276,46.9973 84.4135,85.6335 105.406,94.8497 67.3548,-41.4532 84.1135,-70.4375 154.551,-110.903 1.8815,-1.27441 3.92717,-2.36811 6.1252,-3.24449l0.0968505 0.101575c34.6441,-13.8059 69.6485,-7.82363 96.3674,8.93387 13.6169,8.54056 25.1138,19.8957 33.3437,32.8689 8.65985,13.6512 13.8744,29.3469 14.4378,45.8552 0.863386,25.291 -9.17599,51.1619 -34.4646,72.6296 -1.3878,1.40315 -2.92559,2.69882 -4.60985,3.85985l-0.056693 -0.0826772c-97.3418,67.1256 -176.078,171.437 -297.422,171.473 -89.915,0.0295276 -160.177,-78.8493 -224.73,-151.322 -14.1,-15.828 -27.913,-31.3359 -40.2402,-44.2111l-0.119291 -0.109843c-23.0492,-18.6 -36.7737,-44.6398 -40.3642,-72.013 -7.98898,-60.9107 34.7445,-116.482 95.6434,-124.469z"/>
 </g>
 <rect class="fil1" width="2048" height="2048"/>
</svg>
