<svg width="2048" height="2048" viewBox="0 0 2048 2048" fill="none" xmlns="http://www.w3.org/2000/svg">
<path d="M920.245 634.13H982.79L1012.69 604.233L1024 592.92L1035.31 604.233L1065.21 634.13H1127.76H1143.76V650.131V918.165V934.165H1127.76H1066.98H1060.35L1055.66 929.477L1024 897.813L992.336 929.477L987.648 934.165H981.023H920.245H904.245V918.165V650.131V634.13H920.245V634.13ZM989.415 666.131H936.245V902.164H974.399L1012.69 863.875L1024 852.562L1035.31 863.875L1073.6 902.164H1111.76V666.131H1058.59H1051.96L1047.27 661.443L1024 638.171L1000.73 661.443L996.04 666.131H989.415V666.131ZM1143.76 1125.68V1393.71V1409.71H1127.76H1065.21L1035.31 1439.61L1024 1450.92L1012.69 1439.61L982.791 1409.71H920.245H904.245V1393.71V1125.68V1109.67H920.245H981.024H987.649L992.336 1114.36L1024 1146.03L1055.66 1114.36L1060.35 1109.67H1066.98H1127.76H1143.76V1125.68V1125.68ZM1111.76 1377.71V1141.68H1073.6L1035.31 1179.96L1024 1191.28L1012.69 1179.96L974.399 1141.68H936.246V1377.71H989.415H996.04L1000.73 1382.4L1024 1405.67L1047.27 1382.4L1051.96 1377.71H1058.59H1111.76H1111.76Z" fill="white"/>
<path d="M636.211 1125.67V1063.13L606.314 1033.23L595.001 1021.92L606.314 1010.6L636.211 980.705V918.16V902.159H652.211H920.245H936.246V918.16V978.938V985.563L931.558 990.251L899.894 1021.92L931.558 1053.58L936.246 1058.27V1064.89V1125.67V1141.67H920.245H652.211H636.211V1125.67V1125.67ZM668.212 1056.5V1109.67H904.245V1071.52L865.956 1033.23L854.643 1021.92L865.956 1010.6L904.245 972.313V934.16H668.212V987.33V993.955L663.524 998.643L640.251 1021.92L663.524 1045.19L668.212 1049.88V1056.5V1056.5ZM1127.76 902.159H1395.79H1411.79V918.16V980.705L1441.69 1010.6L1453 1021.91L1441.69 1033.23L1411.79 1063.12V1125.67V1141.67H1395.79H1127.76H1111.76V1125.67V1064.89V1058.27L1116.44 1053.58L1148.11 1021.91L1116.44 990.251L1111.76 985.563V978.938V918.16V902.159H1127.76V902.159ZM1379.79 934.16H1143.76V972.313L1182.04 1010.6L1193.36 1021.91L1182.04 1033.23L1143.76 1071.52V1109.67H1379.79V1056.5V1049.88L1384.48 1045.19L1407.75 1021.91L1384.48 998.642L1379.79 993.954V987.33V934.16V934.16Z" fill="white"/>
<path d="M676.427 821.077L720.648 776.856V734.569V718.568H736.649H778.936L823.158 674.347L834.47 663.035L845.783 674.347L1035.31 863.875L1046.62 875.187L1035.31 886.5L992.335 929.477L987.647 934.164H981.022H936.244V978.942V985.567L931.557 990.255L888.58 1033.23L877.267 1044.54L865.955 1033.23L676.427 843.703L665.115 832.39L676.427 821.078L676.427 821.077ZM747.961 794.793L710.365 832.39L877.268 999.294L904.244 972.318V918.164V902.164H920.244H974.398L1001.37 875.187L834.47 708.284L796.874 745.881L792.186 750.569H785.561H752.65V783.48V790.105L747.962 794.793L747.961 794.793ZM1182.04 1010.61L1371.57 1200.14L1382.89 1211.45L1371.57 1222.76L1327.35 1266.98V1309.27V1325.27H1311.35H1269.06L1224.84 1369.49L1213.53 1380.81L1202.22 1369.49L1012.69 1179.96L1001.37 1168.65L1012.69 1157.34L1055.66 1114.36L1060.35 1109.67H1066.98H1111.75V1064.9V1058.27L1116.44 1053.58L1159.42 1010.61L1170.73 999.295L1182.04 1010.61L1182.04 1010.61ZM1337.64 1211.45L1170.73 1044.55L1143.76 1071.52V1125.68V1141.68H1127.75H1073.6L1046.62 1168.65L1213.53 1335.56L1251.13 1297.96L1255.81 1293.27H1262.44H1295.35V1260.36V1253.73L1300.04 1249.05L1337.64 1211.45L1337.64 1211.45Z" fill="white"/>
<path d="M1337.63 832.39L1300.03 794.793L1295.35 790.105V783.481V750.569H1262.43H1255.81L1251.12 745.881L1213.52 708.285L1046.62 875.188L1073.6 902.164H1127.75H1143.75V918.164V972.318L1170.73 999.294L1337.63 832.39L1337.63 832.39ZM1327.35 776.856L1371.57 821.078L1382.88 832.39L1371.57 843.703L1182.04 1033.23L1170.73 1044.54L1159.41 1033.23L1116.44 990.255L1111.75 985.567V978.942V934.164H1066.97H1060.35L1055.66 929.477L1012.68 886.5L1001.37 875.187L1012.68 863.875L1202.21 674.347L1213.52 663.035L1224.84 674.347L1269.06 718.568H1311.35H1327.35V734.569V776.856L1327.35 776.856ZM877.263 1044.54L710.359 1211.45L747.957 1249.05L752.645 1253.73V1260.36V1293.27H785.555H792.18L796.868 1297.96L834.466 1335.56L1001.37 1168.65L974.394 1141.68H920.24H904.24V1125.67V1071.52L877.263 1044.54L877.263 1044.54ZM676.421 1200.14L865.95 1010.61L877.263 999.294L888.575 1010.61L931.552 1053.58L936.24 1058.27V1064.9V1109.67H981.018H987.643L992.331 1114.36L1035.31 1157.34L1046.62 1168.65L1035.31 1179.96L845.778 1369.49L834.466 1380.81L823.153 1369.49L778.93 1325.27H736.644H720.644V1309.27V1266.98L676.421 1222.76L665.108 1211.45L676.421 1200.14L676.421 1200.14Z" fill="white"/>
<path d="M449.456 349.917H1598.55H1630.55V381.918V1661.92V1693.92H1598.55H449.456H417.455V1661.92V381.918V349.917H449.456V349.917ZM1566.55 413.919H481.456V1629.92H1566.55V413.919Z" fill="white"/>
<path d="M464 1501.92C455.164 1501.92 448 1509.08 448 1517.92C448 1526.76 455.164 1533.92 464 1533.92H1584C1592.84 1533.92 1600 1526.76 1600 1517.92C1600 1509.08 1592.84 1501.92 1584 1501.92H464Z" fill="white"/>
<path d="M464 509.917C455.164 509.917 448 517.082 448 525.917C448 534.753 455.164 541.918 464 541.918H1584C1592.84 541.918 1600 534.753 1600 525.917C1600 517.082 1592.84 509.917 1584 509.917H464V509.917Z" fill="white"/>
<path d="M473.417 1572.95L531.792 1513.53L543.167 1501.95L554.542 1513.53L612.917 1572.95L623.908 1584.14L612.917 1595.33L554.542 1654.75L543.167 1666.32L531.792 1654.75L473.417 1595.33L462.427 1584.14L473.417 1572.95ZM543.167 1547.48L507.158 1584.14L543.167 1620.79L579.177 1584.14L543.167 1547.48Z" fill="white"/>
<path d="M610.798 1572.95L669.173 1513.53L680.549 1501.95L691.923 1513.53L750.297 1572.95L761.287 1584.14L750.297 1595.33L691.923 1654.75L680.549 1666.32L669.173 1654.75L610.798 1595.33L599.808 1584.14L610.798 1572.95ZM680.548 1547.48L644.538 1584.14L680.548 1620.79L716.556 1584.14L680.548 1547.48Z" fill="white"/>
<path d="M748.179 1572.95L806.553 1513.53L817.928 1501.95L829.303 1513.53L887.678 1572.95L898.669 1584.14L887.678 1595.33L829.303 1654.75L817.928 1666.32L806.553 1654.75L748.179 1595.33L737.19 1584.14L748.179 1572.95ZM817.928 1547.48L781.92 1584.14L817.928 1620.79L853.937 1584.14L817.928 1547.48Z" fill="white"/>
<path d="M885.559 1572.95L943.934 1513.53L955.309 1501.95L966.684 1513.53L1025.06 1572.95L1036.05 1584.14L1025.06 1595.33L966.684 1654.75L955.309 1666.32L943.934 1654.75L885.559 1595.33L874.569 1584.14L885.559 1572.95ZM955.309 1547.48L919.3 1584.14L955.309 1620.79L991.319 1584.14L955.309 1547.48Z" fill="white"/>
<path d="M1022.94 1572.95L1081.31 1513.53L1092.69 1501.95L1104.07 1513.53L1162.44 1572.95L1173.43 1584.14L1162.44 1595.33L1104.07 1654.75L1092.69 1666.32L1081.31 1654.75L1022.94 1595.33L1011.95 1584.14L1022.94 1572.95ZM1092.69 1547.48L1056.68 1584.14L1092.69 1620.79L1128.7 1584.14L1092.69 1547.48V1547.48Z" fill="white"/>
<path d="M1160.32 1572.95L1218.69 1513.53L1230.07 1501.95L1241.45 1513.53L1299.82 1572.95L1310.81 1584.14L1299.82 1595.33L1241.45 1654.75L1230.07 1666.32L1218.69 1654.75L1160.32 1595.33L1149.33 1584.14L1160.32 1572.95ZM1230.07 1547.48L1194.06 1584.14L1230.07 1620.79L1266.08 1584.14L1230.07 1547.48Z" fill="white"/>
<path d="M1297.7 1572.95L1356.07 1513.53L1367.45 1501.95L1378.82 1513.53L1437.2 1572.95L1448.19 1584.14L1437.2 1595.33L1378.82 1654.75L1367.45 1666.32L1356.07 1654.75L1297.7 1595.33L1286.71 1584.14L1297.7 1572.95ZM1367.45 1547.48L1331.44 1584.14L1367.45 1620.79L1403.46 1584.14L1367.45 1547.48Z" fill="white"/>
<path d="M1435.08 1572.95L1493.45 1513.53L1504.83 1501.95L1516.21 1513.53L1574.58 1572.95L1585.57 1584.14L1574.58 1595.33L1516.21 1654.75L1504.83 1666.32L1493.45 1654.75L1435.08 1595.33L1424.09 1584.14L1435.08 1572.95ZM1504.83 1547.48L1468.82 1584.14L1504.83 1620.79L1540.84 1584.14L1504.83 1547.48V1547.48Z" fill="white"/>
<path d="M473.417 447.512L531.792 388.09L543.167 376.511L554.542 388.09L612.917 447.512L623.908 458.701L612.917 469.887L554.542 529.308L543.167 540.888L531.792 529.308L473.417 469.887L462.427 458.701L473.417 447.512ZM543.167 422.044L507.158 458.7L543.167 495.354L579.177 458.7L543.167 422.044Z" fill="white"/>
<path d="M610.798 447.512L669.173 388.09L680.549 376.511L691.923 388.09L750.297 447.512L761.287 458.701L750.297 469.887L691.923 529.308L680.549 540.888L669.173 529.308L610.798 469.887L599.808 458.701L610.798 447.512ZM680.548 422.044L644.538 458.7L680.548 495.354L716.556 458.7L680.548 422.044Z" fill="white"/>
<path d="M748.179 447.512L806.553 388.09L817.928 376.511L829.303 388.09L887.678 447.512L898.669 458.701L887.678 469.887L829.303 529.308L817.928 540.888L806.553 529.308L748.179 469.887L737.19 458.701L748.179 447.512ZM817.928 422.044L781.92 458.7L817.928 495.354L853.937 458.7L817.928 422.044Z" fill="white"/>
<path d="M885.559 447.512L943.934 388.09L955.309 376.511L966.684 388.09L1025.06 447.512L1036.05 458.701L1025.06 469.887L966.684 529.308L955.309 540.888L943.934 529.308L885.559 469.887L874.569 458.701L885.559 447.512ZM955.309 422.044L919.3 458.7L955.309 495.354L991.319 458.7L955.309 422.044Z" fill="white"/>
<path d="M1022.94 447.512L1081.31 388.09L1092.69 376.511L1104.07 388.09L1162.44 447.512L1173.43 458.701L1162.44 469.887L1104.07 529.308L1092.69 540.888L1081.31 529.308L1022.94 469.887L1011.95 458.701L1022.94 447.512ZM1092.69 422.044L1056.68 458.7L1092.69 495.354L1128.7 458.7L1092.69 422.044V422.044Z" fill="white"/>
<path d="M1160.32 447.512L1218.69 388.09L1230.07 376.511L1241.45 388.09L1299.82 447.512L1310.81 458.701L1299.82 469.887L1241.45 529.308L1230.07 540.888L1218.69 529.308L1160.32 469.887L1149.33 458.701L1160.32 447.512ZM1230.07 422.044L1194.06 458.7L1230.07 495.354L1266.08 458.7L1230.07 422.044Z" fill="white"/>
<path d="M1297.7 447.512L1356.07 388.09L1367.45 376.511L1378.82 388.09L1437.2 447.512L1448.19 458.701L1437.2 469.887L1378.82 529.308L1367.45 540.888L1356.07 529.308L1297.7 469.887L1286.71 458.701L1297.7 447.512ZM1367.45 422.044L1331.44 458.7L1367.45 495.354L1403.46 458.7L1367.45 422.044Z" fill="white"/>
<path d="M1435.08 447.512L1493.45 388.09L1504.83 376.511L1516.21 388.09L1574.58 447.512L1585.57 458.701L1574.58 469.887L1516.21 529.308L1504.83 540.888L1493.45 529.308L1435.08 469.887L1424.09 458.701L1435.08 447.512ZM1504.83 422.044L1468.82 458.7L1504.83 495.354L1540.84 458.7L1504.83 422.044V422.044Z" fill="white"/>
<path d="M477.641 1679.21V1741.71H445.64V1679.21H477.641Z" fill="white"/>
<path d="M429.544 1735.4L450.264 1714.31L461.639 1702.73L473.014 1714.31L493.735 1735.4L504.727 1746.59L493.735 1757.78L473.014 1778.87L461.639 1790.45L450.264 1778.87L429.544 1757.78L418.555 1746.59L429.544 1735.4Z" fill="white"/>
<path d="M564.158 1679.21V1741.71H532.157V1679.21H564.158Z" fill="white"/>
<path d="M516.061 1735.4L536.781 1714.31L548.156 1702.73L559.531 1714.31L580.252 1735.4L591.244 1746.59L580.252 1757.78L559.531 1778.87L548.156 1790.45L536.781 1778.87L516.061 1757.78L505.072 1746.59L516.061 1735.4Z" fill="white"/>
<path d="M650.675 1679.21V1741.71H618.674V1679.21H650.675Z" fill="white"/>
<path d="M602.578 1735.4L623.298 1714.31L634.673 1702.73L646.048 1714.31L666.769 1735.4L677.761 1746.59L666.769 1757.78L646.048 1778.87L634.673 1790.45L623.298 1778.87L602.578 1757.78L591.589 1746.59L602.578 1735.4Z" fill="white"/>
<path d="M737.192 1679.21V1741.71H705.191V1679.21H737.192Z" fill="white"/>
<path d="M689.095 1735.4L709.815 1714.31L721.19 1702.73L732.565 1714.31L753.286 1735.4L764.278 1746.59L753.286 1757.78L732.565 1778.87L721.19 1790.45L709.815 1778.87L689.095 1757.78L678.106 1746.59L689.095 1735.4Z" fill="white"/>
<path d="M823.709 1679.21V1741.71H791.708V1679.21H823.709Z" fill="white"/>
<path d="M775.612 1735.4L796.332 1714.31L807.707 1702.73L819.082 1714.31L839.803 1735.4L850.795 1746.59L839.803 1757.78L819.082 1778.87L807.707 1790.45L796.332 1778.87L775.612 1757.78L764.623 1746.59L775.612 1735.4Z" fill="white"/>
<path d="M910.226 1679.21V1741.71H878.225V1679.21H910.226Z" fill="white"/>
<path d="M862.129 1735.4L882.849 1714.31L894.224 1702.73L905.599 1714.31L926.32 1735.4L937.312 1746.59L926.32 1757.78L905.599 1778.87L894.224 1790.45L882.849 1778.87L862.129 1757.78L851.14 1746.59L862.129 1735.4Z" fill="white"/>
<path d="M996.742 1679.21V1741.71H964.742V1679.21H996.742Z" fill="white"/>
<path d="M948.646 1735.4L969.366 1714.31L980.741 1702.73L992.116 1714.31L1012.84 1735.4L1023.83 1746.59L1012.84 1757.78L992.116 1778.87L980.741 1790.45L969.366 1778.87L948.646 1757.78L937.657 1746.59L948.646 1735.4Z" fill="white"/>
<path d="M1083.26 1679.21V1741.71H1051.26V1679.21H1083.26Z" fill="white"/>
<path d="M1035.16 1735.4L1055.88 1714.31L1067.26 1702.73L1078.63 1714.31L1099.35 1735.4L1110.34 1746.59L1099.35 1757.78L1078.63 1778.87L1067.26 1790.45L1055.88 1778.87L1035.16 1757.78L1024.17 1746.59L1035.16 1735.4Z" fill="white"/>
<path d="M1169.78 1679.21V1741.71H1137.78V1679.21H1169.78Z" fill="white"/>
<path d="M1121.68 1735.4L1142.4 1714.31L1153.77 1702.73L1165.15 1714.31L1185.87 1735.4L1196.86 1746.59L1185.87 1757.78L1165.15 1778.87L1153.77 1790.45L1142.4 1778.87L1121.68 1757.78L1110.69 1746.59L1121.68 1735.4Z" fill="white"/>
<path d="M1256.29 1679.21V1741.71H1224.29V1679.21H1256.29Z" fill="white"/>
<path d="M1208.2 1735.4L1228.92 1714.31L1240.29 1702.73L1251.67 1714.31L1272.39 1735.4L1283.38 1746.59L1272.39 1757.78L1251.67 1778.87L1240.29 1790.45L1228.92 1778.87L1208.2 1757.78L1197.21 1746.59L1208.2 1735.4Z" fill="white"/>
<path d="M1342.81 1679.21V1741.71H1310.81V1679.21H1342.81Z" fill="white"/>
<path d="M1294.71 1735.4L1315.43 1714.31L1326.81 1702.73L1338.18 1714.31L1358.91 1735.4L1369.9 1746.59L1358.91 1757.78L1338.18 1778.87L1326.81 1790.45L1315.43 1778.87L1294.71 1757.78L1283.72 1746.59L1294.71 1735.4Z" fill="white"/>
<path d="M1429.33 1679.21V1741.71H1397.33V1679.21H1429.33Z" fill="white"/>
<path d="M1381.23 1735.4L1401.95 1714.31L1413.32 1702.73L1424.7 1714.31L1445.42 1735.4L1456.41 1746.59L1445.42 1757.78L1424.7 1778.87L1413.32 1790.45L1401.95 1778.87L1381.23 1757.78L1370.24 1746.59L1381.23 1735.4Z" fill="white"/>
<path d="M1515.84 1679.21V1741.71H1483.84V1679.21H1515.84Z" fill="white"/>
<path d="M1467.75 1735.4L1488.47 1714.31L1499.84 1702.73L1511.22 1714.31L1531.94 1735.4L1542.93 1746.59L1531.94 1757.78L1511.22 1778.87L1499.84 1790.45L1488.47 1778.87L1467.75 1757.78L1456.76 1746.59L1467.75 1735.4Z" fill="white"/>
<path d="M1602.36 1679.21V1741.71H1570.36V1679.21H1602.36Z" fill="white"/>
<path d="M1554.27 1735.4L1574.99 1714.31L1586.36 1702.73L1597.74 1714.31L1618.46 1735.4L1629.45 1746.59L1618.46 1757.78L1597.74 1778.87L1586.36 1790.45L1574.99 1778.87L1554.27 1757.78L1543.28 1746.59L1554.27 1735.4Z" fill="white"/>
<path d="M445.64 368.792V306.292H477.641V368.792H445.64Z" fill="white"/>
<path d="M450.264 333.692L429.544 312.6L418.555 301.413L429.544 290.225L450.264 269.133L461.639 257.555L473.014 269.133L493.735 290.225L504.727 301.413L493.735 312.6L473.014 333.692L461.639 345.272L450.264 333.692Z" fill="white"/>
<path d="M532.157 368.792V306.292H564.158V368.792H532.157Z" fill="white"/>
<path d="M536.781 333.692L516.061 312.6L505.072 301.413L516.061 290.225L536.781 269.133L548.156 257.555L559.531 269.133L580.252 290.225L591.244 301.413L580.252 312.6L559.531 333.692L548.156 345.272L536.781 333.692Z" fill="white"/>
<path d="M618.674 368.792V306.292H650.675V368.792H618.674Z" fill="white"/>
<path d="M623.298 333.692L602.578 312.6L591.589 301.413L602.578 290.225L623.298 269.133L634.673 257.555L646.048 269.133L666.769 290.225L677.761 301.413L666.769 312.6L646.048 333.692L634.673 345.272L623.298 333.692Z" fill="white"/>
<path d="M705.191 368.792V306.292H737.192V368.792H705.191Z" fill="white"/>
<path d="M709.815 333.692L689.095 312.6L678.106 301.413L689.095 290.225L709.815 269.133L721.19 257.555L732.565 269.133L753.286 290.225L764.278 301.413L753.286 312.6L732.565 333.692L721.19 345.272L709.815 333.692Z" fill="white"/>
<path d="M791.708 368.792V306.292H823.709V368.792H791.708Z" fill="white"/>
<path d="M796.332 333.692L775.612 312.6L764.623 301.413L775.612 290.225L796.332 269.133L807.707 257.555L819.082 269.133L839.803 290.225L850.795 301.413L839.803 312.6L819.082 333.692L807.707 345.272L796.332 333.692Z" fill="white"/>
<path d="M878.225 368.792V306.292H910.226V368.792H878.225Z" fill="white"/>
<path d="M882.849 333.692L862.129 312.6L851.14 301.413L862.129 290.225L882.849 269.133L894.224 257.555L905.599 269.133L926.32 290.225L937.312 301.413L926.32 312.6L905.599 333.692L894.224 345.272L882.849 333.692Z" fill="white"/>
<path d="M964.742 368.792V306.292H996.742V368.792H964.742Z" fill="white"/>
<path d="M969.366 333.692L948.646 312.6L937.657 301.413L948.646 290.225L969.366 269.133L980.741 257.555L992.116 269.133L1012.84 290.225L1023.83 301.413L1012.84 312.6L992.116 333.692L980.741 345.272L969.366 333.692Z" fill="white"/>
<path d="M1051.26 368.792V306.292H1083.26V368.792H1051.26Z" fill="white"/>
<path d="M1055.88 333.692L1035.16 312.6L1024.17 301.413L1035.16 290.225L1055.88 269.133L1067.26 257.555L1078.63 269.133L1099.35 290.225L1110.34 301.413L1099.35 312.6L1078.63 333.692L1067.26 345.272L1055.88 333.692Z" fill="white"/>
<path d="M1137.78 368.792V306.292H1169.78V368.792H1137.78Z" fill="white"/>
<path d="M1142.4 333.692L1121.68 312.6L1110.69 301.413L1121.68 290.225L1142.4 269.133L1153.77 257.555L1165.15 269.133L1185.87 290.225L1196.86 301.413L1185.87 312.6L1165.15 333.692L1153.77 345.272L1142.4 333.692Z" fill="white"/>
<path d="M1224.29 368.792V306.292H1256.29V368.792H1224.29Z" fill="white"/>
<path d="M1228.92 333.692L1208.2 312.6L1197.21 301.413L1208.2 290.225L1228.92 269.133L1240.29 257.555L1251.67 269.133L1272.39 290.225L1283.38 301.413L1272.39 312.6L1251.67 333.692L1240.29 345.272L1228.92 333.692Z" fill="white"/>
<path d="M1310.81 368.792V306.292H1342.81V368.792H1310.81Z" fill="white"/>
<path d="M1315.43 333.692L1294.71 312.6L1283.72 301.413L1294.71 290.225L1315.43 269.133L1326.81 257.555L1338.18 269.133L1358.91 290.225L1369.9 301.413L1358.91 312.6L1338.18 333.692L1326.81 345.272L1315.43 333.692Z" fill="white"/>
<path d="M1397.33 368.792V306.292H1429.33V368.792H1397.33Z" fill="white"/>
<path d="M1401.95 333.692L1381.23 312.6L1370.24 301.413L1381.23 290.225L1401.95 269.133L1413.32 257.555L1424.7 269.133L1445.42 290.225L1456.41 301.413L1445.42 312.6L1424.7 333.692L1413.32 345.272L1401.95 333.692Z" fill="white"/>
<path d="M1483.84 368.792V306.292H1515.84V368.792H1483.84Z" fill="white"/>
<path d="M1488.47 333.692L1467.75 312.6L1456.76 301.413L1467.75 290.225L1488.47 269.133L1499.84 257.555L1511.22 269.133L1531.94 290.225L1542.93 301.413L1531.94 312.6L1511.22 333.692L1499.84 345.272L1488.47 333.692Z" fill="white"/>
<path d="M1570.36 368.792V306.292H1602.36V368.792H1570.36Z" fill="white"/>
<path d="M1574.99 333.692L1554.27 312.6L1543.28 301.413L1554.27 290.225L1574.99 269.133L1586.36 257.555L1597.74 269.133L1618.46 290.225L1629.45 301.413L1618.46 312.6L1597.74 333.692L1586.36 345.272L1574.99 333.692Z" fill="white"/>
<path d="M545.621 677.628L559.486 663.763L564.175 659.075H570.798H597.197V632.675V626.051L601.885 621.363L615.749 607.499H545.621V677.628H545.621ZM577.423 691.076L513.996 748.284L513.62 575.498C573.414 575.498 633.207 575.498 693 575.498L629.198 639.3V675.076V691.076H613.198H577.423V691.076Z" fill="white"/>
<path d="M1472.38 691.077H1436.61H1420.61V675.077V639.301L1384.12 602.812L1356.8 575.499H1395.43H1520.18H1536.18V591.499L1535.89 749.066L1472.38 691.077V691.077ZM1490.32 663.764L1504.18 677.629V607.5H1434.05L1447.92 621.364L1452.61 626.051V632.676V659.076H1479H1485.63L1490.32 663.764V663.764Z" fill="white"/>
<path d="M577.424 1354.8H613.198H629.199V1370.8V1406.58L665.688 1443.07L693.001 1470.38C633.207 1470.38 573.414 1470.38 513.621 1470.38L513.995 1291.81L577.424 1354.8V1354.8ZM559.486 1382.11L545.621 1368.25V1438.38H615.749L601.886 1424.51L597.198 1419.83V1413.2V1386.8H570.799H564.175L559.486 1382.11V1382.11Z" fill="white"/>
<path d="M1504.18 1368.25L1490.31 1382.11L1485.63 1386.8H1479H1452.6V1413.2V1419.83L1447.92 1424.52L1434.05 1438.38H1504.18V1368.25H1504.18ZM1472.38 1354.8L1536.12 1296.19L1536.18 1454.38V1470.38H1520.18H1395.43H1356.8L1384.11 1443.07L1420.6 1406.58V1370.8V1354.8H1436.6H1472.38V1354.8Z" fill="white"/>
</svg>
