<svg width="2048" height="2048" viewBox="0 0 2048 2048" fill="none" xmlns="http://www.w3.org/2000/svg">
<path d="M370.716 1072H571.762C589.435 1072 603.763 1086.33 603.763 1104V1776C603.763 1793.68 589.435 1808 571.762 1808H370.716C353.043 1808 338.715 1793.68 338.715 1776V1104C338.715 1086.33 353.043 1072 370.716 1072ZM539.761 1136H402.716V1744H539.761V1136Z" fill="white"/>
<path d="M420.083 975.999H522.396V625.286H420.083V975.999V975.999ZM554.397 1040H388.082C370.409 1040 356.081 1025.67 356.081 1008V593.285C356.081 575.612 370.409 561.284 388.082 561.284H554.397C572.07 561.284 586.398 575.612 586.398 593.285V1008C586.398 1025.67 572.07 1040 554.397 1040V1040Z" fill="white"/>
<path d="M497.379 262.844L584.12 485.716L584.218 485.678C590.628 502.147 582.473 520.697 566.003 527.107C561.979 528.673 557.831 529.367 553.767 529.286H388.082C370.409 529.286 356.081 514.958 356.081 497.285C356.081 492.675 357.058 488.293 358.813 484.333L436.591 261.5L466.717 272L436.504 261.454C442.328 244.768 460.577 235.963 477.263 241.787C487.336 245.303 494.536 253.349 497.379 262.844L497.379 262.844ZM507.716 465.284L468.349 364.132L433.042 465.284H507.716V465.284Z" fill="white"/>
<path d="M338.678 1072H603.8L614.465 1040H328.012L338.678 1072H338.678ZM626.717 1136H316.434C302.782 1136.29 289.947 1127.75 285.403 1114.12L315.761 1104L285.51 1114L254.504 1020.98C252.741 1017.01 251.76 1012.62 251.76 1008C251.76 990.328 266.088 976 283.761 976H658.14C661.679 975.936 665.288 976.46 668.836 977.643C685.602 983.23 694.662 1001.35 689.074 1018.12L688.942 1018.08L657.91 1111.17C654.654 1125.39 641.924 1136 626.717 1136L626.717 1136Z" fill="white"/>
<path d="M363.351 561.284H579.129L588.186 529.286H354.294L363.35 561.284H363.351ZM603.263 625.286H339.767C325.595 625.537 312.469 616.281 308.428 602L339.218 593.285L308.468 601.91L281.894 508.024C280.698 504.667 280.045 501.052 280.045 497.285C280.045 479.612 294.373 465.284 312.045 465.284H629.866C632.93 465.231 636.052 465.617 639.151 466.494C656.155 471.307 666.039 488.996 661.226 506L661.166 505.982L634.564 599.965C631.49 614.431 618.645 625.285 603.263 625.285L603.263 625.286Z" fill="white"/>
<path d="M571.522 1232H1764.24C1781.91 1232 1796.24 1246.33 1796.24 1264V1776C1796.24 1793.67 1781.91 1808 1764.24 1808H571.522C553.849 1808 539.521 1793.67 539.521 1776V1264C539.521 1246.33 553.849 1232 571.522 1232V1232ZM1732.24 1296H603.522V1744H1732.24V1296Z" fill="white"/>
<path d="M800.001 1232H1664.24V1152H800.001V1232ZM1696.24 1296H768C750.327 1296 735.999 1281.67 735.999 1264V1120C735.999 1102.33 750.327 1088 768 1088H1696.24C1713.91 1088 1728.24 1102.33 1728.24 1120V1264C1728.24 1281.67 1713.91 1296 1696.24 1296Z" fill="white"/>
<path d="M1261.12 653.253C1268.44 637.237 1261.39 618.321 1245.37 611.004C1229.35 603.687 1210.44 610.738 1203.12 626.754C1163.22 713.908 1082.04 749.298 1006.6 782.186C876.986 838.691 761.571 889.007 821.256 1127.75C825.536 1144.87 842.886 1155.28 860.007 1151C877.127 1146.72 887.537 1129.37 883.257 1112.25C836.667 925.887 928.721 885.755 1032.1 840.686C1118.29 803.115 1211.02 762.687 1261.12 653.253H1261.12Z" fill="white"/>
<path d="M1261.12 626.754C1253.8 610.738 1234.89 603.687 1218.87 611.004C1202.86 618.321 1195.8 637.237 1203.12 653.253C1253.22 762.687 1345.95 803.115 1432.14 840.686C1535.52 885.755 1627.57 925.887 1580.98 1112.25C1576.7 1129.37 1587.11 1146.72 1604.23 1151C1621.35 1155.28 1638.7 1144.87 1642.98 1127.75C1702.67 889.008 1587.25 838.692 1457.64 782.186C1382.2 749.298 1301.02 713.909 1261.12 626.754H1261.12Z" fill="white"/>
<path d="M751.883 1376V1664H687.882V1376H751.883Z" fill="white"/>
<path d="M879.882 1376V1664H815.88V1376H879.882Z" fill="white"/>
<path d="M1007.88 1376V1664H943.88V1376H1007.88Z" fill="white"/>
<path d="M1135.88 1376V1664H1071.88V1376H1135.88Z" fill="white"/>
<path d="M1263.88 1376V1664H1199.88V1376H1263.88Z" fill="white"/>
<path d="M1391.88 1376V1664H1327.88V1376H1391.88Z" fill="white"/>
<path d="M1519.88 1376V1664H1455.88V1376H1519.88Z" fill="white"/>
<path d="M1647.88 1376V1664H1583.88V1376H1647.88Z" fill="white"/>
</svg>
